<?xml version="1.0" encoding="UTF-8" standalone="no"?>
<!DOCTYPE svg PUBLIC "-//W3C//DTD SVG 1.1//EN"
 "http://www.w3.org/Graphics/SVG/1.1/DTD/svg11.dtd">
<!-- Generated by graphviz version 7.0.4 (20221203.1631)
 -->
<!-- Title: ce103_hw3_library_lib.PasswordContent.password Pages: 1 -->
<svg width="1087pt" height="479pt"
 viewBox="0.00 0.00 1087.00 479.00" xmlns="http://www.w3.org/2000/svg" xmlns:xlink="http://www.w3.org/1999/xlink">
<g id="graph0" class="graph" transform="scale(1 1) rotate(0) translate(4 475)">
<title>ce103_hw3_library_lib.PasswordContent.password</title>
<!-- Node1 -->
<g id="node1" class="node">
<title>Node1</title>
<g id="a_node1"><a xlink:title=" ">
<polygon fill="#999999" stroke="#666666" points="158,-118 0,-118 0,-88 158,-88 158,-118"/>
<text text-anchor="start" x="8" y="-106" font-family="Helvetica,sans-Serif" font-size="10.00">ce103_hw3_library_lib.Password</text>
<text text-anchor="middle" x="79" y="-95" font-family="Helvetica,sans-Serif" font-size="10.00">Content.password</text>
</a>
</g>
</g>
<!-- Node1&#45;&gt;Node1 -->
<g id="edge1" class="edge">
<title>Node1&#45;&gt;Node1</title>
<path fill="none" stroke="#63b8ff" d="M46.13,-118.28C38.82,-127.41 49.78,-136 79,-136 94.98,-136 105.5,-133.43 110.55,-129.61"/>
<polygon fill="#63b8ff" stroke="#63b8ff" points="114.02,-130.12 111.7,-119.78 107.06,-129.31 114.02,-130.12"/>
</g>
<!-- Node2 -->
<g id="node2" class="node">
<title>Node2</title>
<g id="a_node2"><a xlink:href="$classce103__hw3__library__lib_1_1library.html#a261e9b866de5ed430c5888e32120a346" xlink:title=" ">
<polygon fill="white" stroke="#666666" points="338,-118 194,-118 194,-88 338,-88 338,-118"/>
<text text-anchor="start" x="202" y="-106" font-family="Helvetica,sans-Serif" font-size="10.00">ce103_hw3_library_lib.library.</text>
<text text-anchor="middle" x="266" y="-95" font-family="Helvetica,sans-Serif" font-size="10.00">Start</text>
</a>
</g>
</g>
<!-- Node1&#45;&gt;Node2 -->
<g id="edge2" class="edge">
<title>Node1&#45;&gt;Node2</title>
<path fill="none" stroke="#63b8ff" d="M158.46,-103C166.33,-103 174.34,-103 182.26,-103"/>
<polygon fill="#63b8ff" stroke="#63b8ff" points="182.25,-106.5 192.25,-103 182.25,-99.5 182.25,-106.5"/>
</g>
<!-- Node3 -->
<g id="node3" class="node">
<title>Node3</title>
<g id="a_node3"><a xlink:href="$classce103__hw3__library__lib_1_1library.html#a80f197f4303dd78438ec6055614382da" xlink:title=" ">
<polygon fill="white" stroke="#666666" points="518,-235 374,-235 374,-205 518,-205 518,-235"/>
<text text-anchor="start" x="382" y="-223" font-family="Helvetica,sans-Serif" font-size="10.00">ce103_hw3_library_lib.library.</text>
<text text-anchor="middle" x="446" y="-212" font-family="Helvetica,sans-Serif" font-size="10.00">RunMainMenu</text>
</a>
</g>
</g>
<!-- Node2&#45;&gt;Node3 -->
<g id="edge3" class="edge">
<title>Node2&#45;&gt;Node3</title>
<path fill="none" stroke="#63b8ff" d="M290.27,-118.3C321.37,-138.74 376.65,-175.07 412.03,-198.33"/>
<polygon fill="#63b8ff" stroke="#63b8ff" points="409.9,-201.11 420.18,-203.68 413.74,-195.27 409.9,-201.11"/>
</g>
<!-- Node4 -->
<g id="node4" class="node">
<title>Node4</title>
<g id="a_node4"><a xlink:href="$classce103__hw3__library__lib_1_1library.html#a966e08d69fdd5e4d3bf6a12af39bfe14" xlink:title=" ">
<polygon fill="white" stroke="#666666" points="698,-235 554,-235 554,-205 698,-205 698,-235"/>
<text text-anchor="start" x="562" y="-223" font-family="Helvetica,sans-Serif" font-size="10.00">ce103_hw3_library_lib.library.</text>
<text text-anchor="middle" x="626" y="-212" font-family="Helvetica,sans-Serif" font-size="10.00">BookOption</text>
</a>
</g>
</g>
<!-- Node3&#45;&gt;Node4 -->
<g id="edge4" class="edge">
<title>Node3&#45;&gt;Node4</title>
<path fill="none" stroke="#63b8ff" d="M518.37,-213.37C526.26,-213.26 534.34,-213.23 542.36,-213.27"/>
<polygon fill="#63b8ff" stroke="#63b8ff" points="542.06,-216.76 552.1,-213.35 542.13,-209.76 542.06,-216.76"/>
</g>
<!-- Node17 -->
<g id="node17" class="node">
<title>Node17</title>
<g id="a_node17"><a xlink:href="$classce103__hw3__library__lib_1_1_menu.html#a83866faf86a98cdc36d517e8ed443534" xlink:title=" ">
<polygon fill="white" stroke="#666666" points="897,-26.5 738,-26.5 738,-7.5 897,-7.5 897,-26.5"/>
<text text-anchor="middle" x="817.5" y="-14.5" font-family="Helvetica,sans-Serif" font-size="10.00">ce103_hw3_library_lib.Menu.Run</text>
</a>
</g>
</g>
<!-- Node3&#45;&gt;Node17 -->
<g id="edge38" class="edge">
<title>Node3&#45;&gt;Node17</title>
<path fill="none" stroke="#63b8ff" d="M453.25,-204.88C466.73,-174.26 501.63,-104.97 554,-71 605.11,-37.85 672.61,-24.48 726.36,-19.33"/>
<polygon fill="#63b8ff" stroke="#63b8ff" points="726.44,-22.84 736.1,-18.49 725.84,-15.87 726.44,-22.84"/>
</g>
<!-- Node20 -->
<g id="node20" class="node">
<title>Node20</title>
<g id="a_node20"><a xlink:href="$classce103__hw3__library__lib_1_1library.html#a754cac172f3b071c7eea3f07777aac68" xlink:title=" ">
<polygon fill="white" stroke="#666666" points="698,-397 554,-397 554,-367 698,-367 698,-397"/>
<text text-anchor="start" x="562" y="-385" font-family="Helvetica,sans-Serif" font-size="10.00">ce103_hw3_library_lib.library.</text>
<text text-anchor="middle" x="626" y="-374" font-family="Helvetica,sans-Serif" font-size="10.00">ExitApp</text>
</a>
</g>
</g>
<!-- Node3&#45;&gt;Node20 -->
<g id="edge37" class="edge">
<title>Node3&#45;&gt;Node20</title>
<path fill="none" stroke="#63b8ff" d="M455.67,-235.25C471.78,-262.39 508.85,-319.35 554,-353 558.25,-356.17 562.89,-359.05 567.7,-361.66"/>
<polygon fill="#63b8ff" stroke="#63b8ff" points="565.87,-364.66 576.38,-365.96 568.98,-358.39 565.87,-364.66"/>
</g>
<!-- Node4&#45;&gt;Node3 -->
<g id="edge33" class="edge">
<title>Node4&#45;&gt;Node3</title>
<path fill="none" stroke="#63b8ff" d="M553.61,-226.63C545.72,-226.74 537.64,-226.77 529.63,-226.73"/>
<polygon fill="#63b8ff" stroke="#63b8ff" points="529.92,-223.24 519.89,-226.64 529.85,-230.24 529.92,-223.24"/>
</g>
<!-- Node5 -->
<g id="node5" class="node">
<title>Node5</title>
<g id="a_node5"><a xlink:href="$classce103__hw3__library__lib_1_1_book_functions.html#aeb0f4b25699b7ca705f259d228730ef5" xlink:title=" ">
<polygon fill="white" stroke="#666666" points="886,-471 749,-471 749,-441 886,-441 886,-471"/>
<text text-anchor="start" x="757" y="-459" font-family="Helvetica,sans-Serif" font-size="10.00">ce103_hw3_library_lib.Book</text>
<text text-anchor="middle" x="817.5" y="-448" font-family="Helvetica,sans-Serif" font-size="10.00">Functions.AddBook</text>
</a>
</g>
</g>
<!-- Node4&#45;&gt;Node5 -->
<g id="edge5" class="edge">
<title>Node4&#45;&gt;Node5</title>
<path fill="none" stroke="#63b8ff" d="M634.87,-235.26C659.25,-282.49 732,-423.23 734,-425 738.51,-428.99 743.59,-432.49 748.95,-435.55"/>
<polygon fill="#63b8ff" stroke="#63b8ff" points="746.99,-438.48 757.49,-439.91 750.17,-432.25 746.99,-438.48"/>
</g>
<!-- Node7 -->
<g id="node7" class="node">
<title>Node7</title>
<g id="a_node7"><a xlink:href="$classce103__hw3__library__lib_1_1library.html#a84facf753a1182bffc9b0309adc8dadb" xlink:title=" ">
<polygon fill="white" stroke="#666666" points="901,-415.5 734,-415.5 734,-396.5 901,-396.5 901,-415.5"/>
<text text-anchor="middle" x="817.5" y="-403.5" font-family="Helvetica,sans-Serif" font-size="10.00">ce103_hw3_library_lib.library.Back</text>
</a>
</g>
</g>
<!-- Node4&#45;&gt;Node7 -->
<g id="edge8" class="edge">
<title>Node4&#45;&gt;Node7</title>
<path fill="none" stroke="#63b8ff" d="M633.9,-235.23C648.32,-265.51 684.48,-333.72 734,-373 743.99,-380.93 756.14,-387.17 768,-392"/>
<polygon fill="#63b8ff" stroke="#63b8ff" points="766.74,-395.27 777.33,-395.51 769.2,-388.72 766.74,-395.27"/>
</g>
<!-- Node8 -->
<g id="node8" class="node">
<title>Node8</title>
<g id="a_node8"><a xlink:href="$classce103__hw3__library__lib_1_1_book_functions.html#a4d2ef5095cd896dba0b81ac4a8ca3f11" xlink:title=" ">
<polygon fill="white" stroke="#666666" points="886,-172 749,-172 749,-142 886,-142 886,-172"/>
<text text-anchor="start" x="757" y="-160" font-family="Helvetica,sans-Serif" font-size="10.00">ce103_hw3_library_lib.Book</text>
<text text-anchor="middle" x="817.5" y="-149" font-family="Helvetica,sans-Serif" font-size="10.00">Functions.BorrowBook</text>
</a>
</g>
</g>
<!-- Node4&#45;&gt;Node8 -->
<g id="edge10" class="edge">
<title>Node4&#45;&gt;Node8</title>
<path fill="none" stroke="#63b8ff" d="M667.43,-204.55C687.36,-197.11 711.83,-188.26 734,-181 739.44,-179.22 745.11,-177.43 750.81,-175.68"/>
<polygon fill="#63b8ff" stroke="#63b8ff" points="751.75,-179.05 760.31,-172.81 749.73,-172.35 751.75,-179.05"/>
</g>
<!-- Node11 -->
<g id="node11" class="node">
<title>Node11</title>
<g id="a_node11"><a xlink:href="$classce103__hw3__library__lib_1_1_book_functions.html#a859f030ca58df3aef0ca202c2df131ab" xlink:title=" ">
<polygon fill="white" stroke="#666666" points="886,-76 749,-76 749,-46 886,-46 886,-76"/>
<text text-anchor="start" x="757" y="-64" font-family="Helvetica,sans-Serif" font-size="10.00">ce103_hw3_library_lib.Book</text>
<text text-anchor="middle" x="817.5" y="-53" font-family="Helvetica,sans-Serif" font-size="10.00">Functions.DeleteBook</text>
</a>
</g>
</g>
<!-- Node4&#45;&gt;Node11 -->
<g id="edge14" class="edge">
<title>Node4&#45;&gt;Node11</title>
<path fill="none" stroke="#63b8ff" d="M634.78,-204.91C649.99,-176.95 686.35,-117.03 734,-85 735.86,-83.75 737.78,-82.57 739.75,-81.44"/>
<polygon fill="#63b8ff" stroke="#63b8ff" points="741.26,-84.6 748.64,-76.99 738.13,-78.34 741.26,-84.6"/>
</g>
<!-- Node13 -->
<g id="node13" class="node">
<title>Node13</title>
<g id="a_node13"><a xlink:href="$classce103__hw3__library__lib_1_1_book_functions.html#ac536d1aa3a17ba7ce32e8d9ea0cd4950" xlink:title=" ">
<polygon fill="white" stroke="#666666" points="886,-124 749,-124 749,-94 886,-94 886,-124"/>
<text text-anchor="start" x="757" y="-112" font-family="Helvetica,sans-Serif" font-size="10.00">ce103_hw3_library_lib.Book</text>
<text text-anchor="middle" x="817.5" y="-101" font-family="Helvetica,sans-Serif" font-size="10.00">Functions.EditBook</text>
</a>
</g>
</g>
<!-- Node4&#45;&gt;Node13 -->
<g id="edge17" class="edge">
<title>Node4&#45;&gt;Node13</title>
<path fill="none" stroke="#63b8ff" d="M641.88,-204.56C661.35,-185.2 697.32,-152.23 734,-133 737.01,-131.42 740.13,-129.94 743.33,-128.54"/>
<polygon fill="#63b8ff" stroke="#63b8ff" points="744.36,-131.9 752.33,-124.92 741.75,-125.4 744.36,-131.9"/>
</g>
<!-- Node14 -->
<g id="node14" class="node">
<title>Node14</title>
<g id="a_node14"><a xlink:href="$classce103__hw3__library__lib_1_1_book_functions.html#ae4b718abfd1ef505ca816bada5a5053f" xlink:title=" ">
<polygon fill="white" stroke="#666666" points="886,-364 749,-364 749,-334 886,-334 886,-364"/>
<text text-anchor="start" x="757" y="-352" font-family="Helvetica,sans-Serif" font-size="10.00">ce103_hw3_library_lib.Book</text>
<text text-anchor="middle" x="817.5" y="-341" font-family="Helvetica,sans-Serif" font-size="10.00">Functions.ListBook</text>
</a>
</g>
</g>
<!-- Node4&#45;&gt;Node14 -->
<g id="edge20" class="edge">
<title>Node4&#45;&gt;Node14</title>
<path fill="none" stroke="#63b8ff" d="M638.41,-235.25C656.28,-258.1 693.12,-301.07 734,-325 736.34,-326.37 738.75,-327.66 741.23,-328.88"/>
<polygon fill="#63b8ff" stroke="#63b8ff" points="739.75,-332.06 750.31,-332.92 742.6,-325.66 739.75,-332.06"/>
</g>
<!-- Node15 -->
<g id="node15" class="node">
<title>Node15</title>
<g id="a_node15"><a xlink:href="$classce103__hw3__library__lib_1_1_book_functions.html#abc272bb655ce11abfa5cb33d995132b7" xlink:title=" ">
<polygon fill="white" stroke="#666666" points="886,-316 749,-316 749,-286 886,-286 886,-316"/>
<text text-anchor="start" x="757" y="-304" font-family="Helvetica,sans-Serif" font-size="10.00">ce103_hw3_library_lib.Book</text>
<text text-anchor="middle" x="817.5" y="-293" font-family="Helvetica,sans-Serif" font-size="10.00">Functions.ListBorrowBook</text>
</a>
</g>
</g>
<!-- Node4&#45;&gt;Node15 -->
<g id="edge23" class="edge">
<title>Node4&#45;&gt;Node15</title>
<path fill="none" stroke="#63b8ff" d="M652.23,-235.36C673.47,-247.81 704.95,-265.18 734,-277 738.27,-278.74 742.72,-280.41 747.24,-282"/>
<polygon fill="#63b8ff" stroke="#63b8ff" points="745.81,-285.21 756.41,-285.08 748.04,-278.58 745.81,-285.21"/>
</g>
<!-- Node16 -->
<g id="node16" class="node">
<title>Node16</title>
<g id="a_node16"><a xlink:href="$classce103__hw3__library__lib_1_1_book_functions.html#af9a659e47a42e3f7ec1a29e280282a51" xlink:title=" ">
<polygon fill="white" stroke="#666666" points="886,-220 749,-220 749,-190 886,-190 886,-220"/>
<text text-anchor="start" x="757" y="-208" font-family="Helvetica,sans-Serif" font-size="10.00">ce103_hw3_library_lib.Book</text>
<text text-anchor="middle" x="817.5" y="-197" font-family="Helvetica,sans-Serif" font-size="10.00">Functions.ReturnBook</text>
</a>
</g>
</g>
<!-- Node4&#45;&gt;Node16 -->
<g id="edge26" class="edge">
<title>Node4&#45;&gt;Node16</title>
<path fill="none" stroke="#63b8ff" d="M698.37,-214.35C711.11,-213.34 724.45,-212.29 737.39,-211.26"/>
<polygon fill="#63b8ff" stroke="#63b8ff" points="737.44,-214.77 747.13,-210.49 736.88,-207.79 737.44,-214.77"/>
</g>
<!-- Node4&#45;&gt;Node17 -->
<g id="edge30" class="edge">
<title>Node4&#45;&gt;Node17</title>
<path fill="none" stroke="#63b8ff" d="M631.39,-204.67C642.38,-169.23 674.51,-81.27 734,-37 736.6,-35.06 739.37,-33.31 742.26,-31.72"/>
<polygon fill="#63b8ff" stroke="#63b8ff" points="743.49,-35.01 751.06,-27.6 740.52,-28.67 743.49,-35.01"/>
</g>
<!-- Node19 -->
<g id="node19" class="node">
<title>Node19</title>
<g id="a_node19"><a xlink:href="$classce103__hw3__library__lib_1_1_book_functions.html#a81bb6f1f81a84ca37529ce32a397df10" xlink:title=" ">
<polygon fill="white" stroke="#666666" points="886,-268 749,-268 749,-238 886,-238 886,-268"/>
<text text-anchor="start" x="757" y="-256" font-family="Helvetica,sans-Serif" font-size="10.00">ce103_hw3_library_lib.Book</text>
<text text-anchor="middle" x="817.5" y="-245" font-family="Helvetica,sans-Serif" font-size="10.00">Functions.SearchBook</text>
</a>
</g>
</g>
<!-- Node4&#45;&gt;Node19 -->
<g id="edge34" class="edge">
<title>Node4&#45;&gt;Node19</title>
<path fill="none" stroke="#63b8ff" d="M698.37,-232.43C711.11,-234.65 724.45,-236.97 737.39,-239.22"/>
<polygon fill="#63b8ff" stroke="#63b8ff" points="736.7,-242.66 747.15,-240.92 737.9,-235.76 736.7,-242.66"/>
</g>
<!-- Node5&#45;&gt;Node3 -->
<g id="edge7" class="edge">
<title>Node5&#45;&gt;Node3</title>
<path fill="none" stroke="#63b8ff" d="M748.52,-466.87C691.66,-472.22 610.95,-470.73 554,-432 489.38,-388.05 461.79,-292.95 451.82,-246.54"/>
<polygon fill="#63b8ff" stroke="#63b8ff" points="455.27,-245.94 449.86,-236.83 448.41,-247.32 455.27,-245.94"/>
</g>
<!-- Node6 -->
<g id="node6" class="node">
<title>Node6</title>
<g id="a_node6"><a xlink:href="$classce103__hw3__library__lib_1_1_file_utility.html#a6b9ef5a028f3e26107779e0a3f300aef" xlink:title=" ">
<polygon fill="white" stroke="#666666" points="1073.5,-471 942.5,-471 942.5,-441 1073.5,-441 1073.5,-471"/>
<text text-anchor="start" x="950.5" y="-459" font-family="Helvetica,sans-Serif" font-size="10.00">ce103_hw3_library_lib.File</text>
<text text-anchor="middle" x="1008" y="-448" font-family="Helvetica,sans-Serif" font-size="10.00">Utility.AppendBlock</text>
</a>
</g>
</g>
<!-- Node5&#45;&gt;Node6 -->
<g id="edge6" class="edge">
<title>Node5&#45;&gt;Node6</title>
<path fill="none" stroke="#63b8ff" d="M886.29,-456C900.75,-456 916.13,-456 930.88,-456"/>
<polygon fill="#63b8ff" stroke="#63b8ff" points="930.51,-459.5 940.51,-456 930.51,-452.5 930.51,-459.5"/>
</g>
<!-- Node7&#45;&gt;Node3 -->
<g id="edge9" class="edge">
<title>Node7&#45;&gt;Node3</title>
<path fill="none" stroke="#63b8ff" d="M783.11,-415.96C730.44,-429.62 626.59,-447.98 554,-406 494.14,-371.38 464.83,-289.18 453.24,-246.6"/>
<polygon fill="#63b8ff" stroke="#63b8ff" points="456.64,-245.75 450.75,-236.94 449.86,-247.49 456.64,-245.75"/>
</g>
<!-- Node8&#45;&gt;Node3 -->
<g id="edge12" class="edge">
<title>Node8&#45;&gt;Node3</title>
<path fill="none" stroke="#63b8ff" d="M748.51,-161.3C695.19,-165.5 619.32,-173.32 554,-187 536.6,-190.65 517.97,-195.9 501.22,-201.14"/>
<polygon fill="#63b8ff" stroke="#63b8ff" points="500.41,-197.73 491.95,-204.11 502.54,-204.4 500.41,-197.73"/>
</g>
<!-- Node9 -->
<g id="node9" class="node">
<title>Node9</title>
<g id="a_node9"><a xlink:href="$classce103__hw3__library__lib_1_1_file_utility.html#a0706a9eaee6532bd3a42dda3579c9158" xlink:title=" ">
<polygon fill="white" stroke="#666666" points="1073.5,-268 942.5,-268 942.5,-238 1073.5,-238 1073.5,-268"/>
<text text-anchor="start" x="950.5" y="-256" font-family="Helvetica,sans-Serif" font-size="10.00">ce103_hw3_library_lib.File</text>
<text text-anchor="middle" x="1008" y="-245" font-family="Helvetica,sans-Serif" font-size="10.00">Utility.ReadBlock</text>
</a>
</g>
</g>
<!-- Node8&#45;&gt;Node9 -->
<g id="edge11" class="edge">
<title>Node8&#45;&gt;Node9</title>
<path fill="none" stroke="#63b8ff" d="M879.68,-172.44C886.99,-174.97 894.25,-177.82 901,-181 929.32,-194.33 958.54,-214.76 979.1,-230.46"/>
<polygon fill="#63b8ff" stroke="#63b8ff" points="976.95,-233.21 986.99,-236.58 981.24,-227.68 976.95,-233.21"/>
</g>
<!-- Node10 -->
<g id="node10" class="node">
<title>Node10</title>
<g id="a_node10"><a xlink:href="$classce103__hw3__library__lib_1_1_file_utility.html#a3258416645b5a69d8d0eb9ac217b2c20" xlink:title=" ">
<polygon fill="white" stroke="#666666" points="1073.5,-172 942.5,-172 942.5,-142 1073.5,-142 1073.5,-172"/>
<text text-anchor="start" x="950.5" y="-160" font-family="Helvetica,sans-Serif" font-size="10.00">ce103_hw3_library_lib.File</text>
<text text-anchor="middle" x="1008" y="-149" font-family="Helvetica,sans-Serif" font-size="10.00">Utility.UpdateBlock</text>
</a>
</g>
</g>
<!-- Node8&#45;&gt;Node10 -->
<g id="edge13" class="edge">
<title>Node8&#45;&gt;Node10</title>
<path fill="none" stroke="#63b8ff" d="M886.29,-157C900.75,-157 916.13,-157 930.88,-157"/>
<polygon fill="#63b8ff" stroke="#63b8ff" points="930.51,-160.5 940.51,-157 930.51,-153.5 930.51,-160.5"/>
</g>
<!-- Node11&#45;&gt;Node3 -->
<g id="edge16" class="edge">
<title>Node11&#45;&gt;Node3</title>
<path fill="none" stroke="#63b8ff" d="M748.71,-66.75C693.63,-73.65 615.29,-88.65 554,-121 518.59,-139.69 486.08,-173.09 466.41,-195.88"/>
<polygon fill="#63b8ff" stroke="#63b8ff" points="463.78,-193.57 460.02,-203.47 469.14,-198.08 463.78,-193.57"/>
</g>
<!-- Node12 -->
<g id="node12" class="node">
<title>Node12</title>
<g id="a_node12"><a xlink:href="$classce103__hw3__library__lib_1_1_file_utility.html#ad1233745f44f8159d86b0692c3a24b21" xlink:title=" ">
<polygon fill="white" stroke="#666666" points="1073.5,-78 942.5,-78 942.5,-48 1073.5,-48 1073.5,-78"/>
<text text-anchor="start" x="950.5" y="-66" font-family="Helvetica,sans-Serif" font-size="10.00">ce103_hw3_library_lib.File</text>
<text text-anchor="middle" x="1008" y="-55" font-family="Helvetica,sans-Serif" font-size="10.00">Utility.DeleteBlock</text>
</a>
</g>
</g>
<!-- Node11&#45;&gt;Node12 -->
<g id="edge15" class="edge">
<title>Node11&#45;&gt;Node12</title>
<path fill="none" stroke="#63b8ff" d="M886.29,-61.72C900.75,-61.87 916.13,-62.04 930.88,-62.19"/>
<polygon fill="#63b8ff" stroke="#63b8ff" points="930.47,-65.69 940.51,-62.29 930.54,-58.69 930.47,-65.69"/>
</g>
<!-- Node13&#45;&gt;Node3 -->
<g id="edge18" class="edge">
<title>Node13&#45;&gt;Node3</title>
<path fill="none" stroke="#63b8ff" d="M748.65,-117.05C694.74,-124.77 618.03,-138.77 554,-162 528,-171.43 500.62,-186.38 480.06,-198.74"/>
<polygon fill="#63b8ff" stroke="#63b8ff" points="478.25,-195.74 471.56,-203.95 481.91,-201.71 478.25,-195.74"/>
</g>
<!-- Node13&#45;&gt;Node10 -->
<g id="edge19" class="edge">
<title>Node13&#45;&gt;Node10</title>
<path fill="none" stroke="#63b8ff" d="M879.18,-124.45C897.09,-129.01 916.86,-134.05 935.39,-138.76"/>
<polygon fill="#63b8ff" stroke="#63b8ff" points="934.41,-142.13 944.97,-141.2 936.14,-135.34 934.41,-142.13"/>
</g>
<!-- Node14&#45;&gt;Node3 -->
<g id="edge22" class="edge">
<title>Node14&#45;&gt;Node3</title>
<path fill="none" stroke="#63b8ff" d="M748.7,-340.14C694.48,-331.5 617.33,-315.68 554,-289 525.51,-277 496.22,-257.52 475.5,-242.31"/>
<polygon fill="#63b8ff" stroke="#63b8ff" points="477.65,-239.55 467.55,-236.36 473.46,-245.15 477.65,-239.55"/>
</g>
<!-- Node14&#45;&gt;Node9 -->
<g id="edge21" class="edge">
<title>Node14&#45;&gt;Node9</title>
<path fill="none" stroke="#63b8ff" d="M879.68,-333.56C886.99,-331.03 894.25,-328.18 901,-325 929.32,-311.67 958.54,-291.24 979.1,-275.54"/>
<polygon fill="#63b8ff" stroke="#63b8ff" points="981.24,-278.32 986.99,-269.42 976.95,-272.79 981.24,-278.32"/>
</g>
<!-- Node15&#45;&gt;Node3 -->
<g id="edge25" class="edge">
<title>Node15&#45;&gt;Node3</title>
<path fill="none" stroke="#63b8ff" d="M748.75,-295.19C695.23,-289.59 618.99,-279.34 554,-262 532.79,-256.34 510.04,-247.79 491,-239.87"/>
<polygon fill="#63b8ff" stroke="#63b8ff" points="492.52,-236.71 481.95,-236.03 489.79,-243.16 492.52,-236.71"/>
</g>
<!-- Node15&#45;&gt;Node9 -->
<g id="edge24" class="edge">
<title>Node15&#45;&gt;Node9</title>
<path fill="none" stroke="#63b8ff" d="M879.18,-285.55C897.09,-280.99 916.86,-275.95 935.39,-271.24"/>
<polygon fill="#63b8ff" stroke="#63b8ff" points="936.14,-274.66 944.97,-268.8 934.41,-267.87 936.14,-274.66"/>
</g>
<!-- Node16&#45;&gt;Node3 -->
<g id="edge28" class="edge">
<title>Node16&#45;&gt;Node3</title>
<path fill="none" stroke="#63b8ff" d="M748.58,-197.31C695.46,-192.59 619.83,-188.71 554,-196 541.76,-197.36 528.87,-199.56 516.44,-202.1"/>
<polygon fill="#63b8ff" stroke="#63b8ff" points="515.72,-198.67 506.67,-204.19 517.19,-205.52 515.72,-198.67"/>
</g>
<!-- Node16&#45;&gt;Node9 -->
<g id="edge27" class="edge">
<title>Node16&#45;&gt;Node9</title>
<path fill="none" stroke="#63b8ff" d="M879.18,-220.45C897.09,-225.01 916.86,-230.05 935.39,-234.76"/>
<polygon fill="#63b8ff" stroke="#63b8ff" points="934.41,-238.13 944.97,-237.2 936.14,-231.34 934.41,-238.13"/>
</g>
<!-- Node16&#45;&gt;Node10 -->
<g id="edge29" class="edge">
<title>Node16&#45;&gt;Node10</title>
<path fill="none" stroke="#63b8ff" d="M879.18,-189.55C897.09,-184.99 916.86,-179.95 935.39,-175.24"/>
<polygon fill="#63b8ff" stroke="#63b8ff" points="936.14,-178.66 944.97,-172.8 934.41,-171.87 936.14,-178.66"/>
</g>
<!-- Node17&#45;&gt;Node2 -->
<g id="edge32" class="edge">
<title>Node17&#45;&gt;Node2</title>
<path fill="none" stroke="#63b8ff" d="M737.67,-11.94C685.31,-9.97 615.21,-9.99 554,-19 469.01,-31.51 373.98,-62.94 317.4,-83.61"/>
<polygon fill="#63b8ff" stroke="#63b8ff" points="316.21,-80.32 308.04,-87.07 318.63,-86.89 316.21,-80.32"/>
</g>
<!-- Node18 -->
<g id="node18" class="node">
<title>Node18</title>
<g id="a_node18"><a xlink:href="$classce103__hw3__library__lib_1_1_menu.html#af4dab9715ef5ee639001951ec8c3d5e2" xlink:title=" ">
<polygon fill="white" stroke="#666666" points="1079,-30 937,-30 937,0 1079,0 1079,-30"/>
<text text-anchor="start" x="945" y="-18" font-family="Helvetica,sans-Serif" font-size="10.00">ce103_hw3_library_lib.Menu.</text>
<text text-anchor="middle" x="1008" y="-7" font-family="Helvetica,sans-Serif" font-size="10.00">DisplayOptions</text>
</a>
</g>
</g>
<!-- Node17&#45;&gt;Node18 -->
<g id="edge31" class="edge">
<title>Node17&#45;&gt;Node18</title>
<path fill="none" stroke="#63b8ff" d="M897.35,-16.16C906.6,-16.07 916.06,-15.96 925.35,-15.87"/>
<polygon fill="#63b8ff" stroke="#63b8ff" points="925.1,-19.37 935.06,-15.76 925.02,-12.37 925.1,-19.37"/>
</g>
<!-- Node19&#45;&gt;Node3 -->
<g id="edge36" class="edge">
<title>Node19&#45;&gt;Node3</title>
<path fill="none" stroke="#63b8ff" d="M748.51,-254.13C695.35,-254.18 619.7,-252.42 554,-244 542.14,-242.48 529.67,-240.26 517.59,-237.78"/>
<polygon fill="#63b8ff" stroke="#63b8ff" points="518.63,-234.42 508.12,-235.76 517.17,-241.27 518.63,-234.42"/>
</g>
<!-- Node19&#45;&gt;Node9 -->
<g id="edge35" class="edge">
<title>Node19&#45;&gt;Node9</title>
<path fill="none" stroke="#63b8ff" d="M886.29,-253C900.75,-253 916.13,-253 930.88,-253"/>
<polygon fill="#63b8ff" stroke="#63b8ff" points="930.51,-256.5 940.51,-253 930.51,-249.5 930.51,-256.5"/>
</g>
</g>
</svg>
