<?xml version="1.0" encoding="UTF-8" standalone="no"?>
<!DOCTYPE svg PUBLIC "-//W3C//DTD SVG 1.1//EN"
 "http://www.w3.org/Graphics/SVG/1.1/DTD/svg11.dtd">
<!-- Generated by graphviz version 7.0.4 (20221203.1631)
 -->
<!-- Title: ce103_hw3_library_lib.library.BookOption Pages: 1 -->
<svg width="730pt" height="559pt"
 viewBox="0.00 0.00 730.00 559.23" xmlns="http://www.w3.org/2000/svg" xmlns:xlink="http://www.w3.org/1999/xlink">
<g id="graph0" class="graph" transform="scale(1 1) rotate(0) translate(4 555.23)">
<title>ce103_hw3_library_lib.library.BookOption</title>
<!-- Node1 -->
<g id="node1" class="node">
<title>Node1</title>
<g id="a_node1"><a xlink:title=" ">
<polygon fill="#999999" stroke="#666666" points="722,-304.23 578,-304.23 578,-274.23 722,-274.23 722,-304.23"/>
<text text-anchor="start" x="586" y="-292.23" font-family="Helvetica,sans-Serif" font-size="10.00">ce103_hw3_library_lib.library.</text>
<text text-anchor="middle" x="650" y="-281.23" font-family="Helvetica,sans-Serif" font-size="10.00">BookOption</text>
</a>
</g>
</g>
<!-- Node2 -->
<g id="node2" class="node">
<title>Node2</title>
<g id="a_node2"><a xlink:href="$classce103__hw3__library__lib_1_1library.html#a80f197f4303dd78438ec6055614382da" xlink:title=" ">
<polygon fill="white" stroke="#666666" points="542,-326.23 398,-326.23 398,-296.23 542,-296.23 542,-326.23"/>
<text text-anchor="start" x="406" y="-314.23" font-family="Helvetica,sans-Serif" font-size="10.00">ce103_hw3_library_lib.library.</text>
<text text-anchor="middle" x="470" y="-303.23" font-family="Helvetica,sans-Serif" font-size="10.00">RunMainMenu</text>
</a>
</g>
</g>
<!-- Node1&#45;&gt;Node2 -->
<g id="edge1" class="edge">
<title>Node1&#45;&gt;Node2</title>
<path fill="none" stroke="#63b8ff" d="M566.37,-292.71C558.36,-293.66 550.28,-294.69 542.39,-295.77"/>
<polygon fill="#63b8ff" stroke="#63b8ff" points="566.59,-296.2 576.12,-291.59 565.79,-289.25 566.59,-296.2"/>
</g>
<!-- Node2&#45;&gt;Node1 -->
<g id="edge6" class="edge">
<title>Node2&#45;&gt;Node1</title>
<path fill="none" stroke="#63b8ff" d="M553.64,-307.75C561.66,-306.8 569.74,-305.76 577.63,-304.68"/>
<polygon fill="#63b8ff" stroke="#63b8ff" points="553.43,-304.25 543.89,-308.86 554.23,-311.2 553.43,-304.25"/>
</g>
<!-- Node3 -->
<g id="node3" class="node">
<title>Node3</title>
<g id="a_node3"><a xlink:href="$classce103__hw3__library__lib_1_1_book_functions.html#aeb0f4b25699b7ca705f259d228730ef5" xlink:title=" ">
<polygon fill="white" stroke="#666666" points="347,-551.23 210,-551.23 210,-521.23 347,-521.23 347,-551.23"/>
<text text-anchor="start" x="218" y="-539.23" font-family="Helvetica,sans-Serif" font-size="10.00">ce103_hw3_library_lib.Book</text>
<text text-anchor="middle" x="278.5" y="-528.23" font-family="Helvetica,sans-Serif" font-size="10.00">Functions.AddBook</text>
</a>
</g>
</g>
<!-- Node2&#45;&gt;Node3 -->
<g id="edge2" class="edge">
<title>Node2&#45;&gt;Node3</title>
<path fill="none" stroke="#63b8ff" d="M462.18,-337.68C449.7,-380.75 419.07,-465.85 362,-512.23 357.49,-515.9 352.43,-519 347.11,-521.64"/>
<polygon fill="#63b8ff" stroke="#63b8ff" points="465.51,-338.75 464.82,-328.18 458.77,-336.88 465.51,-338.75"/>
</g>
<!-- Node4 -->
<g id="node4" class="node">
<title>Node4</title>
<g id="a_node4"><a xlink:href="$classce103__hw3__library__lib_1_1library.html#a84facf753a1182bffc9b0309adc8dadb" xlink:title=" ">
<polygon fill="white" stroke="#666666" points="362,-502.73 195,-502.73 195,-483.73 362,-483.73 362,-502.73"/>
<text text-anchor="middle" x="278.5" y="-490.73" font-family="Helvetica,sans-Serif" font-size="10.00">ce103_hw3_library_lib.library.Back</text>
</a>
</g>
</g>
<!-- Node2&#45;&gt;Node4 -->
<g id="edge4" class="edge">
<title>Node2&#45;&gt;Node4</title>
<path fill="none" stroke="#63b8ff" d="M459.39,-336.93C444.39,-373.39 411.85,-439.52 362,-474.23 356.69,-477.92 350.77,-480.91 344.61,-483.32"/>
<polygon fill="#63b8ff" stroke="#63b8ff" points="462.48,-338.63 462.92,-328.05 455.98,-336.05 462.48,-338.63"/>
</g>
<!-- Node5 -->
<g id="node5" class="node">
<title>Node5</title>
<g id="a_node5"><a xlink:href="$classce103__hw3__library__lib_1_1_book_functions.html#a4d2ef5095cd896dba0b81ac4a8ca3f11" xlink:title=" ">
<polygon fill="white" stroke="#666666" points="347,-465.23 210,-465.23 210,-435.23 347,-435.23 347,-465.23"/>
<text text-anchor="start" x="218" y="-453.23" font-family="Helvetica,sans-Serif" font-size="10.00">ce103_hw3_library_lib.Book</text>
<text text-anchor="middle" x="278.5" y="-442.23" font-family="Helvetica,sans-Serif" font-size="10.00">Functions.BorrowBook</text>
</a>
</g>
</g>
<!-- Node2&#45;&gt;Node5 -->
<g id="edge7" class="edge">
<title>Node2&#45;&gt;Node5</title>
<path fill="none" stroke="#63b8ff" d="M452.55,-335.58C433.66,-361.71 400.29,-402.63 362,-426.23 356.67,-429.51 350.86,-432.37 344.89,-434.84"/>
<polygon fill="#63b8ff" stroke="#63b8ff" points="455.28,-337.78 458.19,-327.59 449.56,-333.74 455.28,-337.78"/>
</g>
<!-- Node6 -->
<g id="node6" class="node">
<title>Node6</title>
<g id="a_node6"><a xlink:href="$classce103__hw3__library__lib_1_1_book_functions.html#a859f030ca58df3aef0ca202c2df131ab" xlink:title=" ">
<polygon fill="white" stroke="#666666" points="347,-417.23 210,-417.23 210,-387.23 347,-387.23 347,-417.23"/>
<text text-anchor="start" x="218" y="-405.23" font-family="Helvetica,sans-Serif" font-size="10.00">ce103_hw3_library_lib.Book</text>
<text text-anchor="middle" x="278.5" y="-394.23" font-family="Helvetica,sans-Serif" font-size="10.00">Functions.DeleteBook</text>
</a>
</g>
</g>
<!-- Node2&#45;&gt;Node6 -->
<g id="edge9" class="edge">
<title>Node2&#45;&gt;Node6</title>
<path fill="none" stroke="#63b8ff" d="M439.02,-333.16C418.23,-347.55 389.45,-365.93 362,-378.23 354.92,-381.4 347.31,-384.27 339.69,-386.84"/>
<polygon fill="#63b8ff" stroke="#63b8ff" points="440.85,-336.15 447.02,-327.53 436.82,-330.42 440.85,-336.15"/>
</g>
<!-- Node7 -->
<g id="node7" class="node">
<title>Node7</title>
<g id="a_node7"><a xlink:href="$classce103__hw3__library__lib_1_1_book_functions.html#ac536d1aa3a17ba7ce32e8d9ea0cd4950" xlink:title=" ">
<polygon fill="white" stroke="#666666" points="347,-283.23 210,-283.23 210,-253.23 347,-253.23 347,-283.23"/>
<text text-anchor="start" x="218" y="-271.23" font-family="Helvetica,sans-Serif" font-size="10.00">ce103_hw3_library_lib.Book</text>
<text text-anchor="middle" x="278.5" y="-260.23" font-family="Helvetica,sans-Serif" font-size="10.00">Functions.EditBook</text>
</a>
</g>
</g>
<!-- Node2&#45;&gt;Node7 -->
<g id="edge11" class="edge">
<title>Node2&#45;&gt;Node7</title>
<path fill="none" stroke="#63b8ff" d="M389.69,-293.23C375.62,-290.04 361.08,-286.74 347.36,-283.63"/>
<polygon fill="#63b8ff" stroke="#63b8ff" points="388.85,-296.63 399.38,-295.43 390.4,-289.8 388.85,-296.63"/>
</g>
<!-- Node8 -->
<g id="node8" class="node">
<title>Node8</title>
<g id="a_node8"><a xlink:href="$classce103__hw3__library__lib_1_1_book_functions.html#ae4b718abfd1ef505ca816bada5a5053f" xlink:title=" ">
<polygon fill="white" stroke="#666666" points="347,-235.23 210,-235.23 210,-205.23 347,-205.23 347,-235.23"/>
<text text-anchor="start" x="218" y="-223.23" font-family="Helvetica,sans-Serif" font-size="10.00">ce103_hw3_library_lib.Book</text>
<text text-anchor="middle" x="278.5" y="-212.23" font-family="Helvetica,sans-Serif" font-size="10.00">Functions.ListBook</text>
</a>
</g>
</g>
<!-- Node2&#45;&gt;Node8 -->
<g id="edge13" class="edge">
<title>Node2&#45;&gt;Node8</title>
<path fill="none" stroke="#63b8ff" d="M439.02,-289.3C418.23,-274.9 389.45,-256.53 362,-244.23 354.92,-241.06 347.31,-238.18 339.69,-235.62"/>
<polygon fill="#63b8ff" stroke="#63b8ff" points="436.82,-292.03 447.02,-294.93 440.85,-286.31 436.82,-292.03"/>
</g>
<!-- Node9 -->
<g id="node9" class="node">
<title>Node9</title>
<g id="a_node9"><a xlink:href="$classce103__hw3__library__lib_1_1_book_functions.html#abc272bb655ce11abfa5cb33d995132b7" xlink:title=" ">
<polygon fill="white" stroke="#666666" points="347,-187.23 210,-187.23 210,-157.23 347,-157.23 347,-187.23"/>
<text text-anchor="start" x="218" y="-175.23" font-family="Helvetica,sans-Serif" font-size="10.00">ce103_hw3_library_lib.Book</text>
<text text-anchor="middle" x="278.5" y="-164.23" font-family="Helvetica,sans-Serif" font-size="10.00">Functions.ListBorrowBook</text>
</a>
</g>
</g>
<!-- Node2&#45;&gt;Node9 -->
<g id="edge15" class="edge">
<title>Node2&#45;&gt;Node9</title>
<path fill="none" stroke="#63b8ff" d="M452.55,-286.88C433.66,-260.75 400.29,-219.82 362,-196.23 356.67,-192.94 350.86,-190.09 344.89,-187.61"/>
<polygon fill="#63b8ff" stroke="#63b8ff" points="449.56,-288.72 458.19,-294.87 455.28,-284.68 449.56,-288.72"/>
</g>
<!-- Node10 -->
<g id="node10" class="node">
<title>Node10</title>
<g id="a_node10"><a xlink:href="$classce103__hw3__library__lib_1_1_book_functions.html#af9a659e47a42e3f7ec1a29e280282a51" xlink:title=" ">
<polygon fill="white" stroke="#666666" points="347,-139.23 210,-139.23 210,-109.23 347,-109.23 347,-139.23"/>
<text text-anchor="start" x="218" y="-127.23" font-family="Helvetica,sans-Serif" font-size="10.00">ce103_hw3_library_lib.Book</text>
<text text-anchor="middle" x="278.5" y="-116.23" font-family="Helvetica,sans-Serif" font-size="10.00">Functions.ReturnBook</text>
</a>
</g>
</g>
<!-- Node2&#45;&gt;Node10 -->
<g id="edge17" class="edge">
<title>Node2&#45;&gt;Node10</title>
<path fill="none" stroke="#63b8ff" d="M458.92,-285.43C443.5,-249.34 410.64,-184.18 362,-148.23 357.44,-144.86 352.42,-141.96 347.17,-139.47"/>
<polygon fill="#63b8ff" stroke="#63b8ff" points="455.68,-286.75 462.73,-294.65 462.15,-284.08 455.68,-286.75"/>
</g>
<!-- Node11 -->
<g id="node11" class="node">
<title>Node11</title>
<g id="a_node11"><a xlink:href="$classce103__hw3__library__lib_1_1_book_functions.html#a81bb6f1f81a84ca37529ce32a397df10" xlink:title=" ">
<polygon fill="white" stroke="#666666" points="347,-91.23 210,-91.23 210,-61.23 347,-61.23 347,-91.23"/>
<text text-anchor="start" x="218" y="-79.23" font-family="Helvetica,sans-Serif" font-size="10.00">ce103_hw3_library_lib.Book</text>
<text text-anchor="middle" x="278.5" y="-68.23" font-family="Helvetica,sans-Serif" font-size="10.00">Functions.SearchBook</text>
</a>
</g>
</g>
<!-- Node2&#45;&gt;Node11 -->
<g id="edge19" class="edge">
<title>Node2&#45;&gt;Node11</title>
<path fill="none" stroke="#63b8ff" d="M462.9,-284.75C451.21,-240 421.37,-149.46 362,-100.23 357.52,-96.51 352.49,-93.38 347.19,-90.72"/>
<polygon fill="#63b8ff" stroke="#63b8ff" points="459.49,-285.52 465.3,-294.37 466.28,-283.82 459.49,-285.52"/>
</g>
<!-- Node12 -->
<g id="node12" class="node">
<title>Node12</title>
<g id="a_node12"><a xlink:href="$classce103__hw3__library__lib_1_1library.html#a261e9b866de5ed430c5888e32120a346" xlink:title=" ">
<polygon fill="white" stroke="#666666" points="350.5,-369.23 206.5,-369.23 206.5,-339.23 350.5,-339.23 350.5,-369.23"/>
<text text-anchor="start" x="214.5" y="-357.23" font-family="Helvetica,sans-Serif" font-size="10.00">ce103_hw3_library_lib.library.</text>
<text text-anchor="middle" x="278.5" y="-346.23" font-family="Helvetica,sans-Serif" font-size="10.00">Start</text>
</a>
</g>
</g>
<!-- Node2&#45;&gt;Node12 -->
<g id="edge21" class="edge">
<title>Node2&#45;&gt;Node12</title>
<path fill="none" stroke="#63b8ff" d="M389.76,-329.21C375.78,-332.38 361.33,-335.66 347.68,-338.76"/>
<polygon fill="#63b8ff" stroke="#63b8ff" points="390.4,-332.65 399.38,-327.03 388.85,-325.83 390.4,-332.65"/>
</g>
<!-- Node3&#45;&gt;Node1 -->
<g id="edge3" class="edge">
<title>Node3&#45;&gt;Node1</title>
<path fill="none" stroke="#63b8ff" d="M358.7,-525.83C414.55,-515.22 488.62,-494.21 542,-453.23 595.39,-412.24 630.2,-336.55 643.23,-304.36"/>
<polygon fill="#63b8ff" stroke="#63b8ff" points="358.13,-522.37 348.92,-527.6 359.38,-529.26 358.13,-522.37"/>
</g>
<!-- Node4&#45;&gt;Node1 -->
<g id="edge5" class="edge">
<title>Node4&#45;&gt;Node1</title>
<path fill="none" stroke="#63b8ff" d="M354.76,-480.96C410.15,-469.25 485.36,-447.53 542,-409.23 585.01,-380.15 622,-329.98 639.02,-304.71"/>
<polygon fill="#63b8ff" stroke="#63b8ff" points="354.19,-477.5 345.09,-482.93 355.59,-484.36 354.19,-477.5"/>
</g>
<!-- Node5&#45;&gt;Node1 -->
<g id="edge8" class="edge">
<title>Node5&#45;&gt;Node1</title>
<path fill="none" stroke="#63b8ff" d="M358.43,-433.54C412.05,-420.39 483.58,-399.23 542,-369.23 576.87,-351.32 612.33,-322.19 632.41,-304.46"/>
<polygon fill="#63b8ff" stroke="#63b8ff" points="357.64,-430.13 348.74,-435.87 359.28,-436.94 357.64,-430.13"/>
</g>
<!-- Node6&#45;&gt;Node1 -->
<g id="edge10" class="edge">
<title>Node6&#45;&gt;Node1</title>
<path fill="none" stroke="#63b8ff" d="M358.19,-385.53C410.83,-373.53 481.31,-355.88 542,-335.23 567.65,-326.5 595.77,-314.31 616.74,-304.67"/>
<polygon fill="#63b8ff" stroke="#63b8ff" points="357.7,-382.05 348.71,-387.67 359.24,-388.88 357.7,-382.05"/>
</g>
<!-- Node7&#45;&gt;Node1 -->
<g id="edge12" class="edge">
<title>Node7&#45;&gt;Node1</title>
<path fill="none" stroke="#63b8ff" d="M358.82,-272.74C423.84,-276.43 515.04,-281.61 577.76,-285.18"/>
<polygon fill="#63b8ff" stroke="#63b8ff" points="359.1,-269.25 348.92,-272.17 358.7,-276.23 359.1,-269.25"/>
</g>
<!-- Node8&#45;&gt;Node1 -->
<g id="edge14" class="edge">
<title>Node8&#45;&gt;Node1</title>
<path fill="none" stroke="#63b8ff" d="M358.42,-234.96C423.46,-247.11 514.91,-264.19 577.76,-275.92"/>
<polygon fill="#63b8ff" stroke="#63b8ff" points="359.37,-231.58 348.89,-233.19 358.08,-238.46 359.37,-231.58"/>
</g>
<!-- Node9&#45;&gt;Node1 -->
<g id="edge16" class="edge">
<title>Node9&#45;&gt;Node1</title>
<path fill="none" stroke="#63b8ff" d="M358.41,-188.31C411.14,-200.04 481.64,-217.64 542,-239.23 569.22,-248.97 598.92,-263.14 620.1,-273.92"/>
<polygon fill="#63b8ff" stroke="#63b8ff" points="359.43,-184.95 348.91,-186.22 357.93,-191.79 359.43,-184.95"/>
</g>
<!-- Node10&#45;&gt;Node1 -->
<g id="edge18" class="edge">
<title>Node10&#45;&gt;Node1</title>
<path fill="none" stroke="#63b8ff" d="M358.66,-135.45C412.69,-145.43 484.6,-163.37 542,-194.23 580.95,-215.17 617.46,-252.92 636.1,-273.98"/>
<polygon fill="#63b8ff" stroke="#63b8ff" points="359.36,-132.02 348.9,-133.71 358.13,-138.91 359.36,-132.02"/>
</g>
<!-- Node11&#45;&gt;Node1 -->
<g id="edge20" class="edge">
<title>Node11&#45;&gt;Node1</title>
<path fill="none" stroke="#63b8ff" d="M358.4,-81.47C413.77,-88.38 487.39,-104.37 542,-141.23 593.24,-175.82 628.5,-243.58 642.4,-273.91"/>
<polygon fill="#63b8ff" stroke="#63b8ff" points="359.06,-78.02 348.73,-80.34 358.25,-84.98 359.06,-78.02"/>
</g>
<!-- Node13 -->
<g id="node13" class="node">
<title>Node13</title>
<g id="a_node13"><a xlink:href="$classce103__hw3__library__lib_1_1_password_content.html#a4c3fd18dd3032675ace132457ebaedba" xlink:title=" ">
<polygon fill="white" stroke="#666666" points="158.5,-369.23 0.5,-369.23 0.5,-339.23 158.5,-339.23 158.5,-369.23"/>
<text text-anchor="start" x="8.5" y="-357.23" font-family="Helvetica,sans-Serif" font-size="10.00">ce103_hw3_library_lib.Password</text>
<text text-anchor="middle" x="79.5" y="-346.23" font-family="Helvetica,sans-Serif" font-size="10.00">Content.password</text>
</a>
</g>
</g>
<!-- Node12&#45;&gt;Node13 -->
<g id="edge22" class="edge">
<title>Node12&#45;&gt;Node13</title>
<path fill="none" stroke="#63b8ff" d="M194.84,-354.23C182.96,-354.23 170.77,-354.23 158.98,-354.23"/>
<polygon fill="#63b8ff" stroke="#63b8ff" points="194.59,-357.73 204.59,-354.23 194.59,-350.73 194.59,-357.73"/>
</g>
<!-- Node14 -->
<g id="node14" class="node">
<title>Node14</title>
<g id="a_node14"><a xlink:href="$classce103__hw3__library__lib_1_1_menu.html#a83866faf86a98cdc36d517e8ed443534" xlink:title=" ">
<polygon fill="white" stroke="#666666" points="159,-320.73 0,-320.73 0,-301.73 159,-301.73 159,-320.73"/>
<text text-anchor="middle" x="79.5" y="-308.73" font-family="Helvetica,sans-Serif" font-size="10.00">ce103_hw3_library_lib.Menu.Run</text>
</a>
</g>
</g>
<!-- Node12&#45;&gt;Node14 -->
<g id="edge24" class="edge">
<title>Node12&#45;&gt;Node14</title>
<path fill="none" stroke="#63b8ff" d="M195.52,-336.33C171.82,-331.16 146.81,-325.7 126.18,-321.2"/>
<polygon fill="#63b8ff" stroke="#63b8ff" points="194.66,-339.73 205.18,-338.44 196.15,-332.89 194.66,-339.73"/>
</g>
<!-- Node13&#45;&gt;Node13 -->
<g id="edge23" class="edge">
<title>Node13&#45;&gt;Node13</title>
<path fill="none" stroke="#63b8ff" d="M113.08,-380.83C107.7,-384.66 96.5,-387.23 79.5,-387.23 48.41,-387.23 36.75,-378.63 44.52,-369.5"/>
<polygon fill="#63b8ff" stroke="#63b8ff" points="116.54,-381.36 114.29,-371.01 109.59,-380.5 116.54,-381.36"/>
</g>
<!-- Node14&#45;&gt;Node1 -->
<g id="edge25" class="edge">
<title>Node14&#45;&gt;Node1</title>
<path fill="none" stroke="#63b8ff" d="M82.37,-290.08C88.21,-238.59 111.07,-106.89 195,-52.23 324.78,32.29 417.12,7.37 542,-84.23 608.36,-132.9 637.06,-235.08 645.85,-273.86"/>
<polygon fill="#63b8ff" stroke="#63b8ff" points="78.91,-289.54 81.38,-299.85 85.87,-290.25 78.91,-289.54"/>
</g>
<!-- Node14&#45;&gt;Node2 -->
<g id="edge26" class="edge">
<title>Node14&#45;&gt;Node2</title>
<path fill="none" stroke="#63b8ff" d="M170.63,-311.23C239.74,-311.23 333.83,-311.23 397.74,-311.23"/>
<polygon fill="#63b8ff" stroke="#63b8ff" points="170.84,-307.73 160.84,-311.23 170.84,-314.73 170.84,-307.73"/>
</g>
</g>
</svg>
