<?xml version="1.0" encoding="UTF-8" standalone="no"?>
<!DOCTYPE svg PUBLIC "-//W3C//DTD SVG 1.1//EN"
 "http://www.w3.org/Graphics/SVG/1.1/DTD/svg11.dtd">
<!-- Generated by graphviz version 7.0.4 (20221203.1631)
 -->
<!-- Title: ce103_hw3_library_lib.BookFunctions.BorrowBook Pages: 1 -->
<svg width="888pt" height="556pt"
 viewBox="0.00 0.00 888.00 555.80" xmlns="http://www.w3.org/2000/svg" xmlns:xlink="http://www.w3.org/1999/xlink">
<g id="graph0" class="graph" transform="scale(1 1) rotate(0) translate(4 551.8)">
<title>ce103_hw3_library_lib.BookFunctions.BorrowBook</title>
<!-- Node1 -->
<g id="node1" class="node">
<title>Node1</title>
<g id="a_node1"><a xlink:title=" ">
<polygon fill="#999999" stroke="#666666" points="137,-329.66 0,-329.66 0,-299.66 137,-299.66 137,-329.66"/>
<text text-anchor="start" x="8" y="-317.66" font-family="Helvetica,sans-Serif" font-size="10.00">ce103_hw3_library_lib.Book</text>
<text text-anchor="middle" x="68.5" y="-306.66" font-family="Helvetica,sans-Serif" font-size="10.00">Functions.BorrowBook</text>
</a>
</g>
</g>
<!-- Node2 -->
<g id="node2" class="node">
<title>Node2</title>
<g id="a_node2"><a xlink:href="$classce103__hw3__library__lib_1_1_file_utility.html#a0706a9eaee6532bd3a42dda3579c9158" xlink:title=" ">
<polygon fill="white" stroke="#666666" points="873.5,-384.66 742.5,-384.66 742.5,-354.66 873.5,-354.66 873.5,-384.66"/>
<text text-anchor="start" x="750.5" y="-372.66" font-family="Helvetica,sans-Serif" font-size="10.00">ce103_hw3_library_lib.File</text>
<text text-anchor="middle" x="808" y="-361.66" font-family="Helvetica,sans-Serif" font-size="10.00">Utility.ReadBlock</text>
</a>
</g>
</g>
<!-- Node1&#45;&gt;Node2 -->
<g id="edge1" class="edge">
<title>Node1&#45;&gt;Node2</title>
<path fill="none" stroke="#63b8ff" d="M88.81,-330.08C132.87,-364.47 245.36,-447.77 353,-490.66 428.87,-520.89 451.75,-519.39 533,-527.66 606.84,-535.17 638.21,-568.78 700,-527.66 734.5,-504.7 713.04,-476.15 736,-441.66 748.17,-423.38 765.39,-405.78 779.82,-392.56"/>
<polygon fill="#63b8ff" stroke="#63b8ff" points="782.12,-395.2 787.25,-385.93 777.46,-389.98 782.12,-395.2"/>
</g>
<!-- Node3 -->
<g id="node3" class="node">
<title>Node3</title>
<g id="a_node3"><a xlink:href="$classce103__hw3__library__lib_1_1library.html#a80f197f4303dd78438ec6055614382da" xlink:title=" ">
<polygon fill="white" stroke="#666666" points="317,-308.66 173,-308.66 173,-278.66 317,-278.66 317,-308.66"/>
<text text-anchor="start" x="181" y="-296.66" font-family="Helvetica,sans-Serif" font-size="10.00">ce103_hw3_library_lib.library.</text>
<text text-anchor="middle" x="245" y="-285.66" font-family="Helvetica,sans-Serif" font-size="10.00">RunMainMenu</text>
</a>
</g>
</g>
<!-- Node1&#45;&gt;Node3 -->
<g id="edge2" class="edge">
<title>Node1&#45;&gt;Node3</title>
<path fill="none" stroke="#63b8ff" d="M137.47,-306.48C145.34,-305.53 153.43,-304.56 161.46,-303.59"/>
<polygon fill="#63b8ff" stroke="#63b8ff" points="161.75,-307.08 171.26,-302.41 160.91,-300.13 161.75,-307.08"/>
</g>
<!-- Node11 -->
<g id="node11" class="node">
<title>Node11</title>
<g id="a_node11"><a xlink:href="$classce103__hw3__library__lib_1_1_file_utility.html#a3258416645b5a69d8d0eb9ac217b2c20" xlink:title=" ">
<polygon fill="white" stroke="#666666" points="873.5,-245.66 742.5,-245.66 742.5,-215.66 873.5,-215.66 873.5,-245.66"/>
<text text-anchor="start" x="750.5" y="-233.66" font-family="Helvetica,sans-Serif" font-size="10.00">ce103_hw3_library_lib.File</text>
<text text-anchor="middle" x="808" y="-222.66" font-family="Helvetica,sans-Serif" font-size="10.00">Utility.UpdateBlock</text>
</a>
</g>
</g>
<!-- Node1&#45;&gt;Node11 -->
<g id="edge36" class="edge">
<title>Node1&#45;&gt;Node11</title>
<path fill="none" stroke="#63b8ff" d="M78.55,-299.2C109.21,-248.6 214.96,-87.9 353,-30.66 499.67,30.17 588.84,-2.27 700,-115.66 730.45,-146.71 704.47,-176.69 736,-206.66 736.76,-207.38 737.55,-208.09 738.36,-208.77"/>
<polygon fill="#63b8ff" stroke="#63b8ff" points="736.24,-211.56 746.44,-214.43 740.26,-205.83 736.24,-211.56"/>
</g>
<!-- Node4 -->
<g id="node4" class="node">
<title>Node4</title>
<g id="a_node4"><a xlink:href="$classce103__hw3__library__lib_1_1library.html#a966e08d69fdd5e4d3bf6a12af39bfe14" xlink:title=" ">
<polygon fill="white" stroke="#666666" points="497,-351.66 353,-351.66 353,-321.66 497,-321.66 497,-351.66"/>
<text text-anchor="start" x="361" y="-339.66" font-family="Helvetica,sans-Serif" font-size="10.00">ce103_hw3_library_lib.library.</text>
<text text-anchor="middle" x="425" y="-328.66" font-family="Helvetica,sans-Serif" font-size="10.00">BookOption</text>
</a>
</g>
</g>
<!-- Node3&#45;&gt;Node4 -->
<g id="edge3" class="edge">
<title>Node3&#45;&gt;Node4</title>
<path fill="none" stroke="#63b8ff" d="M317.37,-304.27C335.94,-308.5 355.57,-313.39 372.86,-318.13"/>
<polygon fill="#63b8ff" stroke="#63b8ff" points="371.82,-321.47 382.39,-320.8 373.71,-314.73 371.82,-321.47"/>
</g>
<!-- Node15 -->
<g id="node15" class="node">
<title>Node15</title>
<g id="a_node15"><a xlink:href="$classce103__hw3__library__lib_1_1_menu.html#a83866faf86a98cdc36d517e8ed443534" xlink:title=" ">
<polygon fill="white" stroke="#666666" points="696,-144.16 537,-144.16 537,-125.16 696,-125.16 696,-144.16"/>
<text text-anchor="middle" x="616.5" y="-132.16" font-family="Helvetica,sans-Serif" font-size="10.00">ce103_hw3_library_lib.Menu.Run</text>
</a>
</g>
</g>
<!-- Node3&#45;&gt;Node15 -->
<g id="edge35" class="edge">
<title>Node3&#45;&gt;Node15</title>
<path fill="none" stroke="#63b8ff" d="M258.49,-278.48C276.92,-257.13 313.49,-218.5 353,-197.66 406.49,-169.44 472.74,-153.66 525.31,-144.95"/>
<polygon fill="#63b8ff" stroke="#63b8ff" points="525.83,-148.41 535.15,-143.38 524.73,-141.5 525.83,-148.41"/>
</g>
<!-- Node19 -->
<g id="node19" class="node">
<title>Node19</title>
<g id="a_node19"><a xlink:href="$classce103__hw3__library__lib_1_1library.html#a754cac172f3b071c7eea3f07777aac68" xlink:title=" ">
<polygon fill="white" stroke="#666666" points="497,-69.66 353,-69.66 353,-39.66 497,-39.66 497,-69.66"/>
<text text-anchor="start" x="361" y="-57.66" font-family="Helvetica,sans-Serif" font-size="10.00">ce103_hw3_library_lib.library.</text>
<text text-anchor="middle" x="425" y="-46.66" font-family="Helvetica,sans-Serif" font-size="10.00">ExitApp</text>
</a>
</g>
</g>
<!-- Node3&#45;&gt;Node19 -->
<g id="edge34" class="edge">
<title>Node3&#45;&gt;Node19</title>
<path fill="none" stroke="#63b8ff" d="M249.85,-278.18C260.1,-239.97 291.56,-140.17 353,-83.66 356.12,-80.78 359.57,-78.18 363.21,-75.81"/>
<polygon fill="#63b8ff" stroke="#63b8ff" points="364.94,-78.85 371.9,-70.86 361.48,-72.77 364.94,-78.85"/>
</g>
<!-- Node4&#45;&gt;Node1 -->
<g id="edge9" class="edge">
<title>Node4&#45;&gt;Node1</title>
<path fill="none" stroke="#63b8ff" d="M352.65,-332.23C293.56,-328.56 209.69,-323.36 148.57,-319.56"/>
<polygon fill="#63b8ff" stroke="#63b8ff" points="149.14,-316.09 138.94,-318.97 148.71,-323.08 149.14,-316.09"/>
</g>
<!-- Node4&#45;&gt;Node3 -->
<g id="edge30" class="edge">
<title>Node4&#45;&gt;Node3</title>
<path fill="none" stroke="#63b8ff" d="M352.69,-326.06C334.04,-321.81 314.32,-316.89 296.97,-312.14"/>
<polygon fill="#63b8ff" stroke="#63b8ff" points="297.98,-308.79 287.4,-309.46 296.09,-315.53 297.98,-308.79"/>
</g>
<!-- Node5 -->
<g id="node5" class="node">
<title>Node5</title>
<g id="a_node5"><a xlink:href="$classce103__hw3__library__lib_1_1_book_functions.html#aeb0f4b25699b7ca705f259d228730ef5" xlink:title=" ">
<polygon fill="white" stroke="#666666" points="685,-192.66 548,-192.66 548,-162.66 685,-162.66 685,-192.66"/>
<text text-anchor="start" x="556" y="-180.66" font-family="Helvetica,sans-Serif" font-size="10.00">ce103_hw3_library_lib.Book</text>
<text text-anchor="middle" x="616.5" y="-169.66" font-family="Helvetica,sans-Serif" font-size="10.00">Functions.AddBook</text>
</a>
</g>
</g>
<!-- Node4&#45;&gt;Node5 -->
<g id="edge4" class="edge">
<title>Node4&#45;&gt;Node5</title>
<path fill="none" stroke="#63b8ff" d="M433.78,-321.57C448.99,-293.61 485.35,-233.69 533,-201.66 534.86,-200.41 536.78,-199.22 538.75,-198.1"/>
<polygon fill="#63b8ff" stroke="#63b8ff" points="540.26,-201.26 547.64,-193.65 537.13,-195 540.26,-201.26"/>
</g>
<!-- Node7 -->
<g id="node7" class="node">
<title>Node7</title>
<g id="a_node7"><a xlink:href="$classce103__hw3__library__lib_1_1library.html#a84facf753a1182bffc9b0309adc8dadb" xlink:title=" ">
<polygon fill="white" stroke="#666666" points="700,-518.16 533,-518.16 533,-499.16 700,-499.16 700,-518.16"/>
<text text-anchor="middle" x="616.5" y="-506.16" font-family="Helvetica,sans-Serif" font-size="10.00">ce103_hw3_library_lib.library.Back</text>
</a>
</g>
</g>
<!-- Node4&#45;&gt;Node7 -->
<g id="edge7" class="edge">
<title>Node4&#45;&gt;Node7</title>
<path fill="none" stroke="#63b8ff" d="M432.2,-352.08C445.59,-383.32 480.33,-454.13 533,-489.66 535.4,-491.27 537.92,-492.76 540.52,-494.11"/>
<polygon fill="#63b8ff" stroke="#63b8ff" points="538.98,-497.26 549.54,-498.13 541.83,-490.87 538.98,-497.26"/>
</g>
<!-- Node8 -->
<g id="node8" class="node">
<title>Node8</title>
<g id="a_node8"><a xlink:href="$classce103__hw3__library__lib_1_1_book_functions.html#a859f030ca58df3aef0ca202c2df131ab" xlink:title=" ">
<polygon fill="white" stroke="#666666" points="685,-480.66 548,-480.66 548,-450.66 685,-450.66 685,-480.66"/>
<text text-anchor="start" x="556" y="-468.66" font-family="Helvetica,sans-Serif" font-size="10.00">ce103_hw3_library_lib.Book</text>
<text text-anchor="middle" x="616.5" y="-457.66" font-family="Helvetica,sans-Serif" font-size="10.00">Functions.DeleteBook</text>
</a>
</g>
</g>
<!-- Node4&#45;&gt;Node8 -->
<g id="edge10" class="edge">
<title>Node4&#45;&gt;Node8</title>
<path fill="none" stroke="#63b8ff" d="M437.41,-351.91C455.28,-374.75 492.12,-417.73 533,-441.66 535.34,-443.02 537.75,-444.32 540.23,-445.54"/>
<polygon fill="#63b8ff" stroke="#63b8ff" points="538.75,-448.71 549.31,-449.57 541.6,-442.32 538.75,-448.71"/>
</g>
<!-- Node10 -->
<g id="node10" class="node">
<title>Node10</title>
<g id="a_node10"><a xlink:href="$classce103__hw3__library__lib_1_1_book_functions.html#ac536d1aa3a17ba7ce32e8d9ea0cd4950" xlink:title=" ">
<polygon fill="white" stroke="#666666" points="685,-240.66 548,-240.66 548,-210.66 685,-210.66 685,-240.66"/>
<text text-anchor="start" x="556" y="-228.66" font-family="Helvetica,sans-Serif" font-size="10.00">ce103_hw3_library_lib.Book</text>
<text text-anchor="middle" x="616.5" y="-217.66" font-family="Helvetica,sans-Serif" font-size="10.00">Functions.EditBook</text>
</a>
</g>
</g>
<!-- Node4&#45;&gt;Node10 -->
<g id="edge13" class="edge">
<title>Node4&#45;&gt;Node10</title>
<path fill="none" stroke="#63b8ff" d="M440.88,-321.22C460.35,-301.86 496.32,-268.89 533,-249.66 536.01,-248.08 539.13,-246.59 542.33,-245.19"/>
<polygon fill="#63b8ff" stroke="#63b8ff" points="543.36,-248.55 551.33,-241.58 540.75,-242.06 543.36,-248.55"/>
</g>
<!-- Node12 -->
<g id="node12" class="node">
<title>Node12</title>
<g id="a_node12"><a xlink:href="$classce103__hw3__library__lib_1_1_book_functions.html#ae4b718abfd1ef505ca816bada5a5053f" xlink:title=" ">
<polygon fill="white" stroke="#666666" points="685,-432.66 548,-432.66 548,-402.66 685,-402.66 685,-432.66"/>
<text text-anchor="start" x="556" y="-420.66" font-family="Helvetica,sans-Serif" font-size="10.00">ce103_hw3_library_lib.Book</text>
<text text-anchor="middle" x="616.5" y="-409.66" font-family="Helvetica,sans-Serif" font-size="10.00">Functions.ListBook</text>
</a>
</g>
</g>
<!-- Node4&#45;&gt;Node12 -->
<g id="edge16" class="edge">
<title>Node4&#45;&gt;Node12</title>
<path fill="none" stroke="#63b8ff" d="M451.23,-352.01C472.47,-364.47 503.95,-381.84 533,-393.66 537.27,-395.4 541.72,-397.06 546.24,-398.65"/>
<polygon fill="#63b8ff" stroke="#63b8ff" points="544.81,-401.87 555.41,-401.74 547.04,-395.23 544.81,-401.87"/>
</g>
<!-- Node13 -->
<g id="node13" class="node">
<title>Node13</title>
<g id="a_node13"><a xlink:href="$classce103__hw3__library__lib_1_1_book_functions.html#abc272bb655ce11abfa5cb33d995132b7" xlink:title=" ">
<polygon fill="white" stroke="#666666" points="685,-384.66 548,-384.66 548,-354.66 685,-354.66 685,-384.66"/>
<text text-anchor="start" x="556" y="-372.66" font-family="Helvetica,sans-Serif" font-size="10.00">ce103_hw3_library_lib.Book</text>
<text text-anchor="middle" x="616.5" y="-361.66" font-family="Helvetica,sans-Serif" font-size="10.00">Functions.ListBorrowBook</text>
</a>
</g>
</g>
<!-- Node4&#45;&gt;Node13 -->
<g id="edge19" class="edge">
<title>Node4&#45;&gt;Node13</title>
<path fill="none" stroke="#63b8ff" d="M497.37,-349.09C510.11,-351.3 523.45,-353.63 536.39,-355.88"/>
<polygon fill="#63b8ff" stroke="#63b8ff" points="535.7,-359.31 546.15,-357.58 536.9,-352.42 535.7,-359.31"/>
</g>
<!-- Node14 -->
<g id="node14" class="node">
<title>Node14</title>
<g id="a_node14"><a xlink:href="$classce103__hw3__library__lib_1_1_book_functions.html#af9a659e47a42e3f7ec1a29e280282a51" xlink:title=" ">
<polygon fill="white" stroke="#666666" points="685,-336.66 548,-336.66 548,-306.66 685,-306.66 685,-336.66"/>
<text text-anchor="start" x="556" y="-324.66" font-family="Helvetica,sans-Serif" font-size="10.00">ce103_hw3_library_lib.Book</text>
<text text-anchor="middle" x="616.5" y="-313.66" font-family="Helvetica,sans-Serif" font-size="10.00">Functions.ReturnBook</text>
</a>
</g>
</g>
<!-- Node4&#45;&gt;Node14 -->
<g id="edge22" class="edge">
<title>Node4&#45;&gt;Node14</title>
<path fill="none" stroke="#63b8ff" d="M497.37,-331.01C510.11,-330 523.45,-328.94 536.39,-327.92"/>
<polygon fill="#63b8ff" stroke="#63b8ff" points="536.44,-331.43 546.13,-327.15 535.88,-324.45 536.44,-331.43"/>
</g>
<!-- Node4&#45;&gt;Node15 -->
<g id="edge26" class="edge">
<title>Node4&#45;&gt;Node15</title>
<path fill="none" stroke="#63b8ff" d="M430.36,-321.28C441.27,-285.74 473.25,-197.59 533,-153.66 534.94,-152.23 536.98,-150.9 539.08,-149.68"/>
<polygon fill="#63b8ff" stroke="#63b8ff" points="540.57,-152.84 548,-145.29 537.48,-146.56 540.57,-152.84"/>
</g>
<!-- Node18 -->
<g id="node18" class="node">
<title>Node18</title>
<g id="a_node18"><a xlink:href="$classce103__hw3__library__lib_1_1_book_functions.html#a81bb6f1f81a84ca37529ce32a397df10" xlink:title=" ">
<polygon fill="white" stroke="#666666" points="685,-288.66 548,-288.66 548,-258.66 685,-258.66 685,-288.66"/>
<text text-anchor="start" x="556" y="-276.66" font-family="Helvetica,sans-Serif" font-size="10.00">ce103_hw3_library_lib.Book</text>
<text text-anchor="middle" x="616.5" y="-265.66" font-family="Helvetica,sans-Serif" font-size="10.00">Functions.SearchBook</text>
</a>
</g>
</g>
<!-- Node4&#45;&gt;Node18 -->
<g id="edge31" class="edge">
<title>Node4&#45;&gt;Node18</title>
<path fill="none" stroke="#63b8ff" d="M466.43,-321.2C486.36,-313.77 510.83,-304.91 533,-297.66 538.44,-295.88 544.11,-294.09 549.81,-292.34"/>
<polygon fill="#63b8ff" stroke="#63b8ff" points="550.75,-295.71 559.31,-289.46 548.73,-289.01 550.75,-295.71"/>
</g>
<!-- Node5&#45;&gt;Node3 -->
<g id="edge6" class="edge">
<title>Node5&#45;&gt;Node3</title>
<path fill="none" stroke="#63b8ff" d="M547.72,-190.04C494.01,-200.83 417.54,-218.41 353,-241.66 329.17,-250.24 303.62,-262.53 283.46,-273.01"/>
<polygon fill="#63b8ff" stroke="#63b8ff" points="282,-269.82 274.79,-277.59 285.27,-276.01 282,-269.82"/>
</g>
<!-- Node6 -->
<g id="node6" class="node">
<title>Node6</title>
<g id="a_node6"><a xlink:href="$classce103__hw3__library__lib_1_1_file_utility.html#a6b9ef5a028f3e26107779e0a3f300aef" xlink:title=" ">
<polygon fill="white" stroke="#666666" points="873.5,-197.66 742.5,-197.66 742.5,-167.66 873.5,-167.66 873.5,-197.66"/>
<text text-anchor="start" x="750.5" y="-185.66" font-family="Helvetica,sans-Serif" font-size="10.00">ce103_hw3_library_lib.File</text>
<text text-anchor="middle" x="808" y="-174.66" font-family="Helvetica,sans-Serif" font-size="10.00">Utility.AppendBlock</text>
</a>
</g>
</g>
<!-- Node5&#45;&gt;Node6 -->
<g id="edge5" class="edge">
<title>Node5&#45;&gt;Node6</title>
<path fill="none" stroke="#63b8ff" d="M685.38,-179.45C700.1,-179.84 715.77,-180.25 730.8,-180.65"/>
<polygon fill="#63b8ff" stroke="#63b8ff" points="730.53,-184.14 740.62,-180.9 730.71,-177.14 730.53,-184.14"/>
</g>
<!-- Node7&#45;&gt;Node3 -->
<g id="edge8" class="edge">
<title>Node7&#45;&gt;Node3</title>
<path fill="none" stroke="#63b8ff" d="M532.68,-506.39C477.64,-501.31 406.02,-487.52 353,-451.66 304.22,-418.66 271.59,-355.31 256.2,-319.66"/>
<polygon fill="#63b8ff" stroke="#63b8ff" points="259.48,-318.42 252.4,-310.54 253.02,-321.11 259.48,-318.42"/>
</g>
<!-- Node8&#45;&gt;Node3 -->
<g id="edge12" class="edge">
<title>Node8&#45;&gt;Node3</title>
<path fill="none" stroke="#63b8ff" d="M547.73,-464.37C492.13,-460.63 413.05,-448.99 353,-414.66 312.02,-391.23 278.67,-346.3 260.63,-318.27"/>
<polygon fill="#63b8ff" stroke="#63b8ff" points="263.77,-316.68 255.5,-310.06 257.84,-320.39 263.77,-316.68"/>
</g>
<!-- Node9 -->
<g id="node9" class="node">
<title>Node9</title>
<g id="a_node9"><a xlink:href="$classce103__hw3__library__lib_1_1_file_utility.html#ad1233745f44f8159d86b0692c3a24b21" xlink:title=" ">
<polygon fill="white" stroke="#666666" points="873.5,-480.66 742.5,-480.66 742.5,-450.66 873.5,-450.66 873.5,-480.66"/>
<text text-anchor="start" x="750.5" y="-468.66" font-family="Helvetica,sans-Serif" font-size="10.00">ce103_hw3_library_lib.File</text>
<text text-anchor="middle" x="808" y="-457.66" font-family="Helvetica,sans-Serif" font-size="10.00">Utility.DeleteBlock</text>
</a>
</g>
</g>
<!-- Node8&#45;&gt;Node9 -->
<g id="edge11" class="edge">
<title>Node8&#45;&gt;Node9</title>
<path fill="none" stroke="#63b8ff" d="M685.38,-465.66C700.1,-465.66 715.77,-465.66 730.8,-465.66"/>
<polygon fill="#63b8ff" stroke="#63b8ff" points="730.62,-469.16 740.62,-465.66 730.62,-462.16 730.62,-469.16"/>
</g>
<!-- Node10&#45;&gt;Node3 -->
<g id="edge14" class="edge">
<title>Node10&#45;&gt;Node3</title>
<path fill="none" stroke="#63b8ff" d="M547.65,-236.49C494.56,-245.15 418.94,-257.92 353,-270.66 344.54,-272.29 335.72,-274.07 326.93,-275.88"/>
<polygon fill="#63b8ff" stroke="#63b8ff" points="326.4,-272.42 317.33,-277.89 327.83,-279.27 326.4,-272.42"/>
</g>
<!-- Node10&#45;&gt;Node11 -->
<g id="edge15" class="edge">
<title>Node10&#45;&gt;Node11</title>
<path fill="none" stroke="#63b8ff" d="M685.38,-227.45C700.1,-227.84 715.77,-228.25 730.8,-228.65"/>
<polygon fill="#63b8ff" stroke="#63b8ff" points="730.53,-232.14 740.62,-228.9 730.71,-225.14 730.53,-232.14"/>
</g>
<!-- Node12&#45;&gt;Node2 -->
<g id="edge17" class="edge">
<title>Node12&#45;&gt;Node2</title>
<path fill="none" stroke="#63b8ff" d="M678.5,-402.2C696.51,-397.64 716.38,-392.61 735.01,-387.89"/>
<polygon fill="#63b8ff" stroke="#63b8ff" points="735.81,-391.3 744.65,-385.45 734.09,-384.51 735.81,-391.3"/>
</g>
<!-- Node12&#45;&gt;Node3 -->
<g id="edge18" class="edge">
<title>Node12&#45;&gt;Node3</title>
<path fill="none" stroke="#63b8ff" d="M547.73,-419.21C493.01,-418.08 415.16,-410.97 353,-383.66 318.58,-368.53 286.65,-338.77 266.79,-317.61"/>
<polygon fill="#63b8ff" stroke="#63b8ff" points="269.39,-315.28 260.06,-310.26 264.23,-320 269.39,-315.28"/>
</g>
<!-- Node13&#45;&gt;Node2 -->
<g id="edge20" class="edge">
<title>Node13&#45;&gt;Node2</title>
<path fill="none" stroke="#63b8ff" d="M685.38,-369.66C700.1,-369.66 715.77,-369.66 730.8,-369.66"/>
<polygon fill="#63b8ff" stroke="#63b8ff" points="730.62,-373.16 740.62,-369.66 730.62,-366.16 730.62,-373.16"/>
</g>
<!-- Node13&#45;&gt;Node3 -->
<g id="edge21" class="edge">
<title>Node13&#45;&gt;Node3</title>
<path fill="none" stroke="#63b8ff" d="M547.57,-376.85C493.61,-380.32 416.88,-380.2 353,-360.66 323.15,-351.52 293.39,-331.81 272.86,-316.12"/>
<polygon fill="#63b8ff" stroke="#63b8ff" points="275.05,-313.39 265.03,-309.96 270.73,-318.89 275.05,-313.39"/>
</g>
<!-- Node14&#45;&gt;Node2 -->
<g id="edge23" class="edge">
<title>Node14&#45;&gt;Node2</title>
<path fill="none" stroke="#63b8ff" d="M678.5,-337.11C696.51,-341.67 716.38,-346.7 735.01,-351.42"/>
<polygon fill="#63b8ff" stroke="#63b8ff" points="734.09,-354.8 744.65,-353.86 735.81,-348.01 734.09,-354.8"/>
</g>
<!-- Node14&#45;&gt;Node3 -->
<g id="edge24" class="edge">
<title>Node14&#45;&gt;Node3</title>
<path fill="none" stroke="#63b8ff" d="M547.51,-316.49C530.98,-315.23 513.36,-313.9 497,-312.66 440.92,-308.4 377.8,-303.63 328.89,-299.93"/>
<polygon fill="#63b8ff" stroke="#63b8ff" points="329.15,-296.44 318.92,-299.17 328.62,-303.42 329.15,-296.44"/>
</g>
<!-- Node14&#45;&gt;Node11 -->
<g id="edge25" class="edge">
<title>Node14&#45;&gt;Node11</title>
<path fill="none" stroke="#63b8ff" d="M677.69,-306.27C685.31,-303.7 692.92,-300.83 700,-297.66 727.45,-285.35 756.23,-266.98 777.02,-252.59"/>
<polygon fill="#63b8ff" stroke="#63b8ff" points="778.85,-255.57 785.02,-246.96 774.82,-249.85 778.85,-255.57"/>
</g>
<!-- Node16 -->
<g id="node16" class="node">
<title>Node16</title>
<g id="a_node16"><a xlink:href="$classce103__hw3__library__lib_1_1_menu.html#af4dab9715ef5ee639001951ec8c3d5e2" xlink:title=" ">
<polygon fill="white" stroke="#666666" points="879,-149.66 737,-149.66 737,-119.66 879,-119.66 879,-149.66"/>
<text text-anchor="start" x="745" y="-137.66" font-family="Helvetica,sans-Serif" font-size="10.00">ce103_hw3_library_lib.Menu.</text>
<text text-anchor="middle" x="808" y="-126.66" font-family="Helvetica,sans-Serif" font-size="10.00">DisplayOptions</text>
</a>
</g>
</g>
<!-- Node15&#45;&gt;Node16 -->
<g id="edge27" class="edge">
<title>Node15&#45;&gt;Node16</title>
<path fill="none" stroke="#63b8ff" d="M696.49,-134.66C705.95,-134.66 715.62,-134.66 725.12,-134.66"/>
<polygon fill="#63b8ff" stroke="#63b8ff" points="725.08,-138.16 735.08,-134.66 725.08,-131.16 725.08,-138.16"/>
</g>
<!-- Node17 -->
<g id="node17" class="node">
<title>Node17</title>
<g id="a_node17"><a xlink:href="$classce103__hw3__library__lib_1_1library.html#a261e9b866de5ed430c5888e32120a346" xlink:title=" ">
<polygon fill="white" stroke="#666666" points="880,-101.66 736,-101.66 736,-71.66 880,-71.66 880,-101.66"/>
<text text-anchor="start" x="744" y="-89.66" font-family="Helvetica,sans-Serif" font-size="10.00">ce103_hw3_library_lib.library.</text>
<text text-anchor="middle" x="808" y="-78.66" font-family="Helvetica,sans-Serif" font-size="10.00">Start</text>
</a>
</g>
</g>
<!-- Node15&#45;&gt;Node17 -->
<g id="edge28" class="edge">
<title>Node15&#45;&gt;Node17</title>
<path fill="none" stroke="#63b8ff" d="M656.76,-124.71C679.44,-118.97 708.67,-111.56 735.3,-104.82"/>
<polygon fill="#63b8ff" stroke="#63b8ff" points="735.84,-108.29 744.67,-102.44 734.12,-101.51 735.84,-108.29"/>
</g>
<!-- Node17&#45;&gt;Node3 -->
<g id="edge29" class="edge">
<title>Node17&#45;&gt;Node3</title>
<path fill="none" stroke="#63b8ff" d="M735.7,-79.07C640.87,-72.57 471.46,-73.86 353,-147.66 306.27,-176.77 273.39,-234.41 257.28,-267.9"/>
<polygon fill="#63b8ff" stroke="#63b8ff" points="254.15,-266.34 253.11,-276.88 260.5,-269.29 254.15,-266.34"/>
</g>
<!-- Node18&#45;&gt;Node2 -->
<g id="edge32" class="edge">
<title>Node18&#45;&gt;Node2</title>
<path fill="none" stroke="#63b8ff" d="M678.67,-289.13C685.98,-291.65 693.24,-294.5 700,-297.66 728.67,-311.07 758.3,-331.62 779.09,-347.34"/>
<polygon fill="#63b8ff" stroke="#63b8ff" points="776.72,-349.94 786.78,-353.26 780.99,-344.39 776.72,-349.94"/>
</g>
<!-- Node18&#45;&gt;Node3 -->
<g id="edge33" class="edge">
<title>Node18&#45;&gt;Node3</title>
<path fill="none" stroke="#63b8ff" d="M547.69,-273.21C494.63,-273.35 419.02,-274.6 353,-279.66 345.04,-280.27 336.76,-281.06 328.49,-281.96"/>
<polygon fill="#63b8ff" stroke="#63b8ff" points="328.3,-278.46 318.76,-283.08 329.1,-285.42 328.3,-278.46"/>
</g>
</g>
</svg>
