<?xml version="1.0" encoding="UTF-8" standalone="no"?>
<!DOCTYPE svg PUBLIC "-//W3C//DTD SVG 1.1//EN"
 "http://www.w3.org/Graphics/SVG/1.1/DTD/svg11.dtd">
<!-- Generated by graphviz version 7.0.4 (20221203.1631)
 -->
<!-- Title: ce103_hw3_library_lib.BookFunctions.SearchBook Pages: 1 -->
<svg width="903pt" height="501pt"
 viewBox="0.00 0.00 903.00 501.30" xmlns="http://www.w3.org/2000/svg" xmlns:xlink="http://www.w3.org/1999/xlink">
<g id="graph0" class="graph" transform="scale(1 1) rotate(0) translate(4 497.3)">
<title>ce103_hw3_library_lib.BookFunctions.SearchBook</title>
<!-- Node1 -->
<g id="node1" class="node">
<title>Node1</title>
<g id="a_node1"><a xlink:title=" ">
<polygon fill="#999999" stroke="#666666" points="895,-248 758,-248 758,-218 895,-218 895,-248"/>
<text text-anchor="start" x="766" y="-236" font-family="Helvetica,sans-Serif" font-size="10.00">ce103_hw3_library_lib.Book</text>
<text text-anchor="middle" x="826.5" y="-225" font-family="Helvetica,sans-Serif" font-size="10.00">Functions.SearchBook</text>
</a>
</g>
</g>
<!-- Node2 -->
<g id="node2" class="node">
<title>Node2</title>
<g id="a_node2"><a xlink:href="$classce103__hw3__library__lib_1_1library.html#a966e08d69fdd5e4d3bf6a12af39bfe14" xlink:title=" ">
<polygon fill="white" stroke="#666666" points="722,-270 578,-270 578,-240 722,-240 722,-270"/>
<text text-anchor="start" x="586" y="-258" font-family="Helvetica,sans-Serif" font-size="10.00">ce103_hw3_library_lib.library.</text>
<text text-anchor="middle" x="650" y="-247" font-family="Helvetica,sans-Serif" font-size="10.00">BookOption</text>
</a>
</g>
</g>
<!-- Node1&#45;&gt;Node2 -->
<g id="edge1" class="edge">
<title>Node1&#45;&gt;Node2</title>
<path fill="none" stroke="#63b8ff" d="M746.29,-242.99C738.27,-244 730.16,-245.02 722.24,-246.02"/>
<polygon fill="#63b8ff" stroke="#63b8ff" points="746.55,-246.48 756.03,-241.76 745.67,-239.54 746.55,-246.48"/>
</g>
<!-- Node3 -->
<g id="node3" class="node">
<title>Node3</title>
<g id="a_node3"><a xlink:href="$classce103__hw3__library__lib_1_1library.html#a80f197f4303dd78438ec6055614382da" xlink:title=" ">
<polygon fill="white" stroke="#666666" points="542,-227 398,-227 398,-197 542,-197 542,-227"/>
<text text-anchor="start" x="406" y="-215" font-family="Helvetica,sans-Serif" font-size="10.00">ce103_hw3_library_lib.library.</text>
<text text-anchor="middle" x="470" y="-204" font-family="Helvetica,sans-Serif" font-size="10.00">RunMainMenu</text>
</a>
</g>
</g>
<!-- Node2&#45;&gt;Node3 -->
<g id="edge2" class="edge">
<title>Node2&#45;&gt;Node3</title>
<path fill="none" stroke="#63b8ff" d="M598.03,-236.52C580.68,-231.76 560.96,-226.84 542.31,-222.6"/>
<polygon fill="#63b8ff" stroke="#63b8ff" points="597.02,-239.87 607.6,-239.2 598.91,-233.13 597.02,-239.87"/>
</g>
<!-- Node3&#45;&gt;Node1 -->
<g id="edge20" class="edge">
<title>Node3&#45;&gt;Node1</title>
<path fill="none" stroke="#63b8ff" d="M553.66,-216.9C615.65,-220.57 699.46,-225.53 757.57,-228.98"/>
<polygon fill="#63b8ff" stroke="#63b8ff" points="554.05,-213.41 543.86,-216.32 553.64,-220.4 554.05,-213.41"/>
</g>
<!-- Node3&#45;&gt;Node2 -->
<g id="edge7" class="edge">
<title>Node3&#45;&gt;Node2</title>
<path fill="none" stroke="#63b8ff" d="M522.14,-230.53C539.43,-235.26 559.06,-240.16 577.63,-244.39"/>
<polygon fill="#63b8ff" stroke="#63b8ff" points="523.18,-227.19 512.61,-227.86 521.29,-233.93 523.18,-227.19"/>
</g>
<!-- Node4 -->
<g id="node4" class="node">
<title>Node4</title>
<g id="a_node4"><a xlink:href="$classce103__hw3__library__lib_1_1_book_functions.html#aeb0f4b25699b7ca705f259d228730ef5" xlink:title=" ">
<polygon fill="white" stroke="#666666" points="347,-394 210,-394 210,-364 347,-364 347,-394"/>
<text text-anchor="start" x="218" y="-382" font-family="Helvetica,sans-Serif" font-size="10.00">ce103_hw3_library_lib.Book</text>
<text text-anchor="middle" x="278.5" y="-371" font-family="Helvetica,sans-Serif" font-size="10.00">Functions.AddBook</text>
</a>
</g>
</g>
<!-- Node3&#45;&gt;Node4 -->
<g id="edge3" class="edge">
<title>Node3&#45;&gt;Node4</title>
<path fill="none" stroke="#63b8ff" d="M456.48,-237.24C439.41,-269.08 405.88,-323.35 362,-354 356.72,-357.68 350.89,-360.84 344.84,-363.53"/>
<polygon fill="#63b8ff" stroke="#63b8ff" points="459.4,-239.2 460.92,-228.71 453.2,-235.96 459.4,-239.2"/>
</g>
<!-- Node5 -->
<g id="node5" class="node">
<title>Node5</title>
<g id="a_node5"><a xlink:href="$classce103__hw3__library__lib_1_1library.html#a84facf753a1182bffc9b0309adc8dadb" xlink:title=" ">
<polygon fill="white" stroke="#666666" points="362,-345.5 195,-345.5 195,-326.5 362,-326.5 362,-345.5"/>
<text text-anchor="middle" x="278.5" y="-333.5" font-family="Helvetica,sans-Serif" font-size="10.00">ce103_hw3_library_lib.library.Back</text>
</a>
</g>
</g>
<!-- Node3&#45;&gt;Node5 -->
<g id="edge5" class="edge">
<title>Node3&#45;&gt;Node5</title>
<path fill="none" stroke="#63b8ff" d="M451.11,-236.08C431.82,-260.28 398.88,-296.8 362,-317 355.3,-320.67 347.91,-323.64 340.4,-326.03"/>
<polygon fill="#63b8ff" stroke="#63b8ff" points="453.74,-238.4 457.12,-228.36 448.22,-234.1 453.74,-238.4"/>
</g>
<!-- Node6 -->
<g id="node6" class="node">
<title>Node6</title>
<g id="a_node6"><a xlink:href="$classce103__hw3__library__lib_1_1_book_functions.html#a4d2ef5095cd896dba0b81ac4a8ca3f11" xlink:title=" ">
<polygon fill="white" stroke="#666666" points="347,-308 210,-308 210,-278 347,-278 347,-308"/>
<text text-anchor="start" x="218" y="-296" font-family="Helvetica,sans-Serif" font-size="10.00">ce103_hw3_library_lib.Book</text>
<text text-anchor="middle" x="278.5" y="-285" font-family="Helvetica,sans-Serif" font-size="10.00">Functions.BorrowBook</text>
</a>
</g>
</g>
<!-- Node3&#45;&gt;Node6 -->
<g id="edge8" class="edge">
<title>Node3&#45;&gt;Node6</title>
<path fill="none" stroke="#63b8ff" d="M433.96,-233.03C413.48,-244.72 386.85,-258.89 362,-269 354.4,-272.09 346.26,-274.96 338.16,-277.56"/>
<polygon fill="#63b8ff" stroke="#63b8ff" points="435.56,-236.15 442.46,-228.11 432.05,-230.09 435.56,-236.15"/>
</g>
<!-- Node7 -->
<g id="node7" class="node">
<title>Node7</title>
<g id="a_node7"><a xlink:href="$classce103__hw3__library__lib_1_1_book_functions.html#a859f030ca58df3aef0ca202c2df131ab" xlink:title=" ">
<polygon fill="white" stroke="#666666" points="347,-260 210,-260 210,-230 347,-230 347,-260"/>
<text text-anchor="start" x="218" y="-248" font-family="Helvetica,sans-Serif" font-size="10.00">ce103_hw3_library_lib.Book</text>
<text text-anchor="middle" x="278.5" y="-237" font-family="Helvetica,sans-Serif" font-size="10.00">Functions.DeleteBook</text>
</a>
</g>
</g>
<!-- Node3&#45;&gt;Node7 -->
<g id="edge10" class="edge">
<title>Node3&#45;&gt;Node7</title>
<path fill="none" stroke="#63b8ff" d="M386.3,-226.4C373.3,-228.67 359.98,-230.98 347.36,-233.18"/>
<polygon fill="#63b8ff" stroke="#63b8ff" points="386.89,-229.85 396.14,-224.69 385.68,-222.96 386.89,-229.85"/>
</g>
<!-- Node8 -->
<g id="node8" class="node">
<title>Node8</title>
<g id="a_node8"><a xlink:href="$classce103__hw3__library__lib_1_1_book_functions.html#ac536d1aa3a17ba7ce32e8d9ea0cd4950" xlink:title=" ">
<polygon fill="white" stroke="#666666" points="347,-126 210,-126 210,-96 347,-96 347,-126"/>
<text text-anchor="start" x="218" y="-114" font-family="Helvetica,sans-Serif" font-size="10.00">ce103_hw3_library_lib.Book</text>
<text text-anchor="middle" x="278.5" y="-103" font-family="Helvetica,sans-Serif" font-size="10.00">Functions.EditBook</text>
</a>
</g>
</g>
<!-- Node3&#45;&gt;Node8 -->
<g id="edge12" class="edge">
<title>Node3&#45;&gt;Node8</title>
<path fill="none" stroke="#63b8ff" d="M426.05,-191.21C416.46,-185.81 406.59,-179.63 398,-173 379.58,-158.78 381.86,-147.12 362,-135 356.65,-131.74 350.84,-128.9 344.85,-126.43"/>
<polygon fill="#63b8ff" stroke="#63b8ff" points="424.09,-194.12 434.55,-195.81 427.42,-187.97 424.09,-194.12"/>
</g>
<!-- Node9 -->
<g id="node9" class="node">
<title>Node9</title>
<g id="a_node9"><a xlink:href="$classce103__hw3__library__lib_1_1_book_functions.html#ae4b718abfd1ef505ca816bada5a5053f" xlink:title=" ">
<polygon fill="white" stroke="#666666" points="347,-78 210,-78 210,-48 347,-48 347,-78"/>
<text text-anchor="start" x="218" y="-66" font-family="Helvetica,sans-Serif" font-size="10.00">ce103_hw3_library_lib.Book</text>
<text text-anchor="middle" x="278.5" y="-55" font-family="Helvetica,sans-Serif" font-size="10.00">Functions.ListBook</text>
</a>
</g>
</g>
<!-- Node3&#45;&gt;Node9 -->
<g id="edge14" class="edge">
<title>Node3&#45;&gt;Node9</title>
<path fill="none" stroke="#63b8ff" d="M454.16,-187.23C435.94,-158.9 402.41,-113.07 362,-87 356.86,-83.68 351.25,-80.82 345.45,-78.33"/>
<polygon fill="#63b8ff" stroke="#63b8ff" points="451.09,-188.92 459.37,-195.53 457.02,-185.2 451.09,-188.92"/>
</g>
<!-- Node10 -->
<g id="node10" class="node">
<title>Node10</title>
<g id="a_node10"><a xlink:href="$classce103__hw3__library__lib_1_1_book_functions.html#abc272bb655ce11abfa5cb33d995132b7" xlink:title=" ">
<polygon fill="white" stroke="#666666" points="347,-30 210,-30 210,0 347,0 347,-30"/>
<text text-anchor="start" x="218" y="-18" font-family="Helvetica,sans-Serif" font-size="10.00">ce103_hw3_library_lib.Book</text>
<text text-anchor="middle" x="278.5" y="-7" font-family="Helvetica,sans-Serif" font-size="10.00">Functions.ListBorrowBook</text>
</a>
</g>
</g>
<!-- Node3&#45;&gt;Node10 -->
<g id="edge16" class="edge">
<title>Node3&#45;&gt;Node10</title>
<path fill="none" stroke="#63b8ff" d="M459.88,-185.99C445.23,-147.99 412.83,-77.64 362,-39 357.49,-35.57 352.5,-32.63 347.27,-30.11"/>
<polygon fill="#63b8ff" stroke="#63b8ff" points="456.56,-187.1 463.33,-195.25 463.12,-184.66 456.56,-187.1"/>
</g>
<!-- Node11 -->
<g id="node11" class="node">
<title>Node11</title>
<g id="a_node11"><a xlink:href="$classce103__hw3__library__lib_1_1_book_functions.html#af9a659e47a42e3f7ec1a29e280282a51" xlink:title=" ">
<polygon fill="white" stroke="#666666" points="347,-442 210,-442 210,-412 347,-412 347,-442"/>
<text text-anchor="start" x="218" y="-430" font-family="Helvetica,sans-Serif" font-size="10.00">ce103_hw3_library_lib.Book</text>
<text text-anchor="middle" x="278.5" y="-419" font-family="Helvetica,sans-Serif" font-size="10.00">Functions.ReturnBook</text>
</a>
</g>
</g>
<!-- Node3&#45;&gt;Node11 -->
<g id="edge18" class="edge">
<title>Node3&#45;&gt;Node11</title>
<path fill="none" stroke="#63b8ff" d="M461.51,-238.03C448.31,-279.24 416.96,-359.32 362,-403 357.56,-406.53 352.63,-409.54 347.43,-412.1"/>
<polygon fill="#63b8ff" stroke="#63b8ff" points="464.78,-239.3 464.38,-228.71 458.09,-237.24 464.78,-239.3"/>
</g>
<!-- Node12 -->
<g id="node12" class="node">
<title>Node12</title>
<g id="a_node12"><a xlink:href="$classce103__hw3__library__lib_1_1library.html#a261e9b866de5ed430c5888e32120a346" xlink:title=" ">
<polygon fill="white" stroke="#666666" points="350.5,-174 206.5,-174 206.5,-144 350.5,-144 350.5,-174"/>
<text text-anchor="start" x="214.5" y="-162" font-family="Helvetica,sans-Serif" font-size="10.00">ce103_hw3_library_lib.library.</text>
<text text-anchor="middle" x="278.5" y="-151" font-family="Helvetica,sans-Serif" font-size="10.00">Start</text>
</a>
</g>
</g>
<!-- Node3&#45;&gt;Node12 -->
<g id="edge21" class="edge">
<title>Node3&#45;&gt;Node12</title>
<path fill="none" stroke="#63b8ff" d="M402.68,-193.45C380.54,-187.26 356.11,-180.43 334.89,-174.49"/>
<polygon fill="#63b8ff" stroke="#63b8ff" points="401.65,-196.8 412.22,-196.12 403.53,-190.06 401.65,-196.8"/>
</g>
<!-- Node4&#45;&gt;Node2 -->
<g id="edge4" class="edge">
<title>Node4&#45;&gt;Node2</title>
<path fill="none" stroke="#63b8ff" d="M358.28,-366.63C411.4,-356.8 482.39,-340.71 542,-317 573.12,-304.62 606.05,-284.31 627.02,-270.32"/>
<polygon fill="#63b8ff" stroke="#63b8ff" points="357.93,-363.14 348.72,-368.37 359.18,-370.03 357.93,-363.14"/>
</g>
<!-- Node5&#45;&gt;Node2 -->
<g id="edge6" class="edge">
<title>Node5&#45;&gt;Node2</title>
<path fill="none" stroke="#63b8ff" d="M357.56,-324.21C410.04,-315.68 480.58,-303.03 542,-288 562.2,-283.06 584.21,-276.48 602.99,-270.5"/>
<polygon fill="#63b8ff" stroke="#63b8ff" points="357.12,-320.74 347.8,-325.78 358.23,-327.65 357.12,-320.74"/>
</g>
<!-- Node6&#45;&gt;Node2 -->
<g id="edge9" class="edge">
<title>Node6&#45;&gt;Node2</title>
<path fill="none" stroke="#63b8ff" d="M358.82,-284.84C423.84,-278.16 515.04,-268.78 577.76,-262.33"/>
<polygon fill="#63b8ff" stroke="#63b8ff" points="358.5,-281.36 348.91,-285.86 359.22,-288.32 358.5,-281.36"/>
</g>
<!-- Node7&#45;&gt;Node2 -->
<g id="edge11" class="edge">
<title>Node7&#45;&gt;Node2</title>
<path fill="none" stroke="#63b8ff" d="M358.82,-247.15C423.84,-248.91 515.04,-251.37 577.76,-253.07"/>
<polygon fill="#63b8ff" stroke="#63b8ff" points="359.01,-243.65 348.92,-246.88 358.82,-250.65 359.01,-243.65"/>
</g>
<!-- Node8&#45;&gt;Node2 -->
<g id="edge13" class="edge">
<title>Node8&#45;&gt;Node2</title>
<path fill="none" stroke="#63b8ff" d="M343.8,-129.68C349.95,-131.48 356.09,-133.27 362,-135 442.04,-158.43 465.95,-153.77 542,-188 573.78,-202.3 607.36,-224.68 628.24,-239.59"/>
<polygon fill="#63b8ff" stroke="#63b8ff" points="344.8,-126.33 334.22,-126.89 342.84,-133.05 344.8,-126.33"/>
</g>
<!-- Node9&#45;&gt;Node2 -->
<g id="edge15" class="edge">
<title>Node9&#45;&gt;Node2</title>
<path fill="none" stroke="#63b8ff" d="M358.44,-75.55C413.04,-86.82 485.7,-107.12 542,-142 584.49,-168.32 621.45,-215.61 638.68,-239.82"/>
<polygon fill="#63b8ff" stroke="#63b8ff" points="359.4,-72.17 348.91,-73.65 358.03,-79.04 359.4,-72.17"/>
</g>
<!-- Node10&#45;&gt;Node2 -->
<g id="edge17" class="edge">
<title>Node10&#45;&gt;Node2</title>
<path fill="none" stroke="#63b8ff" d="M358.72,-19.29C414.58,-25.81 488.65,-41.87 542,-81 599.19,-122.95 632.33,-205.55 644.09,-239.69"/>
<polygon fill="#63b8ff" stroke="#63b8ff" points="359.27,-15.83 348.95,-18.24 358.52,-22.79 359.27,-15.83"/>
</g>
<!-- Node11&#45;&gt;Node2 -->
<g id="edge19" class="edge">
<title>Node11&#45;&gt;Node2</title>
<path fill="none" stroke="#63b8ff" d="M358.49,-414.24C412.6,-403.2 484.66,-383.87 542,-352 581.01,-330.32 617.5,-291.89 636.12,-270.49"/>
<polygon fill="#63b8ff" stroke="#63b8ff" points="357.84,-410.8 348.71,-416.17 359.2,-417.67 357.84,-410.8"/>
</g>
<!-- Node13 -->
<g id="node13" class="node">
<title>Node13</title>
<g id="a_node13"><a xlink:href="$classce103__hw3__library__lib_1_1_password_content.html#a4c3fd18dd3032675ace132457ebaedba" xlink:title=" ">
<polygon fill="white" stroke="#666666" points="158.5,-165 0.5,-165 0.5,-135 158.5,-135 158.5,-165"/>
<text text-anchor="start" x="8.5" y="-153" font-family="Helvetica,sans-Serif" font-size="10.00">ce103_hw3_library_lib.Password</text>
<text text-anchor="middle" x="79.5" y="-142" font-family="Helvetica,sans-Serif" font-size="10.00">Content.password</text>
</a>
</g>
</g>
<!-- Node12&#45;&gt;Node13 -->
<g id="edge22" class="edge">
<title>Node12&#45;&gt;Node13</title>
<path fill="none" stroke="#63b8ff" d="M194.84,-155.22C182.96,-154.68 170.77,-154.12 158.98,-153.59"/>
<polygon fill="#63b8ff" stroke="#63b8ff" points="194.44,-158.71 204.59,-155.67 194.76,-151.72 194.44,-158.71"/>
</g>
<!-- Node14 -->
<g id="node14" class="node">
<title>Node14</title>
<g id="a_node14"><a xlink:href="$classce103__hw3__library__lib_1_1_menu.html#a83866faf86a98cdc36d517e8ed443534" xlink:title=" ">
<polygon fill="white" stroke="#666666" points="159,-220.5 0,-220.5 0,-201.5 159,-201.5 159,-220.5"/>
<text text-anchor="middle" x="79.5" y="-208.5" font-family="Helvetica,sans-Serif" font-size="10.00">ce103_hw3_library_lib.Menu.Run</text>
</a>
</g>
</g>
<!-- Node12&#45;&gt;Node14 -->
<g id="edge24" class="edge">
<title>Node12&#45;&gt;Node14</title>
<path fill="none" stroke="#63b8ff" d="M212.96,-177.4C195.48,-182.27 176.54,-187.44 159,-192 147.33,-195.04 134.64,-198.18 122.94,-201.01"/>
<polygon fill="#63b8ff" stroke="#63b8ff" points="213.48,-180.89 222.17,-174.83 211.6,-174.15 213.48,-180.89"/>
</g>
<!-- Node13&#45;&gt;Node13 -->
<g id="edge23" class="edge">
<title>Node13&#45;&gt;Node13</title>
<path fill="none" stroke="#63b8ff" d="M113.08,-176.61C107.7,-180.43 96.5,-183 79.5,-183 48.41,-183 36.75,-174.41 44.52,-165.28"/>
<polygon fill="#63b8ff" stroke="#63b8ff" points="116.54,-177.13 114.29,-166.78 109.59,-176.27 116.54,-177.13"/>
</g>
<!-- Node14&#45;&gt;Node2 -->
<g id="edge25" class="edge">
<title>Node14&#45;&gt;Node2</title>
<path fill="none" stroke="#63b8ff" d="M83.16,-232.26C90.57,-281.18 116.33,-401.37 195,-451 327.31,-534.47 413.98,-481.9 542,-392 589.42,-358.7 625.9,-298.29 641.17,-270.16"/>
<polygon fill="#63b8ff" stroke="#63b8ff" points="86.64,-231.87 81.8,-222.45 79.71,-232.83 86.64,-231.87"/>
</g>
<!-- Node14&#45;&gt;Node3 -->
<g id="edge26" class="edge">
<title>Node14&#45;&gt;Node3</title>
<path fill="none" stroke="#63b8ff" d="M170.63,-211.23C239.74,-211.41 333.83,-211.65 397.74,-211.82"/>
<polygon fill="#63b8ff" stroke="#63b8ff" points="170.85,-207.73 160.84,-211.21 170.83,-214.73 170.85,-207.73"/>
</g>
</g>
</svg>
