<?xml version="1.0" encoding="UTF-8" standalone="no"?>
<!DOCTYPE svg PUBLIC "-//W3C//DTD SVG 1.1//EN"
 "http://www.w3.org/Graphics/SVG/1.1/DTD/svg11.dtd">
<!-- Generated by graphviz version 7.0.4 (20221203.1631)
 -->
<!-- Title: ce103_hw3_library_lib.BookFunctions.ReturnBook Pages: 1 -->
<svg width="888pt" height="563pt"
 viewBox="0.00 0.00 888.00 562.59" xmlns="http://www.w3.org/2000/svg" xmlns:xlink="http://www.w3.org/1999/xlink">
<g id="graph0" class="graph" transform="scale(1 1) rotate(0) translate(4 558.59)">
<title>ce103_hw3_library_lib.BookFunctions.ReturnBook</title>
<!-- Node1 -->
<g id="node1" class="node">
<title>Node1</title>
<g id="a_node1"><a xlink:title=" ">
<polygon fill="#999999" stroke="#666666" points="137,-459.5 0,-459.5 0,-429.5 137,-429.5 137,-459.5"/>
<text text-anchor="start" x="8" y="-447.5" font-family="Helvetica,sans-Serif" font-size="10.00">ce103_hw3_library_lib.Book</text>
<text text-anchor="middle" x="68.5" y="-436.5" font-family="Helvetica,sans-Serif" font-size="10.00">Functions.ReturnBook</text>
</a>
</g>
</g>
<!-- Node2 -->
<g id="node2" class="node">
<title>Node2</title>
<g id="a_node2"><a xlink:href="$classce103__hw3__library__lib_1_1_file_utility.html#a0706a9eaee6532bd3a42dda3579c9158" xlink:title=" ">
<polygon fill="white" stroke="#666666" points="873.5,-363.5 742.5,-363.5 742.5,-333.5 873.5,-333.5 873.5,-363.5"/>
<text text-anchor="start" x="750.5" y="-351.5" font-family="Helvetica,sans-Serif" font-size="10.00">ce103_hw3_library_lib.File</text>
<text text-anchor="middle" x="808" y="-340.5" font-family="Helvetica,sans-Serif" font-size="10.00">Utility.ReadBlock</text>
</a>
</g>
</g>
<!-- Node1&#45;&gt;Node2 -->
<g id="edge1" class="edge">
<title>Node1&#45;&gt;Node2</title>
<path fill="none" stroke="#63b8ff" d="M137.25,-455.81C279.27,-478.19 603.03,-521.99 700,-473.5 723.85,-461.58 718.94,-446 736,-425.5 751.46,-406.93 770.01,-386.88 784.27,-371.9"/>
<polygon fill="#63b8ff" stroke="#63b8ff" points="786.67,-374.45 791.06,-364.81 781.62,-369.61 786.67,-374.45"/>
</g>
<!-- Node3 -->
<g id="node3" class="node">
<title>Node3</title>
<g id="a_node3"><a xlink:href="$classce103__hw3__library__lib_1_1library.html#a80f197f4303dd78438ec6055614382da" xlink:title=" ">
<polygon fill="white" stroke="#666666" points="317,-266.5 173,-266.5 173,-236.5 317,-236.5 317,-266.5"/>
<text text-anchor="start" x="181" y="-254.5" font-family="Helvetica,sans-Serif" font-size="10.00">ce103_hw3_library_lib.library.</text>
<text text-anchor="middle" x="245" y="-243.5" font-family="Helvetica,sans-Serif" font-size="10.00">RunMainMenu</text>
</a>
</g>
</g>
<!-- Node1&#45;&gt;Node3 -->
<g id="edge2" class="edge">
<title>Node1&#45;&gt;Node3</title>
<path fill="none" stroke="#63b8ff" d="M83.49,-429.03C113.94,-395.35 186.41,-315.2 222.63,-275.14"/>
<polygon fill="#63b8ff" stroke="#63b8ff" points="225.06,-277.66 229.18,-267.9 219.87,-272.97 225.06,-277.66"/>
</g>
<!-- Node9 -->
<g id="node9" class="node">
<title>Node9</title>
<g id="a_node9"><a xlink:href="$classce103__hw3__library__lib_1_1_file_utility.html#a3258416645b5a69d8d0eb9ac217b2c20" xlink:title=" ">
<polygon fill="white" stroke="#666666" points="873.5,-464.5 742.5,-464.5 742.5,-434.5 873.5,-434.5 873.5,-464.5"/>
<text text-anchor="start" x="750.5" y="-452.5" font-family="Helvetica,sans-Serif" font-size="10.00">ce103_hw3_library_lib.File</text>
<text text-anchor="middle" x="808" y="-441.5" font-family="Helvetica,sans-Serif" font-size="10.00">Utility.UpdateBlock</text>
</a>
</g>
</g>
<!-- Node1&#45;&gt;Node9 -->
<g id="edge36" class="edge">
<title>Node1&#45;&gt;Node9</title>
<path fill="none" stroke="#63b8ff" d="M87.44,-459.98C106.97,-475.72 139.88,-499.09 173,-508.5 398.3,-572.53 473.17,-566.89 700,-508.5 728.07,-501.28 756.66,-484.95 777.22,-471.31"/>
<polygon fill="#63b8ff" stroke="#63b8ff" points="779.1,-474.26 785.37,-465.73 775.14,-468.48 779.1,-474.26"/>
</g>
<!-- Node4 -->
<g id="node4" class="node">
<title>Node4</title>
<g id="a_node4"><a xlink:href="$classce103__hw3__library__lib_1_1library.html#a966e08d69fdd5e4d3bf6a12af39bfe14" xlink:title=" ">
<polygon fill="white" stroke="#666666" points="497,-266.5 353,-266.5 353,-236.5 497,-236.5 497,-266.5"/>
<text text-anchor="start" x="361" y="-254.5" font-family="Helvetica,sans-Serif" font-size="10.00">ce103_hw3_library_lib.library.</text>
<text text-anchor="middle" x="425" y="-243.5" font-family="Helvetica,sans-Serif" font-size="10.00">BookOption</text>
</a>
</g>
</g>
<!-- Node3&#45;&gt;Node4 -->
<g id="edge3" class="edge">
<title>Node3&#45;&gt;Node4</title>
<path fill="none" stroke="#63b8ff" d="M317.37,-244.87C325.26,-244.76 333.34,-244.73 341.36,-244.77"/>
<polygon fill="#63b8ff" stroke="#63b8ff" points="341.06,-248.26 351.1,-244.86 341.13,-241.26 341.06,-248.26"/>
</g>
<!-- Node15 -->
<g id="node15" class="node">
<title>Node15</title>
<g id="a_node15"><a xlink:href="$classce103__hw3__library__lib_1_1_menu.html#a83866faf86a98cdc36d517e8ed443534" xlink:title=" ">
<polygon fill="white" stroke="#666666" points="696,-70 537,-70 537,-51 696,-51 696,-70"/>
<text text-anchor="middle" x="616.5" y="-58" font-family="Helvetica,sans-Serif" font-size="10.00">ce103_hw3_library_lib.Menu.Run</text>
</a>
</g>
</g>
<!-- Node3&#45;&gt;Node15 -->
<g id="edge35" class="edge">
<title>Node3&#45;&gt;Node15</title>
<path fill="none" stroke="#63b8ff" d="M254.38,-236.28C270.05,-209.34 306.44,-153.36 353,-124.5 405.02,-92.26 472.2,-76.26 525.57,-68.32"/>
<polygon fill="#63b8ff" stroke="#63b8ff" points="525.83,-71.82 535.24,-66.95 524.85,-64.88 525.83,-71.82"/>
</g>
<!-- Node19 -->
<g id="node19" class="node">
<title>Node19</title>
<g id="a_node19"><a xlink:href="$classce103__hw3__library__lib_1_1library.html#a754cac172f3b071c7eea3f07777aac68" xlink:title=" ">
<polygon fill="white" stroke="#666666" points="497,-352.5 353,-352.5 353,-322.5 497,-322.5 497,-352.5"/>
<text text-anchor="start" x="361" y="-340.5" font-family="Helvetica,sans-Serif" font-size="10.00">ce103_hw3_library_lib.library.</text>
<text text-anchor="middle" x="425" y="-329.5" font-family="Helvetica,sans-Serif" font-size="10.00">ExitApp</text>
</a>
</g>
</g>
<!-- Node3&#45;&gt;Node19 -->
<g id="edge34" class="edge">
<title>Node3&#45;&gt;Node19</title>
<path fill="none" stroke="#63b8ff" d="M272.88,-266.8C294.29,-278.75 325.18,-295.45 353,-308.5 359.72,-311.65 366.88,-314.81 373.98,-317.82"/>
<polygon fill="#63b8ff" stroke="#63b8ff" points="372.28,-320.9 382.86,-321.52 374.98,-314.44 372.28,-320.9"/>
</g>
<!-- Node4&#45;&gt;Node1 -->
<g id="edge25" class="edge">
<title>Node4&#45;&gt;Node1</title>
<path fill="none" stroke="#63b8ff" d="M395.95,-266.78C332.86,-301.12 179.73,-384.49 107.9,-423.6"/>
<polygon fill="#63b8ff" stroke="#63b8ff" points="106.35,-420.45 99.24,-428.31 109.7,-426.6 106.35,-420.45"/>
</g>
<!-- Node4&#45;&gt;Node3 -->
<g id="edge30" class="edge">
<title>Node4&#45;&gt;Node3</title>
<path fill="none" stroke="#63b8ff" d="M352.61,-258.13C344.72,-258.24 336.64,-258.27 328.63,-258.24"/>
<polygon fill="#63b8ff" stroke="#63b8ff" points="328.92,-254.74 318.89,-258.15 328.85,-261.74 328.92,-254.74"/>
</g>
<!-- Node5 -->
<g id="node5" class="node">
<title>Node5</title>
<g id="a_node5"><a xlink:href="$classce103__hw3__library__lib_1_1_book_functions.html#aeb0f4b25699b7ca705f259d228730ef5" xlink:title=" ">
<polygon fill="white" stroke="#666666" points="685,-127.5 548,-127.5 548,-97.5 685,-97.5 685,-127.5"/>
<text text-anchor="start" x="556" y="-115.5" font-family="Helvetica,sans-Serif" font-size="10.00">ce103_hw3_library_lib.Book</text>
<text text-anchor="middle" x="616.5" y="-104.5" font-family="Helvetica,sans-Serif" font-size="10.00">Functions.AddBook</text>
</a>
</g>
</g>
<!-- Node4&#45;&gt;Node5 -->
<g id="edge4" class="edge">
<title>Node4&#45;&gt;Node5</title>
<path fill="none" stroke="#63b8ff" d="M435.94,-236.38C452.9,-211.76 489.82,-163.11 533,-136.5 535.17,-135.17 537.41,-133.9 539.71,-132.71"/>
<polygon fill="#63b8ff" stroke="#63b8ff" points="541.14,-135.9 548.74,-128.52 538.2,-129.55 541.14,-135.9"/>
</g>
<!-- Node7 -->
<g id="node7" class="node">
<title>Node7</title>
<g id="a_node7"><a xlink:href="$classce103__hw3__library__lib_1_1library.html#a84facf753a1182bffc9b0309adc8dadb" xlink:title=" ">
<polygon fill="white" stroke="#666666" points="700,-261 533,-261 533,-242 700,-242 700,-261"/>
<text text-anchor="middle" x="616.5" y="-249" font-family="Helvetica,sans-Serif" font-size="10.00">ce103_hw3_library_lib.library.Back</text>
</a>
</g>
</g>
<!-- Node4&#45;&gt;Node7 -->
<g id="edge7" class="edge">
<title>Node4&#45;&gt;Node7</title>
<path fill="none" stroke="#63b8ff" d="M497.37,-251.5C505.22,-251.5 513.29,-251.5 521.35,-251.5"/>
<polygon fill="#63b8ff" stroke="#63b8ff" points="521.22,-255 531.22,-251.5 521.22,-248 521.22,-255"/>
</g>
<!-- Node8 -->
<g id="node8" class="node">
<title>Node8</title>
<g id="a_node8"><a xlink:href="$classce103__hw3__library__lib_1_1_book_functions.html#a4d2ef5095cd896dba0b81ac4a8ca3f11" xlink:title=" ">
<polygon fill="white" stroke="#666666" points="685,-414.5 548,-414.5 548,-384.5 685,-384.5 685,-414.5"/>
<text text-anchor="start" x="556" y="-402.5" font-family="Helvetica,sans-Serif" font-size="10.00">ce103_hw3_library_lib.Book</text>
<text text-anchor="middle" x="616.5" y="-391.5" font-family="Helvetica,sans-Serif" font-size="10.00">Functions.BorrowBook</text>
</a>
</g>
</g>
<!-- Node4&#45;&gt;Node8 -->
<g id="edge9" class="edge">
<title>Node4&#45;&gt;Node8</title>
<path fill="none" stroke="#63b8ff" d="M446.79,-266.87C461.82,-278.6 482.02,-295.73 497,-313.5 516.8,-336.99 508.91,-353.44 533,-372.5 535.89,-374.79 538.99,-376.89 542.22,-378.82"/>
<polygon fill="#63b8ff" stroke="#63b8ff" points="540.44,-381.84 550.93,-383.38 543.69,-375.64 540.44,-381.84"/>
</g>
<!-- Node10 -->
<g id="node10" class="node">
<title>Node10</title>
<g id="a_node10"><a xlink:href="$classce103__hw3__library__lib_1_1_book_functions.html#a859f030ca58df3aef0ca202c2df131ab" xlink:title=" ">
<polygon fill="white" stroke="#666666" points="685,-175.5 548,-175.5 548,-145.5 685,-145.5 685,-175.5"/>
<text text-anchor="start" x="556" y="-163.5" font-family="Helvetica,sans-Serif" font-size="10.00">ce103_hw3_library_lib.Book</text>
<text text-anchor="middle" x="616.5" y="-152.5" font-family="Helvetica,sans-Serif" font-size="10.00">Functions.DeleteBook</text>
</a>
</g>
</g>
<!-- Node4&#45;&gt;Node10 -->
<g id="edge13" class="edge">
<title>Node4&#45;&gt;Node10</title>
<path fill="none" stroke="#63b8ff" d="M446.75,-236.07C467.62,-221.15 501.2,-198.75 533,-184.5 536.76,-182.82 540.67,-181.22 544.65,-179.7"/>
<polygon fill="#63b8ff" stroke="#63b8ff" points="545.65,-183.06 553.89,-176.4 543.29,-176.47 545.65,-183.06"/>
</g>
<!-- Node12 -->
<g id="node12" class="node">
<title>Node12</title>
<g id="a_node12"><a xlink:href="$classce103__hw3__library__lib_1_1_book_functions.html#ac536d1aa3a17ba7ce32e8d9ea0cd4950" xlink:title=" ">
<polygon fill="white" stroke="#666666" points="685,-464.5 548,-464.5 548,-434.5 685,-434.5 685,-464.5"/>
<text text-anchor="start" x="556" y="-452.5" font-family="Helvetica,sans-Serif" font-size="10.00">ce103_hw3_library_lib.Book</text>
<text text-anchor="middle" x="616.5" y="-441.5" font-family="Helvetica,sans-Serif" font-size="10.00">Functions.EditBook</text>
</a>
</g>
</g>
<!-- Node4&#45;&gt;Node12 -->
<g id="edge16" class="edge">
<title>Node4&#45;&gt;Node12</title>
<path fill="none" stroke="#63b8ff" d="M449.4,-266.87C464.88,-278.12 484.54,-294.67 497,-313.5 525.39,-356.4 496.43,-387.33 533,-423.5 534.6,-425.09 536.3,-426.57 538.07,-427.97"/>
<polygon fill="#63b8ff" stroke="#63b8ff" points="536,-430.8 546.27,-433.39 539.86,-424.96 536,-430.8"/>
</g>
<!-- Node13 -->
<g id="node13" class="node">
<title>Node13</title>
<g id="a_node13"><a xlink:href="$classce103__hw3__library__lib_1_1_book_functions.html#ae4b718abfd1ef505ca816bada5a5053f" xlink:title=" ">
<polygon fill="white" stroke="#666666" points="685,-363.5 548,-363.5 548,-333.5 685,-333.5 685,-363.5"/>
<text text-anchor="start" x="556" y="-351.5" font-family="Helvetica,sans-Serif" font-size="10.00">ce103_hw3_library_lib.Book</text>
<text text-anchor="middle" x="616.5" y="-340.5" font-family="Helvetica,sans-Serif" font-size="10.00">Functions.ListBook</text>
</a>
</g>
</g>
<!-- Node4&#45;&gt;Node13 -->
<g id="edge19" class="edge">
<title>Node4&#45;&gt;Node13</title>
<path fill="none" stroke="#63b8ff" d="M447.35,-266.76C468.42,-281.35 501.88,-303.31 533,-318.5 540.62,-322.22 548.82,-325.74 556.99,-328.97"/>
<polygon fill="#63b8ff" stroke="#63b8ff" points="555.67,-332.21 566.26,-332.5 558.16,-325.67 555.67,-332.21"/>
</g>
<!-- Node14 -->
<g id="node14" class="node">
<title>Node14</title>
<g id="a_node14"><a xlink:href="$classce103__hw3__library__lib_1_1_book_functions.html#abc272bb655ce11abfa5cb33d995132b7" xlink:title=" ">
<polygon fill="white" stroke="#666666" points="685,-309.5 548,-309.5 548,-279.5 685,-279.5 685,-309.5"/>
<text text-anchor="start" x="556" y="-297.5" font-family="Helvetica,sans-Serif" font-size="10.00">ce103_hw3_library_lib.Book</text>
<text text-anchor="middle" x="616.5" y="-286.5" font-family="Helvetica,sans-Serif" font-size="10.00">Functions.ListBorrowBook</text>
</a>
</g>
</g>
<!-- Node4&#45;&gt;Node14 -->
<g id="edge22" class="edge">
<title>Node4&#45;&gt;Node14</title>
<path fill="none" stroke="#63b8ff" d="M494.15,-266.96C507.88,-270.08 522.42,-273.38 536.49,-276.57"/>
<polygon fill="#63b8ff" stroke="#63b8ff" points="535.64,-279.97 546.16,-278.77 537.19,-273.14 535.64,-279.97"/>
</g>
<!-- Node4&#45;&gt;Node15 -->
<g id="edge26" class="edge">
<title>Node4&#45;&gt;Node15</title>
<path fill="none" stroke="#63b8ff" d="M432.03,-236.02C445.33,-203.84 480.26,-129.31 533,-88.5 540.48,-82.71 549.23,-78.08 558.18,-74.39"/>
<polygon fill="#63b8ff" stroke="#63b8ff" points="559.14,-77.76 567.3,-71 556.7,-71.2 559.14,-77.76"/>
</g>
<!-- Node18 -->
<g id="node18" class="node">
<title>Node18</title>
<g id="a_node18"><a xlink:href="$classce103__hw3__library__lib_1_1_book_functions.html#a81bb6f1f81a84ca37529ce32a397df10" xlink:title=" ">
<polygon fill="white" stroke="#666666" points="685,-223.5 548,-223.5 548,-193.5 685,-193.5 685,-223.5"/>
<text text-anchor="start" x="556" y="-211.5" font-family="Helvetica,sans-Serif" font-size="10.00">ce103_hw3_library_lib.Book</text>
<text text-anchor="middle" x="616.5" y="-200.5" font-family="Helvetica,sans-Serif" font-size="10.00">Functions.SearchBook</text>
</a>
</g>
</g>
<!-- Node4&#45;&gt;Node18 -->
<g id="edge31" class="edge">
<title>Node4&#45;&gt;Node18</title>
<path fill="none" stroke="#63b8ff" d="M494.15,-236.04C507.88,-232.92 522.42,-229.62 536.49,-226.43"/>
<polygon fill="#63b8ff" stroke="#63b8ff" points="537.19,-229.86 546.16,-224.23 535.64,-223.03 537.19,-229.86"/>
</g>
<!-- Node5&#45;&gt;Node3 -->
<g id="edge6" class="edge">
<title>Node5&#45;&gt;Node3</title>
<path fill="none" stroke="#63b8ff" d="M547.69,-119.37C493.12,-126.78 415.5,-141.63 353,-170.5 321.49,-185.05 290.43,-210.1 269.95,-228.49"/>
<polygon fill="#63b8ff" stroke="#63b8ff" points="267.71,-225.8 262.71,-235.14 272.44,-230.96 267.71,-225.8"/>
</g>
<!-- Node6 -->
<g id="node6" class="node">
<title>Node6</title>
<g id="a_node6"><a xlink:href="$classce103__hw3__library__lib_1_1_file_utility.html#a6b9ef5a028f3e26107779e0a3f300aef" xlink:title=" ">
<polygon fill="white" stroke="#666666" points="873.5,-127.5 742.5,-127.5 742.5,-97.5 873.5,-97.5 873.5,-127.5"/>
<text text-anchor="start" x="750.5" y="-115.5" font-family="Helvetica,sans-Serif" font-size="10.00">ce103_hw3_library_lib.File</text>
<text text-anchor="middle" x="808" y="-104.5" font-family="Helvetica,sans-Serif" font-size="10.00">Utility.AppendBlock</text>
</a>
</g>
</g>
<!-- Node5&#45;&gt;Node6 -->
<g id="edge5" class="edge">
<title>Node5&#45;&gt;Node6</title>
<path fill="none" stroke="#63b8ff" d="M685.38,-112.5C700.1,-112.5 715.77,-112.5 730.8,-112.5"/>
<polygon fill="#63b8ff" stroke="#63b8ff" points="730.62,-116 740.62,-112.5 730.62,-109 730.62,-116"/>
</g>
<!-- Node7&#45;&gt;Node3 -->
<g id="edge8" class="edge">
<title>Node7&#45;&gt;Node3</title>
<path fill="none" stroke="#63b8ff" d="M576.3,-241.51C553.36,-236.18 523.73,-230.18 497,-227.5 433.32,-221.12 416.61,-220.46 353,-227.5 340.76,-228.86 327.87,-231.06 315.44,-233.6"/>
<polygon fill="#63b8ff" stroke="#63b8ff" points="314.72,-230.17 305.67,-235.69 316.19,-237.02 314.72,-230.17"/>
</g>
<!-- Node8&#45;&gt;Node2 -->
<g id="edge10" class="edge">
<title>Node8&#45;&gt;Node2</title>
<path fill="none" stroke="#63b8ff" d="M674.87,-384.06C694.91,-378.67 717.6,-372.56 738.46,-366.95"/>
<polygon fill="#63b8ff" stroke="#63b8ff" points="739.29,-370.35 748.04,-364.37 737.47,-363.59 739.29,-370.35"/>
</g>
<!-- Node8&#45;&gt;Node3 -->
<g id="edge11" class="edge">
<title>Node8&#45;&gt;Node3</title>
<path fill="none" stroke="#63b8ff" d="M547.68,-410.17C492.22,-415.6 413.38,-415.57 353,-384.5 307.51,-361.09 274.71,-308.77 258.17,-277.18"/>
<polygon fill="#63b8ff" stroke="#63b8ff" points="261.32,-275.65 253.69,-268.3 255.08,-278.8 261.32,-275.65"/>
</g>
<!-- Node8&#45;&gt;Node9 -->
<g id="edge12" class="edge">
<title>Node8&#45;&gt;Node9</title>
<path fill="none" stroke="#63b8ff" d="M676.16,-414.98C695.51,-420.09 717.23,-425.81 737.32,-431.12"/>
<polygon fill="#63b8ff" stroke="#63b8ff" points="736.26,-434.46 746.83,-433.62 738.05,-427.69 736.26,-434.46"/>
</g>
<!-- Node10&#45;&gt;Node3 -->
<g id="edge15" class="edge">
<title>Node10&#45;&gt;Node3</title>
<path fill="none" stroke="#63b8ff" d="M547.52,-166.74C493.87,-172.83 417.57,-184.09 353,-203.5 329.7,-210.51 304.83,-221.43 284.94,-231.09"/>
<polygon fill="#63b8ff" stroke="#63b8ff" points="283.5,-227.9 276.09,-235.48 286.6,-234.17 283.5,-227.9"/>
</g>
<!-- Node11 -->
<g id="node11" class="node">
<title>Node11</title>
<g id="a_node11"><a xlink:href="$classce103__hw3__library__lib_1_1_file_utility.html#ad1233745f44f8159d86b0692c3a24b21" xlink:title=" ">
<polygon fill="white" stroke="#666666" points="873.5,-175.5 742.5,-175.5 742.5,-145.5 873.5,-145.5 873.5,-175.5"/>
<text text-anchor="start" x="750.5" y="-163.5" font-family="Helvetica,sans-Serif" font-size="10.00">ce103_hw3_library_lib.File</text>
<text text-anchor="middle" x="808" y="-152.5" font-family="Helvetica,sans-Serif" font-size="10.00">Utility.DeleteBlock</text>
</a>
</g>
</g>
<!-- Node10&#45;&gt;Node11 -->
<g id="edge14" class="edge">
<title>Node10&#45;&gt;Node11</title>
<path fill="none" stroke="#63b8ff" d="M685.38,-160.5C700.1,-160.5 715.77,-160.5 730.8,-160.5"/>
<polygon fill="#63b8ff" stroke="#63b8ff" points="730.62,-164 740.62,-160.5 730.62,-157 730.62,-164"/>
</g>
<!-- Node12&#45;&gt;Node3 -->
<g id="edge17" class="edge">
<title>Node12&#45;&gt;Node3</title>
<path fill="none" stroke="#63b8ff" d="M547.52,-454.65C491.23,-455.65 411.31,-449.24 353,-412.5 301.79,-380.24 269.63,-313.53 255.09,-276.92"/>
<polygon fill="#63b8ff" stroke="#63b8ff" points="258.53,-276.1 251.69,-268.01 251.99,-278.6 258.53,-276.1"/>
</g>
<!-- Node12&#45;&gt;Node9 -->
<g id="edge18" class="edge">
<title>Node12&#45;&gt;Node9</title>
<path fill="none" stroke="#63b8ff" d="M685.38,-449.5C700.1,-449.5 715.77,-449.5 730.8,-449.5"/>
<polygon fill="#63b8ff" stroke="#63b8ff" points="730.62,-453 740.62,-449.5 730.62,-446 730.62,-453"/>
</g>
<!-- Node13&#45;&gt;Node2 -->
<g id="edge20" class="edge">
<title>Node13&#45;&gt;Node2</title>
<path fill="none" stroke="#63b8ff" d="M685.38,-348.5C700.1,-348.5 715.77,-348.5 730.8,-348.5"/>
<polygon fill="#63b8ff" stroke="#63b8ff" points="730.62,-352 740.62,-348.5 730.62,-345 730.62,-352"/>
</g>
<!-- Node13&#45;&gt;Node3 -->
<g id="edge21" class="edge">
<title>Node13&#45;&gt;Node3</title>
<path fill="none" stroke="#63b8ff" d="M563.36,-363.98C508.66,-377.34 421.3,-390.35 353,-361.5 312.3,-344.31 279.44,-303.24 261.33,-276.44"/>
<polygon fill="#63b8ff" stroke="#63b8ff" points="264.35,-274.67 255.95,-268.21 258.49,-278.5 264.35,-274.67"/>
</g>
<!-- Node14&#45;&gt;Node2 -->
<g id="edge23" class="edge">
<title>Node14&#45;&gt;Node2</title>
<path fill="none" stroke="#63b8ff" d="M671.8,-309.98C693.61,-316.19 718.93,-323.41 741.73,-329.9"/>
<polygon fill="#63b8ff" stroke="#63b8ff" points="740.66,-333.24 751.23,-332.61 742.58,-326.5 740.66,-333.24"/>
</g>
<!-- Node14&#45;&gt;Node3 -->
<g id="edge24" class="edge">
<title>Node14&#45;&gt;Node3</title>
<path fill="none" stroke="#63b8ff" d="M547.76,-292.36C494.57,-290.01 418.77,-285.2 353,-275.5 341.91,-273.87 330.26,-271.71 318.9,-269.37"/>
<polygon fill="#63b8ff" stroke="#63b8ff" points="319.65,-265.95 309.14,-267.29 318.19,-272.8 319.65,-265.95"/>
</g>
<!-- Node16 -->
<g id="node16" class="node">
<title>Node16</title>
<g id="a_node16"><a xlink:href="$classce103__hw3__library__lib_1_1_menu.html#af4dab9715ef5ee639001951ec8c3d5e2" xlink:title=" ">
<polygon fill="white" stroke="#666666" points="879,-79.5 737,-79.5 737,-49.5 879,-49.5 879,-79.5"/>
<text text-anchor="start" x="745" y="-67.5" font-family="Helvetica,sans-Serif" font-size="10.00">ce103_hw3_library_lib.Menu.</text>
<text text-anchor="middle" x="808" y="-56.5" font-family="Helvetica,sans-Serif" font-size="10.00">DisplayOptions</text>
</a>
</g>
</g>
<!-- Node15&#45;&gt;Node16 -->
<g id="edge27" class="edge">
<title>Node15&#45;&gt;Node16</title>
<path fill="none" stroke="#63b8ff" d="M696.49,-62.17C705.95,-62.37 715.62,-62.57 725.12,-62.77"/>
<polygon fill="#63b8ff" stroke="#63b8ff" points="725.01,-66.27 735.08,-62.98 725.16,-59.27 725.01,-66.27"/>
</g>
<!-- Node17 -->
<g id="node17" class="node">
<title>Node17</title>
<g id="a_node17"><a xlink:href="$classce103__hw3__library__lib_1_1library.html#a261e9b866de5ed430c5888e32120a346" xlink:title=" ">
<polygon fill="white" stroke="#666666" points="880,-31.5 736,-31.5 736,-1.5 880,-1.5 880,-31.5"/>
<text text-anchor="start" x="744" y="-19.5" font-family="Helvetica,sans-Serif" font-size="10.00">ce103_hw3_library_lib.library.</text>
<text text-anchor="middle" x="808" y="-8.5" font-family="Helvetica,sans-Serif" font-size="10.00">Start</text>
</a>
</g>
</g>
<!-- Node15&#45;&gt;Node17 -->
<g id="edge28" class="edge">
<title>Node15&#45;&gt;Node17</title>
<path fill="none" stroke="#63b8ff" d="M660.5,-50.52C680.86,-45.79 705.83,-39.99 729.34,-34.53"/>
<polygon fill="#63b8ff" stroke="#63b8ff" points="729.95,-37.99 738.9,-32.31 728.37,-31.17 729.95,-37.99"/>
</g>
<!-- Node17&#45;&gt;Node3 -->
<g id="edge29" class="edge">
<title>Node17&#45;&gt;Node3</title>
<path fill="none" stroke="#63b8ff" d="M735.55,-5.8C639.79,4.61 468.52,8.99 353,-69.5 297.26,-107.37 266.4,-184.72 253.42,-225.31"/>
<polygon fill="#63b8ff" stroke="#63b8ff" points="250.12,-224.14 250.54,-234.73 256.81,-226.19 250.12,-224.14"/>
</g>
<!-- Node18&#45;&gt;Node2 -->
<g id="edge32" class="edge">
<title>Node18&#45;&gt;Node2</title>
<path fill="none" stroke="#63b8ff" d="M682.9,-223.86C688.87,-226.34 694.67,-229.2 700,-232.5 738.42,-256.29 771.75,-297.57 790.6,-323.94"/>
<polygon fill="#63b8ff" stroke="#63b8ff" points="787.63,-325.81 796.23,-332 793.37,-321.8 787.63,-325.81"/>
</g>
<!-- Node18&#45;&gt;Node3 -->
<g id="edge33" class="edge">
<title>Node18&#45;&gt;Node3</title>
<path fill="none" stroke="#63b8ff" d="M547.56,-206.26C494.27,-205.66 418.42,-207.37 353,-218.5 334.59,-221.64 314.93,-227.06 297.55,-232.62"/>
<polygon fill="#63b8ff" stroke="#63b8ff" points="296.9,-229.15 288.49,-235.61 299.09,-235.8 296.9,-229.15"/>
</g>
</g>
</svg>
