<?xml version="1.0" encoding="UTF-8" standalone="no"?>
<!DOCTYPE svg PUBLIC "-//W3C//DTD SVG 1.1//EN"
 "http://www.w3.org/Graphics/SVG/1.1/DTD/svg11.dtd">
<!-- Generated by graphviz version 7.0.4 (20221203.1631)
 -->
<!-- Title: ce103_hw3_library_lib.library.Back Pages: 1 -->
<svg width="910pt" height="508pt"
 viewBox="0.00 0.00 910.00 507.87" xmlns="http://www.w3.org/2000/svg" xmlns:xlink="http://www.w3.org/1999/xlink">
<g id="graph0" class="graph" transform="scale(1 1) rotate(0) translate(4 503.87)">
<title>ce103_hw3_library_lib.library.Back</title>
<!-- Node1 -->
<g id="node1" class="node">
<title>Node1</title>
<g id="a_node1"><a xlink:title=" ">
<polygon fill="#999999" stroke="#666666" points="902,-242.5 735,-242.5 735,-223.5 902,-223.5 902,-242.5"/>
<text text-anchor="middle" x="818.5" y="-230.5" font-family="Helvetica,sans-Serif" font-size="10.00">ce103_hw3_library_lib.library.Back</text>
</a>
</g>
</g>
<!-- Node2 -->
<g id="node2" class="node">
<title>Node2</title>
<g id="a_node2"><a xlink:href="$classce103__hw3__library__lib_1_1library.html#a966e08d69fdd5e4d3bf6a12af39bfe14" xlink:title=" ">
<polygon fill="white" stroke="#666666" points="699,-270 555,-270 555,-240 699,-240 699,-270"/>
<text text-anchor="start" x="563" y="-258" font-family="Helvetica,sans-Serif" font-size="10.00">ce103_hw3_library_lib.library.</text>
<text text-anchor="middle" x="627" y="-247" font-family="Helvetica,sans-Serif" font-size="10.00">BookOption</text>
</a>
</g>
</g>
<!-- Node1&#45;&gt;Node2 -->
<g id="edge1" class="edge">
<title>Node1&#45;&gt;Node2</title>
<path fill="none" stroke="#63b8ff" d="M723.31,-243.93C715.27,-244.87 707.22,-245.8 699.4,-246.71"/>
<polygon fill="#63b8ff" stroke="#63b8ff" points="723.63,-247.42 733.15,-242.79 722.82,-240.47 723.63,-247.42"/>
</g>
<!-- Node3 -->
<g id="node3" class="node">
<title>Node3</title>
<g id="a_node3"><a xlink:href="$classce103__hw3__library__lib_1_1library.html#a80f197f4303dd78438ec6055614382da" xlink:title=" ">
<polygon fill="white" stroke="#666666" points="519,-227 375,-227 375,-197 519,-197 519,-227"/>
<text text-anchor="start" x="383" y="-215" font-family="Helvetica,sans-Serif" font-size="10.00">ce103_hw3_library_lib.library.</text>
<text text-anchor="middle" x="447" y="-204" font-family="Helvetica,sans-Serif" font-size="10.00">RunMainMenu</text>
</a>
</g>
</g>
<!-- Node2&#45;&gt;Node3 -->
<g id="edge2" class="edge">
<title>Node2&#45;&gt;Node3</title>
<path fill="none" stroke="#63b8ff" d="M575.03,-236.52C557.68,-231.76 537.96,-226.84 519.31,-222.6"/>
<polygon fill="#63b8ff" stroke="#63b8ff" points="574.02,-239.87 584.6,-239.2 575.91,-233.13 574.02,-239.87"/>
</g>
<!-- Node3&#45;&gt;Node1 -->
<g id="edge5" class="edge">
<title>Node3&#45;&gt;Node1</title>
<path fill="none" stroke="#63b8ff" d="M530.91,-216.71C591.67,-220.17 673.81,-224.83 734.58,-228.29"/>
<polygon fill="#63b8ff" stroke="#63b8ff" points="531.13,-213.22 520.95,-216.15 530.73,-220.21 531.13,-213.22"/>
</g>
<!-- Node3&#45;&gt;Node2 -->
<g id="edge6" class="edge">
<title>Node3&#45;&gt;Node2</title>
<path fill="none" stroke="#63b8ff" d="M499.14,-230.53C516.43,-235.26 536.06,-240.16 554.63,-244.39"/>
<polygon fill="#63b8ff" stroke="#63b8ff" points="500.18,-227.19 489.61,-227.86 498.29,-233.93 500.18,-227.19"/>
</g>
<!-- Node4 -->
<g id="node4" class="node">
<title>Node4</title>
<g id="a_node4"><a xlink:href="$classce103__hw3__library__lib_1_1_book_functions.html#aeb0f4b25699b7ca705f259d228730ef5" xlink:title=" ">
<polygon fill="white" stroke="#666666" points="335.5,-404 198.5,-404 198.5,-374 335.5,-374 335.5,-404"/>
<text text-anchor="start" x="206.5" y="-392" font-family="Helvetica,sans-Serif" font-size="10.00">ce103_hw3_library_lib.Book</text>
<text text-anchor="middle" x="267" y="-381" font-family="Helvetica,sans-Serif" font-size="10.00">Functions.AddBook</text>
</a>
</g>
</g>
<!-- Node3&#45;&gt;Node4 -->
<g id="edge3" class="edge">
<title>Node3&#45;&gt;Node4</title>
<path fill="none" stroke="#63b8ff" d="M434.54,-237.49C418.09,-271.33 384.64,-330.79 339,-365 334.63,-368.28 329.78,-371.13 324.73,-373.6"/>
<polygon fill="#63b8ff" stroke="#63b8ff" points="437.53,-239.37 438.64,-228.83 431.2,-236.38 437.53,-239.37"/>
</g>
<!-- Node5 -->
<g id="node5" class="node">
<title>Node5</title>
<g id="a_node5"><a xlink:href="$classce103__hw3__library__lib_1_1_book_functions.html#a4d2ef5095cd896dba0b81ac4a8ca3f11" xlink:title=" ">
<polygon fill="white" stroke="#666666" points="335.5,-356 198.5,-356 198.5,-326 335.5,-326 335.5,-356"/>
<text text-anchor="start" x="206.5" y="-344" font-family="Helvetica,sans-Serif" font-size="10.00">ce103_hw3_library_lib.Book</text>
<text text-anchor="middle" x="267" y="-333" font-family="Helvetica,sans-Serif" font-size="10.00">Functions.BorrowBook</text>
</a>
</g>
</g>
<!-- Node3&#45;&gt;Node5 -->
<g id="edge7" class="edge">
<title>Node3&#45;&gt;Node5</title>
<path fill="none" stroke="#63b8ff" d="M427.03,-236.12C407.32,-259.73 374.43,-295.23 339,-317 333.79,-320.2 328.1,-323.04 322.28,-325.53"/>
<polygon fill="#63b8ff" stroke="#63b8ff" points="429.58,-238.53 433.21,-228.58 424.16,-234.1 429.58,-238.53"/>
</g>
<!-- Node6 -->
<g id="node6" class="node">
<title>Node6</title>
<g id="a_node6"><a xlink:href="$classce103__hw3__library__lib_1_1_book_functions.html#a859f030ca58df3aef0ca202c2df131ab" xlink:title=" ">
<polygon fill="white" stroke="#666666" points="335.5,-308 198.5,-308 198.5,-278 335.5,-278 335.5,-308"/>
<text text-anchor="start" x="206.5" y="-296" font-family="Helvetica,sans-Serif" font-size="10.00">ce103_hw3_library_lib.Book</text>
<text text-anchor="middle" x="267" y="-285" font-family="Helvetica,sans-Serif" font-size="10.00">Functions.DeleteBook</text>
</a>
</g>
</g>
<!-- Node3&#45;&gt;Node6 -->
<g id="edge9" class="edge">
<title>Node3&#45;&gt;Node6</title>
<path fill="none" stroke="#63b8ff" d="M410.38,-232.87C389.9,-244.38 363.46,-258.43 339,-269 332.07,-271.99 324.64,-274.86 317.28,-277.51"/>
<polygon fill="#63b8ff" stroke="#63b8ff" points="411.93,-236.01 418.89,-228.03 408.47,-229.93 411.93,-236.01"/>
</g>
<!-- Node7 -->
<g id="node7" class="node">
<title>Node7</title>
<g id="a_node7"><a xlink:href="$classce103__hw3__library__lib_1_1_book_functions.html#ac536d1aa3a17ba7ce32e8d9ea0cd4950" xlink:title=" ">
<polygon fill="white" stroke="#666666" points="335.5,-260 198.5,-260 198.5,-230 335.5,-230 335.5,-260"/>
<text text-anchor="start" x="206.5" y="-248" font-family="Helvetica,sans-Serif" font-size="10.00">ce103_hw3_library_lib.Book</text>
<text text-anchor="middle" x="267" y="-237" font-family="Helvetica,sans-Serif" font-size="10.00">Functions.EditBook</text>
</a>
</g>
</g>
<!-- Node3&#45;&gt;Node7 -->
<g id="edge11" class="edge">
<title>Node3&#45;&gt;Node7</title>
<path fill="none" stroke="#63b8ff" d="M363.46,-227.3C354.24,-229.01 344.93,-230.74 335.92,-232.41"/>
<polygon fill="#63b8ff" stroke="#63b8ff" points="363.94,-230.77 373.14,-225.51 362.67,-223.89 363.94,-230.77"/>
</g>
<!-- Node8 -->
<g id="node8" class="node">
<title>Node8</title>
<g id="a_node8"><a xlink:href="$classce103__hw3__library__lib_1_1_book_functions.html#ae4b718abfd1ef505ca816bada5a5053f" xlink:title=" ">
<polygon fill="white" stroke="#666666" points="335.5,-126 198.5,-126 198.5,-96 335.5,-96 335.5,-126"/>
<text text-anchor="start" x="206.5" y="-114" font-family="Helvetica,sans-Serif" font-size="10.00">ce103_hw3_library_lib.Book</text>
<text text-anchor="middle" x="267" y="-103" font-family="Helvetica,sans-Serif" font-size="10.00">Functions.ListBook</text>
</a>
</g>
</g>
<!-- Node3&#45;&gt;Node8 -->
<g id="edge13" class="edge">
<title>Node3&#45;&gt;Node8</title>
<path fill="none" stroke="#63b8ff" d="M403.05,-191.21C393.46,-185.81 383.59,-179.63 375,-173 356.58,-158.78 358.6,-147.54 339,-135 333.96,-131.77 328.44,-128.93 322.77,-126.44"/>
<polygon fill="#63b8ff" stroke="#63b8ff" points="401.09,-194.12 411.55,-195.81 404.42,-187.97 401.09,-194.12"/>
</g>
<!-- Node9 -->
<g id="node9" class="node">
<title>Node9</title>
<g id="a_node9"><a xlink:href="$classce103__hw3__library__lib_1_1_book_functions.html#abc272bb655ce11abfa5cb33d995132b7" xlink:title=" ">
<polygon fill="white" stroke="#666666" points="335.5,-78 198.5,-78 198.5,-48 335.5,-48 335.5,-78"/>
<text text-anchor="start" x="206.5" y="-66" font-family="Helvetica,sans-Serif" font-size="10.00">ce103_hw3_library_lib.Book</text>
<text text-anchor="middle" x="267" y="-55" font-family="Helvetica,sans-Serif" font-size="10.00">Functions.ListBorrowBook</text>
</a>
</g>
</g>
<!-- Node3&#45;&gt;Node9 -->
<g id="edge15" class="edge">
<title>Node3&#45;&gt;Node9</title>
<path fill="none" stroke="#63b8ff" d="M430.67,-187.09C412.19,-159.01 378.63,-113.79 339,-87 334.15,-83.72 328.81,-80.85 323.3,-78.35"/>
<polygon fill="#63b8ff" stroke="#63b8ff" points="427.61,-188.8 435.96,-195.32 433.5,-185.01 427.61,-188.8"/>
</g>
<!-- Node10 -->
<g id="node10" class="node">
<title>Node10</title>
<g id="a_node10"><a xlink:href="$classce103__hw3__library__lib_1_1_book_functions.html#af9a659e47a42e3f7ec1a29e280282a51" xlink:title=" ">
<polygon fill="white" stroke="#666666" points="335.5,-30 198.5,-30 198.5,0 335.5,0 335.5,-30"/>
<text text-anchor="start" x="206.5" y="-18" font-family="Helvetica,sans-Serif" font-size="10.00">ce103_hw3_library_lib.Book</text>
<text text-anchor="middle" x="267" y="-7" font-family="Helvetica,sans-Serif" font-size="10.00">Functions.ReturnBook</text>
</a>
</g>
</g>
<!-- Node3&#45;&gt;Node10 -->
<g id="edge17" class="edge">
<title>Node3&#45;&gt;Node10</title>
<path fill="none" stroke="#63b8ff" d="M436.55,-185.98C421.57,-148.27 388.86,-78.62 339,-39 334.82,-35.68 330.16,-32.81 325.28,-30.33"/>
<polygon fill="#63b8ff" stroke="#63b8ff" points="433.23,-187.1 440.09,-195.18 439.77,-184.59 433.23,-187.1"/>
</g>
<!-- Node11 -->
<g id="node11" class="node">
<title>Node11</title>
<g id="a_node11"><a xlink:href="$classce103__hw3__library__lib_1_1_book_functions.html#a81bb6f1f81a84ca37529ce32a397df10" xlink:title=" ">
<polygon fill="white" stroke="#666666" points="335.5,-452 198.5,-452 198.5,-422 335.5,-422 335.5,-452"/>
<text text-anchor="start" x="206.5" y="-440" font-family="Helvetica,sans-Serif" font-size="10.00">ce103_hw3_library_lib.Book</text>
<text text-anchor="middle" x="267" y="-429" font-family="Helvetica,sans-Serif" font-size="10.00">Functions.SearchBook</text>
</a>
</g>
</g>
<!-- Node3&#45;&gt;Node11 -->
<g id="edge19" class="edge">
<title>Node3&#45;&gt;Node11</title>
<path fill="none" stroke="#63b8ff" d="M438.95,-238.19C426.15,-280.86 395.06,-365.41 339,-413 335.13,-416.28 330.79,-419.12 326.22,-421.58"/>
<polygon fill="#63b8ff" stroke="#63b8ff" points="442.26,-239.36 441.66,-228.78 435.53,-237.42 442.26,-239.36"/>
</g>
<!-- Node12 -->
<g id="node12" class="node">
<title>Node12</title>
<g id="a_node12"><a xlink:href="$classce103__hw3__library__lib_1_1library.html#a261e9b866de5ed430c5888e32120a346" xlink:title=" ">
<polygon fill="white" stroke="#666666" points="339,-174 195,-174 195,-144 339,-144 339,-174"/>
<text text-anchor="start" x="203" y="-162" font-family="Helvetica,sans-Serif" font-size="10.00">ce103_hw3_library_lib.library.</text>
<text text-anchor="middle" x="267" y="-151" font-family="Helvetica,sans-Serif" font-size="10.00">Start</text>
</a>
</g>
</g>
<!-- Node3&#45;&gt;Node12 -->
<g id="edge21" class="edge">
<title>Node3&#45;&gt;Node12</title>
<path fill="none" stroke="#63b8ff" d="M383.13,-193.28C362.49,-187.13 339.78,-180.37 320.03,-174.49"/>
<polygon fill="#63b8ff" stroke="#63b8ff" points="382,-196.6 392.59,-196.1 384,-189.89 382,-196.6"/>
</g>
<!-- Node4&#45;&gt;Node2 -->
<g id="edge4" class="edge">
<title>Node4&#45;&gt;Node2</title>
<path fill="none" stroke="#63b8ff" d="M347.13,-372.66C397.49,-360.88 463.44,-342.85 519,-319 550.23,-305.59 583.4,-284.56 604.38,-270.3"/>
<polygon fill="#63b8ff" stroke="#63b8ff" points="346.42,-369.23 337.46,-374.88 347.99,-376.05 346.42,-369.23"/>
</g>
<!-- Node5&#45;&gt;Node2 -->
<g id="edge8" class="edge">
<title>Node5&#45;&gt;Node2</title>
<path fill="none" stroke="#63b8ff" d="M346.76,-326.28C396.43,-316.53 461.78,-302.83 519,-288 538.85,-282.85 560.51,-276.34 579.12,-270.47"/>
<polygon fill="#63b8ff" stroke="#63b8ff" points="346.4,-322.79 337.26,-328.14 347.74,-329.66 346.4,-322.79"/>
</g>
<!-- Node6&#45;&gt;Node2 -->
<g id="edge10" class="edge">
<title>Node6&#45;&gt;Node2</title>
<path fill="none" stroke="#63b8ff" d="M347.3,-284.58C409.38,-277.99 494.95,-268.91 554.84,-262.55"/>
<polygon fill="#63b8ff" stroke="#63b8ff" points="347.07,-281.09 337.49,-285.62 347.81,-288.05 347.07,-281.09"/>
</g>
<!-- Node7&#45;&gt;Node2 -->
<g id="edge12" class="edge">
<title>Node7&#45;&gt;Node2</title>
<path fill="none" stroke="#63b8ff" d="M347.3,-247.21C409.38,-248.95 494.95,-251.34 554.84,-253.01"/>
<polygon fill="#63b8ff" stroke="#63b8ff" points="347.6,-243.72 337.5,-246.94 347.4,-250.72 347.6,-243.72"/>
</g>
<!-- Node8&#45;&gt;Node2 -->
<g id="edge14" class="edge">
<title>Node8&#45;&gt;Node2</title>
<path fill="none" stroke="#63b8ff" d="M345.87,-129.25C396.43,-142.46 463.09,-162.46 519,-188 550.7,-202.48 584.3,-224.82 605.21,-239.67"/>
<polygon fill="#63b8ff" stroke="#63b8ff" points="347.03,-125.93 336.47,-126.83 345.28,-132.71 347.03,-125.93"/>
</g>
<!-- Node9&#45;&gt;Node2 -->
<g id="edge16" class="edge">
<title>Node9&#45;&gt;Node2</title>
<path fill="none" stroke="#63b8ff" d="M347.05,-73.95C398.97,-83.86 466.7,-102.14 519,-135 563.2,-162.77 599.92,-214 616.5,-239.6"/>
<polygon fill="#63b8ff" stroke="#63b8ff" points="347.84,-70.54 337.38,-72.18 346.58,-77.43 347.84,-70.54"/>
</g>
<!-- Node10&#45;&gt;Node2 -->
<g id="edge18" class="edge">
<title>Node10&#45;&gt;Node2</title>
<path fill="none" stroke="#63b8ff" d="M347.21,-18.54C400.26,-24.45 469.23,-39.31 519,-76 577.58,-119.18 610.13,-204.9 621.42,-239.74"/>
<polygon fill="#63b8ff" stroke="#63b8ff" points="347.61,-15.07 337.31,-17.54 346.9,-22.03 347.61,-15.07"/>
</g>
<!-- Node11&#45;&gt;Node2 -->
<g id="edge20" class="edge">
<title>Node11&#45;&gt;Node2</title>
<path fill="none" stroke="#63b8ff" d="M346.99,-421.53C398.44,-409.17 465.67,-388.61 519,-357 558.74,-333.45 595.5,-292.59 613.82,-270.4"/>
<polygon fill="#63b8ff" stroke="#63b8ff" points="346.34,-418.08 337.4,-423.77 347.93,-424.9 346.34,-418.08"/>
</g>
<!-- Node13 -->
<g id="node13" class="node">
<title>Node13</title>
<g id="a_node13"><a xlink:href="$classce103__hw3__library__lib_1_1_password_content.html#a4c3fd18dd3032675ace132457ebaedba" xlink:title=" ">
<polygon fill="white" stroke="#666666" points="158.5,-165 0.5,-165 0.5,-135 158.5,-135 158.5,-165"/>
<text text-anchor="start" x="8.5" y="-153" font-family="Helvetica,sans-Serif" font-size="10.00">ce103_hw3_library_lib.Password</text>
<text text-anchor="middle" x="79.5" y="-142" font-family="Helvetica,sans-Serif" font-size="10.00">Content.password</text>
</a>
</g>
</g>
<!-- Node12&#45;&gt;Node13 -->
<g id="edge22" class="edge">
<title>Node12&#45;&gt;Node13</title>
<path fill="none" stroke="#63b8ff" d="M183.15,-154.98C175.02,-154.59 166.78,-154.19 158.7,-153.79"/>
<polygon fill="#63b8ff" stroke="#63b8ff" points="182.88,-158.47 193.03,-155.46 183.22,-151.48 182.88,-158.47"/>
</g>
<!-- Node14 -->
<g id="node14" class="node">
<title>Node14</title>
<g id="a_node14"><a xlink:href="$classce103__hw3__library__lib_1_1_menu.html#a83866faf86a98cdc36d517e8ed443534" xlink:title=" ">
<polygon fill="white" stroke="#666666" points="159,-220.5 0,-220.5 0,-201.5 159,-201.5 159,-220.5"/>
<text text-anchor="middle" x="79.5" y="-208.5" font-family="Helvetica,sans-Serif" font-size="10.00">ce103_hw3_library_lib.Menu.Run</text>
</a>
</g>
</g>
<!-- Node12&#45;&gt;Node14 -->
<g id="edge24" class="edge">
<title>Node12&#45;&gt;Node14</title>
<path fill="none" stroke="#63b8ff" d="M207.6,-177.72C191.88,-182.57 174.84,-187.65 159,-192 147.64,-195.12 135.29,-198.24 123.81,-201.02"/>
<polygon fill="#63b8ff" stroke="#63b8ff" points="208.29,-181.18 216.8,-174.87 206.21,-174.49 208.29,-181.18"/>
</g>
<!-- Node13&#45;&gt;Node13 -->
<g id="edge23" class="edge">
<title>Node13&#45;&gt;Node13</title>
<path fill="none" stroke="#63b8ff" d="M111.14,-176.61C106.07,-180.43 95.52,-183 79.5,-183 50.2,-183 39.22,-174.41 46.54,-165.28"/>
<polygon fill="#63b8ff" stroke="#63b8ff" points="114.6,-177.12 112.28,-166.78 107.65,-176.31 114.6,-177.12"/>
</g>
<!-- Node14&#45;&gt;Node2 -->
<g id="edge25" class="edge">
<title>Node14&#45;&gt;Node2</title>
<path fill="none" stroke="#63b8ff" d="M82.72,-232.09C89.27,-282.32 113.51,-408.69 195,-461 318.38,-540.2 400.68,-485.58 519,-399 567.51,-363.5 603.69,-299.68 618.56,-270.42"/>
<polygon fill="#63b8ff" stroke="#63b8ff" points="86.21,-231.83 81.56,-222.31 79.26,-232.65 86.21,-231.83"/>
</g>
<!-- Node14&#45;&gt;Node3 -->
<g id="edge26" class="edge">
<title>Node14&#45;&gt;Node3</title>
<path fill="none" stroke="#63b8ff" d="M170.76,-211.25C233.65,-211.42 316.38,-211.65 374.66,-211.8"/>
<polygon fill="#63b8ff" stroke="#63b8ff" points="170.79,-207.75 160.78,-211.22 170.77,-214.75 170.79,-207.75"/>
</g>
</g>
</svg>
