<?xml version="1.0" encoding="UTF-8" standalone="no"?>
<!DOCTYPE svg PUBLIC "-//W3C//DTD SVG 1.1//EN"
 "http://www.w3.org/Graphics/SVG/1.1/DTD/svg11.dtd">
<!-- Generated by graphviz version 7.0.4 (20221203.1631)
 -->
<!-- Title: ce103_hw3_library_lib.BookFunctions.AddBook Pages: 1 -->
<svg width="888pt" height="486pt"
 viewBox="0.00 0.00 888.00 485.53" xmlns="http://www.w3.org/2000/svg" xmlns:xlink="http://www.w3.org/1999/xlink">
<g id="graph0" class="graph" transform="scale(1 1) rotate(0) translate(4 481.53)">
<title>ce103_hw3_library_lib.BookFunctions.AddBook</title>
<!-- Node1 -->
<g id="node1" class="node">
<title>Node1</title>
<g id="a_node1"><a xlink:title=" ">
<polygon fill="#999999" stroke="#666666" points="137,-226 0,-226 0,-196 137,-196 137,-226"/>
<text text-anchor="start" x="8" y="-214" font-family="Helvetica,sans-Serif" font-size="10.00">ce103_hw3_library_lib.Book</text>
<text text-anchor="middle" x="68.5" y="-203" font-family="Helvetica,sans-Serif" font-size="10.00">Functions.AddBook</text>
</a>
</g>
</g>
<!-- Node2 -->
<g id="node2" class="node">
<title>Node2</title>
<g id="a_node2"><a xlink:href="$classce103__hw3__library__lib_1_1_file_utility.html#a6b9ef5a028f3e26107779e0a3f300aef" xlink:title=" ">
<polygon fill="white" stroke="#666666" points="310.5,-274 179.5,-274 179.5,-244 310.5,-244 310.5,-274"/>
<text text-anchor="start" x="187.5" y="-262" font-family="Helvetica,sans-Serif" font-size="10.00">ce103_hw3_library_lib.File</text>
<text text-anchor="middle" x="245" y="-251" font-family="Helvetica,sans-Serif" font-size="10.00">Utility.AppendBlock</text>
</a>
</g>
</g>
<!-- Node1&#45;&gt;Node2 -->
<g id="edge1" class="edge">
<title>Node1&#45;&gt;Node2</title>
<path fill="none" stroke="#63b8ff" d="M125.67,-226.45C142.02,-230.95 160.04,-235.9 176.98,-240.57"/>
<polygon fill="#63b8ff" stroke="#63b8ff" points="175.9,-243.9 186.47,-243.18 177.76,-237.15 175.9,-243.9"/>
</g>
<!-- Node3 -->
<g id="node3" class="node">
<title>Node3</title>
<g id="a_node3"><a xlink:href="$classce103__hw3__library__lib_1_1library.html#a80f197f4303dd78438ec6055614382da" xlink:title=" ">
<polygon fill="white" stroke="#666666" points="317,-226 173,-226 173,-196 317,-196 317,-226"/>
<text text-anchor="start" x="181" y="-214" font-family="Helvetica,sans-Serif" font-size="10.00">ce103_hw3_library_lib.library.</text>
<text text-anchor="middle" x="245" y="-203" font-family="Helvetica,sans-Serif" font-size="10.00">RunMainMenu</text>
</a>
</g>
</g>
<!-- Node1&#45;&gt;Node3 -->
<g id="edge2" class="edge">
<title>Node1&#45;&gt;Node3</title>
<path fill="none" stroke="#63b8ff" d="M137.47,-211C145.34,-211 153.43,-211 161.46,-211"/>
<polygon fill="#63b8ff" stroke="#63b8ff" points="161.25,-214.5 171.25,-211 161.25,-207.5 161.25,-214.5"/>
</g>
<!-- Node4 -->
<g id="node4" class="node">
<title>Node4</title>
<g id="a_node4"><a xlink:href="$classce103__hw3__library__lib_1_1library.html#a966e08d69fdd5e4d3bf6a12af39bfe14" xlink:title=" ">
<polygon fill="white" stroke="#666666" points="497,-183 353,-183 353,-153 497,-153 497,-183"/>
<text text-anchor="start" x="361" y="-171" font-family="Helvetica,sans-Serif" font-size="10.00">ce103_hw3_library_lib.library.</text>
<text text-anchor="middle" x="425" y="-160" font-family="Helvetica,sans-Serif" font-size="10.00">BookOption</text>
</a>
</g>
</g>
<!-- Node3&#45;&gt;Node4 -->
<g id="edge3" class="edge">
<title>Node3&#45;&gt;Node4</title>
<path fill="none" stroke="#63b8ff" d="M285.95,-195.61C302.47,-190.86 322.29,-185.74 341.67,-181.16"/>
<polygon fill="#63b8ff" stroke="#63b8ff" points="342.27,-184.61 351.22,-178.94 340.68,-177.79 342.27,-184.61"/>
</g>
<!-- Node15 -->
<g id="node15" class="node">
<title>Node15</title>
<g id="a_node15"><a xlink:href="$classce103__hw3__library__lib_1_1_menu.html#a83866faf86a98cdc36d517e8ed443534" xlink:title=" ">
<polygon fill="white" stroke="#666666" points="696,-415.5 537,-415.5 537,-396.5 696,-396.5 696,-415.5"/>
<text text-anchor="middle" x="616.5" y="-403.5" font-family="Helvetica,sans-Serif" font-size="10.00">ce103_hw3_library_lib.Menu.Run</text>
</a>
</g>
</g>
<!-- Node3&#45;&gt;Node15 -->
<g id="edge36" class="edge">
<title>Node3&#45;&gt;Node15</title>
<path fill="none" stroke="#63b8ff" d="M306.36,-226.41C310.25,-228.86 313.86,-231.7 317,-235 357.19,-277.15 309.64,-322.11 353,-361 399.21,-402.45 469.14,-412.8 525.21,-413.27"/>
<polygon fill="#63b8ff" stroke="#63b8ff" points="525.09,-416.77 535.08,-413.24 525.07,-409.77 525.09,-416.77"/>
</g>
<!-- Node19 -->
<g id="node19" class="node">
<title>Node19</title>
<g id="a_node19"><a xlink:href="$classce103__hw3__library__lib_1_1library.html#a754cac172f3b071c7eea3f07777aac68" xlink:title=" ">
<polygon fill="white" stroke="#666666" points="497,-269 353,-269 353,-239 497,-239 497,-269"/>
<text text-anchor="start" x="361" y="-257" font-family="Helvetica,sans-Serif" font-size="10.00">ce103_hw3_library_lib.library.</text>
<text text-anchor="middle" x="425" y="-246" font-family="Helvetica,sans-Serif" font-size="10.00">ExitApp</text>
</a>
</g>
</g>
<!-- Node3&#45;&gt;Node19 -->
<g id="edge35" class="edge">
<title>Node3&#45;&gt;Node19</title>
<path fill="none" stroke="#63b8ff" d="M310.01,-226.46C322.7,-229.53 336.13,-232.77 349.15,-235.92"/>
<polygon fill="#63b8ff" stroke="#63b8ff" points="347.95,-239.23 358.49,-238.17 349.59,-232.42 347.95,-239.23"/>
</g>
<!-- Node4&#45;&gt;Node1 -->
<g id="edge4" class="edge">
<title>Node4&#45;&gt;Node1</title>
<path fill="none" stroke="#63b8ff" d="M352.54,-170.51C302.13,-172.99 233.15,-177.8 173,-187 162.38,-188.62 151.23,-190.75 140.34,-193.07"/>
<polygon fill="#63b8ff" stroke="#63b8ff" points="139.62,-189.65 130.61,-195.22 141.13,-196.48 139.62,-189.65"/>
</g>
<!-- Node4&#45;&gt;Node3 -->
<g id="edge31" class="edge">
<title>Node4&#45;&gt;Node3</title>
<path fill="none" stroke="#63b8ff" d="M383.85,-183.45C367.37,-188.18 347.65,-193.28 328.34,-197.84"/>
<polygon fill="#63b8ff" stroke="#63b8ff" points="327.8,-194.37 318.85,-200.05 329.38,-201.19 327.8,-194.37"/>
</g>
<!-- Node5 -->
<g id="node5" class="node">
<title>Node5</title>
<g id="a_node5"><a xlink:href="$classce103__hw3__library__lib_1_1library.html#a84facf753a1182bffc9b0309adc8dadb" xlink:title=" ">
<polygon fill="white" stroke="#666666" points="700,-259.5 533,-259.5 533,-240.5 700,-240.5 700,-259.5"/>
<text text-anchor="middle" x="616.5" y="-247.5" font-family="Helvetica,sans-Serif" font-size="10.00">ce103_hw3_library_lib.library.Back</text>
</a>
</g>
</g>
<!-- Node4&#45;&gt;Node5 -->
<g id="edge5" class="edge">
<title>Node4&#45;&gt;Node5</title>
<path fill="none" stroke="#63b8ff" d="M447.52,-183.36C468.44,-197.61 501.56,-218.47 533,-231 538.63,-233.24 544.59,-235.26 550.63,-237.06"/>
<polygon fill="#63b8ff" stroke="#63b8ff" points="549.48,-240.38 560.06,-239.67 551.35,-233.63 549.48,-240.38"/>
</g>
<!-- Node6 -->
<g id="node6" class="node">
<title>Node6</title>
<g id="a_node6"><a xlink:href="$classce103__hw3__library__lib_1_1_book_functions.html#a4d2ef5095cd896dba0b81ac4a8ca3f11" xlink:title=" ">
<polygon fill="white" stroke="#666666" points="685,-174 548,-174 548,-144 685,-144 685,-174"/>
<text text-anchor="start" x="556" y="-162" font-family="Helvetica,sans-Serif" font-size="10.00">ce103_hw3_library_lib.Book</text>
<text text-anchor="middle" x="616.5" y="-151" font-family="Helvetica,sans-Serif" font-size="10.00">Functions.BorrowBook</text>
</a>
</g>
</g>
<!-- Node4&#45;&gt;Node6 -->
<g id="edge7" class="edge">
<title>Node4&#45;&gt;Node6</title>
<path fill="none" stroke="#63b8ff" d="M497.37,-164.61C510.11,-164.01 523.45,-163.37 536.39,-162.76"/>
<polygon fill="#63b8ff" stroke="#63b8ff" points="536.3,-166.27 546.13,-162.29 535.97,-159.27 536.3,-166.27"/>
</g>
<!-- Node9 -->
<g id="node9" class="node">
<title>Node9</title>
<g id="a_node9"><a xlink:href="$classce103__hw3__library__lib_1_1_book_functions.html#a859f030ca58df3aef0ca202c2df131ab" xlink:title=" ">
<polygon fill="white" stroke="#666666" points="685,-362 548,-362 548,-332 685,-332 685,-362"/>
<text text-anchor="start" x="556" y="-350" font-family="Helvetica,sans-Serif" font-size="10.00">ce103_hw3_library_lib.Book</text>
<text text-anchor="middle" x="616.5" y="-339" font-family="Helvetica,sans-Serif" font-size="10.00">Functions.DeleteBook</text>
</a>
</g>
</g>
<!-- Node4&#45;&gt;Node9 -->
<g id="edge11" class="edge">
<title>Node4&#45;&gt;Node9</title>
<path fill="none" stroke="#63b8ff" d="M448.62,-183.43C463.94,-194.83 483.73,-211.52 497,-230 521.4,-263.99 502.77,-288.06 533,-317 536.63,-320.47 540.69,-323.55 545.01,-326.27"/>
<polygon fill="#63b8ff" stroke="#63b8ff" points="543.05,-329.19 553.5,-330.96 546.44,-323.06 543.05,-329.19"/>
</g>
<!-- Node11 -->
<g id="node11" class="node">
<title>Node11</title>
<g id="a_node11"><a xlink:href="$classce103__hw3__library__lib_1_1_book_functions.html#ac536d1aa3a17ba7ce32e8d9ea0cd4950" xlink:title=" ">
<polygon fill="white" stroke="#666666" points="685,-308 548,-308 548,-278 685,-278 685,-308"/>
<text text-anchor="start" x="556" y="-296" font-family="Helvetica,sans-Serif" font-size="10.00">ce103_hw3_library_lib.Book</text>
<text text-anchor="middle" x="616.5" y="-285" font-family="Helvetica,sans-Serif" font-size="10.00">Functions.EditBook</text>
</a>
</g>
</g>
<!-- Node4&#45;&gt;Node11 -->
<g id="edge14" class="edge">
<title>Node4&#45;&gt;Node11</title>
<path fill="none" stroke="#63b8ff" d="M444.52,-183.34C459.1,-195.61 479.77,-213.45 497,-230 513.78,-246.11 513.21,-255.77 533,-268 535.9,-269.79 538.93,-271.46 542.06,-273.02"/>
<polygon fill="#63b8ff" stroke="#63b8ff" points="540.35,-276.09 550.91,-276.99 543.22,-269.7 540.35,-276.09"/>
</g>
<!-- Node12 -->
<g id="node12" class="node">
<title>Node12</title>
<g id="a_node12"><a xlink:href="$classce103__hw3__library__lib_1_1_book_functions.html#ae4b718abfd1ef505ca816bada5a5053f" xlink:title=" ">
<polygon fill="white" stroke="#666666" points="685,-30 548,-30 548,0 685,0 685,-30"/>
<text text-anchor="start" x="556" y="-18" font-family="Helvetica,sans-Serif" font-size="10.00">ce103_hw3_library_lib.Book</text>
<text text-anchor="middle" x="616.5" y="-7" font-family="Helvetica,sans-Serif" font-size="10.00">Functions.ListBook</text>
</a>
</g>
</g>
<!-- Node4&#45;&gt;Node12 -->
<g id="edge17" class="edge">
<title>Node4&#45;&gt;Node12</title>
<path fill="none" stroke="#63b8ff" d="M434.45,-152.75C450.23,-125.7 486.78,-69.33 533,-39 534.87,-37.77 536.81,-36.61 538.79,-35.5"/>
<polygon fill="#63b8ff" stroke="#63b8ff" points="540.29,-38.66 547.71,-31.1 537.19,-32.38 540.29,-38.66"/>
</g>
<!-- Node13 -->
<g id="node13" class="node">
<title>Node13</title>
<g id="a_node13"><a xlink:href="$classce103__hw3__library__lib_1_1_book_functions.html#abc272bb655ce11abfa5cb33d995132b7" xlink:title=" ">
<polygon fill="white" stroke="#666666" points="685,-126 548,-126 548,-96 685,-96 685,-126"/>
<text text-anchor="start" x="556" y="-114" font-family="Helvetica,sans-Serif" font-size="10.00">ce103_hw3_library_lib.Book</text>
<text text-anchor="middle" x="616.5" y="-103" font-family="Helvetica,sans-Serif" font-size="10.00">Functions.ListBorrowBook</text>
</a>
</g>
</g>
<!-- Node4&#45;&gt;Node13 -->
<g id="edge20" class="edge">
<title>Node4&#45;&gt;Node13</title>
<path fill="none" stroke="#63b8ff" d="M475.49,-152.55C493.57,-146.96 514.19,-140.64 533,-135 538.8,-133.26 544.85,-131.47 550.9,-129.69"/>
<polygon fill="#63b8ff" stroke="#63b8ff" points="551.7,-133.1 560.31,-126.92 549.73,-126.38 551.7,-133.1"/>
</g>
<!-- Node14 -->
<g id="node14" class="node">
<title>Node14</title>
<g id="a_node14"><a xlink:href="$classce103__hw3__library__lib_1_1_book_functions.html#af9a659e47a42e3f7ec1a29e280282a51" xlink:title=" ">
<polygon fill="white" stroke="#666666" points="685,-222 548,-222 548,-192 685,-192 685,-222"/>
<text text-anchor="start" x="556" y="-210" font-family="Helvetica,sans-Serif" font-size="10.00">ce103_hw3_library_lib.Book</text>
<text text-anchor="middle" x="616.5" y="-199" font-family="Helvetica,sans-Serif" font-size="10.00">Functions.ReturnBook</text>
</a>
</g>
</g>
<!-- Node4&#45;&gt;Node14 -->
<g id="edge23" class="edge">
<title>Node4&#45;&gt;Node14</title>
<path fill="none" stroke="#63b8ff" d="M497.37,-182.69C510.11,-185.31 523.45,-188.06 536.39,-190.72"/>
<polygon fill="#63b8ff" stroke="#63b8ff" points="535.66,-194.14 546.16,-192.73 537.07,-187.28 535.66,-194.14"/>
</g>
<!-- Node4&#45;&gt;Node15 -->
<g id="edge27" class="edge">
<title>Node4&#45;&gt;Node15</title>
<path fill="none" stroke="#63b8ff" d="M450.15,-183.36C465.75,-194.49 485.25,-210.9 497,-230 530.89,-285.09 490.85,-321.94 533,-371 540.76,-380.03 551.25,-386.79 562.15,-391.83"/>
<polygon fill="#63b8ff" stroke="#63b8ff" points="560.67,-395.01 571.25,-395.58 563.34,-388.53 560.67,-395.01"/>
</g>
<!-- Node18 -->
<g id="node18" class="node">
<title>Node18</title>
<g id="a_node18"><a xlink:href="$classce103__hw3__library__lib_1_1_book_functions.html#a81bb6f1f81a84ca37529ce32a397df10" xlink:title=" ">
<polygon fill="white" stroke="#666666" points="685,-78 548,-78 548,-48 685,-48 685,-78"/>
<text text-anchor="start" x="556" y="-66" font-family="Helvetica,sans-Serif" font-size="10.00">ce103_hw3_library_lib.Book</text>
<text text-anchor="middle" x="616.5" y="-55" font-family="Helvetica,sans-Serif" font-size="10.00">Functions.SearchBook</text>
</a>
</g>
</g>
<!-- Node4&#45;&gt;Node18 -->
<g id="edge32" class="edge">
<title>Node4&#45;&gt;Node18</title>
<path fill="none" stroke="#63b8ff" d="M442.13,-152.74C462.04,-134.67 497.61,-104.78 533,-87 536.1,-85.44 539.32,-83.97 542.6,-82.58"/>
<polygon fill="#63b8ff" stroke="#63b8ff" points="543.83,-85.86 551.87,-78.97 541.29,-79.34 543.83,-85.86"/>
</g>
<!-- Node5&#45;&gt;Node3 -->
<g id="edge6" class="edge">
<title>Node5&#45;&gt;Node3</title>
<path fill="none" stroke="#63b8ff" d="M571.79,-259.91C559.26,-262.79 545.58,-265.98 533,-269 455.11,-287.7 425.58,-311.89 353,-278 330.42,-267.45 337.57,-249.07 317,-235 315.23,-233.79 313.39,-232.63 311.5,-231.53"/>
<polygon fill="#63b8ff" stroke="#63b8ff" points="313.54,-228.65 303.05,-227.16 310.33,-234.86 313.54,-228.65"/>
</g>
<!-- Node6&#45;&gt;Node3 -->
<g id="edge9" class="edge">
<title>Node6&#45;&gt;Node3</title>
<path fill="none" stroke="#63b8ff" d="M550.79,-143.54C496.83,-133.41 418.48,-125.19 353,-144 322.81,-152.67 292.89,-172.63 272.4,-188.52"/>
<polygon fill="#63b8ff" stroke="#63b8ff" points="270.22,-185.78 264.59,-194.76 274.59,-191.25 270.22,-185.78"/>
</g>
<!-- Node7 -->
<g id="node7" class="node">
<title>Node7</title>
<g id="a_node7"><a xlink:href="$classce103__hw3__library__lib_1_1_file_utility.html#a0706a9eaee6532bd3a42dda3579c9158" xlink:title=" ">
<polygon fill="white" stroke="#666666" points="873.5,-126 742.5,-126 742.5,-96 873.5,-96 873.5,-126"/>
<text text-anchor="start" x="750.5" y="-114" font-family="Helvetica,sans-Serif" font-size="10.00">ce103_hw3_library_lib.File</text>
<text text-anchor="middle" x="808" y="-103" font-family="Helvetica,sans-Serif" font-size="10.00">Utility.ReadBlock</text>
</a>
</g>
</g>
<!-- Node6&#45;&gt;Node7 -->
<g id="edge8" class="edge">
<title>Node6&#45;&gt;Node7</title>
<path fill="none" stroke="#63b8ff" d="M678.5,-143.55C696.51,-138.99 716.38,-133.95 735.01,-129.24"/>
<polygon fill="#63b8ff" stroke="#63b8ff" points="735.81,-132.64 744.65,-126.79 734.09,-125.86 735.81,-132.64"/>
</g>
<!-- Node8 -->
<g id="node8" class="node">
<title>Node8</title>
<g id="a_node8"><a xlink:href="$classce103__hw3__library__lib_1_1_file_utility.html#a3258416645b5a69d8d0eb9ac217b2c20" xlink:title=" ">
<polygon fill="white" stroke="#666666" points="873.5,-222 742.5,-222 742.5,-192 873.5,-192 873.5,-222"/>
<text text-anchor="start" x="750.5" y="-210" font-family="Helvetica,sans-Serif" font-size="10.00">ce103_hw3_library_lib.File</text>
<text text-anchor="middle" x="808" y="-199" font-family="Helvetica,sans-Serif" font-size="10.00">Utility.UpdateBlock</text>
</a>
</g>
</g>
<!-- Node6&#45;&gt;Node8 -->
<g id="edge10" class="edge">
<title>Node6&#45;&gt;Node8</title>
<path fill="none" stroke="#63b8ff" d="M678.5,-174.45C696.51,-179.01 716.38,-184.05 735.01,-188.76"/>
<polygon fill="#63b8ff" stroke="#63b8ff" points="734.09,-192.14 744.65,-191.21 735.81,-185.36 734.09,-192.14"/>
</g>
<!-- Node9&#45;&gt;Node3 -->
<g id="edge13" class="edge">
<title>Node9&#45;&gt;Node3</title>
<path fill="none" stroke="#63b8ff" d="M547.52,-360.7C490.1,-368.26 408.56,-369.1 353,-328 317.37,-301.64 349.01,-265.65 317,-235 316.24,-234.27 315.46,-233.57 314.65,-232.88"/>
<polygon fill="#63b8ff" stroke="#63b8ff" points="316.78,-230.1 306.58,-227.2 312.75,-235.82 316.78,-230.1"/>
</g>
<!-- Node10 -->
<g id="node10" class="node">
<title>Node10</title>
<g id="a_node10"><a xlink:href="$classce103__hw3__library__lib_1_1_file_utility.html#ad1233745f44f8159d86b0692c3a24b21" xlink:title=" ">
<polygon fill="white" stroke="#666666" points="873.5,-362 742.5,-362 742.5,-332 873.5,-332 873.5,-362"/>
<text text-anchor="start" x="750.5" y="-350" font-family="Helvetica,sans-Serif" font-size="10.00">ce103_hw3_library_lib.File</text>
<text text-anchor="middle" x="808" y="-339" font-family="Helvetica,sans-Serif" font-size="10.00">Utility.DeleteBlock</text>
</a>
</g>
</g>
<!-- Node9&#45;&gt;Node10 -->
<g id="edge12" class="edge">
<title>Node9&#45;&gt;Node10</title>
<path fill="none" stroke="#63b8ff" d="M685.38,-347C700.1,-347 715.77,-347 730.8,-347"/>
<polygon fill="#63b8ff" stroke="#63b8ff" points="730.62,-350.5 740.62,-347 730.62,-343.5 730.62,-350.5"/>
</g>
<!-- Node11&#45;&gt;Node3 -->
<g id="edge15" class="edge">
<title>Node11&#45;&gt;Node3</title>
<path fill="none" stroke="#63b8ff" d="M569.1,-308.5C513.54,-324.06 419.65,-340.57 353,-301 324.27,-283.94 342.58,-256.49 317,-235 315.91,-234.08 314.78,-233.2 313.62,-232.35"/>
<polygon fill="#63b8ff" stroke="#63b8ff" points="315.8,-229.59 305.47,-227.26 312.1,-235.53 315.8,-229.59"/>
</g>
<!-- Node11&#45;&gt;Node8 -->
<g id="edge16" class="edge">
<title>Node11&#45;&gt;Node8</title>
<path fill="none" stroke="#63b8ff" d="M674.46,-277.57C683.13,-274.7 691.89,-271.49 700,-268 725.83,-256.89 753.35,-241.1 774.01,-228.37"/>
<polygon fill="#63b8ff" stroke="#63b8ff" points="775.66,-231.47 782.29,-223.2 771.95,-225.53 775.66,-231.47"/>
</g>
<!-- Node12&#45;&gt;Node3 -->
<g id="edge19" class="edge">
<title>Node12&#45;&gt;Node3</title>
<path fill="none" stroke="#63b8ff" d="M547.67,-13.1C491.48,-14.6 411.62,-24.06 353,-61 305.14,-91.16 272.34,-151.24 256.63,-185.51"/>
<polygon fill="#63b8ff" stroke="#63b8ff" points="253.6,-183.71 252.75,-194.27 260,-186.54 253.6,-183.71"/>
</g>
<!-- Node12&#45;&gt;Node7 -->
<g id="edge18" class="edge">
<title>Node12&#45;&gt;Node7</title>
<path fill="none" stroke="#63b8ff" d="M678.67,-30.47C685.98,-33 693.24,-35.84 700,-39 728.67,-52.41 758.3,-72.97 779.09,-88.68"/>
<polygon fill="#63b8ff" stroke="#63b8ff" points="776.72,-91.28 786.78,-94.6 780.99,-85.73 776.72,-91.28"/>
</g>
<!-- Node13&#45;&gt;Node3 -->
<g id="edge22" class="edge">
<title>Node13&#45;&gt;Node3</title>
<path fill="none" stroke="#63b8ff" d="M547.7,-105.12C493.31,-102.85 415.92,-105.23 353,-129 319.82,-141.54 288.42,-167.97 268.32,-187.45"/>
<polygon fill="#63b8ff" stroke="#63b8ff" points="265.86,-184.97 261.25,-194.51 270.8,-189.93 265.86,-184.97"/>
</g>
<!-- Node13&#45;&gt;Node7 -->
<g id="edge21" class="edge">
<title>Node13&#45;&gt;Node7</title>
<path fill="none" stroke="#63b8ff" d="M685.38,-111C700.1,-111 715.77,-111 730.8,-111"/>
<polygon fill="#63b8ff" stroke="#63b8ff" points="730.62,-114.5 740.62,-111 730.62,-107.5 730.62,-114.5"/>
</g>
<!-- Node14&#45;&gt;Node3 -->
<g id="edge25" class="edge">
<title>Node14&#45;&gt;Node3</title>
<path fill="none" stroke="#63b8ff" d="M547.59,-207.74C485.79,-208.4 394.4,-209.39 328.43,-210.11"/>
<polygon fill="#63b8ff" stroke="#63b8ff" points="328.72,-206.6 318.76,-210.21 328.79,-213.6 328.72,-206.6"/>
</g>
<!-- Node14&#45;&gt;Node7 -->
<g id="edge24" class="edge">
<title>Node14&#45;&gt;Node7</title>
<path fill="none" stroke="#63b8ff" d="M678.67,-191.53C685.98,-189 693.24,-186.16 700,-183 728.67,-169.59 758.3,-149.03 779.09,-133.32"/>
<polygon fill="#63b8ff" stroke="#63b8ff" points="780.99,-136.27 786.78,-127.4 776.72,-130.72 780.99,-136.27"/>
</g>
<!-- Node14&#45;&gt;Node8 -->
<g id="edge26" class="edge">
<title>Node14&#45;&gt;Node8</title>
<path fill="none" stroke="#63b8ff" d="M685.38,-207C700.1,-207 715.77,-207 730.8,-207"/>
<polygon fill="#63b8ff" stroke="#63b8ff" points="730.62,-210.5 740.62,-207 730.62,-203.5 730.62,-210.5"/>
</g>
<!-- Node16 -->
<g id="node16" class="node">
<title>Node16</title>
<g id="a_node16"><a xlink:href="$classce103__hw3__library__lib_1_1_menu.html#af4dab9715ef5ee639001951ec8c3d5e2" xlink:title=" ">
<polygon fill="white" stroke="#666666" points="879,-416 737,-416 737,-386 879,-386 879,-416"/>
<text text-anchor="start" x="745" y="-404" font-family="Helvetica,sans-Serif" font-size="10.00">ce103_hw3_library_lib.Menu.</text>
<text text-anchor="middle" x="808" y="-393" font-family="Helvetica,sans-Serif" font-size="10.00">DisplayOptions</text>
</a>
</g>
</g>
<!-- Node15&#45;&gt;Node16 -->
<g id="edge28" class="edge">
<title>Node15&#45;&gt;Node16</title>
<path fill="none" stroke="#63b8ff" d="M696.49,-403.92C705.95,-403.67 715.62,-403.41 725.12,-403.16"/>
<polygon fill="#63b8ff" stroke="#63b8ff" points="725.18,-406.66 735.08,-402.9 724.99,-399.66 725.18,-406.66"/>
</g>
<!-- Node17 -->
<g id="node17" class="node">
<title>Node17</title>
<g id="a_node17"><a xlink:href="$classce103__hw3__library__lib_1_1library.html#a261e9b866de5ed430c5888e32120a346" xlink:title=" ">
<polygon fill="white" stroke="#666666" points="880,-464 736,-464 736,-434 880,-434 880,-464"/>
<text text-anchor="start" x="744" y="-452" font-family="Helvetica,sans-Serif" font-size="10.00">ce103_hw3_library_lib.library.</text>
<text text-anchor="middle" x="808" y="-441" font-family="Helvetica,sans-Serif" font-size="10.00">Start</text>
</a>
</g>
</g>
<!-- Node15&#45;&gt;Node17 -->
<g id="edge29" class="edge">
<title>Node15&#45;&gt;Node17</title>
<path fill="none" stroke="#63b8ff" d="M661.45,-415.97C681.18,-420.45 705.09,-425.87 727.77,-431.02"/>
<polygon fill="#63b8ff" stroke="#63b8ff" points="726.78,-434.39 737.31,-433.19 728.33,-427.56 726.78,-434.39"/>
</g>
<!-- Node17&#45;&gt;Node3 -->
<g id="edge30" class="edge">
<title>Node17&#45;&gt;Node3</title>
<path fill="none" stroke="#63b8ff" d="M737.7,-464.46C638.87,-482.07 457.85,-497.16 353,-401 297.36,-349.98 367.3,-291.3 317,-235 316.54,-234.48 316.07,-233.98 315.58,-233.49"/>
<polygon fill="#63b8ff" stroke="#63b8ff" points="318.05,-230.98 308.1,-227.36 313.62,-236.4 318.05,-230.98"/>
</g>
<!-- Node18&#45;&gt;Node3 -->
<g id="edge34" class="edge">
<title>Node18&#45;&gt;Node3</title>
<path fill="none" stroke="#63b8ff" d="M547.74,-61.04C492.49,-62.13 413.92,-69.94 353,-101 313.85,-120.96 280.74,-160.86 262.13,-186.72"/>
<polygon fill="#63b8ff" stroke="#63b8ff" points="259.46,-184.43 256.59,-194.63 265.19,-188.45 259.46,-184.43"/>
</g>
<!-- Node18&#45;&gt;Node7 -->
<g id="edge33" class="edge">
<title>Node18&#45;&gt;Node7</title>
<path fill="none" stroke="#63b8ff" d="M678.5,-78.45C696.51,-83.01 716.38,-88.05 735.01,-92.76"/>
<polygon fill="#63b8ff" stroke="#63b8ff" points="734.09,-96.14 744.65,-95.21 735.81,-89.36 734.09,-96.14"/>
</g>
</g>
</svg>
