<?xml version="1.0" encoding="UTF-8" standalone="no"?>
<!DOCTYPE svg PUBLIC "-//W3C//DTD SVG 1.1//EN"
 "http://www.w3.org/Graphics/SVG/1.1/DTD/svg11.dtd">
<!-- Generated by graphviz version 7.0.4 (20221203.1631)
 -->
<!-- Title: ce103_hw3_library_lib.BookFunctions.EditBook Pages: 1 -->
<svg width="888pt" height="500pt"
 viewBox="0.00 0.00 888.00 499.62" xmlns="http://www.w3.org/2000/svg" xmlns:xlink="http://www.w3.org/1999/xlink">
<g id="graph0" class="graph" transform="scale(1 1) rotate(0) translate(4 495.62)">
<title>ce103_hw3_library_lib.BookFunctions.EditBook</title>
<!-- Node1 -->
<g id="node1" class="node">
<title>Node1</title>
<g id="a_node1"><a xlink:title=" ">
<polygon fill="#999999" stroke="#666666" points="137,-206.73 0,-206.73 0,-176.73 137,-176.73 137,-206.73"/>
<text text-anchor="start" x="8" y="-194.73" font-family="Helvetica,sans-Serif" font-size="10.00">ce103_hw3_library_lib.Book</text>
<text text-anchor="middle" x="68.5" y="-183.73" font-family="Helvetica,sans-Serif" font-size="10.00">Functions.EditBook</text>
</a>
</g>
</g>
<!-- Node2 -->
<g id="node2" class="node">
<title>Node2</title>
<g id="a_node2"><a xlink:href="$classce103__hw3__library__lib_1_1library.html#a80f197f4303dd78438ec6055614382da" xlink:title=" ">
<polygon fill="white" stroke="#666666" points="317,-249.73 173,-249.73 173,-219.73 317,-219.73 317,-249.73"/>
<text text-anchor="start" x="181" y="-237.73" font-family="Helvetica,sans-Serif" font-size="10.00">ce103_hw3_library_lib.library.</text>
<text text-anchor="middle" x="245" y="-226.73" font-family="Helvetica,sans-Serif" font-size="10.00">RunMainMenu</text>
</a>
</g>
</g>
<!-- Node1&#45;&gt;Node2 -->
<g id="edge1" class="edge">
<title>Node1&#45;&gt;Node2</title>
<path fill="none" stroke="#63b8ff" d="M132.01,-207.13C144.41,-210.18 157.54,-213.42 170.28,-216.56"/>
<polygon fill="#63b8ff" stroke="#63b8ff" points="169.33,-219.93 179.87,-218.92 171,-213.13 169.33,-219.93"/>
</g>
<!-- Node9 -->
<g id="node9" class="node">
<title>Node9</title>
<g id="a_node9"><a xlink:href="$classce103__hw3__library__lib_1_1_file_utility.html#a3258416645b5a69d8d0eb9ac217b2c20" xlink:title=" ">
<polygon fill="white" stroke="#666666" points="873.5,-52.73 742.5,-52.73 742.5,-22.73 873.5,-22.73 873.5,-52.73"/>
<text text-anchor="start" x="750.5" y="-40.73" font-family="Helvetica,sans-Serif" font-size="10.00">ce103_hw3_library_lib.File</text>
<text text-anchor="middle" x="808" y="-29.73" font-family="Helvetica,sans-Serif" font-size="10.00">Utility.UpdateBlock</text>
</a>
</g>
</g>
<!-- Node1&#45;&gt;Node9 -->
<g id="edge36" class="edge">
<title>Node1&#45;&gt;Node9</title>
<path fill="none" stroke="#63b8ff" d="M90.98,-176.26C136.67,-144.23 247.89,-70.83 353,-36.73 500.02,10.97 546.38,3.29 700,-13.73 712.24,-15.08 725.13,-17.28 737.56,-19.82"/>
<polygon fill="#63b8ff" stroke="#63b8ff" points="736.81,-23.24 747.33,-21.91 738.28,-16.4 736.81,-23.24"/>
</g>
<!-- Node3 -->
<g id="node3" class="node">
<title>Node3</title>
<g id="a_node3"><a xlink:href="$classce103__hw3__library__lib_1_1library.html#a966e08d69fdd5e4d3bf6a12af39bfe14" xlink:title=" ">
<polygon fill="white" stroke="#666666" points="497,-206.73 353,-206.73 353,-176.73 497,-176.73 497,-206.73"/>
<text text-anchor="start" x="361" y="-194.73" font-family="Helvetica,sans-Serif" font-size="10.00">ce103_hw3_library_lib.library.</text>
<text text-anchor="middle" x="425" y="-183.73" font-family="Helvetica,sans-Serif" font-size="10.00">BookOption</text>
</a>
</g>
</g>
<!-- Node2&#45;&gt;Node3 -->
<g id="edge2" class="edge">
<title>Node2&#45;&gt;Node3</title>
<path fill="none" stroke="#63b8ff" d="M285.95,-219.33C302.47,-214.58 322.29,-209.47 341.67,-204.88"/>
<polygon fill="#63b8ff" stroke="#63b8ff" points="342.27,-208.34 351.22,-202.66 340.68,-201.52 342.27,-208.34"/>
</g>
<!-- Node15 -->
<g id="node15" class="node">
<title>Node15</title>
<g id="a_node15"><a xlink:href="$classce103__hw3__library__lib_1_1_menu.html#a83866faf86a98cdc36d517e8ed443534" xlink:title=" ">
<polygon fill="white" stroke="#666666" points="696,-439.23 537,-439.23 537,-420.23 696,-420.23 696,-439.23"/>
<text text-anchor="middle" x="616.5" y="-427.23" font-family="Helvetica,sans-Serif" font-size="10.00">ce103_hw3_library_lib.Menu.Run</text>
</a>
</g>
</g>
<!-- Node2&#45;&gt;Node15 -->
<g id="edge35" class="edge">
<title>Node2&#45;&gt;Node15</title>
<path fill="none" stroke="#63b8ff" d="M251.73,-250.19C264.46,-282.19 298.39,-355.57 353,-389.73 404.18,-421.73 471.67,-431.46 525.41,-433.33"/>
<polygon fill="#63b8ff" stroke="#63b8ff" points="525.05,-436.82 535.14,-433.58 525.23,-429.82 525.05,-436.82"/>
</g>
<!-- Node19 -->
<g id="node19" class="node">
<title>Node19</title>
<g id="a_node19"><a xlink:href="$classce103__hw3__library__lib_1_1library.html#a754cac172f3b071c7eea3f07777aac68" xlink:title=" ">
<polygon fill="white" stroke="#666666" points="497,-330.73 353,-330.73 353,-300.73 497,-300.73 497,-330.73"/>
<text text-anchor="start" x="361" y="-318.73" font-family="Helvetica,sans-Serif" font-size="10.00">ce103_hw3_library_lib.library.</text>
<text text-anchor="middle" x="425" y="-307.73" font-family="Helvetica,sans-Serif" font-size="10.00">ExitApp</text>
</a>
</g>
</g>
<!-- Node2&#45;&gt;Node19 -->
<g id="edge34" class="edge">
<title>Node2&#45;&gt;Node19</title>
<path fill="none" stroke="#63b8ff" d="M276.19,-250.04C297.49,-260.69 326.79,-275.02 353,-286.73 359.94,-289.83 367.32,-292.99 374.6,-296.03"/>
<polygon fill="#63b8ff" stroke="#63b8ff" points="373.14,-299.21 383.72,-299.79 375.81,-292.74 373.14,-299.21"/>
</g>
<!-- Node3&#45;&gt;Node1 -->
<g id="edge15" class="edge">
<title>Node3&#45;&gt;Node1</title>
<path fill="none" stroke="#63b8ff" d="M352.65,-191.73C293.56,-191.73 209.69,-191.73 148.57,-191.73"/>
<polygon fill="#63b8ff" stroke="#63b8ff" points="148.95,-188.23 138.95,-191.73 148.95,-195.23 148.95,-188.23"/>
</g>
<!-- Node3&#45;&gt;Node2 -->
<g id="edge30" class="edge">
<title>Node3&#45;&gt;Node2</title>
<path fill="none" stroke="#63b8ff" d="M383.85,-207.17C367.37,-211.91 347.65,-217 328.34,-221.57"/>
<polygon fill="#63b8ff" stroke="#63b8ff" points="327.8,-218.1 318.85,-223.77 329.38,-224.92 327.8,-218.1"/>
</g>
<!-- Node4 -->
<g id="node4" class="node">
<title>Node4</title>
<g id="a_node4"><a xlink:href="$classce103__hw3__library__lib_1_1_book_functions.html#aeb0f4b25699b7ca705f259d228730ef5" xlink:title=" ">
<polygon fill="white" stroke="#666666" points="685,-387.73 548,-387.73 548,-357.73 685,-357.73 685,-387.73"/>
<text text-anchor="start" x="556" y="-375.73" font-family="Helvetica,sans-Serif" font-size="10.00">ce103_hw3_library_lib.Book</text>
<text text-anchor="middle" x="616.5" y="-364.73" font-family="Helvetica,sans-Serif" font-size="10.00">Functions.AddBook</text>
</a>
</g>
</g>
<!-- Node3&#45;&gt;Node4 -->
<g id="edge3" class="edge">
<title>Node3&#45;&gt;Node4</title>
<path fill="none" stroke="#63b8ff" d="M437.21,-207.21C451.33,-226.78 476.24,-261.56 497,-291.73 513.35,-315.49 510.03,-328.28 533,-345.73 536.09,-348.07 539.4,-350.23 542.85,-352.19"/>
<polygon fill="#63b8ff" stroke="#63b8ff" points="541.02,-355.19 551.52,-356.58 544.18,-348.94 541.02,-355.19"/>
</g>
<!-- Node6 -->
<g id="node6" class="node">
<title>Node6</title>
<g id="a_node6"><a xlink:href="$classce103__hw3__library__lib_1_1library.html#a84facf753a1182bffc9b0309adc8dadb" xlink:title=" ">
<polygon fill="white" stroke="#666666" points="700,-282.23 533,-282.23 533,-263.23 700,-263.23 700,-282.23"/>
<text text-anchor="middle" x="616.5" y="-270.23" font-family="Helvetica,sans-Serif" font-size="10.00">ce103_hw3_library_lib.library.Back</text>
</a>
</g>
</g>
<!-- Node3&#45;&gt;Node6 -->
<g id="edge6" class="edge">
<title>Node3&#45;&gt;Node6</title>
<path fill="none" stroke="#63b8ff" d="M447.96,-207.09C468.93,-221.1 501.84,-241.43 533,-253.73 538.64,-255.95 544.6,-257.95 550.64,-259.74"/>
<polygon fill="#63b8ff" stroke="#63b8ff" points="549.51,-263.06 560.08,-262.34 551.37,-256.31 549.51,-263.06"/>
</g>
<!-- Node7 -->
<g id="node7" class="node">
<title>Node7</title>
<g id="a_node7"><a xlink:href="$classce103__hw3__library__lib_1_1_book_functions.html#a4d2ef5095cd896dba0b81ac4a8ca3f11" xlink:title=" ">
<polygon fill="white" stroke="#666666" points="685,-52.73 548,-52.73 548,-22.73 685,-22.73 685,-52.73"/>
<text text-anchor="start" x="556" y="-40.73" font-family="Helvetica,sans-Serif" font-size="10.00">ce103_hw3_library_lib.Book</text>
<text text-anchor="middle" x="616.5" y="-29.73" font-family="Helvetica,sans-Serif" font-size="10.00">Functions.BorrowBook</text>
</a>
</g>
</g>
<!-- Node3&#45;&gt;Node7 -->
<g id="edge8" class="edge">
<title>Node3&#45;&gt;Node7</title>
<path fill="none" stroke="#63b8ff" d="M434.42,-176.35C450.15,-149.09 486.62,-92.28 533,-61.73 534.87,-60.49 536.8,-59.32 538.78,-58.21"/>
<polygon fill="#63b8ff" stroke="#63b8ff" points="540.28,-61.38 547.7,-53.81 537.18,-55.1 540.28,-61.38"/>
</g>
<!-- Node10 -->
<g id="node10" class="node">
<title>Node10</title>
<g id="a_node10"><a xlink:href="$classce103__hw3__library__lib_1_1_book_functions.html#a859f030ca58df3aef0ca202c2df131ab" xlink:title=" ">
<polygon fill="white" stroke="#666666" points="685,-336.73 548,-336.73 548,-306.73 685,-306.73 685,-336.73"/>
<text text-anchor="start" x="556" y="-324.73" font-family="Helvetica,sans-Serif" font-size="10.00">ce103_hw3_library_lib.Book</text>
<text text-anchor="middle" x="616.5" y="-313.73" font-family="Helvetica,sans-Serif" font-size="10.00">Functions.DeleteBook</text>
</a>
</g>
</g>
<!-- Node3&#45;&gt;Node10 -->
<g id="edge12" class="edge">
<title>Node3&#45;&gt;Node10</title>
<path fill="none" stroke="#63b8ff" d="M439.07,-207.11C457.91,-228.44 494.67,-267.06 533,-290.73 539.73,-294.88 547.1,-298.61 554.58,-301.94"/>
<polygon fill="#63b8ff" stroke="#63b8ff" points="553.2,-305.15 563.78,-305.78 555.89,-298.69 553.2,-305.15"/>
</g>
<!-- Node12 -->
<g id="node12" class="node">
<title>Node12</title>
<g id="a_node12"><a xlink:href="$classce103__hw3__library__lib_1_1_book_functions.html#ae4b718abfd1ef505ca816bada5a5053f" xlink:title=" ">
<polygon fill="white" stroke="#666666" points="685,-196.73 548,-196.73 548,-166.73 685,-166.73 685,-196.73"/>
<text text-anchor="start" x="556" y="-184.73" font-family="Helvetica,sans-Serif" font-size="10.00">ce103_hw3_library_lib.Book</text>
<text text-anchor="middle" x="616.5" y="-173.73" font-family="Helvetica,sans-Serif" font-size="10.00">Functions.ListBook</text>
</a>
</g>
</g>
<!-- Node3&#45;&gt;Node12 -->
<g id="edge16" class="edge">
<title>Node3&#45;&gt;Node12</title>
<path fill="none" stroke="#63b8ff" d="M497.37,-187.96C510.11,-187.29 523.45,-186.58 536.39,-185.9"/>
<polygon fill="#63b8ff" stroke="#63b8ff" points="536.33,-189.41 546.13,-185.39 535.96,-182.42 536.33,-189.41"/>
</g>
<!-- Node13 -->
<g id="node13" class="node">
<title>Node13</title>
<g id="a_node13"><a xlink:href="$classce103__hw3__library__lib_1_1_book_functions.html#abc272bb655ce11abfa5cb33d995132b7" xlink:title=" ">
<polygon fill="white" stroke="#666666" points="685,-148.73 548,-148.73 548,-118.73 685,-118.73 685,-148.73"/>
<text text-anchor="start" x="556" y="-136.73" font-family="Helvetica,sans-Serif" font-size="10.00">ce103_hw3_library_lib.Book</text>
<text text-anchor="middle" x="616.5" y="-125.73" font-family="Helvetica,sans-Serif" font-size="10.00">Functions.ListBorrowBook</text>
</a>
</g>
</g>
<!-- Node3&#45;&gt;Node13 -->
<g id="edge19" class="edge">
<title>Node3&#45;&gt;Node13</title>
<path fill="none" stroke="#63b8ff" d="M473.86,-176.24C492.31,-170.34 513.61,-163.63 533,-157.73 538.8,-155.96 544.83,-154.15 550.88,-152.36"/>
<polygon fill="#63b8ff" stroke="#63b8ff" points="551.69,-155.77 560.29,-149.58 549.71,-149.05 551.69,-155.77"/>
</g>
<!-- Node14 -->
<g id="node14" class="node">
<title>Node14</title>
<g id="a_node14"><a xlink:href="$classce103__hw3__library__lib_1_1_book_functions.html#af9a659e47a42e3f7ec1a29e280282a51" xlink:title=" ">
<polygon fill="white" stroke="#666666" points="685,-100.73 548,-100.73 548,-70.73 685,-70.73 685,-100.73"/>
<text text-anchor="start" x="556" y="-88.73" font-family="Helvetica,sans-Serif" font-size="10.00">ce103_hw3_library_lib.Book</text>
<text text-anchor="middle" x="616.5" y="-77.73" font-family="Helvetica,sans-Serif" font-size="10.00">Functions.ReturnBook</text>
</a>
</g>
</g>
<!-- Node3&#45;&gt;Node14 -->
<g id="edge22" class="edge">
<title>Node3&#45;&gt;Node14</title>
<path fill="none" stroke="#63b8ff" d="M442.09,-176.26C461.96,-157.96 497.5,-127.69 533,-109.73 536.09,-108.16 539.31,-106.68 542.59,-105.28"/>
<polygon fill="#63b8ff" stroke="#63b8ff" points="543.82,-108.56 551.86,-101.66 541.27,-102.04 543.82,-108.56"/>
</g>
<!-- Node3&#45;&gt;Node15 -->
<g id="edge26" class="edge">
<title>Node3&#45;&gt;Node15</title>
<path fill="none" stroke="#63b8ff" d="M439.06,-207.09C454.59,-225.99 480.48,-259.52 497,-291.73 519.51,-335.62 499,-360.98 533,-396.73 540.57,-404.69 550.32,-410.78 560.45,-415.42"/>
<polygon fill="#63b8ff" stroke="#63b8ff" points="559.08,-418.64 569.66,-419.17 561.72,-412.15 559.08,-418.64"/>
</g>
<!-- Node18 -->
<g id="node18" class="node">
<title>Node18</title>
<g id="a_node18"><a xlink:href="$classce103__hw3__library__lib_1_1_book_functions.html#a81bb6f1f81a84ca37529ce32a397df10" xlink:title=" ">
<polygon fill="white" stroke="#666666" points="685,-244.73 548,-244.73 548,-214.73 685,-214.73 685,-244.73"/>
<text text-anchor="start" x="556" y="-232.73" font-family="Helvetica,sans-Serif" font-size="10.00">ce103_hw3_library_lib.Book</text>
<text text-anchor="middle" x="616.5" y="-221.73" font-family="Helvetica,sans-Serif" font-size="10.00">Functions.SearchBook</text>
</a>
</g>
</g>
<!-- Node3&#45;&gt;Node18 -->
<g id="edge31" class="edge">
<title>Node3&#45;&gt;Node18</title>
<path fill="none" stroke="#63b8ff" d="M497.37,-206.04C510.11,-208.59 523.45,-211.27 536.39,-213.86"/>
<polygon fill="#63b8ff" stroke="#63b8ff" points="535.66,-217.28 546.15,-215.82 537.04,-210.42 535.66,-217.28"/>
</g>
<!-- Node4&#45;&gt;Node2 -->
<g id="edge5" class="edge">
<title>Node4&#45;&gt;Node2</title>
<path fill="none" stroke="#63b8ff" d="M547.68,-384.32C492.4,-390.49 413.81,-391.57 353,-361.73 308.55,-339.91 275.58,-290.2 258.7,-259.85"/>
<polygon fill="#63b8ff" stroke="#63b8ff" points="261.93,-258.48 254.12,-251.33 255.77,-261.79 261.93,-258.48"/>
</g>
<!-- Node5 -->
<g id="node5" class="node">
<title>Node5</title>
<g id="a_node5"><a xlink:href="$classce103__hw3__library__lib_1_1_file_utility.html#a6b9ef5a028f3e26107779e0a3f300aef" xlink:title=" ">
<polygon fill="white" stroke="#666666" points="873.5,-387.73 742.5,-387.73 742.5,-357.73 873.5,-357.73 873.5,-387.73"/>
<text text-anchor="start" x="750.5" y="-375.73" font-family="Helvetica,sans-Serif" font-size="10.00">ce103_hw3_library_lib.File</text>
<text text-anchor="middle" x="808" y="-364.73" font-family="Helvetica,sans-Serif" font-size="10.00">Utility.AppendBlock</text>
</a>
</g>
</g>
<!-- Node4&#45;&gt;Node5 -->
<g id="edge4" class="edge">
<title>Node4&#45;&gt;Node5</title>
<path fill="none" stroke="#63b8ff" d="M685.38,-372.73C700.1,-372.73 715.77,-372.73 730.8,-372.73"/>
<polygon fill="#63b8ff" stroke="#63b8ff" points="730.62,-376.23 740.62,-372.73 730.62,-369.23 730.62,-376.23"/>
</g>
<!-- Node6&#45;&gt;Node2 -->
<g id="edge7" class="edge">
<title>Node6&#45;&gt;Node2</title>
<path fill="none" stroke="#63b8ff" d="M532.71,-264.8C481.03,-259.79 413.12,-253.07 353,-246.73 345.08,-245.89 336.82,-245 328.57,-244.09"/>
<polygon fill="#63b8ff" stroke="#63b8ff" points="329.18,-240.64 318.86,-243.02 328.42,-247.6 329.18,-240.64"/>
</g>
<!-- Node7&#45;&gt;Node2 -->
<g id="edge10" class="edge">
<title>Node7&#45;&gt;Node2</title>
<path fill="none" stroke="#63b8ff" d="M547.66,-36.13C491.45,-37.87 411.59,-47.65 353,-84.73 305.19,-114.98 272.37,-175.02 256.65,-209.26"/>
<polygon fill="#63b8ff" stroke="#63b8ff" points="253.62,-207.45 252.76,-218.01 260.02,-210.29 253.62,-207.45"/>
</g>
<!-- Node8 -->
<g id="node8" class="node">
<title>Node8</title>
<g id="a_node8"><a xlink:href="$classce103__hw3__library__lib_1_1_file_utility.html#a0706a9eaee6532bd3a42dda3579c9158" xlink:title=" ">
<polygon fill="white" stroke="#666666" points="873.5,-148.73 742.5,-148.73 742.5,-118.73 873.5,-118.73 873.5,-148.73"/>
<text text-anchor="start" x="750.5" y="-136.73" font-family="Helvetica,sans-Serif" font-size="10.00">ce103_hw3_library_lib.File</text>
<text text-anchor="middle" x="808" y="-125.73" font-family="Helvetica,sans-Serif" font-size="10.00">Utility.ReadBlock</text>
</a>
</g>
</g>
<!-- Node7&#45;&gt;Node8 -->
<g id="edge9" class="edge">
<title>Node7&#45;&gt;Node8</title>
<path fill="none" stroke="#63b8ff" d="M678.67,-53.2C685.98,-55.72 693.24,-58.56 700,-61.73 728.67,-75.14 758.3,-95.69 779.09,-111.41"/>
<polygon fill="#63b8ff" stroke="#63b8ff" points="776.72,-114 786.78,-117.32 780.99,-108.46 776.72,-114"/>
</g>
<!-- Node7&#45;&gt;Node9 -->
<g id="edge11" class="edge">
<title>Node7&#45;&gt;Node9</title>
<path fill="none" stroke="#63b8ff" d="M685.38,-37.73C700.1,-37.73 715.77,-37.73 730.8,-37.73"/>
<polygon fill="#63b8ff" stroke="#63b8ff" points="730.62,-41.23 740.62,-37.73 730.62,-34.23 730.62,-41.23"/>
</g>
<!-- Node10&#45;&gt;Node2 -->
<g id="edge14" class="edge">
<title>Node10&#45;&gt;Node2</title>
<path fill="none" stroke="#63b8ff" d="M567.98,-337.2C513.81,-352.13 423.62,-368.59 353,-339.73 313.44,-323.56 280.61,-284.93 262.15,-259.31"/>
<polygon fill="#63b8ff" stroke="#63b8ff" points="265.03,-257.32 256.44,-251.12 259.29,-261.32 265.03,-257.32"/>
</g>
<!-- Node11 -->
<g id="node11" class="node">
<title>Node11</title>
<g id="a_node11"><a xlink:href="$classce103__hw3__library__lib_1_1_file_utility.html#ad1233745f44f8159d86b0692c3a24b21" xlink:title=" ">
<polygon fill="white" stroke="#666666" points="873.5,-336.73 742.5,-336.73 742.5,-306.73 873.5,-306.73 873.5,-336.73"/>
<text text-anchor="start" x="750.5" y="-324.73" font-family="Helvetica,sans-Serif" font-size="10.00">ce103_hw3_library_lib.File</text>
<text text-anchor="middle" x="808" y="-313.73" font-family="Helvetica,sans-Serif" font-size="10.00">Utility.DeleteBlock</text>
</a>
</g>
</g>
<!-- Node10&#45;&gt;Node11 -->
<g id="edge13" class="edge">
<title>Node10&#45;&gt;Node11</title>
<path fill="none" stroke="#63b8ff" d="M685.38,-321.73C700.1,-321.73 715.77,-321.73 730.8,-321.73"/>
<polygon fill="#63b8ff" stroke="#63b8ff" points="730.62,-325.23 740.62,-321.73 730.62,-318.23 730.62,-325.23"/>
</g>
<!-- Node12&#45;&gt;Node2 -->
<g id="edge18" class="edge">
<title>Node12&#45;&gt;Node2</title>
<path fill="none" stroke="#63b8ff" d="M548.6,-166.25C494.72,-156.59 417.59,-149.17 353,-167.73 322.81,-176.4 292.89,-196.35 272.4,-212.25"/>
<polygon fill="#63b8ff" stroke="#63b8ff" points="270.22,-209.51 264.59,-218.48 274.59,-214.98 270.22,-209.51"/>
</g>
<!-- Node12&#45;&gt;Node8 -->
<g id="edge17" class="edge">
<title>Node12&#45;&gt;Node8</title>
<path fill="none" stroke="#63b8ff" d="M678.5,-166.27C696.51,-161.71 716.38,-156.68 735.01,-151.96"/>
<polygon fill="#63b8ff" stroke="#63b8ff" points="735.81,-155.37 744.65,-149.52 734.09,-148.58 735.81,-155.37"/>
</g>
<!-- Node13&#45;&gt;Node2 -->
<g id="edge21" class="edge">
<title>Node13&#45;&gt;Node2</title>
<path fill="none" stroke="#63b8ff" d="M547.69,-128.16C493.28,-126.14 415.9,-128.83 353,-152.73 319.84,-165.32 288.44,-191.75 268.33,-211.21"/>
<polygon fill="#63b8ff" stroke="#63b8ff" points="265.87,-208.72 261.26,-218.26 270.81,-213.68 265.87,-208.72"/>
</g>
<!-- Node13&#45;&gt;Node8 -->
<g id="edge20" class="edge">
<title>Node13&#45;&gt;Node8</title>
<path fill="none" stroke="#63b8ff" d="M685.38,-133.73C700.1,-133.73 715.77,-133.73 730.8,-133.73"/>
<polygon fill="#63b8ff" stroke="#63b8ff" points="730.62,-137.23 740.62,-133.73 730.62,-130.23 730.62,-137.23"/>
</g>
<!-- Node14&#45;&gt;Node2 -->
<g id="edge24" class="edge">
<title>Node14&#45;&gt;Node2</title>
<path fill="none" stroke="#63b8ff" d="M547.73,-84.08C492.47,-85.41 413.9,-93.53 353,-124.73 313.89,-144.76 280.76,-184.63 262.14,-210.47"/>
<polygon fill="#63b8ff" stroke="#63b8ff" points="259.47,-208.18 256.6,-218.38 265.21,-212.2 259.47,-208.18"/>
</g>
<!-- Node14&#45;&gt;Node8 -->
<g id="edge23" class="edge">
<title>Node14&#45;&gt;Node8</title>
<path fill="none" stroke="#63b8ff" d="M678.5,-101.18C696.51,-105.74 716.38,-110.77 735.01,-115.49"/>
<polygon fill="#63b8ff" stroke="#63b8ff" points="734.09,-118.87 744.65,-117.93 735.81,-112.08 734.09,-118.87"/>
</g>
<!-- Node14&#45;&gt;Node9 -->
<g id="edge25" class="edge">
<title>Node14&#45;&gt;Node9</title>
<path fill="none" stroke="#63b8ff" d="M678.5,-70.27C696.51,-65.71 716.38,-60.68 735.01,-55.96"/>
<polygon fill="#63b8ff" stroke="#63b8ff" points="735.81,-59.37 744.65,-53.52 734.09,-52.58 735.81,-59.37"/>
</g>
<!-- Node16 -->
<g id="node16" class="node">
<title>Node16</title>
<g id="a_node16"><a xlink:href="$classce103__hw3__library__lib_1_1_menu.html#af4dab9715ef5ee639001951ec8c3d5e2" xlink:title=" ">
<polygon fill="white" stroke="#666666" points="879,-439.73 737,-439.73 737,-409.73 879,-409.73 879,-439.73"/>
<text text-anchor="start" x="745" y="-427.73" font-family="Helvetica,sans-Serif" font-size="10.00">ce103_hw3_library_lib.Menu.</text>
<text text-anchor="middle" x="808" y="-416.73" font-family="Helvetica,sans-Serif" font-size="10.00">DisplayOptions</text>
</a>
</g>
</g>
<!-- Node15&#45;&gt;Node16 -->
<g id="edge27" class="edge">
<title>Node15&#45;&gt;Node16</title>
<path fill="none" stroke="#63b8ff" d="M696.49,-427.64C705.95,-427.39 715.62,-427.14 725.12,-426.89"/>
<polygon fill="#63b8ff" stroke="#63b8ff" points="725.18,-430.39 735.08,-426.62 724.99,-423.39 725.18,-430.39"/>
</g>
<!-- Node17 -->
<g id="node17" class="node">
<title>Node17</title>
<g id="a_node17"><a xlink:href="$classce103__hw3__library__lib_1_1library.html#a261e9b866de5ed430c5888e32120a346" xlink:title=" ">
<polygon fill="white" stroke="#666666" points="880,-487.73 736,-487.73 736,-457.73 880,-457.73 880,-487.73"/>
<text text-anchor="start" x="744" y="-475.73" font-family="Helvetica,sans-Serif" font-size="10.00">ce103_hw3_library_lib.library.</text>
<text text-anchor="middle" x="808" y="-464.73" font-family="Helvetica,sans-Serif" font-size="10.00">Start</text>
</a>
</g>
</g>
<!-- Node15&#45;&gt;Node17 -->
<g id="edge28" class="edge">
<title>Node15&#45;&gt;Node17</title>
<path fill="none" stroke="#63b8ff" d="M661.45,-439.7C681.18,-444.18 705.09,-449.6 727.77,-454.75"/>
<polygon fill="#63b8ff" stroke="#63b8ff" points="726.78,-458.11 737.31,-456.91 728.33,-451.29 726.78,-458.11"/>
</g>
<!-- Node17&#45;&gt;Node2 -->
<g id="edge29" class="edge">
<title>Node17&#45;&gt;Node2</title>
<path fill="none" stroke="#63b8ff" d="M735.6,-484.41C639.91,-496.1 468.72,-502.62 353,-424.73 294.71,-385.48 264.7,-303.26 252.6,-261.02"/>
<polygon fill="#63b8ff" stroke="#63b8ff" points="256,-260.18 249.99,-251.45 249.24,-262.02 256,-260.18"/>
</g>
<!-- Node18&#45;&gt;Node2 -->
<g id="edge33" class="edge">
<title>Node18&#45;&gt;Node2</title>
<path fill="none" stroke="#63b8ff" d="M547.59,-230.64C485.79,-231.48 394.4,-232.72 328.43,-233.61"/>
<polygon fill="#63b8ff" stroke="#63b8ff" points="328.71,-230.11 318.76,-233.74 328.8,-237.1 328.71,-230.11"/>
</g>
<!-- Node18&#45;&gt;Node8 -->
<g id="edge32" class="edge">
<title>Node18&#45;&gt;Node8</title>
<path fill="none" stroke="#63b8ff" d="M678.67,-214.25C685.98,-211.73 693.24,-208.89 700,-205.73 728.67,-192.31 758.3,-171.76 779.09,-156.04"/>
<polygon fill="#63b8ff" stroke="#63b8ff" points="780.99,-158.99 786.78,-150.13 776.72,-153.45 780.99,-158.99"/>
</g>
</g>
</svg>
