<?xml version="1.0" encoding="UTF-8" standalone="no"?>
<!DOCTYPE svg PUBLIC "-//W3C//DTD SVG 1.1//EN"
 "http://www.w3.org/Graphics/SVG/1.1/DTD/svg11.dtd">
<!-- Generated by graphviz version 7.0.4 (20221203.1631)
 -->
<!-- Title: ce103_hw3_library_lib.library.Start Pages: 1 -->
<svg width="910pt" height="412pt"
 viewBox="0.00 0.00 910.00 412.00" xmlns="http://www.w3.org/2000/svg" xmlns:xlink="http://www.w3.org/1999/xlink">
<g id="graph0" class="graph" transform="scale(1 1) rotate(0) translate(4 408)">
<title>ce103_hw3_library_lib.library.Start</title>
<!-- Node1 -->
<g id="node1" class="node">
<title>Node1</title>
<g id="a_node1"><a xlink:title=" ">
<polygon fill="#999999" stroke="#666666" points="902,-198 758,-198 758,-168 902,-168 902,-198"/>
<text text-anchor="start" x="766" y="-186" font-family="Helvetica,sans-Serif" font-size="10.00">ce103_hw3_library_lib.library.</text>
<text text-anchor="middle" x="830" y="-175" font-family="Helvetica,sans-Serif" font-size="10.00">Start</text>
</a>
</g>
</g>
<!-- Node2 -->
<g id="node2" class="node">
<title>Node2</title>
<g id="a_node2"><a xlink:href="classce103__hw3__library__lib_1_1_password_content.html#a4c3fd18dd3032675ace132457ebaedba" target="_top" xlink:title=" ">
<polygon fill="white" stroke="#666666" points="721.5,-241 563.5,-241 563.5,-211 721.5,-211 721.5,-241"/>
<text text-anchor="start" x="571.5" y="-229" font-family="Helvetica,sans-Serif" font-size="10.00">ce103_hw3_library_lib.Password</text>
<text text-anchor="middle" x="642.5" y="-218" font-family="Helvetica,sans-Serif" font-size="10.00">Content.password</text>
</a>
</g>
</g>
<!-- Node1&#45;&gt;Node2 -->
<g id="edge1" class="edge">
<title>Node1&#45;&gt;Node2</title>
<path fill="none" stroke="#63b8ff" d="M751.43,-200.98C737.74,-204.15 723.6,-207.43 710.24,-210.53"/>
<polygon fill="#63b8ff" stroke="#63b8ff" points="751.87,-204.47 760.82,-198.81 750.29,-197.65 751.87,-204.47"/>
</g>
<!-- Node3 -->
<g id="node3" class="node">
<title>Node3</title>
<g id="a_node3"><a xlink:href="classce103__hw3__library__lib_1_1_menu.html#a83866faf86a98cdc36d517e8ed443534" target="_top" xlink:title=" ">
<polygon fill="white" stroke="#666666" points="722,-192.5 563,-192.5 563,-173.5 722,-173.5 722,-192.5"/>
<text text-anchor="middle" x="642.5" y="-180.5" font-family="Helvetica,sans-Serif" font-size="10.00">ce103_hw3_library_lib.Menu.Run</text>
</a>
</g>
</g>
<!-- Node1&#45;&gt;Node3 -->
<g id="edge3" class="edge">
<title>Node1&#45;&gt;Node3</title>
<path fill="none" stroke="#63b8ff" d="M746.07,-183C738.17,-183 730.18,-183 722.32,-183"/>
<polygon fill="#63b8ff" stroke="#63b8ff" points="746.03,-186.5 756.03,-183 746.03,-179.5 746.03,-186.5"/>
</g>
<!-- Node2&#45;&gt;Node2 -->
<g id="edge2" class="edge">
<title>Node2&#45;&gt;Node2</title>
<path fill="none" stroke="#63b8ff" d="M674.14,-252.61C669.07,-256.43 658.52,-259 642.5,-259 613.2,-259 602.22,-250.41 609.54,-241.28"/>
<polygon fill="#63b8ff" stroke="#63b8ff" points="677.6,-253.12 675.28,-242.78 670.65,-252.31 677.6,-253.12"/>
</g>
<!-- Node4 -->
<g id="node4" class="node">
<title>Node4</title>
<g id="a_node4"><a xlink:href="classce103__hw3__library__lib_1_1library.html#a966e08d69fdd5e4d3bf6a12af39bfe14" target="_top" xlink:title=" ">
<polygon fill="white" stroke="#666666" points="527,-241 383,-241 383,-211 527,-211 527,-241"/>
<text text-anchor="start" x="391" y="-229" font-family="Helvetica,sans-Serif" font-size="10.00">ce103_hw3_library_lib.library.</text>
<text text-anchor="middle" x="455" y="-218" font-family="Helvetica,sans-Serif" font-size="10.00">BookOption</text>
</a>
</g>
</g>
<!-- Node3&#45;&gt;Node4 -->
<g id="edge4" class="edge">
<title>Node3&#45;&gt;Node4</title>
<path fill="none" stroke="#63b8ff" d="M587.29,-195.57C567.1,-200.25 543.95,-205.61 522.77,-210.52"/>
<polygon fill="#63b8ff" stroke="#63b8ff" points="588.05,-198.98 597,-193.31 586.47,-192.16 588.05,-198.98"/>
</g>
<!-- Node5 -->
<g id="node5" class="node">
<title>Node5</title>
<g id="a_node5"><a xlink:href="classce103__hw3__library__lib_1_1library.html#a80f197f4303dd78438ec6055614382da" target="_top" xlink:title=" ">
<polygon fill="white" stroke="#666666" points="347,-198 203,-198 203,-168 347,-168 347,-198"/>
<text text-anchor="start" x="211" y="-186" font-family="Helvetica,sans-Serif" font-size="10.00">ce103_hw3_library_lib.library.</text>
<text text-anchor="middle" x="275" y="-175" font-family="Helvetica,sans-Serif" font-size="10.00">RunMainMenu</text>
</a>
</g>
</g>
<!-- Node3&#45;&gt;Node5 -->
<g id="edge26" class="edge">
<title>Node3&#45;&gt;Node5</title>
<path fill="none" stroke="#63b8ff" d="M551.14,-183C488.25,-183 405.54,-183 347.29,-183"/>
<polygon fill="#63b8ff" stroke="#63b8ff" points="551.13,-186.5 561.13,-183 551.13,-179.5 551.13,-186.5"/>
</g>
<!-- Node4&#45;&gt;Node5 -->
<g id="edge5" class="edge">
<title>Node4&#45;&gt;Node5</title>
<path fill="none" stroke="#63b8ff" d="M403.03,-207.52C385.68,-202.76 365.96,-197.84 347.31,-193.6"/>
<polygon fill="#63b8ff" stroke="#63b8ff" points="402.02,-210.87 412.6,-210.2 403.91,-204.13 402.02,-210.87"/>
</g>
<!-- Node5&#45;&gt;Node1 -->
<g id="edge25" class="edge">
<title>Node5&#45;&gt;Node1</title>
<path fill="none" stroke="#63b8ff" d="M358.64,-173.05C448.28,-163.76 595.53,-152.86 722,-164 733.56,-165.02 745.74,-166.64 757.57,-168.53"/>
<polygon fill="#63b8ff" stroke="#63b8ff" points="358.28,-169.57 348.7,-174.1 359.01,-176.53 358.28,-169.57"/>
</g>
<!-- Node5&#45;&gt;Node4 -->
<g id="edge10" class="edge">
<title>Node5&#45;&gt;Node4</title>
<path fill="none" stroke="#63b8ff" d="M327.14,-201.53C344.43,-206.26 364.06,-211.16 382.63,-215.39"/>
<polygon fill="#63b8ff" stroke="#63b8ff" points="328.18,-198.19 317.61,-198.86 326.29,-204.93 328.18,-198.19"/>
</g>
<!-- Node6 -->
<g id="node6" class="node">
<title>Node6</title>
<g id="a_node6"><a xlink:href="classce103__hw3__library__lib_1_1_book_functions.html#aeb0f4b25699b7ca705f259d228730ef5" target="_top" xlink:title=" ">
<polygon fill="white" stroke="#666666" points="152,-356 15,-356 15,-326 152,-326 152,-356"/>
<text text-anchor="start" x="23" y="-344" font-family="Helvetica,sans-Serif" font-size="10.00">ce103_hw3_library_lib.Book</text>
<text text-anchor="middle" x="83.5" y="-333" font-family="Helvetica,sans-Serif" font-size="10.00">Functions.AddBook</text>
</a>
</g>
</g>
<!-- Node5&#45;&gt;Node6 -->
<g id="edge6" class="edge">
<title>Node5&#45;&gt;Node6</title>
<path fill="none" stroke="#63b8ff" d="M260.39,-208.22C242.77,-238.49 209.26,-288.7 167,-317 162.04,-320.32 156.62,-323.19 151,-325.66"/>
<polygon fill="#63b8ff" stroke="#63b8ff" points="263.32,-210.15 265.2,-199.73 257.23,-206.7 263.32,-210.15"/>
</g>
<!-- Node7 -->
<g id="node7" class="node">
<title>Node7</title>
<g id="a_node7"><a xlink:href="classce103__hw3__library__lib_1_1library.html#a84facf753a1182bffc9b0309adc8dadb" target="_top" xlink:title=" ">
<polygon fill="white" stroke="#666666" points="167,-307.5 0,-307.5 0,-288.5 167,-288.5 167,-307.5"/>
<text text-anchor="middle" x="83.5" y="-295.5" font-family="Helvetica,sans-Serif" font-size="10.00">ce103_hw3_library_lib.library.Back</text>
</a>
</g>
</g>
<!-- Node5&#45;&gt;Node7 -->
<g id="edge8" class="edge">
<title>Node5&#45;&gt;Node7</title>
<path fill="none" stroke="#63b8ff" d="M254.1,-206.73C234.28,-228.8 201.85,-260.91 167,-279 159.96,-282.66 152.21,-285.62 144.38,-288.01"/>
<polygon fill="#63b8ff" stroke="#63b8ff" points="256.58,-209.21 260.55,-199.38 251.32,-204.59 256.58,-209.21"/>
</g>
<!-- Node8 -->
<g id="node8" class="node">
<title>Node8</title>
<g id="a_node8"><a xlink:href="classce103__hw3__library__lib_1_1_book_functions.html#a4d2ef5095cd896dba0b81ac4a8ca3f11" target="_top" xlink:title=" ">
<polygon fill="white" stroke="#666666" points="152,-270 15,-270 15,-240 152,-240 152,-270"/>
<text text-anchor="start" x="23" y="-258" font-family="Helvetica,sans-Serif" font-size="10.00">ce103_hw3_library_lib.Book</text>
<text text-anchor="middle" x="83.5" y="-247" font-family="Helvetica,sans-Serif" font-size="10.00">Functions.BorrowBook</text>
</a>
</g>
</g>
<!-- Node5&#45;&gt;Node8 -->
<g id="edge11" class="edge">
<title>Node5&#45;&gt;Node8</title>
<path fill="none" stroke="#63b8ff" d="M232.25,-203.35C212.7,-212.46 188.93,-222.94 167,-231 158.74,-234.04 149.91,-236.95 141.2,-239.63"/>
<polygon fill="#63b8ff" stroke="#63b8ff" points="233.72,-206.53 241.27,-199.1 230.73,-200.19 233.72,-206.53"/>
</g>
<!-- Node9 -->
<g id="node9" class="node">
<title>Node9</title>
<g id="a_node9"><a xlink:href="classce103__hw3__library__lib_1_1_book_functions.html#a859f030ca58df3aef0ca202c2df131ab" target="_top" xlink:title=" ">
<polygon fill="white" stroke="#666666" points="152,-222 15,-222 15,-192 152,-192 152,-222"/>
<text text-anchor="start" x="23" y="-210" font-family="Helvetica,sans-Serif" font-size="10.00">ce103_hw3_library_lib.Book</text>
<text text-anchor="middle" x="83.5" y="-199" font-family="Helvetica,sans-Serif" font-size="10.00">Functions.DeleteBook</text>
</a>
</g>
</g>
<!-- Node5&#45;&gt;Node9 -->
<g id="edge13" class="edge">
<title>Node5&#45;&gt;Node9</title>
<path fill="none" stroke="#63b8ff" d="M191.3,-193.47C178.3,-195.12 164.98,-196.81 152.36,-198.41"/>
<polygon fill="#63b8ff" stroke="#63b8ff" points="191.65,-196.96 201.13,-192.23 190.77,-190.01 191.65,-196.96"/>
</g>
<!-- Node10 -->
<g id="node10" class="node">
<title>Node10</title>
<g id="a_node10"><a xlink:href="classce103__hw3__library__lib_1_1_book_functions.html#ac536d1aa3a17ba7ce32e8d9ea0cd4950" target="_top" xlink:title=" ">
<polygon fill="white" stroke="#666666" points="152,-174 15,-174 15,-144 152,-144 152,-174"/>
<text text-anchor="start" x="23" y="-162" font-family="Helvetica,sans-Serif" font-size="10.00">ce103_hw3_library_lib.Book</text>
<text text-anchor="middle" x="83.5" y="-151" font-family="Helvetica,sans-Serif" font-size="10.00">Functions.EditBook</text>
</a>
</g>
</g>
<!-- Node5&#45;&gt;Node10 -->
<g id="edge15" class="edge">
<title>Node5&#45;&gt;Node10</title>
<path fill="none" stroke="#63b8ff" d="M191.3,-172.53C178.3,-170.88 164.98,-169.19 152.36,-167.59"/>
<polygon fill="#63b8ff" stroke="#63b8ff" points="190.77,-175.99 201.13,-173.77 191.65,-169.04 190.77,-175.99"/>
</g>
<!-- Node11 -->
<g id="node11" class="node">
<title>Node11</title>
<g id="a_node11"><a xlink:href="classce103__hw3__library__lib_1_1_book_functions.html#ae4b718abfd1ef505ca816bada5a5053f" target="_top" xlink:title=" ">
<polygon fill="white" stroke="#666666" points="152,-126 15,-126 15,-96 152,-96 152,-126"/>
<text text-anchor="start" x="23" y="-114" font-family="Helvetica,sans-Serif" font-size="10.00">ce103_hw3_library_lib.Book</text>
<text text-anchor="middle" x="83.5" y="-103" font-family="Helvetica,sans-Serif" font-size="10.00">Functions.ListBook</text>
</a>
</g>
</g>
<!-- Node5&#45;&gt;Node11 -->
<g id="edge17" class="edge">
<title>Node5&#45;&gt;Node11</title>
<path fill="none" stroke="#63b8ff" d="M232.25,-162.65C212.7,-153.54 188.93,-143.06 167,-135 158.74,-131.96 149.91,-129.05 141.2,-126.37"/>
<polygon fill="#63b8ff" stroke="#63b8ff" points="230.73,-165.81 241.27,-166.9 233.72,-159.47 230.73,-165.81"/>
</g>
<!-- Node12 -->
<g id="node12" class="node">
<title>Node12</title>
<g id="a_node12"><a xlink:href="classce103__hw3__library__lib_1_1_book_functions.html#abc272bb655ce11abfa5cb33d995132b7" target="_top" xlink:title=" ">
<polygon fill="white" stroke="#666666" points="152,-78 15,-78 15,-48 152,-48 152,-78"/>
<text text-anchor="start" x="23" y="-66" font-family="Helvetica,sans-Serif" font-size="10.00">ce103_hw3_library_lib.Book</text>
<text text-anchor="middle" x="83.5" y="-55" font-family="Helvetica,sans-Serif" font-size="10.00">Functions.ListBorrowBook</text>
</a>
</g>
</g>
<!-- Node5&#45;&gt;Node12 -->
<g id="edge19" class="edge">
<title>Node5&#45;&gt;Node12</title>
<path fill="none" stroke="#63b8ff" d="M253.52,-159.34C233.51,-137.6 201.13,-105.96 167,-87 161.13,-83.74 154.78,-80.88 148.29,-78.39"/>
<polygon fill="#63b8ff" stroke="#63b8ff" points="250.76,-161.5 260.05,-166.58 255.96,-156.81 250.76,-161.5"/>
</g>
<!-- Node13 -->
<g id="node13" class="node">
<title>Node13</title>
<g id="a_node13"><a xlink:href="classce103__hw3__library__lib_1_1_book_functions.html#af9a659e47a42e3f7ec1a29e280282a51" target="_top" xlink:title=" ">
<polygon fill="white" stroke="#666666" points="152,-30 15,-30 15,0 152,0 152,-30"/>
<text text-anchor="start" x="23" y="-18" font-family="Helvetica,sans-Serif" font-size="10.00">ce103_hw3_library_lib.Book</text>
<text text-anchor="middle" x="83.5" y="-7" font-family="Helvetica,sans-Serif" font-size="10.00">Functions.ReturnBook</text>
</a>
</g>
</g>
<!-- Node5&#45;&gt;Node13 -->
<g id="edge21" class="edge">
<title>Node5&#45;&gt;Node13</title>
<path fill="none" stroke="#63b8ff" d="M261.88,-157.83C245.05,-125.53 211.58,-69.98 167,-39 162.22,-35.68 156.99,-32.81 151.54,-30.34"/>
<polygon fill="#63b8ff" stroke="#63b8ff" points="258.62,-159.13 266.26,-166.47 264.86,-155.97 258.62,-159.13"/>
</g>
<!-- Node14 -->
<g id="node14" class="node">
<title>Node14</title>
<g id="a_node14"><a xlink:href="classce103__hw3__library__lib_1_1_book_functions.html#a81bb6f1f81a84ca37529ce32a397df10" target="_top" xlink:title=" ">
<polygon fill="white" stroke="#666666" points="152,-404 15,-404 15,-374 152,-374 152,-404"/>
<text text-anchor="start" x="23" y="-392" font-family="Helvetica,sans-Serif" font-size="10.00">ce103_hw3_library_lib.Book</text>
<text text-anchor="middle" x="83.5" y="-381" font-family="Helvetica,sans-Serif" font-size="10.00">Functions.SearchBook</text>
</a>
</g>
</g>
<!-- Node5&#45;&gt;Node14 -->
<g id="edge23" class="edge">
<title>Node5&#45;&gt;Node14</title>
<path fill="none" stroke="#63b8ff" d="M265.67,-209.2C251.71,-248.88 219.81,-323.91 167,-365 162.53,-368.48 157.56,-371.46 152.35,-374"/>
<polygon fill="#63b8ff" stroke="#63b8ff" points="268.98,-210.36 268.87,-199.76 262.35,-208.11 268.98,-210.36"/>
</g>
<!-- Node6&#45;&gt;Node4 -->
<g id="edge7" class="edge">
<title>Node6&#45;&gt;Node4</title>
<path fill="none" stroke="#63b8ff" d="M163.46,-328.29C216.36,-318.48 287.04,-302.87 347,-281 376.04,-270.41 407.27,-253.68 428.44,-241.45"/>
<polygon fill="#63b8ff" stroke="#63b8ff" points="163.16,-324.78 153.94,-330.02 164.41,-331.67 163.16,-324.78"/>
</g>
<!-- Node7&#45;&gt;Node4 -->
<g id="edge9" class="edge">
<title>Node7&#45;&gt;Node4</title>
<path fill="none" stroke="#63b8ff" d="M165.64,-286.33C217.69,-278.36 286.59,-266.94 347,-254 363.9,-250.38 382.14,-245.85 398.69,-241.49"/>
<polygon fill="#63b8ff" stroke="#63b8ff" points="165.32,-282.83 155.96,-287.8 166.37,-289.76 165.32,-282.83"/>
</g>
<!-- Node8&#45;&gt;Node4 -->
<g id="edge12" class="edge">
<title>Node8&#45;&gt;Node4</title>
<path fill="none" stroke="#63b8ff" d="M163.82,-248.77C228.84,-243.67 320.04,-236.51 382.76,-231.59"/>
<polygon fill="#63b8ff" stroke="#63b8ff" points="163.61,-245.28 153.92,-249.55 164.16,-252.26 163.61,-245.28"/>
</g>
<!-- Node9&#45;&gt;Node4 -->
<g id="edge14" class="edge">
<title>Node9&#45;&gt;Node4</title>
<path fill="none" stroke="#63b8ff" d="M163.82,-211.08C228.84,-214.42 320.04,-219.11 382.76,-222.34"/>
<polygon fill="#63b8ff" stroke="#63b8ff" points="164.08,-207.59 153.92,-210.57 163.73,-214.58 164.08,-207.59"/>
</g>
<!-- Node10&#45;&gt;Node4 -->
<g id="edge16" class="edge">
<title>Node10&#45;&gt;Node4</title>
<path fill="none" stroke="#63b8ff" d="M163.63,-147.77C216.57,-142.97 287.22,-141.83 347,-159 381.97,-169.04 416.58,-194.23 436.59,-210.7"/>
<polygon fill="#63b8ff" stroke="#63b8ff" points="163.39,-144.28 153.78,-148.74 164.07,-151.24 163.39,-144.28"/>
</g>
<!-- Node11&#45;&gt;Node4 -->
<g id="edge18" class="edge">
<title>Node11&#45;&gt;Node4</title>
<path fill="none" stroke="#63b8ff" d="M163.8,-108.83C217.41,-110.02 288.76,-116.89 347,-141 385.36,-156.88 421.28,-190.77 440.16,-210.63"/>
<polygon fill="#63b8ff" stroke="#63b8ff" points="163.87,-105.33 153.82,-108.67 163.76,-112.33 163.87,-105.33"/>
</g>
<!-- Node12&#45;&gt;Node4 -->
<g id="edge20" class="edge">
<title>Node12&#45;&gt;Node4</title>
<path fill="none" stroke="#63b8ff" d="M163.72,-63.24C218.25,-66.48 290.71,-77.1 347,-108 392.58,-133.02 428.92,-184.93 445.01,-210.74"/>
<polygon fill="#63b8ff" stroke="#63b8ff" points="164.05,-59.75 153.88,-62.73 163.69,-66.74 164.05,-59.75"/>
</g>
<!-- Node13&#45;&gt;Node4 -->
<g id="edge22" class="edge">
<title>Node13&#45;&gt;Node4</title>
<path fill="none" stroke="#63b8ff" d="M163.64,-13.94C219.13,-16.77 292.79,-28.03 347,-64 402.61,-100.9 436.21,-177.63 448.58,-210.5"/>
<polygon fill="#63b8ff" stroke="#63b8ff" points="164.09,-10.46 153.95,-13.53 163.8,-17.45 164.09,-10.46"/>
</g>
<!-- Node14&#45;&gt;Node4 -->
<g id="edge24" class="edge">
<title>Node14&#45;&gt;Node4</title>
<path fill="none" stroke="#63b8ff" d="M163.56,-375.24C217.39,-363.8 289.11,-344.38 347,-314 384.06,-294.55 420.17,-260.89 439.5,-241.32"/>
<polygon fill="#63b8ff" stroke="#63b8ff" points="162.92,-371.8 153.83,-377.26 164.34,-378.66 162.92,-371.8"/>
</g>
</g>
</svg>
