<?xml version="1.0" encoding="UTF-8" standalone="no"?>
<!DOCTYPE svg PUBLIC "-//W3C//DTD SVG 1.1//EN"
 "http://www.w3.org/Graphics/SVG/1.1/DTD/svg11.dtd">
<!-- Generated by graphviz version 7.0.4 (20221203.1631)
 -->
<!-- Title: ce103_hw3_library_lib.BookFunctions.SearchBook Pages: 1 -->
<!--zoomable 512 -->
<svg id="main" version="1.1" xmlns="http://www.w3.org/2000/svg" xmlns:xlink="http://www.w3.org/1999/xlink" xml:space="preserve" onload="init(evt)">
<style type="text/css"><![CDATA[
.edge:hover path { stroke: red; }
.edge:hover polygon { stroke: red; fill: red; }
]]></style>
<script type="text/javascript"><![CDATA[
var edges = document.getElementsByTagName('g');
if (edges && edges.length) {
  for (var i=0;i<edges.length;i++) {
    if (edges[i].id.substr(0,4)=='edge') {
      edges[i].setAttribute('class','edge');
    }
  }
}
]]></script>
        <defs>
                <circle id="rim" cx="0" cy="0" r="7"/>
                <circle id="rim2" cx="0" cy="0" r="3.5"/>
                <g id="zoomPlus">
                        <use xlink:href="#rim" fill="#404040">
                                <set attributeName="fill" to="#808080" begin="zoomplus.mouseover" end="zoomplus.mouseout"/>
                        </use>
                        <path d="M-4,0h8M0,-4v8" fill="none" stroke="white" stroke-width="1.5" pointer-events="none"/>
                </g>
                <g id="zoomMin">
                        <use xlink:href="#rim" fill="#404040">
                                <set attributeName="fill" to="#808080" begin="zoomminus.mouseover" end="zoomminus.mouseout"/>
                        </use>
                        <path d="M-4,0h8" fill="none" stroke="white" stroke-width="1.5" pointer-events="none"/>
                </g>
                <g id="dirArrow">
                        <path fill="none" stroke="white" stroke-width="1.5" d="M0,-3.0v7 M-2.5,-0.5L0,-3.0L2.5,-0.5"/>
                </g>
               <g id="resetDef">
                       <use xlink:href="#rim2" fill="#404040">
                               <set attributeName="fill" to="#808080" begin="reset.mouseover" end="reset.mouseout"/>
                       </use>
               </g>
        </defs>

<script type="text/javascript">
var viewWidth = 888;
var viewHeight = 512;
var sectionId = 'dynsection-14';
</script>
<script xlink:href="svgpan.js"/>
<svg id="graph" class="graph">
<g id="viewport">
<title>ce103_hw3_library_lib.BookFunctions.SearchBook</title>
<!-- Node1 -->
<g id="node1" class="node">
<title>Node1</title>
<g id="a_node1"><a xlink:title=" ">
<polygon fill="#999999" stroke="#666666" points="137,-313 0,-313 0,-283 137,-283 137,-313"/>
<text text-anchor="start" x="8" y="-301" font-family="Helvetica,sans-Serif" font-size="10.00">ce103_hw3_library_lib.Book</text>
<text text-anchor="middle" x="68.5" y="-290" font-family="Helvetica,sans-Serif" font-size="10.00">Functions.SearchBook</text>
</a>
</g>
</g>
<!-- Node2 -->
<g id="node2" class="node">
<title>Node2</title>
<g id="a_node2"><a xlink:href="classce103__hw3__library__lib_1_1_file_utility.html#a0706a9eaee6532bd3a42dda3579c9158" target="_top" xlink:title=" ">
<polygon fill="white" stroke="#666666" points="873.5,-394 742.5,-394 742.5,-364 873.5,-364 873.5,-394"/>
<text text-anchor="start" x="750.5" y="-382" font-family="Helvetica,sans-Serif" font-size="10.00">ce103_hw3_library_lib.File</text>
<text text-anchor="middle" x="808" y="-371" font-family="Helvetica,sans-Serif" font-size="10.00">Utility.ReadBlock</text>
</a>
</g>
</g>
<!-- Node1&#45;&gt;Node2 -->
<g id="edge1" class="edge">
<title>Node1&#45;&gt;Node2</title>
<path fill="none" stroke="#63b8ff" d="M92.32,-313.29C139.14,-343.98 250.34,-413.36 353,-451 429.76,-479.15 451.68,-480.51 533,-489 606.82,-496.71 631.63,-517.88 700,-489 740.7,-471.81 773.56,-430.74 791.67,-403.94"/>
<polygon fill="#63b8ff" stroke="#63b8ff" points="794.51,-405.99 797.05,-395.71 788.65,-402.17 794.51,-405.99"/>
</g>
<!-- Node3 -->
<g id="node3" class="node">
<title>Node3</title>
<g id="a_node3"><a xlink:href="classce103__hw3__library__lib_1_1library.html#a80f197f4303dd78438ec6055614382da" target="_top" xlink:title=" ">
<polygon fill="white" stroke="#666666" points="317,-270 173,-270 173,-240 317,-240 317,-270"/>
<text text-anchor="start" x="181" y="-258" font-family="Helvetica,sans-Serif" font-size="10.00">ce103_hw3_library_lib.library.</text>
<text text-anchor="middle" x="245" y="-247" font-family="Helvetica,sans-Serif" font-size="10.00">RunMainMenu</text>
</a>
</g>
</g>
<!-- Node1&#45;&gt;Node3 -->
<g id="edge2" class="edge">
<title>Node1&#45;&gt;Node3</title>
<path fill="none" stroke="#63b8ff" d="M132.01,-282.6C144.41,-279.54 157.54,-276.3 170.28,-273.17"/>
<polygon fill="#63b8ff" stroke="#63b8ff" points="171,-276.59 179.87,-270.8 169.33,-269.8 171,-276.59"/>
</g>
<!-- Node4 -->
<g id="node4" class="node">
<title>Node4</title>
<g id="a_node4"><a xlink:href="classce103__hw3__library__lib_1_1library.html#a966e08d69fdd5e4d3bf6a12af39bfe14" target="_top" xlink:title=" ">
<polygon fill="white" stroke="#666666" points="497,-313 353,-313 353,-283 497,-283 497,-313"/>
<text text-anchor="start" x="361" y="-301" font-family="Helvetica,sans-Serif" font-size="10.00">ce103_hw3_library_lib.library.</text>
<text text-anchor="middle" x="425" y="-290" font-family="Helvetica,sans-Serif" font-size="10.00">BookOption</text>
</a>
</g>
</g>
<!-- Node3&#45;&gt;Node4 -->
<g id="edge3" class="edge">
<title>Node3&#45;&gt;Node4</title>
<path fill="none" stroke="#63b8ff" d="M317.37,-265.61C335.94,-269.84 355.57,-274.74 372.86,-279.47"/>
<polygon fill="#63b8ff" stroke="#63b8ff" points="371.82,-282.81 382.39,-282.14 373.71,-276.07 371.82,-282.81"/>
</g>
<!-- Node16 -->
<g id="node16" class="node">
<title>Node16</title>
<g id="a_node16"><a xlink:href="classce103__hw3__library__lib_1_1_menu.html#a83866faf86a98cdc36d517e8ed443534" target="_top" xlink:title=" ">
<polygon fill="white" stroke="#666666" points="696,-105.5 537,-105.5 537,-86.5 696,-86.5 696,-105.5"/>
<text text-anchor="middle" x="616.5" y="-93.5" font-family="Helvetica,sans-Serif" font-size="10.00">ce103_hw3_library_lib.Menu.Run</text>
</a>
</g>
</g>
<!-- Node3&#45;&gt;Node16 -->
<g id="edge36" class="edge">
<title>Node3&#45;&gt;Node16</title>
<path fill="none" stroke="#63b8ff" d="M258.49,-239.83C276.92,-218.48 313.49,-179.85 353,-159 406.49,-130.78 472.74,-115 525.31,-106.29"/>
<polygon fill="#63b8ff" stroke="#63b8ff" points="525.83,-109.76 535.15,-104.73 524.73,-102.84 525.83,-109.76"/>
</g>
<!-- Node19 -->
<g id="node19" class="node">
<title>Node19</title>
<g id="a_node19"><a xlink:href="classce103__hw3__library__lib_1_1library.html#a754cac172f3b071c7eea3f07777aac68" target="_top" xlink:title=" ">
<polygon fill="white" stroke="#666666" points="497,-30 353,-30 353,0 497,0 497,-30"/>
<text text-anchor="start" x="361" y="-18" font-family="Helvetica,sans-Serif" font-size="10.00">ce103_hw3_library_lib.library.</text>
<text text-anchor="middle" x="425" y="-7" font-family="Helvetica,sans-Serif" font-size="10.00">ExitApp</text>
</a>
</g>
</g>
<!-- Node3&#45;&gt;Node19 -->
<g id="edge35" class="edge">
<title>Node3&#45;&gt;Node19</title>
<path fill="none" stroke="#63b8ff" d="M249.75,-239.73C259.87,-201.55 291.24,-100.92 353,-44 356.12,-41.12 359.57,-38.51 363.2,-36.15"/>
<polygon fill="#63b8ff" stroke="#63b8ff" points="364.94,-39.19 371.89,-31.2 361.47,-33.11 364.94,-39.19"/>
</g>
<!-- Node4&#45;&gt;Node1 -->
<g id="edge34" class="edge">
<title>Node4&#45;&gt;Node1</title>
<path fill="none" stroke="#63b8ff" d="M352.65,-298C293.56,-298 209.69,-298 148.57,-298"/>
<polygon fill="#63b8ff" stroke="#63b8ff" points="148.95,-294.5 138.95,-298 148.95,-301.5 148.95,-294.5"/>
</g>
<!-- Node4&#45;&gt;Node3 -->
<g id="edge33" class="edge">
<title>Node4&#45;&gt;Node3</title>
<path fill="none" stroke="#63b8ff" d="M352.69,-287.4C334.04,-283.16 314.32,-278.24 296.97,-273.48"/>
<polygon fill="#63b8ff" stroke="#63b8ff" points="297.98,-270.13 287.4,-270.8 296.09,-276.87 297.98,-270.13"/>
</g>
<!-- Node5 -->
<g id="node5" class="node">
<title>Node5</title>
<g id="a_node5"><a xlink:href="classce103__hw3__library__lib_1_1_book_functions.html#aeb0f4b25699b7ca705f259d228730ef5" target="_top" xlink:title=" ">
<polygon fill="white" stroke="#666666" points="685,-154 548,-154 548,-124 685,-124 685,-154"/>
<text text-anchor="start" x="556" y="-142" font-family="Helvetica,sans-Serif" font-size="10.00">ce103_hw3_library_lib.Book</text>
<text text-anchor="middle" x="616.5" y="-131" font-family="Helvetica,sans-Serif" font-size="10.00">Functions.AddBook</text>
</a>
</g>
</g>
<!-- Node4&#45;&gt;Node5 -->
<g id="edge4" class="edge">
<title>Node4&#45;&gt;Node5</title>
<path fill="none" stroke="#63b8ff" d="M433.78,-282.91C448.99,-254.95 485.35,-195.03 533,-163 534.86,-161.75 536.78,-160.57 538.75,-159.44"/>
<polygon fill="#63b8ff" stroke="#63b8ff" points="540.26,-162.6 547.64,-154.99 537.13,-156.34 540.26,-162.6"/>
</g>
<!-- Node7 -->
<g id="node7" class="node">
<title>Node7</title>
<g id="a_node7"><a xlink:href="classce103__hw3__library__lib_1_1library.html#a84facf753a1182bffc9b0309adc8dadb" target="_top" xlink:title=" ">
<polygon fill="white" stroke="#666666" points="700,-431.5 533,-431.5 533,-412.5 700,-412.5 700,-431.5"/>
<text text-anchor="middle" x="616.5" y="-419.5" font-family="Helvetica,sans-Serif" font-size="10.00">ce103_hw3_library_lib.library.Back</text>
</a>
</g>
</g>
<!-- Node4&#45;&gt;Node7 -->
<g id="edge7" class="edge">
<title>Node4&#45;&gt;Node7</title>
<path fill="none" stroke="#63b8ff" d="M436.95,-313.16C454.5,-336.29 491.23,-380.12 533,-403 536.46,-404.89 540.09,-406.6 543.84,-408.13"/>
<polygon fill="#63b8ff" stroke="#63b8ff" points="542.58,-411.4 553.18,-411.51 544.96,-404.82 542.58,-411.4"/>
</g>
<!-- Node8 -->
<g id="node8" class="node">
<title>Node8</title>
<g id="a_node8"><a xlink:href="classce103__hw3__library__lib_1_1_book_functions.html#a4d2ef5095cd896dba0b81ac4a8ca3f11" target="_top" xlink:title=" ">
<polygon fill="white" stroke="#666666" points="685,-298 548,-298 548,-268 685,-268 685,-298"/>
<text text-anchor="start" x="556" y="-286" font-family="Helvetica,sans-Serif" font-size="10.00">ce103_hw3_library_lib.Book</text>
<text text-anchor="middle" x="616.5" y="-275" font-family="Helvetica,sans-Serif" font-size="10.00">Functions.BorrowBook</text>
</a>
</g>
</g>
<!-- Node4&#45;&gt;Node8 -->
<g id="edge9" class="edge">
<title>Node4&#45;&gt;Node8</title>
<path fill="none" stroke="#63b8ff" d="M497.37,-292.35C510.11,-291.34 523.45,-290.29 536.39,-289.26"/>
<polygon fill="#63b8ff" stroke="#63b8ff" points="536.44,-292.77 546.13,-288.49 535.88,-285.79 536.44,-292.77"/>
</g>
<!-- Node10 -->
<g id="node10" class="node">
<title>Node10</title>
<g id="a_node10"><a xlink:href="classce103__hw3__library__lib_1_1_book_functions.html#a859f030ca58df3aef0ca202c2df131ab" target="_top" xlink:title=" ">
<polygon fill="white" stroke="#666666" points="685,-202 548,-202 548,-172 685,-172 685,-202"/>
<text text-anchor="start" x="556" y="-190" font-family="Helvetica,sans-Serif" font-size="10.00">ce103_hw3_library_lib.Book</text>
<text text-anchor="middle" x="616.5" y="-179" font-family="Helvetica,sans-Serif" font-size="10.00">Functions.DeleteBook</text>
</a>
</g>
</g>
<!-- Node4&#45;&gt;Node10 -->
<g id="edge13" class="edge">
<title>Node4&#45;&gt;Node10</title>
<path fill="none" stroke="#63b8ff" d="M440.88,-282.56C460.35,-263.2 496.32,-230.23 533,-211 536.01,-209.42 539.13,-207.94 542.33,-206.54"/>
<polygon fill="#63b8ff" stroke="#63b8ff" points="543.36,-209.9 551.33,-202.92 540.75,-203.4 543.36,-209.9"/>
</g>
<!-- Node12 -->
<g id="node12" class="node">
<title>Node12</title>
<g id="a_node12"><a xlink:href="classce103__hw3__library__lib_1_1_book_functions.html#ac536d1aa3a17ba7ce32e8d9ea0cd4950" target="_top" xlink:title=" ">
<polygon fill="white" stroke="#666666" points="685,-250 548,-250 548,-220 685,-220 685,-250"/>
<text text-anchor="start" x="556" y="-238" font-family="Helvetica,sans-Serif" font-size="10.00">ce103_hw3_library_lib.Book</text>
<text text-anchor="middle" x="616.5" y="-227" font-family="Helvetica,sans-Serif" font-size="10.00">Functions.EditBook</text>
</a>
</g>
</g>
<!-- Node4&#45;&gt;Node12 -->
<g id="edge16" class="edge">
<title>Node4&#45;&gt;Node12</title>
<path fill="none" stroke="#63b8ff" d="M466.43,-282.55C486.36,-275.11 510.83,-266.26 533,-259 538.44,-257.22 544.11,-255.43 549.81,-253.68"/>
<polygon fill="#63b8ff" stroke="#63b8ff" points="550.75,-257.05 559.31,-250.81 548.73,-250.35 550.75,-257.05"/>
</g>
<!-- Node13 -->
<g id="node13" class="node">
<title>Node13</title>
<g id="a_node13"><a xlink:href="classce103__hw3__library__lib_1_1_book_functions.html#ae4b718abfd1ef505ca816bada5a5053f" target="_top" xlink:title=" ">
<polygon fill="white" stroke="#666666" points="685,-480 548,-480 548,-450 685,-450 685,-480"/>
<text text-anchor="start" x="556" y="-468" font-family="Helvetica,sans-Serif" font-size="10.00">ce103_hw3_library_lib.Book</text>
<text text-anchor="middle" x="616.5" y="-457" font-family="Helvetica,sans-Serif" font-size="10.00">Functions.ListBook</text>
</a>
</g>
</g>
<!-- Node4&#45;&gt;Node13 -->
<g id="edge19" class="edge">
<title>Node4&#45;&gt;Node13</title>
<path fill="none" stroke="#63b8ff" d="M433.38,-313.37C448.14,-342.5 484.16,-405.89 533,-440 535.23,-441.55 537.55,-443.01 539.95,-444.38"/>
<polygon fill="#63b8ff" stroke="#63b8ff" points="538.3,-447.47 548.81,-448.85 541.45,-441.22 538.3,-447.47"/>
</g>
<!-- Node14 -->
<g id="node14" class="node">
<title>Node14</title>
<g id="a_node14"><a xlink:href="classce103__hw3__library__lib_1_1_book_functions.html#abc272bb655ce11abfa5cb33d995132b7" target="_top" xlink:title=" ">
<polygon fill="white" stroke="#666666" points="685,-394 548,-394 548,-364 685,-364 685,-394"/>
<text text-anchor="start" x="556" y="-382" font-family="Helvetica,sans-Serif" font-size="10.00">ce103_hw3_library_lib.Book</text>
<text text-anchor="middle" x="616.5" y="-371" font-family="Helvetica,sans-Serif" font-size="10.00">Functions.ListBorrowBook</text>
</a>
</g>
</g>
<!-- Node4&#45;&gt;Node14 -->
<g id="edge22" class="edge">
<title>Node4&#45;&gt;Node14</title>
<path fill="none" stroke="#63b8ff" d="M451.23,-313.36C472.47,-325.81 503.95,-343.18 533,-355 537.27,-356.74 541.72,-358.41 546.24,-360"/>
<polygon fill="#63b8ff" stroke="#63b8ff" points="544.81,-363.21 555.41,-363.08 547.04,-356.58 544.81,-363.21"/>
</g>
<!-- Node15 -->
<g id="node15" class="node">
<title>Node15</title>
<g id="a_node15"><a xlink:href="classce103__hw3__library__lib_1_1_book_functions.html#af9a659e47a42e3f7ec1a29e280282a51" target="_top" xlink:title=" ">
<polygon fill="white" stroke="#666666" points="685,-346 548,-346 548,-316 685,-316 685,-346"/>
<text text-anchor="start" x="556" y="-334" font-family="Helvetica,sans-Serif" font-size="10.00">ce103_hw3_library_lib.Book</text>
<text text-anchor="middle" x="616.5" y="-323" font-family="Helvetica,sans-Serif" font-size="10.00">Functions.ReturnBook</text>
</a>
</g>
</g>
<!-- Node4&#45;&gt;Node15 -->
<g id="edge25" class="edge">
<title>Node4&#45;&gt;Node15</title>
<path fill="none" stroke="#63b8ff" d="M497.37,-310.43C510.11,-312.65 523.45,-314.97 536.39,-317.22"/>
<polygon fill="#63b8ff" stroke="#63b8ff" points="535.7,-320.66 546.15,-318.92 536.9,-313.76 535.7,-320.66"/>
</g>
<!-- Node4&#45;&gt;Node16 -->
<g id="edge29" class="edge">
<title>Node4&#45;&gt;Node16</title>
<path fill="none" stroke="#63b8ff" d="M430.36,-282.62C441.27,-247.08 473.25,-158.93 533,-115 534.94,-113.57 536.98,-112.25 539.08,-111.02"/>
<polygon fill="#63b8ff" stroke="#63b8ff" points="540.57,-114.19 548,-106.64 537.48,-107.91 540.57,-114.19"/>
</g>
<!-- Node5&#45;&gt;Node3 -->
<g id="edge6" class="edge">
<title>Node5&#45;&gt;Node3</title>
<path fill="none" stroke="#63b8ff" d="M547.72,-151.38C494.01,-162.18 417.54,-179.75 353,-203 329.17,-211.58 303.62,-223.88 283.46,-234.35"/>
<polygon fill="#63b8ff" stroke="#63b8ff" points="282,-231.17 274.79,-238.93 285.27,-237.36 282,-231.17"/>
</g>
<!-- Node6 -->
<g id="node6" class="node">
<title>Node6</title>
<g id="a_node6"><a xlink:href="classce103__hw3__library__lib_1_1_file_utility.html#a6b9ef5a028f3e26107779e0a3f300aef" target="_top" xlink:title=" ">
<polygon fill="white" stroke="#666666" points="873.5,-159 742.5,-159 742.5,-129 873.5,-129 873.5,-159"/>
<text text-anchor="start" x="750.5" y="-147" font-family="Helvetica,sans-Serif" font-size="10.00">ce103_hw3_library_lib.File</text>
<text text-anchor="middle" x="808" y="-136" font-family="Helvetica,sans-Serif" font-size="10.00">Utility.AppendBlock</text>
</a>
</g>
</g>
<!-- Node5&#45;&gt;Node6 -->
<g id="edge5" class="edge">
<title>Node5&#45;&gt;Node6</title>
<path fill="none" stroke="#63b8ff" d="M685.38,-140.79C700.1,-141.18 715.77,-141.59 730.8,-141.99"/>
<polygon fill="#63b8ff" stroke="#63b8ff" points="730.53,-145.48 740.62,-142.25 730.71,-138.49 730.53,-145.48"/>
</g>
<!-- Node7&#45;&gt;Node3 -->
<g id="edge8" class="edge">
<title>Node7&#45;&gt;Node3</title>
<path fill="none" stroke="#63b8ff" d="M532.74,-421.41C478.57,-417.79 407.91,-406.72 353,-376 311.81,-352.95 278.52,-307.9 260.56,-279.74"/>
<polygon fill="#63b8ff" stroke="#63b8ff" points="263.69,-278.15 255.44,-271.49 257.74,-281.84 263.69,-278.15"/>
</g>
<!-- Node8&#45;&gt;Node2 -->
<g id="edge10" class="edge">
<title>Node8&#45;&gt;Node2</title>
<path fill="none" stroke="#63b8ff" d="M678.67,-298.47C685.98,-301 693.24,-303.84 700,-307 728.67,-320.41 758.3,-340.97 779.09,-356.68"/>
<polygon fill="#63b8ff" stroke="#63b8ff" points="776.72,-359.28 786.78,-362.6 780.99,-353.73 776.72,-359.28"/>
</g>
<!-- Node8&#45;&gt;Node3 -->
<g id="edge11" class="edge">
<title>Node8&#45;&gt;Node3</title>
<path fill="none" stroke="#63b8ff" d="M547.51,-277.83C530.98,-276.58 513.36,-275.24 497,-274 440.92,-269.75 377.8,-264.97 328.89,-261.27"/>
<polygon fill="#63b8ff" stroke="#63b8ff" points="329.15,-257.78 318.92,-260.51 328.62,-264.76 329.15,-257.78"/>
</g>
<!-- Node9 -->
<g id="node9" class="node">
<title>Node9</title>
<g id="a_node9"><a xlink:href="classce103__hw3__library__lib_1_1_file_utility.html#a3258416645b5a69d8d0eb9ac217b2c20" target="_top" xlink:title=" ">
<polygon fill="white" stroke="#666666" points="873.5,-298 742.5,-298 742.5,-268 873.5,-268 873.5,-298"/>
<text text-anchor="start" x="750.5" y="-286" font-family="Helvetica,sans-Serif" font-size="10.00">ce103_hw3_library_lib.File</text>
<text text-anchor="middle" x="808" y="-275" font-family="Helvetica,sans-Serif" font-size="10.00">Utility.UpdateBlock</text>
</a>
</g>
</g>
<!-- Node8&#45;&gt;Node9 -->
<g id="edge12" class="edge">
<title>Node8&#45;&gt;Node9</title>
<path fill="none" stroke="#63b8ff" d="M685.38,-283C700.1,-283 715.77,-283 730.8,-283"/>
<polygon fill="#63b8ff" stroke="#63b8ff" points="730.62,-286.5 740.62,-283 730.62,-279.5 730.62,-286.5"/>
</g>
<!-- Node10&#45;&gt;Node3 -->
<g id="edge15" class="edge">
<title>Node10&#45;&gt;Node3</title>
<path fill="none" stroke="#63b8ff" d="M547.65,-197.83C494.56,-206.5 418.94,-219.27 353,-232 344.54,-233.63 335.72,-235.41 326.93,-237.23"/>
<polygon fill="#63b8ff" stroke="#63b8ff" points="326.4,-233.76 317.33,-239.24 327.83,-240.62 326.4,-233.76"/>
</g>
<!-- Node11 -->
<g id="node11" class="node">
<title>Node11</title>
<g id="a_node11"><a xlink:href="classce103__hw3__library__lib_1_1_file_utility.html#ad1233745f44f8159d86b0692c3a24b21" target="_top" xlink:title=" ">
<polygon fill="white" stroke="#666666" points="873.5,-207 742.5,-207 742.5,-177 873.5,-177 873.5,-207"/>
<text text-anchor="start" x="750.5" y="-195" font-family="Helvetica,sans-Serif" font-size="10.00">ce103_hw3_library_lib.File</text>
<text text-anchor="middle" x="808" y="-184" font-family="Helvetica,sans-Serif" font-size="10.00">Utility.DeleteBlock</text>
</a>
</g>
</g>
<!-- Node10&#45;&gt;Node11 -->
<g id="edge14" class="edge">
<title>Node10&#45;&gt;Node11</title>
<path fill="none" stroke="#63b8ff" d="M685.38,-188.79C700.1,-189.18 715.77,-189.59 730.8,-189.99"/>
<polygon fill="#63b8ff" stroke="#63b8ff" points="730.53,-193.48 740.62,-190.25 730.71,-186.49 730.53,-193.48"/>
</g>
<!-- Node12&#45;&gt;Node3 -->
<g id="edge17" class="edge">
<title>Node12&#45;&gt;Node3</title>
<path fill="none" stroke="#63b8ff" d="M547.69,-234.56C494.63,-234.69 419.02,-235.94 353,-241 345.04,-241.61 336.76,-242.41 328.49,-243.31"/>
<polygon fill="#63b8ff" stroke="#63b8ff" points="328.3,-239.81 318.76,-244.42 329.1,-246.76 328.3,-239.81"/>
</g>
<!-- Node12&#45;&gt;Node9 -->
<g id="edge18" class="edge">
<title>Node12&#45;&gt;Node9</title>
<path fill="none" stroke="#63b8ff" d="M678.5,-250.45C696.51,-255.01 716.38,-260.05 735.01,-264.76"/>
<polygon fill="#63b8ff" stroke="#63b8ff" points="734.09,-268.14 744.65,-267.21 735.81,-261.36 734.09,-268.14"/>
</g>
<!-- Node13&#45;&gt;Node2 -->
<g id="edge20" class="edge">
<title>Node13&#45;&gt;Node2</title>
<path fill="none" stroke="#63b8ff" d="M674.46,-449.57C683.13,-446.7 691.89,-443.49 700,-440 725.83,-428.89 753.35,-413.1 774.01,-400.37"/>
<polygon fill="#63b8ff" stroke="#63b8ff" points="775.66,-403.47 782.29,-395.2 771.95,-397.53 775.66,-403.47"/>
</g>
<!-- Node13&#45;&gt;Node3 -->
<g id="edge21" class="edge">
<title>Node13&#45;&gt;Node3</title>
<path fill="none" stroke="#63b8ff" d="M547.64,-465.1C491.24,-462.13 411.11,-450.56 353,-412 304.14,-379.58 271.55,-316.48 256.18,-280.94"/>
<polygon fill="#63b8ff" stroke="#63b8ff" points="259.47,-279.73 252.39,-271.84 253.01,-282.42 259.47,-279.73"/>
</g>
<!-- Node14&#45;&gt;Node2 -->
<g id="edge23" class="edge">
<title>Node14&#45;&gt;Node2</title>
<path fill="none" stroke="#63b8ff" d="M685.38,-379C700.1,-379 715.77,-379 730.8,-379"/>
<polygon fill="#63b8ff" stroke="#63b8ff" points="730.62,-382.5 740.62,-379 730.62,-375.5 730.62,-382.5"/>
</g>
<!-- Node14&#45;&gt;Node3 -->
<g id="edge24" class="edge">
<title>Node14&#45;&gt;Node3</title>
<path fill="none" stroke="#63b8ff" d="M547.73,-380.56C493.01,-379.43 415.16,-372.32 353,-345 318.58,-329.87 286.65,-300.11 266.79,-278.96"/>
<polygon fill="#63b8ff" stroke="#63b8ff" points="269.39,-276.62 260.06,-271.6 264.23,-281.34 269.39,-276.62"/>
</g>
<!-- Node15&#45;&gt;Node2 -->
<g id="edge26" class="edge">
<title>Node15&#45;&gt;Node2</title>
<path fill="none" stroke="#63b8ff" d="M678.5,-346.45C696.51,-351.01 716.38,-356.05 735.01,-360.76"/>
<polygon fill="#63b8ff" stroke="#63b8ff" points="734.09,-364.14 744.65,-363.21 735.81,-357.36 734.09,-364.14"/>
</g>
<!-- Node15&#45;&gt;Node3 -->
<g id="edge27" class="edge">
<title>Node15&#45;&gt;Node3</title>
<path fill="none" stroke="#63b8ff" d="M547.57,-338.19C493.61,-341.66 416.88,-341.54 353,-322 323.15,-312.87 293.39,-293.16 272.86,-277.46"/>
<polygon fill="#63b8ff" stroke="#63b8ff" points="275.05,-274.74 265.03,-271.3 270.73,-280.24 275.05,-274.74"/>
</g>
<!-- Node15&#45;&gt;Node9 -->
<g id="edge28" class="edge">
<title>Node15&#45;&gt;Node9</title>
<path fill="none" stroke="#63b8ff" d="M678.5,-315.55C696.51,-310.99 716.38,-305.95 735.01,-301.24"/>
<polygon fill="#63b8ff" stroke="#63b8ff" points="735.81,-304.64 744.65,-298.79 734.09,-297.86 735.81,-304.64"/>
</g>
<!-- Node17 -->
<g id="node17" class="node">
<title>Node17</title>
<g id="a_node17"><a xlink:href="classce103__hw3__library__lib_1_1_menu.html#af4dab9715ef5ee639001951ec8c3d5e2" target="_top" xlink:title=" ">
<polygon fill="white" stroke="#666666" points="879,-111 737,-111 737,-81 879,-81 879,-111"/>
<text text-anchor="start" x="745" y="-99" font-family="Helvetica,sans-Serif" font-size="10.00">ce103_hw3_library_lib.Menu.</text>
<text text-anchor="middle" x="808" y="-88" font-family="Helvetica,sans-Serif" font-size="10.00">DisplayOptions</text>
</a>
</g>
</g>
<!-- Node16&#45;&gt;Node17 -->
<g id="edge30" class="edge">
<title>Node16&#45;&gt;Node17</title>
<path fill="none" stroke="#63b8ff" d="M696.49,-96C705.95,-96 715.62,-96 725.12,-96"/>
<polygon fill="#63b8ff" stroke="#63b8ff" points="725.08,-99.5 735.08,-96 725.08,-92.5 725.08,-99.5"/>
</g>
<!-- Node18 -->
<g id="node18" class="node">
<title>Node18</title>
<g id="a_node18"><a xlink:href="classce103__hw3__library__lib_1_1library.html#a261e9b866de5ed430c5888e32120a346" target="_top" xlink:title=" ">
<polygon fill="white" stroke="#666666" points="880,-63 736,-63 736,-33 880,-33 880,-63"/>
<text text-anchor="start" x="744" y="-51" font-family="Helvetica,sans-Serif" font-size="10.00">ce103_hw3_library_lib.library.</text>
<text text-anchor="middle" x="808" y="-40" font-family="Helvetica,sans-Serif" font-size="10.00">Start</text>
</a>
</g>
</g>
<!-- Node16&#45;&gt;Node18 -->
<g id="edge31" class="edge">
<title>Node16&#45;&gt;Node18</title>
<path fill="none" stroke="#63b8ff" d="M656.76,-86.05C679.44,-80.31 708.67,-72.91 735.3,-66.16"/>
<polygon fill="#63b8ff" stroke="#63b8ff" points="735.84,-69.64 744.67,-63.79 734.12,-62.85 735.84,-69.64"/>
</g>
<!-- Node18&#45;&gt;Node3 -->
<g id="edge32" class="edge">
<title>Node18&#45;&gt;Node3</title>
<path fill="none" stroke="#63b8ff" d="M735.7,-40.41C640.87,-33.92 471.46,-35.2 353,-109 306.27,-138.11 273.39,-195.76 257.28,-229.25"/>
<polygon fill="#63b8ff" stroke="#63b8ff" points="254.15,-227.68 253.11,-238.23 260.5,-230.64 254.15,-227.68"/>
</g>
</g>
</svg>
        <g id="navigator" transform="translate(0 0)" fill="#404254">
                <rect fill="#f2f5e9" fill-opacity="0.5" stroke="#606060" stroke-width=".5" x="0" y="0" width="60" height="60"/>
                <use id="zoomplus" xlink:href="#zoomPlus" x="17" y="9" onmousedown="handleZoom(evt,'in')"/>
                <use id="zoomminus" xlink:href="#zoomMin" x="42" y="9" onmousedown="handleZoom(evt,'out')"/>
                <use id="reset" xlink:href="#resetDef" x="30" y="36" onmousedown="handleReset()"/>
                <g id="arrowUp" xlink:href="#dirArrow" transform="translate(30 24)" onmousedown="handlePan(0,-1)">
                  <use xlink:href="#rim" fill="#404040">
                        <set attributeName="fill" to="#808080" begin="arrowUp.mouseover" end="arrowUp.mouseout"/>
                  </use>
                  <path fill="none" stroke="white" stroke-width="1.5" d="M0,-3.0v7 M-2.5,-0.5L0,-3.0L2.5,-0.5"/>
                </g>
                <g id="arrowRight" xlink:href="#dirArrow" transform="rotate(90) translate(36 -43)" onmousedown="handlePan(1,0)">
                  <use xlink:href="#rim" fill="#404040">
                        <set attributeName="fill" to="#808080" begin="arrowRight.mouseover" end="arrowRight.mouseout"/>
                  </use>
                  <path fill="none" stroke="white" stroke-width="1.5" d="M0,-3.0v7 M-2.5,-0.5L0,-3.0L2.5,-0.5"/>
                </g>
                <g id="arrowDown" xlink:href="#dirArrow" transform="rotate(180) translate(-30 -48)" onmousedown="handlePan(0,1)">
                  <use xlink:href="#rim" fill="#404040">
                        <set attributeName="fill" to="#808080" begin="arrowDown.mouseover" end="arrowDown.mouseout"/>
                  </use>
                  <path fill="none" stroke="white" stroke-width="1.5" d="M0,-3.0v7 M-2.5,-0.5L0,-3.0L2.5,-0.5"/>
                </g>
                <g id="arrowLeft" xlink:href="#dirArrow" transform="rotate(270) translate(-36 17)" onmousedown="handlePan(-1,0)">
                  <use xlink:href="#rim" fill="#404040">
                        <set attributeName="fill" to="#808080" begin="arrowLeft.mouseover" end="arrowLeft.mouseout"/>
                  </use>
                  <path fill="none" stroke="white" stroke-width="1.5" d="M0,-3.0v7 M-2.5,-0.5L0,-3.0L2.5,-0.5"/>
                </g>
        </g>
        <svg viewBox="0 0 15 15" width="100%" height="30px" preserveAspectRatio="xMaxYMin meet">
         <g id="arrow_out" transform="scale(0.3 0.3)">
          <a xlink:href="classce103__hw3__library__lib_1_1_book_functions_a81bb6f1f81a84ca37529ce32a397df10_cgraph_org.svg" target="_base">
           <rect id="button" ry="5" rx="5" y="6" x="6" height="38" width="38"
                fill="#f2f5e9" fill-opacity="0.5" stroke="#606060" stroke-width="1.0"/>
           <path id="arrow"
             d="M 11.500037,31.436501 C 11.940474,20.09759 22.043105,11.32322 32.158766,21.979434 L 37.068811,17.246167 C 37.068811,17.246167 37.088388,32 37.088388,32 L 22.160133,31.978069 C 22.160133,31.978069 26.997745,27.140456 26.997745,27.140456 C 18.528582,18.264221 13.291696,25.230495 11.500037,31.436501 z"
             style="fill:#404040;"/>
          </a>
         </g>
        </svg>
</svg>
