<?xml version="1.0" encoding="UTF-8" standalone="no"?>
<!DOCTYPE svg PUBLIC "-//W3C//DTD SVG 1.1//EN"
 "http://www.w3.org/Graphics/SVG/1.1/DTD/svg11.dtd">
<!-- Generated by graphviz version 7.0.4 (20221203.1631)
 -->
<!-- Title: ce103_hw3_library_lib.library.Start Pages: 1 -->
<svg width="893pt" height="479pt"
 viewBox="0.00 0.00 893.00 479.00" xmlns="http://www.w3.org/2000/svg" xmlns:xlink="http://www.w3.org/1999/xlink">
<g id="graph0" class="graph" transform="scale(1 1) rotate(0) translate(4 475)">
<title>ce103_hw3_library_lib.library.Start</title>
<!-- Node1 -->
<g id="node1" class="node">
<title>Node1</title>
<g id="a_node1"><a xlink:title=" ">
<polygon fill="#999999" stroke="#666666" points="144,-118 0,-118 0,-88 144,-88 144,-118"/>
<text text-anchor="start" x="8" y="-106" font-family="Helvetica,sans-Serif" font-size="10.00">ce103_hw3_library_lib.library.</text>
<text text-anchor="middle" x="72" y="-95" font-family="Helvetica,sans-Serif" font-size="10.00">Start</text>
</a>
</g>
</g>
<!-- Node2 -->
<g id="node2" class="node">
<title>Node2</title>
<g id="a_node2"><a xlink:href="classce103__hw3__library__lib_1_1library.html#a80f197f4303dd78438ec6055614382da" target="_top" xlink:title=" ">
<polygon fill="white" stroke="#666666" points="324,-235 180,-235 180,-205 324,-205 324,-235"/>
<text text-anchor="start" x="188" y="-223" font-family="Helvetica,sans-Serif" font-size="10.00">ce103_hw3_library_lib.library.</text>
<text text-anchor="middle" x="252" y="-212" font-family="Helvetica,sans-Serif" font-size="10.00">RunMainMenu</text>
</a>
</g>
</g>
<!-- Node1&#45;&gt;Node2 -->
<g id="edge1" class="edge">
<title>Node1&#45;&gt;Node2</title>
<path fill="none" stroke="#63b8ff" d="M96.27,-118.3C127.37,-138.74 182.65,-175.07 218.03,-198.33"/>
<polygon fill="#63b8ff" stroke="#63b8ff" points="215.9,-201.11 226.18,-203.68 219.74,-195.27 215.9,-201.11"/>
</g>
<!-- Node3 -->
<g id="node3" class="node">
<title>Node3</title>
<g id="a_node3"><a xlink:href="classce103__hw3__library__lib_1_1library.html#a966e08d69fdd5e4d3bf6a12af39bfe14" target="_top" xlink:title=" ">
<polygon fill="white" stroke="#666666" points="504,-235 360,-235 360,-205 504,-205 504,-235"/>
<text text-anchor="start" x="368" y="-223" font-family="Helvetica,sans-Serif" font-size="10.00">ce103_hw3_library_lib.library.</text>
<text text-anchor="middle" x="432" y="-212" font-family="Helvetica,sans-Serif" font-size="10.00">BookOption</text>
</a>
</g>
</g>
<!-- Node2&#45;&gt;Node3 -->
<g id="edge2" class="edge">
<title>Node2&#45;&gt;Node3</title>
<path fill="none" stroke="#63b8ff" d="M324.37,-213.37C332.26,-213.26 340.34,-213.23 348.36,-213.27"/>
<polygon fill="#63b8ff" stroke="#63b8ff" points="348.06,-216.76 358.1,-213.35 348.13,-209.76 348.06,-216.76"/>
</g>
<!-- Node16 -->
<g id="node16" class="node">
<title>Node16</title>
<g id="a_node16"><a xlink:href="classce103__hw3__library__lib_1_1_menu.html#a83866faf86a98cdc36d517e8ed443534" target="_top" xlink:title=" ">
<polygon fill="white" stroke="#666666" points="703,-26.5 544,-26.5 544,-7.5 703,-7.5 703,-26.5"/>
<text text-anchor="middle" x="623.5" y="-14.5" font-family="Helvetica,sans-Serif" font-size="10.00">ce103_hw3_library_lib.Menu.Run</text>
</a>
</g>
</g>
<!-- Node2&#45;&gt;Node16 -->
<g id="edge36" class="edge">
<title>Node2&#45;&gt;Node16</title>
<path fill="none" stroke="#63b8ff" d="M259.25,-204.88C272.73,-174.26 307.63,-104.97 360,-71 411.11,-37.85 478.61,-24.48 532.36,-19.33"/>
<polygon fill="#63b8ff" stroke="#63b8ff" points="532.44,-22.84 542.1,-18.49 531.84,-15.87 532.44,-22.84"/>
</g>
<!-- Node19 -->
<g id="node19" class="node">
<title>Node19</title>
<g id="a_node19"><a xlink:href="classce103__hw3__library__lib_1_1library.html#a754cac172f3b071c7eea3f07777aac68" target="_top" xlink:title=" ">
<polygon fill="white" stroke="#666666" points="504,-397 360,-397 360,-367 504,-367 504,-397"/>
<text text-anchor="start" x="368" y="-385" font-family="Helvetica,sans-Serif" font-size="10.00">ce103_hw3_library_lib.library.</text>
<text text-anchor="middle" x="432" y="-374" font-family="Helvetica,sans-Serif" font-size="10.00">ExitApp</text>
</a>
</g>
</g>
<!-- Node2&#45;&gt;Node19 -->
<g id="edge35" class="edge">
<title>Node2&#45;&gt;Node19</title>
<path fill="none" stroke="#63b8ff" d="M261.67,-235.25C277.78,-262.39 314.85,-319.35 360,-353 364.25,-356.17 368.89,-359.05 373.7,-361.66"/>
<polygon fill="#63b8ff" stroke="#63b8ff" points="371.87,-364.66 382.38,-365.96 374.98,-358.39 371.87,-364.66"/>
</g>
<!-- Node3&#45;&gt;Node2 -->
<g id="edge31" class="edge">
<title>Node3&#45;&gt;Node2</title>
<path fill="none" stroke="#63b8ff" d="M359.61,-226.63C351.72,-226.74 343.64,-226.77 335.63,-226.73"/>
<polygon fill="#63b8ff" stroke="#63b8ff" points="335.92,-223.24 325.89,-226.64 335.85,-230.24 335.92,-223.24"/>
</g>
<!-- Node4 -->
<g id="node4" class="node">
<title>Node4</title>
<g id="a_node4"><a xlink:href="classce103__hw3__library__lib_1_1_book_functions.html#aeb0f4b25699b7ca705f259d228730ef5" target="_top" xlink:title=" ">
<polygon fill="white" stroke="#666666" points="692,-471 555,-471 555,-441 692,-441 692,-471"/>
<text text-anchor="start" x="563" y="-459" font-family="Helvetica,sans-Serif" font-size="10.00">ce103_hw3_library_lib.Book</text>
<text text-anchor="middle" x="623.5" y="-448" font-family="Helvetica,sans-Serif" font-size="10.00">Functions.AddBook</text>
</a>
</g>
</g>
<!-- Node3&#45;&gt;Node4 -->
<g id="edge3" class="edge">
<title>Node3&#45;&gt;Node4</title>
<path fill="none" stroke="#63b8ff" d="M440.87,-235.26C465.25,-282.49 538,-423.23 540,-425 544.51,-428.99 549.59,-432.49 554.95,-435.55"/>
<polygon fill="#63b8ff" stroke="#63b8ff" points="552.99,-438.48 563.49,-439.91 556.17,-432.25 552.99,-438.48"/>
</g>
<!-- Node6 -->
<g id="node6" class="node">
<title>Node6</title>
<g id="a_node6"><a xlink:href="classce103__hw3__library__lib_1_1library.html#a84facf753a1182bffc9b0309adc8dadb" target="_top" xlink:title=" ">
<polygon fill="white" stroke="#666666" points="707,-415.5 540,-415.5 540,-396.5 707,-396.5 707,-415.5"/>
<text text-anchor="middle" x="623.5" y="-403.5" font-family="Helvetica,sans-Serif" font-size="10.00">ce103_hw3_library_lib.library.Back</text>
</a>
</g>
</g>
<!-- Node3&#45;&gt;Node6 -->
<g id="edge6" class="edge">
<title>Node3&#45;&gt;Node6</title>
<path fill="none" stroke="#63b8ff" d="M439.9,-235.23C454.32,-265.51 490.48,-333.72 540,-373 549.99,-380.93 562.14,-387.17 574,-392"/>
<polygon fill="#63b8ff" stroke="#63b8ff" points="572.74,-395.27 583.33,-395.51 575.2,-388.72 572.74,-395.27"/>
</g>
<!-- Node7 -->
<g id="node7" class="node">
<title>Node7</title>
<g id="a_node7"><a xlink:href="classce103__hw3__library__lib_1_1_book_functions.html#a4d2ef5095cd896dba0b81ac4a8ca3f11" target="_top" xlink:title=" ">
<polygon fill="white" stroke="#666666" points="692,-172 555,-172 555,-142 692,-142 692,-172"/>
<text text-anchor="start" x="563" y="-160" font-family="Helvetica,sans-Serif" font-size="10.00">ce103_hw3_library_lib.Book</text>
<text text-anchor="middle" x="623.5" y="-149" font-family="Helvetica,sans-Serif" font-size="10.00">Functions.BorrowBook</text>
</a>
</g>
</g>
<!-- Node3&#45;&gt;Node7 -->
<g id="edge8" class="edge">
<title>Node3&#45;&gt;Node7</title>
<path fill="none" stroke="#63b8ff" d="M473.43,-204.55C493.36,-197.11 517.83,-188.26 540,-181 545.44,-179.22 551.11,-177.43 556.81,-175.68"/>
<polygon fill="#63b8ff" stroke="#63b8ff" points="557.75,-179.05 566.31,-172.81 555.73,-172.35 557.75,-179.05"/>
</g>
<!-- Node10 -->
<g id="node10" class="node">
<title>Node10</title>
<g id="a_node10"><a xlink:href="classce103__hw3__library__lib_1_1_book_functions.html#a859f030ca58df3aef0ca202c2df131ab" target="_top" xlink:title=" ">
<polygon fill="white" stroke="#666666" points="692,-76 555,-76 555,-46 692,-46 692,-76"/>
<text text-anchor="start" x="563" y="-64" font-family="Helvetica,sans-Serif" font-size="10.00">ce103_hw3_library_lib.Book</text>
<text text-anchor="middle" x="623.5" y="-53" font-family="Helvetica,sans-Serif" font-size="10.00">Functions.DeleteBook</text>
</a>
</g>
</g>
<!-- Node3&#45;&gt;Node10 -->
<g id="edge12" class="edge">
<title>Node3&#45;&gt;Node10</title>
<path fill="none" stroke="#63b8ff" d="M440.78,-204.91C455.99,-176.95 492.35,-117.03 540,-85 541.86,-83.75 543.78,-82.57 545.75,-81.44"/>
<polygon fill="#63b8ff" stroke="#63b8ff" points="547.26,-84.6 554.64,-76.99 544.13,-78.34 547.26,-84.6"/>
</g>
<!-- Node12 -->
<g id="node12" class="node">
<title>Node12</title>
<g id="a_node12"><a xlink:href="classce103__hw3__library__lib_1_1_book_functions.html#ac536d1aa3a17ba7ce32e8d9ea0cd4950" target="_top" xlink:title=" ">
<polygon fill="white" stroke="#666666" points="692,-124 555,-124 555,-94 692,-94 692,-124"/>
<text text-anchor="start" x="563" y="-112" font-family="Helvetica,sans-Serif" font-size="10.00">ce103_hw3_library_lib.Book</text>
<text text-anchor="middle" x="623.5" y="-101" font-family="Helvetica,sans-Serif" font-size="10.00">Functions.EditBook</text>
</a>
</g>
</g>
<!-- Node3&#45;&gt;Node12 -->
<g id="edge15" class="edge">
<title>Node3&#45;&gt;Node12</title>
<path fill="none" stroke="#63b8ff" d="M447.88,-204.56C467.35,-185.2 503.32,-152.23 540,-133 543.01,-131.42 546.13,-129.94 549.33,-128.54"/>
<polygon fill="#63b8ff" stroke="#63b8ff" points="550.36,-131.9 558.33,-124.92 547.75,-125.4 550.36,-131.9"/>
</g>
<!-- Node13 -->
<g id="node13" class="node">
<title>Node13</title>
<g id="a_node13"><a xlink:href="classce103__hw3__library__lib_1_1_book_functions.html#ae4b718abfd1ef505ca816bada5a5053f" target="_top" xlink:title=" ">
<polygon fill="white" stroke="#666666" points="692,-364 555,-364 555,-334 692,-334 692,-364"/>
<text text-anchor="start" x="563" y="-352" font-family="Helvetica,sans-Serif" font-size="10.00">ce103_hw3_library_lib.Book</text>
<text text-anchor="middle" x="623.5" y="-341" font-family="Helvetica,sans-Serif" font-size="10.00">Functions.ListBook</text>
</a>
</g>
</g>
<!-- Node3&#45;&gt;Node13 -->
<g id="edge18" class="edge">
<title>Node3&#45;&gt;Node13</title>
<path fill="none" stroke="#63b8ff" d="M444.41,-235.25C462.28,-258.1 499.12,-301.07 540,-325 542.34,-326.37 544.75,-327.66 547.23,-328.88"/>
<polygon fill="#63b8ff" stroke="#63b8ff" points="545.75,-332.06 556.31,-332.92 548.6,-325.66 545.75,-332.06"/>
</g>
<!-- Node14 -->
<g id="node14" class="node">
<title>Node14</title>
<g id="a_node14"><a xlink:href="classce103__hw3__library__lib_1_1_book_functions.html#abc272bb655ce11abfa5cb33d995132b7" target="_top" xlink:title=" ">
<polygon fill="white" stroke="#666666" points="692,-316 555,-316 555,-286 692,-286 692,-316"/>
<text text-anchor="start" x="563" y="-304" font-family="Helvetica,sans-Serif" font-size="10.00">ce103_hw3_library_lib.Book</text>
<text text-anchor="middle" x="623.5" y="-293" font-family="Helvetica,sans-Serif" font-size="10.00">Functions.ListBorrowBook</text>
</a>
</g>
</g>
<!-- Node3&#45;&gt;Node14 -->
<g id="edge21" class="edge">
<title>Node3&#45;&gt;Node14</title>
<path fill="none" stroke="#63b8ff" d="M458.23,-235.36C479.47,-247.81 510.95,-265.18 540,-277 544.27,-278.74 548.72,-280.41 553.24,-282"/>
<polygon fill="#63b8ff" stroke="#63b8ff" points="551.81,-285.21 562.41,-285.08 554.04,-278.58 551.81,-285.21"/>
</g>
<!-- Node15 -->
<g id="node15" class="node">
<title>Node15</title>
<g id="a_node15"><a xlink:href="classce103__hw3__library__lib_1_1_book_functions.html#af9a659e47a42e3f7ec1a29e280282a51" target="_top" xlink:title=" ">
<polygon fill="white" stroke="#666666" points="692,-220 555,-220 555,-190 692,-190 692,-220"/>
<text text-anchor="start" x="563" y="-208" font-family="Helvetica,sans-Serif" font-size="10.00">ce103_hw3_library_lib.Book</text>
<text text-anchor="middle" x="623.5" y="-197" font-family="Helvetica,sans-Serif" font-size="10.00">Functions.ReturnBook</text>
</a>
</g>
</g>
<!-- Node3&#45;&gt;Node15 -->
<g id="edge24" class="edge">
<title>Node3&#45;&gt;Node15</title>
<path fill="none" stroke="#63b8ff" d="M504.37,-214.35C517.11,-213.34 530.45,-212.29 543.39,-211.26"/>
<polygon fill="#63b8ff" stroke="#63b8ff" points="543.44,-214.77 553.13,-210.49 542.88,-207.79 543.44,-214.77"/>
</g>
<!-- Node3&#45;&gt;Node16 -->
<g id="edge28" class="edge">
<title>Node3&#45;&gt;Node16</title>
<path fill="none" stroke="#63b8ff" d="M437.39,-204.67C448.38,-169.23 480.51,-81.27 540,-37 542.6,-35.06 545.37,-33.31 548.26,-31.72"/>
<polygon fill="#63b8ff" stroke="#63b8ff" points="549.49,-35.01 557.06,-27.6 546.52,-28.67 549.49,-35.01"/>
</g>
<!-- Node18 -->
<g id="node18" class="node">
<title>Node18</title>
<g id="a_node18"><a xlink:href="classce103__hw3__library__lib_1_1_book_functions.html#a81bb6f1f81a84ca37529ce32a397df10" target="_top" xlink:title=" ">
<polygon fill="white" stroke="#666666" points="692,-268 555,-268 555,-238 692,-238 692,-268"/>
<text text-anchor="start" x="563" y="-256" font-family="Helvetica,sans-Serif" font-size="10.00">ce103_hw3_library_lib.Book</text>
<text text-anchor="middle" x="623.5" y="-245" font-family="Helvetica,sans-Serif" font-size="10.00">Functions.SearchBook</text>
</a>
</g>
</g>
<!-- Node3&#45;&gt;Node18 -->
<g id="edge32" class="edge">
<title>Node3&#45;&gt;Node18</title>
<path fill="none" stroke="#63b8ff" d="M504.37,-232.43C517.11,-234.65 530.45,-236.97 543.39,-239.22"/>
<polygon fill="#63b8ff" stroke="#63b8ff" points="542.7,-242.66 553.15,-240.92 543.9,-235.76 542.7,-242.66"/>
</g>
<!-- Node4&#45;&gt;Node2 -->
<g id="edge5" class="edge">
<title>Node4&#45;&gt;Node2</title>
<path fill="none" stroke="#63b8ff" d="M554.52,-466.87C497.66,-472.22 416.95,-470.73 360,-432 295.38,-388.05 267.79,-292.95 257.82,-246.54"/>
<polygon fill="#63b8ff" stroke="#63b8ff" points="261.27,-245.94 255.86,-236.83 254.41,-247.32 261.27,-245.94"/>
</g>
<!-- Node5 -->
<g id="node5" class="node">
<title>Node5</title>
<g id="a_node5"><a xlink:href="classce103__hw3__library__lib_1_1_file_utility.html#a6b9ef5a028f3e26107779e0a3f300aef" target="_top" xlink:title=" ">
<polygon fill="white" stroke="#666666" points="879.5,-471 748.5,-471 748.5,-441 879.5,-441 879.5,-471"/>
<text text-anchor="start" x="756.5" y="-459" font-family="Helvetica,sans-Serif" font-size="10.00">ce103_hw3_library_lib.File</text>
<text text-anchor="middle" x="814" y="-448" font-family="Helvetica,sans-Serif" font-size="10.00">Utility.AppendBlock</text>
</a>
</g>
</g>
<!-- Node4&#45;&gt;Node5 -->
<g id="edge4" class="edge">
<title>Node4&#45;&gt;Node5</title>
<path fill="none" stroke="#63b8ff" d="M692.29,-456C706.75,-456 722.13,-456 736.88,-456"/>
<polygon fill="#63b8ff" stroke="#63b8ff" points="736.51,-459.5 746.51,-456 736.51,-452.5 736.51,-459.5"/>
</g>
<!-- Node6&#45;&gt;Node2 -->
<g id="edge7" class="edge">
<title>Node6&#45;&gt;Node2</title>
<path fill="none" stroke="#63b8ff" d="M589.11,-415.96C536.44,-429.62 432.59,-447.98 360,-406 300.14,-371.38 270.83,-289.18 259.24,-246.6"/>
<polygon fill="#63b8ff" stroke="#63b8ff" points="262.64,-245.75 256.75,-236.94 255.86,-247.49 262.64,-245.75"/>
</g>
<!-- Node7&#45;&gt;Node2 -->
<g id="edge10" class="edge">
<title>Node7&#45;&gt;Node2</title>
<path fill="none" stroke="#63b8ff" d="M554.51,-161.3C501.19,-165.5 425.32,-173.32 360,-187 342.6,-190.65 323.97,-195.9 307.22,-201.14"/>
<polygon fill="#63b8ff" stroke="#63b8ff" points="306.41,-197.73 297.95,-204.11 308.54,-204.4 306.41,-197.73"/>
</g>
<!-- Node8 -->
<g id="node8" class="node">
<title>Node8</title>
<g id="a_node8"><a xlink:href="classce103__hw3__library__lib_1_1_file_utility.html#a0706a9eaee6532bd3a42dda3579c9158" target="_top" xlink:title=" ">
<polygon fill="white" stroke="#666666" points="879.5,-268 748.5,-268 748.5,-238 879.5,-238 879.5,-268"/>
<text text-anchor="start" x="756.5" y="-256" font-family="Helvetica,sans-Serif" font-size="10.00">ce103_hw3_library_lib.File</text>
<text text-anchor="middle" x="814" y="-245" font-family="Helvetica,sans-Serif" font-size="10.00">Utility.ReadBlock</text>
</a>
</g>
</g>
<!-- Node7&#45;&gt;Node8 -->
<g id="edge9" class="edge">
<title>Node7&#45;&gt;Node8</title>
<path fill="none" stroke="#63b8ff" d="M685.68,-172.44C692.99,-174.97 700.25,-177.82 707,-181 735.32,-194.33 764.54,-214.76 785.1,-230.46"/>
<polygon fill="#63b8ff" stroke="#63b8ff" points="782.95,-233.21 792.99,-236.58 787.24,-227.68 782.95,-233.21"/>
</g>
<!-- Node9 -->
<g id="node9" class="node">
<title>Node9</title>
<g id="a_node9"><a xlink:href="classce103__hw3__library__lib_1_1_file_utility.html#a3258416645b5a69d8d0eb9ac217b2c20" target="_top" xlink:title=" ">
<polygon fill="white" stroke="#666666" points="879.5,-172 748.5,-172 748.5,-142 879.5,-142 879.5,-172"/>
<text text-anchor="start" x="756.5" y="-160" font-family="Helvetica,sans-Serif" font-size="10.00">ce103_hw3_library_lib.File</text>
<text text-anchor="middle" x="814" y="-149" font-family="Helvetica,sans-Serif" font-size="10.00">Utility.UpdateBlock</text>
</a>
</g>
</g>
<!-- Node7&#45;&gt;Node9 -->
<g id="edge11" class="edge">
<title>Node7&#45;&gt;Node9</title>
<path fill="none" stroke="#63b8ff" d="M692.29,-157C706.75,-157 722.13,-157 736.88,-157"/>
<polygon fill="#63b8ff" stroke="#63b8ff" points="736.51,-160.5 746.51,-157 736.51,-153.5 736.51,-160.5"/>
</g>
<!-- Node10&#45;&gt;Node2 -->
<g id="edge14" class="edge">
<title>Node10&#45;&gt;Node2</title>
<path fill="none" stroke="#63b8ff" d="M554.71,-66.75C499.63,-73.65 421.29,-88.65 360,-121 324.59,-139.69 292.08,-173.09 272.41,-195.88"/>
<polygon fill="#63b8ff" stroke="#63b8ff" points="269.78,-193.57 266.02,-203.47 275.14,-198.08 269.78,-193.57"/>
</g>
<!-- Node11 -->
<g id="node11" class="node">
<title>Node11</title>
<g id="a_node11"><a xlink:href="classce103__hw3__library__lib_1_1_file_utility.html#ad1233745f44f8159d86b0692c3a24b21" target="_top" xlink:title=" ">
<polygon fill="white" stroke="#666666" points="879.5,-78 748.5,-78 748.5,-48 879.5,-48 879.5,-78"/>
<text text-anchor="start" x="756.5" y="-66" font-family="Helvetica,sans-Serif" font-size="10.00">ce103_hw3_library_lib.File</text>
<text text-anchor="middle" x="814" y="-55" font-family="Helvetica,sans-Serif" font-size="10.00">Utility.DeleteBlock</text>
</a>
</g>
</g>
<!-- Node10&#45;&gt;Node11 -->
<g id="edge13" class="edge">
<title>Node10&#45;&gt;Node11</title>
<path fill="none" stroke="#63b8ff" d="M692.29,-61.72C706.75,-61.87 722.13,-62.04 736.88,-62.19"/>
<polygon fill="#63b8ff" stroke="#63b8ff" points="736.47,-65.69 746.51,-62.29 736.54,-58.69 736.47,-65.69"/>
</g>
<!-- Node12&#45;&gt;Node2 -->
<g id="edge16" class="edge">
<title>Node12&#45;&gt;Node2</title>
<path fill="none" stroke="#63b8ff" d="M554.65,-117.05C500.74,-124.77 424.03,-138.77 360,-162 334,-171.43 306.62,-186.38 286.06,-198.74"/>
<polygon fill="#63b8ff" stroke="#63b8ff" points="284.25,-195.74 277.56,-203.95 287.91,-201.71 284.25,-195.74"/>
</g>
<!-- Node12&#45;&gt;Node9 -->
<g id="edge17" class="edge">
<title>Node12&#45;&gt;Node9</title>
<path fill="none" stroke="#63b8ff" d="M685.18,-124.45C703.09,-129.01 722.86,-134.05 741.39,-138.76"/>
<polygon fill="#63b8ff" stroke="#63b8ff" points="740.41,-142.13 750.97,-141.2 742.14,-135.34 740.41,-142.13"/>
</g>
<!-- Node13&#45;&gt;Node2 -->
<g id="edge20" class="edge">
<title>Node13&#45;&gt;Node2</title>
<path fill="none" stroke="#63b8ff" d="M554.7,-340.14C500.48,-331.5 423.33,-315.68 360,-289 331.51,-277 302.22,-257.52 281.5,-242.31"/>
<polygon fill="#63b8ff" stroke="#63b8ff" points="283.65,-239.55 273.55,-236.36 279.46,-245.15 283.65,-239.55"/>
</g>
<!-- Node13&#45;&gt;Node8 -->
<g id="edge19" class="edge">
<title>Node13&#45;&gt;Node8</title>
<path fill="none" stroke="#63b8ff" d="M685.68,-333.56C692.99,-331.03 700.25,-328.18 707,-325 735.32,-311.67 764.54,-291.24 785.1,-275.54"/>
<polygon fill="#63b8ff" stroke="#63b8ff" points="787.24,-278.32 792.99,-269.42 782.95,-272.79 787.24,-278.32"/>
</g>
<!-- Node14&#45;&gt;Node2 -->
<g id="edge23" class="edge">
<title>Node14&#45;&gt;Node2</title>
<path fill="none" stroke="#63b8ff" d="M554.75,-295.19C501.23,-289.59 424.99,-279.34 360,-262 338.79,-256.34 316.04,-247.79 297,-239.87"/>
<polygon fill="#63b8ff" stroke="#63b8ff" points="298.52,-236.71 287.95,-236.03 295.79,-243.16 298.52,-236.71"/>
</g>
<!-- Node14&#45;&gt;Node8 -->
<g id="edge22" class="edge">
<title>Node14&#45;&gt;Node8</title>
<path fill="none" stroke="#63b8ff" d="M685.18,-285.55C703.09,-280.99 722.86,-275.95 741.39,-271.24"/>
<polygon fill="#63b8ff" stroke="#63b8ff" points="742.14,-274.66 750.97,-268.8 740.41,-267.87 742.14,-274.66"/>
</g>
<!-- Node15&#45;&gt;Node2 -->
<g id="edge26" class="edge">
<title>Node15&#45;&gt;Node2</title>
<path fill="none" stroke="#63b8ff" d="M554.58,-197.31C501.46,-192.59 425.83,-188.71 360,-196 347.76,-197.36 334.87,-199.56 322.44,-202.1"/>
<polygon fill="#63b8ff" stroke="#63b8ff" points="321.72,-198.67 312.67,-204.19 323.19,-205.52 321.72,-198.67"/>
</g>
<!-- Node15&#45;&gt;Node8 -->
<g id="edge25" class="edge">
<title>Node15&#45;&gt;Node8</title>
<path fill="none" stroke="#63b8ff" d="M685.18,-220.45C703.09,-225.01 722.86,-230.05 741.39,-234.76"/>
<polygon fill="#63b8ff" stroke="#63b8ff" points="740.41,-238.13 750.97,-237.2 742.14,-231.34 740.41,-238.13"/>
</g>
<!-- Node15&#45;&gt;Node9 -->
<g id="edge27" class="edge">
<title>Node15&#45;&gt;Node9</title>
<path fill="none" stroke="#63b8ff" d="M685.18,-189.55C703.09,-184.99 722.86,-179.95 741.39,-175.24"/>
<polygon fill="#63b8ff" stroke="#63b8ff" points="742.14,-178.66 750.97,-172.8 740.41,-171.87 742.14,-178.66"/>
</g>
<!-- Node16&#45;&gt;Node1 -->
<g id="edge30" class="edge">
<title>Node16&#45;&gt;Node1</title>
<path fill="none" stroke="#63b8ff" d="M543.67,-11.94C491.31,-9.97 421.21,-9.99 360,-19 275.01,-31.51 179.98,-62.94 123.4,-83.61"/>
<polygon fill="#63b8ff" stroke="#63b8ff" points="122.21,-80.32 114.04,-87.07 124.63,-86.89 122.21,-80.32"/>
</g>
<!-- Node17 -->
<g id="node17" class="node">
<title>Node17</title>
<g id="a_node17"><a xlink:href="classce103__hw3__library__lib_1_1_menu.html#af4dab9715ef5ee639001951ec8c3d5e2" target="_top" xlink:title=" ">
<polygon fill="white" stroke="#666666" points="885,-30 743,-30 743,0 885,0 885,-30"/>
<text text-anchor="start" x="751" y="-18" font-family="Helvetica,sans-Serif" font-size="10.00">ce103_hw3_library_lib.Menu.</text>
<text text-anchor="middle" x="814" y="-7" font-family="Helvetica,sans-Serif" font-size="10.00">DisplayOptions</text>
</a>
</g>
</g>
<!-- Node16&#45;&gt;Node17 -->
<g id="edge29" class="edge">
<title>Node16&#45;&gt;Node17</title>
<path fill="none" stroke="#63b8ff" d="M703.35,-16.16C712.6,-16.07 722.06,-15.96 731.35,-15.87"/>
<polygon fill="#63b8ff" stroke="#63b8ff" points="731.1,-19.37 741.06,-15.76 731.02,-12.37 731.1,-19.37"/>
</g>
<!-- Node18&#45;&gt;Node2 -->
<g id="edge34" class="edge">
<title>Node18&#45;&gt;Node2</title>
<path fill="none" stroke="#63b8ff" d="M554.51,-254.13C501.35,-254.18 425.7,-252.42 360,-244 348.14,-242.48 335.67,-240.26 323.59,-237.78"/>
<polygon fill="#63b8ff" stroke="#63b8ff" points="324.63,-234.42 314.12,-235.76 323.17,-241.27 324.63,-234.42"/>
</g>
<!-- Node18&#45;&gt;Node8 -->
<g id="edge33" class="edge">
<title>Node18&#45;&gt;Node8</title>
<path fill="none" stroke="#63b8ff" d="M692.29,-253C706.75,-253 722.13,-253 736.88,-253"/>
<polygon fill="#63b8ff" stroke="#63b8ff" points="736.51,-256.5 746.51,-253 736.51,-249.5 736.51,-256.5"/>
</g>
</g>
</svg>
