<?xml version="1.0" encoding="UTF-8" standalone="no"?>
<!DOCTYPE svg PUBLIC "-//W3C//DTD SVG 1.1//EN"
 "http://www.w3.org/Graphics/SVG/1.1/DTD/svg11.dtd">
<!-- Generated by graphviz version 7.0.4 (20221203.1631)
 -->
<!-- Title: ce103_hw3_library_lib.library.ExitApp Pages: 1 -->
<!--zoomable 541 -->
<svg id="main" version="1.1" xmlns="http://www.w3.org/2000/svg" xmlns:xlink="http://www.w3.org/1999/xlink" xml:space="preserve" onload="init(evt)">
<style type="text/css"><![CDATA[
.edge:hover path { stroke: red; }
.edge:hover polygon { stroke: red; fill: red; }
]]></style>
<script type="text/javascript"><![CDATA[
var edges = document.getElementsByTagName('g');
if (edges && edges.length) {
  for (var i=0;i<edges.length;i++) {
    if (edges[i].id.substr(0,4)=='edge') {
      edges[i].setAttribute('class','edge');
    }
  }
}
]]></script>
        <defs>
                <circle id="rim" cx="0" cy="0" r="7"/>
                <circle id="rim2" cx="0" cy="0" r="3.5"/>
                <g id="zoomPlus">
                        <use xlink:href="#rim" fill="#404040">
                                <set attributeName="fill" to="#808080" begin="zoomplus.mouseover" end="zoomplus.mouseout"/>
                        </use>
                        <path d="M-4,0h8M0,-4v8" fill="none" stroke="white" stroke-width="1.5" pointer-events="none"/>
                </g>
                <g id="zoomMin">
                        <use xlink:href="#rim" fill="#404040">
                                <set attributeName="fill" to="#808080" begin="zoomminus.mouseover" end="zoomminus.mouseout"/>
                        </use>
                        <path d="M-4,0h8" fill="none" stroke="white" stroke-width="1.5" pointer-events="none"/>
                </g>
                <g id="dirArrow">
                        <path fill="none" stroke="white" stroke-width="1.5" d="M0,-3.0v7 M-2.5,-0.5L0,-3.0L2.5,-0.5"/>
                </g>
               <g id="resetDef">
                       <use xlink:href="#rim2" fill="#404040">
                               <set attributeName="fill" to="#808080" begin="reset.mouseover" end="reset.mouseout"/>
                       </use>
               </g>
        </defs>

<script type="text/javascript">
var viewWidth = 895;
var viewHeight = 541;
var sectionId = 'dynsection-4';
</script>
<script xlink:href="svgpan.js"/>
<svg id="graph" class="graph">
<g id="viewport">
<title>ce103_hw3_library_lib.library.ExitApp</title>
<!-- Node1 -->
<g id="node1" class="node">
<title>Node1</title>
<g id="a_node1"><a xlink:title=" ">
<polygon fill="#999999" stroke="#666666" points="887,-315.34 743,-315.34 743,-285.34 887,-285.34 887,-315.34"/>
<text text-anchor="start" x="751" y="-303.34" font-family="Helvetica,sans-Serif" font-size="10.00">ce103_hw3_library_lib.library.</text>
<text text-anchor="middle" x="815" y="-292.34" font-family="Helvetica,sans-Serif" font-size="10.00">ExitApp</text>
</a>
</g>
</g>
<!-- Node2 -->
<g id="node2" class="node">
<title>Node2</title>
<g id="a_node2"><a xlink:href="classce103__hw3__library__lib_1_1library.html#a80f197f4303dd78438ec6055614382da" target="_top" xlink:title=" ">
<polygon fill="white" stroke="#666666" points="707,-315.34 563,-315.34 563,-285.34 707,-285.34 707,-315.34"/>
<text text-anchor="start" x="571" y="-303.34" font-family="Helvetica,sans-Serif" font-size="10.00">ce103_hw3_library_lib.library.</text>
<text text-anchor="middle" x="635" y="-292.34" font-family="Helvetica,sans-Serif" font-size="10.00">RunMainMenu</text>
</a>
</g>
</g>
<!-- Node1&#45;&gt;Node2 -->
<g id="edge1" class="edge">
<title>Node1&#45;&gt;Node2</title>
<path fill="none" stroke="#63b8ff" d="M731.37,-300.34C723.36,-300.34 715.28,-300.34 707.39,-300.34"/>
<polygon fill="#63b8ff" stroke="#63b8ff" points="731.11,-303.84 741.11,-300.34 731.11,-296.84 731.11,-303.84"/>
</g>
<!-- Node3 -->
<g id="node3" class="node">
<title>Node3</title>
<g id="a_node3"><a xlink:href="classce103__hw3__library__lib_1_1_book_functions.html#aeb0f4b25699b7ca705f259d228730ef5" target="_top" xlink:title=" ">
<polygon fill="white" stroke="#666666" points="332,-533.34 195,-533.34 195,-503.34 332,-503.34 332,-533.34"/>
<text text-anchor="start" x="203" y="-521.34" font-family="Helvetica,sans-Serif" font-size="10.00">ce103_hw3_library_lib.Book</text>
<text text-anchor="middle" x="263.5" y="-510.34" font-family="Helvetica,sans-Serif" font-size="10.00">Functions.AddBook</text>
</a>
</g>
</g>
<!-- Node2&#45;&gt;Node3 -->
<g id="edge2" class="edge">
<title>Node2&#45;&gt;Node3</title>
<path fill="none" stroke="#63b8ff" d="M627.43,-326.61C615.38,-368.8 585.43,-450.82 527,-489.34 469.48,-527.26 389.06,-530.66 332.43,-527"/>
<polygon fill="#63b8ff" stroke="#63b8ff" points="630.78,-327.63 630.03,-317.06 624.03,-325.79 630.78,-327.63"/>
</g>
<!-- Node4 -->
<g id="node4" class="node">
<title>Node4</title>
<g id="a_node4"><a xlink:href="classce103__hw3__library__lib_1_1library.html#a966e08d69fdd5e4d3bf6a12af39bfe14" target="_top" xlink:title=" ">
<polygon fill="white" stroke="#666666" points="144,-321.34 0,-321.34 0,-291.34 144,-291.34 144,-321.34"/>
<text text-anchor="start" x="8" y="-309.34" font-family="Helvetica,sans-Serif" font-size="10.00">ce103_hw3_library_lib.library.</text>
<text text-anchor="middle" x="72" y="-298.34" font-family="Helvetica,sans-Serif" font-size="10.00">BookOption</text>
</a>
</g>
</g>
<!-- Node2&#45;&gt;Node4 -->
<g id="edge7" class="edge">
<title>Node2&#45;&gt;Node4</title>
<path fill="none" stroke="#63b8ff" d="M608.47,-324.15C588.57,-344.85 559.02,-373.68 527,-390.34 454.39,-428.14 428.39,-420.63 347,-429.34 273.2,-437.25 247,-461.28 180,-429.34 131.53,-406.24 97.9,-349.27 82.5,-321.5"/>
<polygon fill="#63b8ff" stroke="#63b8ff" points="610.98,-326.58 615.34,-316.93 605.91,-321.76 610.98,-326.58"/>
</g>
<!-- Node5 -->
<g id="node5" class="node">
<title>Node5</title>
<g id="a_node5"><a xlink:href="classce103__hw3__library__lib_1_1library.html#a84facf753a1182bffc9b0309adc8dadb" target="_top" xlink:title=" ">
<polygon fill="white" stroke="#666666" points="347,-428.84 180,-428.84 180,-409.84 347,-409.84 347,-428.84"/>
<text text-anchor="middle" x="263.5" y="-416.84" font-family="Helvetica,sans-Serif" font-size="10.00">ce103_hw3_library_lib.library.Back</text>
</a>
</g>
</g>
<!-- Node2&#45;&gt;Node5 -->
<g id="edge5" class="edge">
<title>Node2&#45;&gt;Node5</title>
<path fill="none" stroke="#63b8ff" d="M605.12,-322.5C584.43,-337.33 555.32,-356.12 527,-367.34 469.24,-390.25 400.18,-403.41 347.39,-410.76"/>
<polygon fill="#63b8ff" stroke="#63b8ff" points="607.06,-325.42 613.06,-316.7 602.92,-319.77 607.06,-325.42"/>
</g>
<!-- Node6 -->
<g id="node6" class="node">
<title>Node6</title>
<g id="a_node6"><a xlink:href="classce103__hw3__library__lib_1_1_book_functions.html#a4d2ef5095cd896dba0b81ac4a8ca3f11" target="_top" xlink:title=" ">
<polygon fill="white" stroke="#666666" points="332,-391.34 195,-391.34 195,-361.34 332,-361.34 332,-391.34"/>
<text text-anchor="start" x="203" y="-379.34" font-family="Helvetica,sans-Serif" font-size="10.00">ce103_hw3_library_lib.Book</text>
<text text-anchor="middle" x="263.5" y="-368.34" font-family="Helvetica,sans-Serif" font-size="10.00">Functions.BorrowBook</text>
</a>
</g>
</g>
<!-- Node2&#45;&gt;Node6 -->
<g id="edge8" class="edge">
<title>Node2&#45;&gt;Node6</title>
<path fill="none" stroke="#63b8ff" d="M589.56,-320.05C570.61,-327.74 548.05,-335.99 527,-341.34 462.06,-357.87 385.98,-366.93 332.49,-371.66"/>
<polygon fill="#63b8ff" stroke="#63b8ff" points="590.67,-323.37 598.57,-316.31 587.99,-316.91 590.67,-323.37"/>
</g>
<!-- Node7 -->
<g id="node7" class="node">
<title>Node7</title>
<g id="a_node7"><a xlink:href="classce103__hw3__library__lib_1_1_book_functions.html#a859f030ca58df3aef0ca202c2df131ab" target="_top" xlink:title=" ">
<polygon fill="white" stroke="#666666" points="332,-343.34 195,-343.34 195,-313.34 332,-313.34 332,-343.34"/>
<text text-anchor="start" x="203" y="-331.34" font-family="Helvetica,sans-Serif" font-size="10.00">ce103_hw3_library_lib.Book</text>
<text text-anchor="middle" x="263.5" y="-320.34" font-family="Helvetica,sans-Serif" font-size="10.00">Functions.DeleteBook</text>
</a>
</g>
</g>
<!-- Node2&#45;&gt;Node7 -->
<g id="edge10" class="edge">
<title>Node2&#45;&gt;Node7</title>
<path fill="none" stroke="#63b8ff" d="M564.1,-318.18C551.81,-320.7 539.09,-322.91 527,-324.34 461.26,-332.13 385.61,-332.37 332.47,-331.12"/>
<polygon fill="#63b8ff" stroke="#63b8ff" points="564.7,-321.63 573.75,-316.12 563.24,-314.79 564.7,-321.63"/>
</g>
<!-- Node8 -->
<g id="node8" class="node">
<title>Node8</title>
<g id="a_node8"><a xlink:href="classce103__hw3__library__lib_1_1_book_functions.html#ac536d1aa3a17ba7ce32e8d9ea0cd4950" target="_top" xlink:title=" ">
<polygon fill="white" stroke="#666666" points="523.5,-315.34 386.5,-315.34 386.5,-285.34 523.5,-285.34 523.5,-315.34"/>
<text text-anchor="start" x="394.5" y="-303.34" font-family="Helvetica,sans-Serif" font-size="10.00">ce103_hw3_library_lib.Book</text>
<text text-anchor="middle" x="455" y="-292.34" font-family="Helvetica,sans-Serif" font-size="10.00">Functions.EditBook</text>
</a>
</g>
</g>
<!-- Node2&#45;&gt;Node8 -->
<g id="edge12" class="edge">
<title>Node2&#45;&gt;Node8</title>
<path fill="none" stroke="#63b8ff" d="M551.15,-300.34C542.03,-300.34 532.83,-300.34 523.92,-300.34"/>
<polygon fill="#63b8ff" stroke="#63b8ff" points="551.11,-303.84 561.11,-300.34 551.11,-296.84 551.11,-303.84"/>
</g>
<!-- Node9 -->
<g id="node9" class="node">
<title>Node9</title>
<g id="a_node9"><a xlink:href="classce103__hw3__library__lib_1_1_book_functions.html#ae4b718abfd1ef505ca816bada5a5053f" target="_top" xlink:title=" ">
<polygon fill="white" stroke="#666666" points="523.5,-267.34 386.5,-267.34 386.5,-237.34 523.5,-237.34 523.5,-267.34"/>
<text text-anchor="start" x="394.5" y="-255.34" font-family="Helvetica,sans-Serif" font-size="10.00">ce103_hw3_library_lib.Book</text>
<text text-anchor="middle" x="455" y="-244.34" font-family="Helvetica,sans-Serif" font-size="10.00">Functions.ListBook</text>
</a>
</g>
</g>
<!-- Node2&#45;&gt;Node9 -->
<g id="edge14" class="edge">
<title>Node2&#45;&gt;Node9</title>
<path fill="none" stroke="#63b8ff" d="M566.02,-282.01C548.59,-277.31 530.02,-272.3 513.19,-267.77"/>
<polygon fill="#63b8ff" stroke="#63b8ff" points="564.67,-285.27 575.24,-284.5 566.49,-278.52 564.67,-285.27"/>
</g>
<!-- Node10 -->
<g id="node10" class="node">
<title>Node10</title>
<g id="a_node10"><a xlink:href="classce103__hw3__library__lib_1_1_book_functions.html#abc272bb655ce11abfa5cb33d995132b7" target="_top" xlink:title=" ">
<polygon fill="white" stroke="#666666" points="523.5,-219.34 386.5,-219.34 386.5,-189.34 523.5,-189.34 523.5,-219.34"/>
<text text-anchor="start" x="394.5" y="-207.34" font-family="Helvetica,sans-Serif" font-size="10.00">ce103_hw3_library_lib.Book</text>
<text text-anchor="middle" x="455" y="-196.34" font-family="Helvetica,sans-Serif" font-size="10.00">Functions.ListBorrowBook</text>
</a>
</g>
</g>
<!-- Node2&#45;&gt;Node10 -->
<g id="edge16" class="edge">
<title>Node2&#45;&gt;Node10</title>
<path fill="none" stroke="#63b8ff" d="M605.53,-278.11C584.67,-262.61 555.2,-242.28 527,-228.34 520.7,-225.23 513.9,-222.36 507.09,-219.77"/>
<polygon fill="#63b8ff" stroke="#63b8ff" points="603.17,-280.71 613.26,-283.94 607.38,-275.13 603.17,-280.71"/>
</g>
<!-- Node11 -->
<g id="node11" class="node">
<title>Node11</title>
<g id="a_node11"><a xlink:href="classce103__hw3__library__lib_1_1_book_functions.html#af9a659e47a42e3f7ec1a29e280282a51" target="_top" xlink:title=" ">
<polygon fill="white" stroke="#666666" points="523.5,-171.34 386.5,-171.34 386.5,-141.34 523.5,-141.34 523.5,-171.34"/>
<text text-anchor="start" x="394.5" y="-159.34" font-family="Helvetica,sans-Serif" font-size="10.00">ce103_hw3_library_lib.Book</text>
<text text-anchor="middle" x="455" y="-148.34" font-family="Helvetica,sans-Serif" font-size="10.00">Functions.ReturnBook</text>
</a>
</g>
</g>
<!-- Node2&#45;&gt;Node11 -->
<g id="edge18" class="edge">
<title>Node2&#45;&gt;Node11</title>
<path fill="none" stroke="#63b8ff" d="M617.89,-275.66C599.09,-248.68 565.61,-205.87 527,-180.34 522.12,-177.11 516.76,-174.28 511.24,-171.8"/>
<polygon fill="#63b8ff" stroke="#63b8ff" points="614.99,-277.62 623.51,-283.91 620.77,-273.68 614.99,-277.62"/>
</g>
<!-- Node12 -->
<g id="node12" class="node">
<title>Node12</title>
<g id="a_node12"><a xlink:href="classce103__hw3__library__lib_1_1_book_functions.html#a81bb6f1f81a84ca37529ce32a397df10" target="_top" xlink:title=" ">
<polygon fill="white" stroke="#666666" points="523.5,-123.34 386.5,-123.34 386.5,-93.34 523.5,-93.34 523.5,-123.34"/>
<text text-anchor="start" x="394.5" y="-111.34" font-family="Helvetica,sans-Serif" font-size="10.00">ce103_hw3_library_lib.Book</text>
<text text-anchor="middle" x="455" y="-100.34" font-family="Helvetica,sans-Serif" font-size="10.00">Functions.SearchBook</text>
</a>
</g>
</g>
<!-- Node2&#45;&gt;Node12 -->
<g id="edge20" class="edge">
<title>Node2&#45;&gt;Node12</title>
<path fill="none" stroke="#63b8ff" d="M624.12,-274.52C608.78,-237.78 575.83,-170.62 527,-132.34 522.8,-129.05 518.13,-126.2 513.24,-123.73"/>
<polygon fill="#63b8ff" stroke="#63b8ff" points="620.75,-275.53 627.74,-283.48 627.24,-272.9 620.75,-275.53"/>
</g>
<!-- Node13 -->
<g id="node13" class="node">
<title>Node13</title>
<g id="a_node13"><a xlink:href="classce103__hw3__library__lib_1_1library.html#a261e9b866de5ed430c5888e32120a346" target="_top" xlink:title=" ">
<polygon fill="white" stroke="#666666" points="527,-75.34 383,-75.34 383,-45.34 527,-45.34 527,-75.34"/>
<text text-anchor="start" x="391" y="-63.34" font-family="Helvetica,sans-Serif" font-size="10.00">ce103_hw3_library_lib.library.</text>
<text text-anchor="middle" x="455" y="-52.34" font-family="Helvetica,sans-Serif" font-size="10.00">Start</text>
</a>
</g>
</g>
<!-- Node2&#45;&gt;Node13 -->
<g id="edge22" class="edge">
<title>Node2&#45;&gt;Node13</title>
<path fill="none" stroke="#63b8ff" d="M628.02,-274.14C616.38,-228.98 586.43,-136.3 527,-84.34 523.28,-81.09 519.1,-78.27 514.67,-75.83"/>
<polygon fill="#63b8ff" stroke="#63b8ff" points="624.55,-274.71 630.35,-283.58 631.35,-273.04 624.55,-274.71"/>
</g>
<!-- Node3&#45;&gt;Node4 -->
<g id="edge3" class="edge">
<title>Node3&#45;&gt;Node4</title>
<path fill="none" stroke="#63b8ff" d="M192.54,-497.91C188.09,-495.37 183.86,-492.53 180,-489.34 123.08,-442.38 89.69,-356.73 77.88,-321.8"/>
<polygon fill="#63b8ff" stroke="#63b8ff" points="190.7,-500.9 201.2,-502.32 193.87,-494.66 190.7,-500.9"/>
</g>
<!-- Node4&#45;&gt;Node2 -->
<g id="edge4" class="edge">
<title>Node4&#45;&gt;Node2</title>
<path fill="none" stroke="#63b8ff" d="M82.18,-332.31C97.43,-366.47 131.19,-424.08 180,-447.34 247,-479.28 273.2,-455.25 347,-447.34 428.39,-438.63 454.39,-446.14 527,-408.34 570.77,-385.56 609.94,-340.04 626.13,-315.67"/>
<polygon fill="#63b8ff" stroke="#63b8ff" points="85.41,-330.97 78.31,-323.11 78.96,-333.68 85.41,-330.97"/>
</g>
<!-- Node5&#45;&gt;Node4 -->
<g id="edge6" class="edge">
<title>Node5&#45;&gt;Node4</title>
<path fill="none" stroke="#63b8ff" d="M192.34,-405.78C188.08,-404.16 183.93,-402.36 180,-400.34 140.83,-380.27 104.4,-342.67 85.84,-321.61"/>
<polygon fill="#63b8ff" stroke="#63b8ff" points="191.06,-409.04 201.66,-408.93 193.31,-402.41 191.06,-409.04"/>
</g>
<!-- Node6&#45;&gt;Node4 -->
<g id="edge9" class="edge">
<title>Node6&#45;&gt;Node4</title>
<path fill="none" stroke="#63b8ff" d="M195.2,-357.51C190.04,-355.84 184.92,-354.11 180,-352.34 154.69,-343.26 126.8,-331.2 105.84,-321.71"/>
<polygon fill="#63b8ff" stroke="#63b8ff" points="193.81,-360.74 204.4,-360.41 195.91,-354.07 193.81,-360.74"/>
</g>
<!-- Node7&#45;&gt;Node4 -->
<g id="edge11" class="edge">
<title>Node7&#45;&gt;Node4</title>
<path fill="none" stroke="#63b8ff" d="M183.35,-319.16C170.38,-317.65 157.01,-316.1 144.24,-314.61"/>
<polygon fill="#63b8ff" stroke="#63b8ff" points="182.78,-322.61 193.12,-320.29 183.59,-315.66 182.78,-322.61"/>
</g>
<!-- Node8&#45;&gt;Node4 -->
<g id="edge13" class="edge">
<title>Node8&#45;&gt;Node4</title>
<path fill="none" stroke="#63b8ff" d="M374.79,-301.41C320.07,-302.18 245.61,-303.25 180,-304.34 168.48,-304.54 156.27,-304.75 144.37,-304.97"/>
<polygon fill="#63b8ff" stroke="#63b8ff" points="374.69,-304.92 384.64,-301.28 374.6,-297.92 374.69,-304.92"/>
</g>
<!-- Node9&#45;&gt;Node4 -->
<g id="edge15" class="edge">
<title>Node9&#45;&gt;Node4</title>
<path fill="none" stroke="#63b8ff" d="M375.26,-263.5C307.28,-273.14 209.94,-286.94 144.25,-296.25"/>
<polygon fill="#63b8ff" stroke="#63b8ff" points="375.42,-267.02 384.83,-262.15 374.43,-260.09 375.42,-267.02"/>
</g>
<!-- Node10&#45;&gt;Node4 -->
<g id="edge17" class="edge">
<title>Node10&#45;&gt;Node4</title>
<path fill="none" stroke="#63b8ff" d="M375.06,-217.66C319.82,-227.87 244.64,-243.55 180,-263.34 155.11,-270.96 127.91,-281.93 107.16,-290.89"/>
<polygon fill="#63b8ff" stroke="#63b8ff" points="375.48,-221.14 384.69,-215.9 374.23,-214.25 375.48,-221.14"/>
</g>
<!-- Node11&#45;&gt;Node4 -->
<g id="edge19" class="edge">
<title>Node11&#45;&gt;Node4</title>
<path fill="none" stroke="#63b8ff" d="M374.71,-164.85C318.21,-173.19 241.65,-189.23 180,-219.34 142.57,-237.63 106.59,-271.25 87.38,-290.91"/>
<polygon fill="#63b8ff" stroke="#63b8ff" points="375.19,-168.32 384.6,-163.45 374.21,-161.39 375.19,-168.32"/>
</g>
<!-- Node12&#45;&gt;Node4 -->
<g id="edge21" class="edge">
<title>Node12&#45;&gt;Node4</title>
<path fill="none" stroke="#63b8ff" d="M374.98,-110.19C317.06,-114.85 238.63,-128.31 180,-165.34 129.6,-197.18 94.14,-261.74 79.92,-291.14"/>
<polygon fill="#63b8ff" stroke="#63b8ff" points="375.05,-113.7 384.77,-109.48 374.55,-106.72 375.05,-113.7"/>
</g>
<!-- Node14 -->
<g id="node14" class="node">
<title>Node14</title>
<g id="a_node14"><a xlink:href="classce103__hw3__library__lib_1_1_password_content.html#a4c3fd18dd3032675ace132457ebaedba" target="_top" xlink:title=" ">
<polygon fill="white" stroke="#666666" points="342.5,-76.34 184.5,-76.34 184.5,-46.34 342.5,-46.34 342.5,-76.34"/>
<text text-anchor="start" x="192.5" y="-64.34" font-family="Helvetica,sans-Serif" font-size="10.00">ce103_hw3_library_lib.Password</text>
<text text-anchor="middle" x="263.5" y="-53.34" font-family="Helvetica,sans-Serif" font-size="10.00">Content.password</text>
</a>
</g>
</g>
<!-- Node13&#45;&gt;Node14 -->
<g id="edge23" class="edge">
<title>Node13&#45;&gt;Node14</title>
<path fill="none" stroke="#63b8ff" d="M371.21,-60.78C361.77,-60.83 352.17,-60.88 342.78,-60.93"/>
<polygon fill="#63b8ff" stroke="#63b8ff" points="371.13,-64.28 381.11,-60.73 371.1,-57.28 371.13,-64.28"/>
</g>
<!-- Node15 -->
<g id="node15" class="node">
<title>Node15</title>
<g id="a_node15"><a xlink:href="classce103__hw3__library__lib_1_1_menu.html#a83866faf86a98cdc36d517e8ed443534" target="_top" xlink:title=" ">
<polygon fill="white" stroke="#666666" points="343,-27.84 184,-27.84 184,-8.84 343,-8.84 343,-27.84"/>
<text text-anchor="middle" x="263.5" y="-15.84" font-family="Helvetica,sans-Serif" font-size="10.00">ce103_hw3_library_lib.Menu.Run</text>
</a>
</g>
</g>
<!-- Node13&#45;&gt;Node15 -->
<g id="edge25" class="edge">
<title>Node13&#45;&gt;Node15</title>
<path fill="none" stroke="#63b8ff" d="M373.27,-42.45C351.39,-37.6 328.49,-32.53 309.38,-28.29"/>
<polygon fill="#63b8ff" stroke="#63b8ff" points="372.25,-45.81 382.77,-44.56 373.76,-38.98 372.25,-45.81"/>
</g>
<!-- Node14&#45;&gt;Node14 -->
<g id="edge24" class="edge">
<title>Node14&#45;&gt;Node14</title>
<path fill="none" stroke="#63b8ff" d="M295.81,-87.95C290.63,-91.77 279.86,-94.34 263.5,-94.34 233.58,-94.34 222.36,-85.75 229.84,-76.62"/>
<polygon fill="#63b8ff" stroke="#63b8ff" points="299.27,-88.47 296.98,-78.12 292.32,-87.64 299.27,-88.47"/>
</g>
<!-- Node15&#45;&gt;Node2 -->
<g id="edge27" class="edge">
<title>Node15&#45;&gt;Node2</title>
<path fill="none" stroke="#63b8ff" d="M319.26,-6.47C376.64,2.69 466.66,7.38 527,-36.34 611.9,-97.87 629.56,-238.54 633.13,-285.08"/>
<polygon fill="#63b8ff" stroke="#63b8ff" points="319,-2.96 309.73,-8.09 320.17,-9.86 319,-2.96"/>
</g>
<!-- Node15&#45;&gt;Node4 -->
<g id="edge26" class="edge">
<title>Node15&#45;&gt;Node4</title>
<path fill="none" stroke="#63b8ff" d="M184.56,-33.82C182.98,-34.92 181.46,-36.09 180,-37.34 99.34,-106.58 78.92,-245.02 74.26,-291.06"/>
<polygon fill="#63b8ff" stroke="#63b8ff" points="185.91,-37.08 192.82,-29.06 182.41,-31.02 185.91,-37.08"/>
</g>
</g>
</svg>
        <g id="navigator" transform="translate(0 0)" fill="#404254">
                <rect fill="#f2f5e9" fill-opacity="0.5" stroke="#606060" stroke-width=".5" x="0" y="0" width="60" height="60"/>
                <use id="zoomplus" xlink:href="#zoomPlus" x="17" y="9" onmousedown="handleZoom(evt,'in')"/>
                <use id="zoomminus" xlink:href="#zoomMin" x="42" y="9" onmousedown="handleZoom(evt,'out')"/>
                <use id="reset" xlink:href="#resetDef" x="30" y="36" onmousedown="handleReset()"/>
                <g id="arrowUp" xlink:href="#dirArrow" transform="translate(30 24)" onmousedown="handlePan(0,-1)">
                  <use xlink:href="#rim" fill="#404040">
                        <set attributeName="fill" to="#808080" begin="arrowUp.mouseover" end="arrowUp.mouseout"/>
                  </use>
                  <path fill="none" stroke="white" stroke-width="1.5" d="M0,-3.0v7 M-2.5,-0.5L0,-3.0L2.5,-0.5"/>
                </g>
                <g id="arrowRight" xlink:href="#dirArrow" transform="rotate(90) translate(36 -43)" onmousedown="handlePan(1,0)">
                  <use xlink:href="#rim" fill="#404040">
                        <set attributeName="fill" to="#808080" begin="arrowRight.mouseover" end="arrowRight.mouseout"/>
                  </use>
                  <path fill="none" stroke="white" stroke-width="1.5" d="M0,-3.0v7 M-2.5,-0.5L0,-3.0L2.5,-0.5"/>
                </g>
                <g id="arrowDown" xlink:href="#dirArrow" transform="rotate(180) translate(-30 -48)" onmousedown="handlePan(0,1)">
                  <use xlink:href="#rim" fill="#404040">
                        <set attributeName="fill" to="#808080" begin="arrowDown.mouseover" end="arrowDown.mouseout"/>
                  </use>
                  <path fill="none" stroke="white" stroke-width="1.5" d="M0,-3.0v7 M-2.5,-0.5L0,-3.0L2.5,-0.5"/>
                </g>
                <g id="arrowLeft" xlink:href="#dirArrow" transform="rotate(270) translate(-36 17)" onmousedown="handlePan(-1,0)">
                  <use xlink:href="#rim" fill="#404040">
                        <set attributeName="fill" to="#808080" begin="arrowLeft.mouseover" end="arrowLeft.mouseout"/>
                  </use>
                  <path fill="none" stroke="white" stroke-width="1.5" d="M0,-3.0v7 M-2.5,-0.5L0,-3.0L2.5,-0.5"/>
                </g>
        </g>
        <svg viewBox="0 0 15 15" width="100%" height="30px" preserveAspectRatio="xMaxYMin meet">
         <g id="arrow_out" transform="scale(0.3 0.3)">
          <a xlink:href="classce103__hw3__library__lib_1_1library_a754cac172f3b071c7eea3f07777aac68_icgraph_org.svg" target="_base">
           <rect id="button" ry="5" rx="5" y="6" x="6" height="38" width="38"
                fill="#f2f5e9" fill-opacity="0.5" stroke="#606060" stroke-width="1.0"/>
           <path id="arrow"
             d="M 11.500037,31.436501 C 11.940474,20.09759 22.043105,11.32322 32.158766,21.979434 L 37.068811,17.246167 C 37.068811,17.246167 37.088388,32 37.088388,32 L 22.160133,31.978069 C 22.160133,31.978069 26.997745,27.140456 26.997745,27.140456 C 18.528582,18.264221 13.291696,25.230495 11.500037,31.436501 z"
             style="fill:#404040;"/>
          </a>
         </g>
        </svg>
</svg>
