<?xml version="1.0" encoding="UTF-8" standalone="no"?>
<!DOCTYPE svg PUBLIC "-//W3C//DTD SVG 1.1//EN"
 "http://www.w3.org/Graphics/SVG/1.1/DTD/svg11.dtd">
<!-- Generated by graphviz version 7.0.4 (20221203.1631)
 -->
<!-- Title: ce103_hw3_library_lib.library.RunMainMenu Pages: 1 -->
<svg width="715pt" height="536pt"
 viewBox="0.00 0.00 715.00 536.00" xmlns="http://www.w3.org/2000/svg" xmlns:xlink="http://www.w3.org/1999/xlink">
<g id="graph0" class="graph" transform="scale(1 1) rotate(0) translate(4 532)">
<title>ce103_hw3_library_lib.library.RunMainMenu</title>
<!-- Node1 -->
<g id="node1" class="node">
<title>Node1</title>
<g id="a_node1"><a xlink:title=" ">
<polygon fill="#999999" stroke="#666666" points="144,-297 0,-297 0,-267 144,-267 144,-297"/>
<text text-anchor="start" x="8" y="-285" font-family="Helvetica,sans-Serif" font-size="10.00">ce103_hw3_library_lib.library.</text>
<text text-anchor="middle" x="72" y="-274" font-family="Helvetica,sans-Serif" font-size="10.00">RunMainMenu</text>
</a>
</g>
</g>
<!-- Node2 -->
<g id="node2" class="node">
<title>Node2</title>
<g id="a_node2"><a xlink:href="classce103__hw3__library__lib_1_1library.html#a966e08d69fdd5e4d3bf6a12af39bfe14" target="_top" xlink:title=" ">
<polygon fill="white" stroke="#666666" points="324,-319 180,-319 180,-289 324,-289 324,-319"/>
<text text-anchor="start" x="188" y="-307" font-family="Helvetica,sans-Serif" font-size="10.00">ce103_hw3_library_lib.library.</text>
<text text-anchor="middle" x="252" y="-296" font-family="Helvetica,sans-Serif" font-size="10.00">BookOption</text>
</a>
</g>
</g>
<!-- Node1&#45;&gt;Node2 -->
<g id="edge1" class="edge">
<title>Node1&#45;&gt;Node2</title>
<path fill="none" stroke="#63b8ff" d="M144.37,-284.19C152.26,-285.06 160.34,-286.02 168.36,-287.05"/>
<polygon fill="#63b8ff" stroke="#63b8ff" points="167.74,-290.5 178.11,-288.35 168.66,-283.56 167.74,-290.5"/>
</g>
<!-- Node15 -->
<g id="node15" class="node">
<title>Node15</title>
<g id="a_node15"><a xlink:href="classce103__hw3__library__lib_1_1_menu.html#a83866faf86a98cdc36d517e8ed443534" target="_top" xlink:title=" ">
<polygon fill="white" stroke="#666666" points="523,-105.5 364,-105.5 364,-86.5 523,-86.5 523,-105.5"/>
<text text-anchor="middle" x="443.5" y="-93.5" font-family="Helvetica,sans-Serif" font-size="10.00">ce103_hw3_library_lib.Menu.Run</text>
</a>
</g>
</g>
<!-- Node1&#45;&gt;Node15 -->
<g id="edge36" class="edge">
<title>Node1&#45;&gt;Node15</title>
<path fill="none" stroke="#63b8ff" d="M81.67,-266.56C97.53,-239.81 133.86,-185.04 180,-157 232.07,-125.36 299.1,-110.12 352.39,-102.79"/>
<polygon fill="#63b8ff" stroke="#63b8ff" points="352.58,-106.3 362.04,-101.54 351.68,-99.35 352.58,-106.3"/>
</g>
<!-- Node19 -->
<g id="node19" class="node">
<title>Node19</title>
<g id="a_node19"><a xlink:href="classce103__hw3__library__lib_1_1library.html#a754cac172f3b071c7eea3f07777aac68" target="_top" xlink:title=" ">
<polygon fill="white" stroke="#666666" points="324,-30 180,-30 180,0 324,0 324,-30"/>
<text text-anchor="start" x="188" y="-18" font-family="Helvetica,sans-Serif" font-size="10.00">ce103_hw3_library_lib.library.</text>
<text text-anchor="middle" x="252" y="-7" font-family="Helvetica,sans-Serif" font-size="10.00">ExitApp</text>
</a>
</g>
</g>
<!-- Node1&#45;&gt;Node19 -->
<g id="edge35" class="edge">
<title>Node1&#45;&gt;Node19</title>
<path fill="none" stroke="#63b8ff" d="M75.79,-266.64C84.08,-225.11 112.38,-109.31 180,-44 183,-41.1 186.33,-38.48 189.87,-36.1"/>
<polygon fill="#63b8ff" stroke="#63b8ff" points="191.45,-39.23 198.31,-31.16 187.91,-33.19 191.45,-39.23"/>
</g>
<!-- Node2&#45;&gt;Node1 -->
<g id="edge31" class="edge">
<title>Node2&#45;&gt;Node1</title>
<path fill="none" stroke="#63b8ff" d="M179.61,-301.81C171.72,-300.94 163.64,-299.98 155.63,-298.95"/>
<polygon fill="#63b8ff" stroke="#63b8ff" points="156.25,-295.5 145.87,-297.65 155.33,-302.44 156.25,-295.5"/>
</g>
<!-- Node3 -->
<g id="node3" class="node">
<title>Node3</title>
<g id="a_node3"><a xlink:href="classce103__hw3__library__lib_1_1_book_functions.html#aeb0f4b25699b7ca705f259d228730ef5" target="_top" xlink:title=" ">
<polygon fill="white" stroke="#666666" points="512,-528 375,-528 375,-498 512,-498 512,-528"/>
<text text-anchor="start" x="383" y="-516" font-family="Helvetica,sans-Serif" font-size="10.00">ce103_hw3_library_lib.Book</text>
<text text-anchor="middle" x="443.5" y="-505" font-family="Helvetica,sans-Serif" font-size="10.00">Functions.AddBook</text>
</a>
</g>
</g>
<!-- Node2&#45;&gt;Node3 -->
<g id="edge2" class="edge">
<title>Node2&#45;&gt;Node3</title>
<path fill="none" stroke="#63b8ff" d="M257.48,-319.31C268.65,-354.75 301.16,-442.88 360,-489 361.53,-490.2 363.13,-491.34 364.77,-492.43"/>
<polygon fill="#63b8ff" stroke="#63b8ff" points="362.88,-495.38 373.3,-497.29 366.34,-489.3 362.88,-495.38"/>
</g>
<!-- Node5 -->
<g id="node5" class="node">
<title>Node5</title>
<g id="a_node5"><a xlink:href="classce103__hw3__library__lib_1_1library.html#a84facf753a1182bffc9b0309adc8dadb" target="_top" xlink:title=" ">
<polygon fill="white" stroke="#666666" points="527,-479.5 360,-479.5 360,-460.5 527,-460.5 527,-479.5"/>
<text text-anchor="middle" x="443.5" y="-467.5" font-family="Helvetica,sans-Serif" font-size="10.00">ce103_hw3_library_lib.library.Back</text>
</a>
</g>
</g>
<!-- Node2&#45;&gt;Node5 -->
<g id="edge5" class="edge">
<title>Node2&#45;&gt;Node5</title>
<path fill="none" stroke="#63b8ff" d="M259.58,-319.28C273.44,-349.54 308.65,-417.06 360,-451 362.56,-452.69 365.24,-454.23 368.02,-455.63"/>
<polygon fill="#63b8ff" stroke="#63b8ff" points="366.47,-458.77 377.03,-459.54 369.25,-452.35 366.47,-458.77"/>
</g>
<!-- Node6 -->
<g id="node6" class="node">
<title>Node6</title>
<g id="a_node6"><a xlink:href="classce103__hw3__library__lib_1_1_book_functions.html#a4d2ef5095cd896dba0b81ac4a8ca3f11" target="_top" xlink:title=" ">
<polygon fill="white" stroke="#666666" points="512,-298 375,-298 375,-268 512,-268 512,-298"/>
<text text-anchor="start" x="383" y="-286" font-family="Helvetica,sans-Serif" font-size="10.00">ce103_hw3_library_lib.Book</text>
<text text-anchor="middle" x="443.5" y="-275" font-family="Helvetica,sans-Serif" font-size="10.00">Functions.BorrowBook</text>
</a>
</g>
</g>
<!-- Node2&#45;&gt;Node6 -->
<g id="edge7" class="edge">
<title>Node2&#45;&gt;Node6</title>
<path fill="none" stroke="#63b8ff" d="M324.37,-296.09C337.11,-294.68 350.45,-293.2 363.39,-291.77"/>
<polygon fill="#63b8ff" stroke="#63b8ff" points="363.58,-295.27 373.13,-290.69 362.81,-288.31 363.58,-295.27"/>
</g>
<!-- Node9 -->
<g id="node9" class="node">
<title>Node9</title>
<g id="a_node9"><a xlink:href="classce103__hw3__library__lib_1_1_book_functions.html#a859f030ca58df3aef0ca202c2df131ab" target="_top" xlink:title=" ">
<polygon fill="white" stroke="#666666" points="512,-154 375,-154 375,-124 512,-124 512,-154"/>
<text text-anchor="start" x="383" y="-142" font-family="Helvetica,sans-Serif" font-size="10.00">ce103_hw3_library_lib.Book</text>
<text text-anchor="middle" x="443.5" y="-131" font-family="Helvetica,sans-Serif" font-size="10.00">Functions.DeleteBook</text>
</a>
</g>
</g>
<!-- Node2&#45;&gt;Node9 -->
<g id="edge11" class="edge">
<title>Node2&#45;&gt;Node9</title>
<path fill="none" stroke="#63b8ff" d="M260.37,-288.69C275.13,-259.68 311.13,-196.6 360,-163 361.8,-161.76 363.66,-160.59 365.57,-159.48"/>
<polygon fill="#63b8ff" stroke="#63b8ff" points="366.84,-162.76 374.15,-155.08 363.65,-156.53 366.84,-162.76"/>
</g>
<!-- Node11 -->
<g id="node11" class="node">
<title>Node11</title>
<g id="a_node11"><a xlink:href="classce103__hw3__library__lib_1_1_book_functions.html#ac536d1aa3a17ba7ce32e8d9ea0cd4950" target="_top" xlink:title=" ">
<polygon fill="white" stroke="#666666" points="512,-202 375,-202 375,-172 512,-172 512,-202"/>
<text text-anchor="start" x="383" y="-190" font-family="Helvetica,sans-Serif" font-size="10.00">ce103_hw3_library_lib.Book</text>
<text text-anchor="middle" x="443.5" y="-179" font-family="Helvetica,sans-Serif" font-size="10.00">Functions.EditBook</text>
</a>
</g>
</g>
<!-- Node2&#45;&gt;Node11 -->
<g id="edge14" class="edge">
<title>Node2&#45;&gt;Node11</title>
<path fill="none" stroke="#63b8ff" d="M266.68,-288.51C285.66,-267.92 321.97,-231.74 360,-211 362.67,-209.54 365.44,-208.17 368.27,-206.87"/>
<polygon fill="#63b8ff" stroke="#63b8ff" points="369.49,-210.15 377.36,-203.07 366.79,-203.69 369.49,-210.15"/>
</g>
<!-- Node12 -->
<g id="node12" class="node">
<title>Node12</title>
<g id="a_node12"><a xlink:href="classce103__hw3__library__lib_1_1_book_functions.html#ae4b718abfd1ef505ca816bada5a5053f" target="_top" xlink:title=" ">
<polygon fill="white" stroke="#666666" points="512,-442 375,-442 375,-412 512,-412 512,-442"/>
<text text-anchor="start" x="383" y="-430" font-family="Helvetica,sans-Serif" font-size="10.00">ce103_hw3_library_lib.Book</text>
<text text-anchor="middle" x="443.5" y="-419" font-family="Helvetica,sans-Serif" font-size="10.00">Functions.ListBook</text>
</a>
</g>
</g>
<!-- Node2&#45;&gt;Node12 -->
<g id="edge17" class="edge">
<title>Node2&#45;&gt;Node12</title>
<path fill="none" stroke="#63b8ff" d="M265.52,-319.43C283.97,-341.18 320.57,-380.69 360,-403 362.5,-404.41 365.09,-405.75 367.74,-407.01"/>
<polygon fill="#63b8ff" stroke="#63b8ff" points="366.27,-410.19 376.84,-410.93 369.04,-403.76 366.27,-410.19"/>
</g>
<!-- Node13 -->
<g id="node13" class="node">
<title>Node13</title>
<g id="a_node13"><a xlink:href="classce103__hw3__library__lib_1_1_book_functions.html#abc272bb655ce11abfa5cb33d995132b7" target="_top" xlink:title=" ">
<polygon fill="white" stroke="#666666" points="512,-394 375,-394 375,-364 512,-364 512,-394"/>
<text text-anchor="start" x="383" y="-382" font-family="Helvetica,sans-Serif" font-size="10.00">ce103_hw3_library_lib.Book</text>
<text text-anchor="middle" x="443.5" y="-371" font-family="Helvetica,sans-Serif" font-size="10.00">Functions.ListBorrowBook</text>
</a>
</g>
</g>
<!-- Node2&#45;&gt;Node13 -->
<g id="edge20" class="edge">
<title>Node2&#45;&gt;Node13</title>
<path fill="none" stroke="#63b8ff" d="M281.96,-319.38C303.18,-330.25 332.88,-344.67 360,-355 364.59,-356.75 369.37,-358.45 374.21,-360.08"/>
<polygon fill="#63b8ff" stroke="#63b8ff" points="372.82,-363.3 383.41,-363.06 374.98,-356.65 372.82,-363.3"/>
</g>
<!-- Node14 -->
<g id="node14" class="node">
<title>Node14</title>
<g id="a_node14"><a xlink:href="classce103__hw3__library__lib_1_1_book_functions.html#af9a659e47a42e3f7ec1a29e280282a51" target="_top" xlink:title=" ">
<polygon fill="white" stroke="#666666" points="512,-250 375,-250 375,-220 512,-220 512,-250"/>
<text text-anchor="start" x="383" y="-238" font-family="Helvetica,sans-Serif" font-size="10.00">ce103_hw3_library_lib.Book</text>
<text text-anchor="middle" x="443.5" y="-227" font-family="Helvetica,sans-Serif" font-size="10.00">Functions.ReturnBook</text>
</a>
</g>
</g>
<!-- Node2&#45;&gt;Node14 -->
<g id="edge23" class="edge">
<title>Node2&#45;&gt;Node14</title>
<path fill="none" stroke="#63b8ff" d="M286.82,-288.6C307.68,-279.4 335.12,-267.82 360,-259 365.01,-257.22 370.22,-255.48 375.48,-253.79"/>
<polygon fill="#63b8ff" stroke="#63b8ff" points="376.36,-257.18 384.86,-250.86 374.27,-250.5 376.36,-257.18"/>
</g>
<!-- Node2&#45;&gt;Node15 -->
<g id="edge27" class="edge">
<title>Node2&#45;&gt;Node15</title>
<path fill="none" stroke="#63b8ff" d="M257.05,-288.67C267.47,-252.34 298.8,-160.66 360,-115 361.93,-113.56 363.96,-112.22 366.05,-110.99"/>
<polygon fill="#63b8ff" stroke="#63b8ff" points="367.55,-114.15 374.95,-106.57 364.44,-107.88 367.55,-114.15"/>
</g>
<!-- Node18 -->
<g id="node18" class="node">
<title>Node18</title>
<g id="a_node18"><a xlink:href="classce103__hw3__library__lib_1_1_book_functions.html#a81bb6f1f81a84ca37529ce32a397df10" target="_top" xlink:title=" ">
<polygon fill="white" stroke="#666666" points="512,-346 375,-346 375,-316 512,-316 512,-346"/>
<text text-anchor="start" x="383" y="-334" font-family="Helvetica,sans-Serif" font-size="10.00">ce103_hw3_library_lib.Book</text>
<text text-anchor="middle" x="443.5" y="-323" font-family="Helvetica,sans-Serif" font-size="10.00">Functions.SearchBook</text>
</a>
</g>
</g>
<!-- Node2&#45;&gt;Node18 -->
<g id="edge32" class="edge">
<title>Node2&#45;&gt;Node18</title>
<path fill="none" stroke="#63b8ff" d="M324.37,-314.17C337.11,-315.98 350.45,-317.89 363.39,-319.73"/>
<polygon fill="#63b8ff" stroke="#63b8ff" points="362.75,-323.17 373.14,-321.12 363.73,-316.24 362.75,-323.17"/>
</g>
<!-- Node3&#45;&gt;Node1 -->
<g id="edge4" class="edge">
<title>Node3&#45;&gt;Node1</title>
<path fill="none" stroke="#63b8ff" d="M374.53,-509.55C317.87,-503.67 237.43,-488.08 180,-447 129.92,-411.18 97.3,-343.94 82.39,-307.33"/>
<polygon fill="#63b8ff" stroke="#63b8ff" points="85.81,-306.45 78.89,-298.43 79.29,-309.01 85.81,-306.45"/>
</g>
<!-- Node4 -->
<g id="node4" class="node">
<title>Node4</title>
<g id="a_node4"><a xlink:href="classce103__hw3__library__lib_1_1_file_utility.html#a6b9ef5a028f3e26107779e0a3f300aef" target="_top" xlink:title=" ">
<polygon fill="white" stroke="#666666" points="700.5,-528 569.5,-528 569.5,-498 700.5,-498 700.5,-528"/>
<text text-anchor="start" x="577.5" y="-516" font-family="Helvetica,sans-Serif" font-size="10.00">ce103_hw3_library_lib.File</text>
<text text-anchor="middle" x="635" y="-505" font-family="Helvetica,sans-Serif" font-size="10.00">Utility.AppendBlock</text>
</a>
</g>
</g>
<!-- Node3&#45;&gt;Node4 -->
<g id="edge3" class="edge">
<title>Node3&#45;&gt;Node4</title>
<path fill="none" stroke="#63b8ff" d="M512.38,-513C527.1,-513 542.77,-513 557.8,-513"/>
<polygon fill="#63b8ff" stroke="#63b8ff" points="557.62,-516.5 567.62,-513 557.62,-509.5 557.62,-516.5"/>
</g>
<!-- Node5&#45;&gt;Node1 -->
<g id="edge6" class="edge">
<title>Node5&#45;&gt;Node1</title>
<path fill="none" stroke="#63b8ff" d="M359.61,-463.91C305.22,-456.79 234.37,-441.38 180,-408 138.61,-382.59 105.19,-335.72 87.28,-306.86"/>
<polygon fill="#63b8ff" stroke="#63b8ff" points="90.35,-305.17 82.19,-298.41 84.36,-308.78 90.35,-305.17"/>
</g>
<!-- Node6&#45;&gt;Node1 -->
<g id="edge9" class="edge">
<title>Node6&#45;&gt;Node1</title>
<path fill="none" stroke="#63b8ff" d="M374.52,-280.98C357.99,-280.57 340.36,-280.21 324,-280 260.01,-279.19 244,-279.4 180,-280 172.17,-280.07 164.02,-280.18 155.86,-280.3"/>
<polygon fill="#63b8ff" stroke="#63b8ff" points="155.82,-276.8 145.88,-280.46 155.93,-283.8 155.82,-276.8"/>
</g>
<!-- Node7 -->
<g id="node7" class="node">
<title>Node7</title>
<g id="a_node7"><a xlink:href="classce103__hw3__library__lib_1_1_file_utility.html#a0706a9eaee6532bd3a42dda3579c9158" target="_top" xlink:title=" ">
<polygon fill="white" stroke="#666666" points="700.5,-346 569.5,-346 569.5,-316 700.5,-316 700.5,-346"/>
<text text-anchor="start" x="577.5" y="-334" font-family="Helvetica,sans-Serif" font-size="10.00">ce103_hw3_library_lib.File</text>
<text text-anchor="middle" x="635" y="-323" font-family="Helvetica,sans-Serif" font-size="10.00">Utility.ReadBlock</text>
</a>
</g>
</g>
<!-- Node6&#45;&gt;Node7 -->
<g id="edge8" class="edge">
<title>Node6&#45;&gt;Node7</title>
<path fill="none" stroke="#63b8ff" d="M505.5,-298.45C523.51,-303.01 543.38,-308.05 562.01,-312.76"/>
<polygon fill="#63b8ff" stroke="#63b8ff" points="561.09,-316.14 571.65,-315.21 562.81,-309.36 561.09,-316.14"/>
</g>
<!-- Node8 -->
<g id="node8" class="node">
<title>Node8</title>
<g id="a_node8"><a xlink:href="classce103__hw3__library__lib_1_1_file_utility.html#a3258416645b5a69d8d0eb9ac217b2c20" target="_top" xlink:title=" ">
<polygon fill="white" stroke="#666666" points="700.5,-250 569.5,-250 569.5,-220 700.5,-220 700.5,-250"/>
<text text-anchor="start" x="577.5" y="-238" font-family="Helvetica,sans-Serif" font-size="10.00">ce103_hw3_library_lib.File</text>
<text text-anchor="middle" x="635" y="-227" font-family="Helvetica,sans-Serif" font-size="10.00">Utility.UpdateBlock</text>
</a>
</g>
</g>
<!-- Node6&#45;&gt;Node8 -->
<g id="edge10" class="edge">
<title>Node6&#45;&gt;Node8</title>
<path fill="none" stroke="#63b8ff" d="M505.5,-267.55C523.51,-262.99 543.38,-257.95 562.01,-253.24"/>
<polygon fill="#63b8ff" stroke="#63b8ff" points="562.81,-256.64 571.65,-250.79 561.09,-249.86 562.81,-256.64"/>
</g>
<!-- Node9&#45;&gt;Node1 -->
<g id="edge13" class="edge">
<title>Node9&#45;&gt;Node1</title>
<path fill="none" stroke="#63b8ff" d="M374.71,-149.66C320.32,-159.82 242.94,-177.95 180,-207 150.35,-220.69 120.21,-242.69 99.51,-259.34"/>
<polygon fill="#63b8ff" stroke="#63b8ff" points="97.38,-256.56 91.87,-265.6 101.82,-261.97 97.38,-256.56"/>
</g>
<!-- Node10 -->
<g id="node10" class="node">
<title>Node10</title>
<g id="a_node10"><a xlink:href="classce103__hw3__library__lib_1_1_file_utility.html#ad1233745f44f8159d86b0692c3a24b21" target="_top" xlink:title=" ">
<polygon fill="white" stroke="#666666" points="700.5,-164 569.5,-164 569.5,-134 700.5,-134 700.5,-164"/>
<text text-anchor="start" x="577.5" y="-152" font-family="Helvetica,sans-Serif" font-size="10.00">ce103_hw3_library_lib.File</text>
<text text-anchor="middle" x="635" y="-141" font-family="Helvetica,sans-Serif" font-size="10.00">Utility.DeleteBlock</text>
</a>
</g>
</g>
<!-- Node9&#45;&gt;Node10 -->
<g id="edge12" class="edge">
<title>Node9&#45;&gt;Node10</title>
<path fill="none" stroke="#63b8ff" d="M512.38,-142.58C527.1,-143.36 542.77,-144.19 557.8,-144.98"/>
<polygon fill="#63b8ff" stroke="#63b8ff" points="557.45,-148.47 567.62,-145.5 557.82,-141.47 557.45,-148.47"/>
</g>
<!-- Node11&#45;&gt;Node1 -->
<g id="edge15" class="edge">
<title>Node11&#45;&gt;Node1</title>
<path fill="none" stroke="#63b8ff" d="M374.58,-200.25C321.3,-211.13 245.45,-227.69 180,-246 162.43,-250.92 143.48,-257.02 126.49,-262.79"/>
<polygon fill="#63b8ff" stroke="#63b8ff" points="125.39,-259.47 117.07,-266.03 127.66,-266.09 125.39,-259.47"/>
</g>
<!-- Node11&#45;&gt;Node8 -->
<g id="edge16" class="edge">
<title>Node11&#45;&gt;Node8</title>
<path fill="none" stroke="#63b8ff" d="M505.5,-202.45C523.51,-207.01 543.38,-212.05 562.01,-216.76"/>
<polygon fill="#63b8ff" stroke="#63b8ff" points="561.09,-220.14 571.65,-219.21 562.81,-213.36 561.09,-220.14"/>
</g>
<!-- Node12&#45;&gt;Node1 -->
<g id="edge19" class="edge">
<title>Node12&#45;&gt;Node1</title>
<path fill="none" stroke="#63b8ff" d="M374.77,-422.8C319.89,-417.21 241.82,-404.22 180,-374 145.76,-357.26 113.62,-326.89 93.67,-305.64"/>
<polygon fill="#63b8ff" stroke="#63b8ff" points="96.51,-303.56 87.17,-298.55 91.35,-308.29 96.51,-303.56"/>
</g>
<!-- Node12&#45;&gt;Node7 -->
<g id="edge18" class="edge">
<title>Node12&#45;&gt;Node7</title>
<path fill="none" stroke="#63b8ff" d="M505.67,-411.53C512.98,-409 520.24,-406.16 527,-403 555.67,-389.59 585.3,-369.03 606.09,-353.32"/>
<polygon fill="#63b8ff" stroke="#63b8ff" points="607.99,-356.27 613.78,-347.4 603.72,-350.72 607.99,-356.27"/>
</g>
<!-- Node13&#45;&gt;Node1 -->
<g id="edge22" class="edge">
<title>Node13&#45;&gt;Node1</title>
<path fill="none" stroke="#63b8ff" d="M374.66,-378.54C320.59,-376.35 243.66,-369.06 180,-347 151.46,-337.11 122.37,-318.8 101.74,-304.13"/>
<polygon fill="#63b8ff" stroke="#63b8ff" points="103.98,-301.43 93.83,-298.37 99.85,-307.08 103.98,-301.43"/>
</g>
<!-- Node13&#45;&gt;Node7 -->
<g id="edge21" class="edge">
<title>Node13&#45;&gt;Node7</title>
<path fill="none" stroke="#63b8ff" d="M505.5,-363.55C523.51,-358.99 543.38,-353.95 562.01,-349.24"/>
<polygon fill="#63b8ff" stroke="#63b8ff" points="562.81,-352.64 571.65,-346.79 561.09,-345.86 562.81,-352.64"/>
</g>
<!-- Node14&#45;&gt;Node1 -->
<g id="edge25" class="edge">
<title>Node14&#45;&gt;Node1</title>
<path fill="none" stroke="#63b8ff" d="M374.59,-243.64C312.79,-251.5 221.4,-263.12 155.43,-271.52"/>
<polygon fill="#63b8ff" stroke="#63b8ff" points="155.22,-268.01 145.74,-272.75 156.11,-274.96 155.22,-268.01"/>
</g>
<!-- Node14&#45;&gt;Node7 -->
<g id="edge24" class="edge">
<title>Node14&#45;&gt;Node7</title>
<path fill="none" stroke="#63b8ff" d="M505.67,-250.47C512.98,-253 520.24,-255.84 527,-259 555.67,-272.41 585.3,-292.97 606.09,-308.68"/>
<polygon fill="#63b8ff" stroke="#63b8ff" points="603.72,-311.28 613.78,-314.6 607.99,-305.73 603.72,-311.28"/>
</g>
<!-- Node14&#45;&gt;Node8 -->
<g id="edge26" class="edge">
<title>Node14&#45;&gt;Node8</title>
<path fill="none" stroke="#63b8ff" d="M512.38,-235C527.1,-235 542.77,-235 557.8,-235"/>
<polygon fill="#63b8ff" stroke="#63b8ff" points="557.62,-238.5 567.62,-235 557.62,-231.5 557.62,-238.5"/>
</g>
<!-- Node16 -->
<g id="node16" class="node">
<title>Node16</title>
<g id="a_node16"><a xlink:href="classce103__hw3__library__lib_1_1_menu.html#af4dab9715ef5ee639001951ec8c3d5e2" target="_top" xlink:title=" ">
<polygon fill="white" stroke="#666666" points="706,-116 564,-116 564,-86 706,-86 706,-116"/>
<text text-anchor="start" x="572" y="-104" font-family="Helvetica,sans-Serif" font-size="10.00">ce103_hw3_library_lib.Menu.</text>
<text text-anchor="middle" x="635" y="-93" font-family="Helvetica,sans-Serif" font-size="10.00">DisplayOptions</text>
</a>
</g>
</g>
<!-- Node15&#45;&gt;Node16 -->
<g id="edge28" class="edge">
<title>Node15&#45;&gt;Node16</title>
<path fill="none" stroke="#63b8ff" d="M523.49,-98.08C532.95,-98.33 542.62,-98.59 552.12,-98.84"/>
<polygon fill="#63b8ff" stroke="#63b8ff" points="551.99,-102.34 562.08,-99.1 552.18,-95.34 551.99,-102.34"/>
</g>
<!-- Node17 -->
<g id="node17" class="node">
<title>Node17</title>
<g id="a_node17"><a xlink:href="classce103__hw3__library__lib_1_1library.html#a261e9b866de5ed430c5888e32120a346" target="_top" xlink:title=" ">
<polygon fill="white" stroke="#666666" points="707,-68 563,-68 563,-38 707,-38 707,-68"/>
<text text-anchor="start" x="571" y="-56" font-family="Helvetica,sans-Serif" font-size="10.00">ce103_hw3_library_lib.library.</text>
<text text-anchor="middle" x="635" y="-45" font-family="Helvetica,sans-Serif" font-size="10.00">Start</text>
</a>
</g>
</g>
<!-- Node15&#45;&gt;Node17 -->
<g id="edge29" class="edge">
<title>Node15&#45;&gt;Node17</title>
<path fill="none" stroke="#63b8ff" d="M488.45,-86.03C508.18,-81.55 532.09,-76.13 554.77,-70.98"/>
<polygon fill="#63b8ff" stroke="#63b8ff" points="555.33,-74.44 564.31,-68.81 553.78,-67.61 555.33,-74.44"/>
</g>
<!-- Node17&#45;&gt;Node1 -->
<g id="edge30" class="edge">
<title>Node17&#45;&gt;Node1</title>
<path fill="none" stroke="#63b8ff" d="M562.79,-42.02C467.31,-31.2 296.35,-25.93 180,-103 124.64,-139.67 93.69,-215.66 80.58,-255.82"/>
<polygon fill="#63b8ff" stroke="#63b8ff" points="77.31,-254.56 77.67,-265.15 83.99,-256.65 77.31,-254.56"/>
</g>
<!-- Node18&#45;&gt;Node1 -->
<g id="edge34" class="edge">
<title>Node18&#45;&gt;Node1</title>
<path fill="none" stroke="#63b8ff" d="M374.53,-337.47C321.06,-340.83 244.99,-341.76 180,-328 156.02,-322.92 130.76,-312.34 110.81,-302.6"/>
<polygon fill="#63b8ff" stroke="#63b8ff" points="112.46,-299.52 101.96,-298.15 109.32,-305.77 112.46,-299.52"/>
</g>
<!-- Node18&#45;&gt;Node7 -->
<g id="edge33" class="edge">
<title>Node18&#45;&gt;Node7</title>
<path fill="none" stroke="#63b8ff" d="M512.38,-331C527.1,-331 542.77,-331 557.8,-331"/>
<polygon fill="#63b8ff" stroke="#63b8ff" points="557.62,-334.5 567.62,-331 557.62,-327.5 557.62,-334.5"/>
</g>
</g>
</svg>
