<?xml version="1.0" encoding="UTF-8" standalone="no"?>
<!DOCTYPE svg PUBLIC "-//W3C//DTD SVG 1.1//EN"
 "http://www.w3.org/Graphics/SVG/1.1/DTD/svg11.dtd">
<!-- Generated by graphviz version 7.0.4 (20221203.1631)
 -->
<!-- Title: ce103_hw3_library_lib.BookFunctions.DeleteBook Pages: 1 -->
<!--zoomable 482 -->
<svg id="main" version="1.1" xmlns="http://www.w3.org/2000/svg" xmlns:xlink="http://www.w3.org/1999/xlink" xml:space="preserve" onload="init(evt)">
<style type="text/css"><![CDATA[
.edge:hover path { stroke: red; }
.edge:hover polygon { stroke: red; fill: red; }
]]></style>
<script type="text/javascript"><![CDATA[
var edges = document.getElementsByTagName('g');
if (edges && edges.length) {
  for (var i=0;i<edges.length;i++) {
    if (edges[i].id.substr(0,4)=='edge') {
      edges[i].setAttribute('class','edge');
    }
  }
}
]]></script>
        <defs>
                <circle id="rim" cx="0" cy="0" r="7"/>
                <circle id="rim2" cx="0" cy="0" r="3.5"/>
                <g id="zoomPlus">
                        <use xlink:href="#rim" fill="#404040">
                                <set attributeName="fill" to="#808080" begin="zoomplus.mouseover" end="zoomplus.mouseout"/>
                        </use>
                        <path d="M-4,0h8M0,-4v8" fill="none" stroke="white" stroke-width="1.5" pointer-events="none"/>
                </g>
                <g id="zoomMin">
                        <use xlink:href="#rim" fill="#404040">
                                <set attributeName="fill" to="#808080" begin="zoomminus.mouseover" end="zoomminus.mouseout"/>
                        </use>
                        <path d="M-4,0h8" fill="none" stroke="white" stroke-width="1.5" pointer-events="none"/>
                </g>
                <g id="dirArrow">
                        <path fill="none" stroke="white" stroke-width="1.5" d="M0,-3.0v7 M-2.5,-0.5L0,-3.0L2.5,-0.5"/>
                </g>
               <g id="resetDef">
                       <use xlink:href="#rim2" fill="#404040">
                               <set attributeName="fill" to="#808080" begin="reset.mouseover" end="reset.mouseout"/>
                       </use>
               </g>
        </defs>

<script type="text/javascript">
var viewWidth = 888;
var viewHeight = 482;
var sectionId = 'dynsection-4';
</script>
<script xlink:href="svgpan.js"/>
<svg id="graph" class="graph">
<g id="viewport">
<title>ce103_hw3_library_lib.BookFunctions.DeleteBook</title>
<!-- Node1 -->
<g id="node1" class="node">
<title>Node1</title>
<g id="a_node1"><a xlink:title=" ">
<polygon fill="#999999" stroke="#666666" points="137,-223 0,-223 0,-193 137,-193 137,-223"/>
<text text-anchor="start" x="8" y="-211" font-family="Helvetica,sans-Serif" font-size="10.00">ce103_hw3_library_lib.Book</text>
<text text-anchor="middle" x="68.5" y="-200" font-family="Helvetica,sans-Serif" font-size="10.00">Functions.DeleteBook</text>
</a>
</g>
</g>
<!-- Node2 -->
<g id="node2" class="node">
<title>Node2</title>
<g id="a_node2"><a xlink:href="classce103__hw3__library__lib_1_1_file_utility.html#ad1233745f44f8159d86b0692c3a24b21" target="_top" xlink:title=" ">
<polygon fill="white" stroke="#666666" points="310.5,-271 179.5,-271 179.5,-241 310.5,-241 310.5,-271"/>
<text text-anchor="start" x="187.5" y="-259" font-family="Helvetica,sans-Serif" font-size="10.00">ce103_hw3_library_lib.File</text>
<text text-anchor="middle" x="245" y="-248" font-family="Helvetica,sans-Serif" font-size="10.00">Utility.DeleteBlock</text>
</a>
</g>
</g>
<!-- Node1&#45;&gt;Node2 -->
<g id="edge1" class="edge">
<title>Node1&#45;&gt;Node2</title>
<path fill="none" stroke="#63b8ff" d="M125.67,-223.45C142.02,-227.95 160.04,-232.9 176.98,-237.57"/>
<polygon fill="#63b8ff" stroke="#63b8ff" points="175.9,-240.9 186.47,-240.18 177.76,-234.15 175.9,-240.9"/>
</g>
<!-- Node3 -->
<g id="node3" class="node">
<title>Node3</title>
<g id="a_node3"><a xlink:href="classce103__hw3__library__lib_1_1library.html#a80f197f4303dd78438ec6055614382da" target="_top" xlink:title=" ">
<polygon fill="white" stroke="#666666" points="317,-223 173,-223 173,-193 317,-193 317,-223"/>
<text text-anchor="start" x="181" y="-211" font-family="Helvetica,sans-Serif" font-size="10.00">ce103_hw3_library_lib.library.</text>
<text text-anchor="middle" x="245" y="-200" font-family="Helvetica,sans-Serif" font-size="10.00">RunMainMenu</text>
</a>
</g>
</g>
<!-- Node1&#45;&gt;Node3 -->
<g id="edge2" class="edge">
<title>Node1&#45;&gt;Node3</title>
<path fill="none" stroke="#63b8ff" d="M137.47,-208C145.34,-208 153.43,-208 161.46,-208"/>
<polygon fill="#63b8ff" stroke="#63b8ff" points="161.25,-211.5 171.25,-208 161.25,-204.5 161.25,-211.5"/>
</g>
<!-- Node4 -->
<g id="node4" class="node">
<title>Node4</title>
<g id="a_node4"><a xlink:href="classce103__hw3__library__lib_1_1library.html#a966e08d69fdd5e4d3bf6a12af39bfe14" target="_top" xlink:title=" ">
<polygon fill="white" stroke="#666666" points="497,-180 353,-180 353,-150 497,-150 497,-180"/>
<text text-anchor="start" x="361" y="-168" font-family="Helvetica,sans-Serif" font-size="10.00">ce103_hw3_library_lib.library.</text>
<text text-anchor="middle" x="425" y="-157" font-family="Helvetica,sans-Serif" font-size="10.00">BookOption</text>
</a>
</g>
</g>
<!-- Node3&#45;&gt;Node4 -->
<g id="edge3" class="edge">
<title>Node3&#45;&gt;Node4</title>
<path fill="none" stroke="#63b8ff" d="M285.95,-192.61C302.47,-187.86 322.29,-182.74 341.67,-178.16"/>
<polygon fill="#63b8ff" stroke="#63b8ff" points="342.27,-181.61 351.22,-175.94 340.68,-174.79 342.27,-181.61"/>
</g>
<!-- Node15 -->
<g id="node15" class="node">
<title>Node15</title>
<g id="a_node15"><a xlink:href="classce103__hw3__library__lib_1_1_menu.html#a83866faf86a98cdc36d517e8ed443534" target="_top" xlink:title=" ">
<polygon fill="white" stroke="#666666" points="696,-412.5 537,-412.5 537,-393.5 696,-393.5 696,-412.5"/>
<text text-anchor="middle" x="616.5" y="-400.5" font-family="Helvetica,sans-Serif" font-size="10.00">ce103_hw3_library_lib.Menu.Run</text>
</a>
</g>
</g>
<!-- Node3&#45;&gt;Node15 -->
<g id="edge36" class="edge">
<title>Node3&#45;&gt;Node15</title>
<path fill="none" stroke="#63b8ff" d="M306.35,-223.42C310.24,-225.87 313.85,-228.71 317,-232 356.94,-273.8 309.99,-318.36 353,-357 399.21,-398.51 469.14,-409.13 525.21,-409.85"/>
<polygon fill="#63b8ff" stroke="#63b8ff" points="525.07,-413.35 535.07,-409.86 525.08,-406.35 525.07,-413.35"/>
</g>
<!-- Node19 -->
<g id="node19" class="node">
<title>Node19</title>
<g id="a_node19"><a xlink:href="classce103__hw3__library__lib_1_1library.html#a754cac172f3b071c7eea3f07777aac68" target="_top" xlink:title=" ">
<polygon fill="white" stroke="#666666" points="497,-266 353,-266 353,-236 497,-236 497,-266"/>
<text text-anchor="start" x="361" y="-254" font-family="Helvetica,sans-Serif" font-size="10.00">ce103_hw3_library_lib.library.</text>
<text text-anchor="middle" x="425" y="-243" font-family="Helvetica,sans-Serif" font-size="10.00">ExitApp</text>
</a>
</g>
</g>
<!-- Node3&#45;&gt;Node19 -->
<g id="edge35" class="edge">
<title>Node3&#45;&gt;Node19</title>
<path fill="none" stroke="#63b8ff" d="M310.01,-223.46C322.7,-226.53 336.13,-229.77 349.15,-232.92"/>
<polygon fill="#63b8ff" stroke="#63b8ff" points="347.95,-236.23 358.49,-235.17 349.59,-229.42 347.95,-236.23"/>
</g>
<!-- Node4&#45;&gt;Node1 -->
<g id="edge13" class="edge">
<title>Node4&#45;&gt;Node1</title>
<path fill="none" stroke="#63b8ff" d="M352.54,-167.51C302.13,-169.99 233.15,-174.8 173,-184 162.38,-185.62 151.23,-187.75 140.34,-190.07"/>
<polygon fill="#63b8ff" stroke="#63b8ff" points="139.62,-186.65 130.61,-192.22 141.13,-193.48 139.62,-186.65"/>
</g>
<!-- Node4&#45;&gt;Node3 -->
<g id="edge31" class="edge">
<title>Node4&#45;&gt;Node3</title>
<path fill="none" stroke="#63b8ff" d="M383.85,-180.45C367.37,-185.18 347.65,-190.28 328.34,-194.84"/>
<polygon fill="#63b8ff" stroke="#63b8ff" points="327.8,-191.37 318.85,-197.05 329.38,-198.19 327.8,-191.37"/>
</g>
<!-- Node5 -->
<g id="node5" class="node">
<title>Node5</title>
<g id="a_node5"><a xlink:href="classce103__hw3__library__lib_1_1_book_functions.html#aeb0f4b25699b7ca705f259d228730ef5" target="_top" xlink:title=" ">
<polygon fill="white" stroke="#666666" points="685,-361 548,-361 548,-331 685,-331 685,-361"/>
<text text-anchor="start" x="556" y="-349" font-family="Helvetica,sans-Serif" font-size="10.00">ce103_hw3_library_lib.Book</text>
<text text-anchor="middle" x="616.5" y="-338" font-family="Helvetica,sans-Serif" font-size="10.00">Functions.AddBook</text>
</a>
</g>
</g>
<!-- Node4&#45;&gt;Node5 -->
<g id="edge4" class="edge">
<title>Node4&#45;&gt;Node5</title>
<path fill="none" stroke="#63b8ff" d="M448.69,-180.39C464.04,-191.76 483.84,-208.44 497,-227 521.92,-262.14 501.9,-287.19 533,-317 536.03,-319.9 539.36,-322.52 542.9,-324.87"/>
<polygon fill="#63b8ff" stroke="#63b8ff" points="540.96,-327.79 551.38,-329.75 544.46,-321.73 540.96,-327.79"/>
</g>
<!-- Node7 -->
<g id="node7" class="node">
<title>Node7</title>
<g id="a_node7"><a xlink:href="classce103__hw3__library__lib_1_1library.html#a84facf753a1182bffc9b0309adc8dadb" target="_top" xlink:title=" ">
<polygon fill="white" stroke="#666666" points="700,-211.5 533,-211.5 533,-192.5 700,-192.5 700,-211.5"/>
<text text-anchor="middle" x="616.5" y="-199.5" font-family="Helvetica,sans-Serif" font-size="10.00">ce103_hw3_library_lib.library.Back</text>
</a>
</g>
</g>
<!-- Node4&#45;&gt;Node7 -->
<g id="edge7" class="edge">
<title>Node4&#45;&gt;Node7</title>
<path fill="none" stroke="#63b8ff" d="M497.37,-178.94C515.79,-182.53 535.47,-186.37 553.37,-189.87"/>
<polygon fill="#63b8ff" stroke="#63b8ff" points="552.59,-193.28 563.07,-191.76 553.93,-186.41 552.59,-193.28"/>
</g>
<!-- Node8 -->
<g id="node8" class="node">
<title>Node8</title>
<g id="a_node8"><a xlink:href="classce103__hw3__library__lib_1_1_book_functions.html#a4d2ef5095cd896dba0b81ac4a8ca3f11" target="_top" xlink:title=" ">
<polygon fill="white" stroke="#666666" points="685,-174 548,-174 548,-144 685,-144 685,-174"/>
<text text-anchor="start" x="556" y="-162" font-family="Helvetica,sans-Serif" font-size="10.00">ce103_hw3_library_lib.Book</text>
<text text-anchor="middle" x="616.5" y="-151" font-family="Helvetica,sans-Serif" font-size="10.00">Functions.BorrowBook</text>
</a>
</g>
</g>
<!-- Node4&#45;&gt;Node8 -->
<g id="edge9" class="edge">
<title>Node4&#45;&gt;Node8</title>
<path fill="none" stroke="#63b8ff" d="M497.37,-162.74C510.11,-162.34 523.45,-161.91 536.39,-161.5"/>
<polygon fill="#63b8ff" stroke="#63b8ff" points="536.24,-165.01 546.13,-161.2 536.02,-158.01 536.24,-165.01"/>
</g>
<!-- Node11 -->
<g id="node11" class="node">
<title>Node11</title>
<g id="a_node11"><a xlink:href="classce103__hw3__library__lib_1_1_book_functions.html#ac536d1aa3a17ba7ce32e8d9ea0cd4950" target="_top" xlink:title=" ">
<polygon fill="white" stroke="#666666" points="685,-308 548,-308 548,-278 685,-278 685,-308"/>
<text text-anchor="start" x="556" y="-296" font-family="Helvetica,sans-Serif" font-size="10.00">ce103_hw3_library_lib.Book</text>
<text text-anchor="middle" x="616.5" y="-285" font-family="Helvetica,sans-Serif" font-size="10.00">Functions.EditBook</text>
</a>
</g>
</g>
<!-- Node4&#45;&gt;Node11 -->
<g id="edge14" class="edge">
<title>Node4&#45;&gt;Node11</title>
<path fill="none" stroke="#63b8ff" d="M445.05,-180.35C459.74,-192.49 480.3,-210.14 497,-227 514.3,-244.46 512.34,-255.68 533,-269 535.01,-270.29 537.09,-271.52 539.22,-272.68"/>
<polygon fill="#63b8ff" stroke="#63b8ff" points="537.66,-275.81 548.18,-277 540.7,-269.51 537.66,-275.81"/>
</g>
<!-- Node12 -->
<g id="node12" class="node">
<title>Node12</title>
<g id="a_node12"><a xlink:href="classce103__hw3__library__lib_1_1_book_functions.html#ae4b718abfd1ef505ca816bada5a5053f" target="_top" xlink:title=" ">
<polygon fill="white" stroke="#666666" points="685,-30 548,-30 548,0 685,0 685,-30"/>
<text text-anchor="start" x="556" y="-18" font-family="Helvetica,sans-Serif" font-size="10.00">ce103_hw3_library_lib.Book</text>
<text text-anchor="middle" x="616.5" y="-7" font-family="Helvetica,sans-Serif" font-size="10.00">Functions.ListBook</text>
</a>
</g>
</g>
<!-- Node4&#45;&gt;Node12 -->
<g id="edge17" class="edge">
<title>Node4&#45;&gt;Node12</title>
<path fill="none" stroke="#63b8ff" d="M434.8,-149.69C450.85,-123.12 487.48,-68.49 533,-39 534.88,-37.78 536.82,-36.63 538.81,-35.53"/>
<polygon fill="#63b8ff" stroke="#63b8ff" points="540.3,-38.69 547.75,-31.16 537.23,-32.41 540.3,-38.69"/>
</g>
<!-- Node13 -->
<g id="node13" class="node">
<title>Node13</title>
<g id="a_node13"><a xlink:href="classce103__hw3__library__lib_1_1_book_functions.html#abc272bb655ce11abfa5cb33d995132b7" target="_top" xlink:title=" ">
<polygon fill="white" stroke="#666666" points="685,-126 548,-126 548,-96 685,-96 685,-126"/>
<text text-anchor="start" x="556" y="-114" font-family="Helvetica,sans-Serif" font-size="10.00">ce103_hw3_library_lib.Book</text>
<text text-anchor="middle" x="616.5" y="-103" font-family="Helvetica,sans-Serif" font-size="10.00">Functions.ListBorrowBook</text>
</a>
</g>
</g>
<!-- Node4&#45;&gt;Node13 -->
<g id="edge20" class="edge">
<title>Node4&#45;&gt;Node13</title>
<path fill="none" stroke="#63b8ff" d="M480.3,-149.53C502.11,-143.31 527.43,-136.1 550.23,-129.6"/>
<polygon fill="#63b8ff" stroke="#63b8ff" points="551.08,-133 559.73,-126.89 549.16,-126.27 551.08,-133"/>
</g>
<!-- Node14 -->
<g id="node14" class="node">
<title>Node14</title>
<g id="a_node14"><a xlink:href="classce103__hw3__library__lib_1_1_book_functions.html#af9a659e47a42e3f7ec1a29e280282a51" target="_top" xlink:title=" ">
<polygon fill="white" stroke="#666666" points="685,-260 548,-260 548,-230 685,-230 685,-260"/>
<text text-anchor="start" x="556" y="-248" font-family="Helvetica,sans-Serif" font-size="10.00">ce103_hw3_library_lib.Book</text>
<text text-anchor="middle" x="616.5" y="-237" font-family="Helvetica,sans-Serif" font-size="10.00">Functions.ReturnBook</text>
</a>
</g>
</g>
<!-- Node4&#45;&gt;Node14 -->
<g id="edge23" class="edge">
<title>Node4&#45;&gt;Node14</title>
<path fill="none" stroke="#63b8ff" d="M452.63,-180.4C473.9,-192.28 504.73,-208.56 533,-220 538.16,-222.09 543.56,-224.09 549.02,-226"/>
<polygon fill="#63b8ff" stroke="#63b8ff" points="547.52,-229.19 558.12,-229.06 549.75,-222.56 547.52,-229.19"/>
</g>
<!-- Node4&#45;&gt;Node15 -->
<g id="edge27" class="edge">
<title>Node4&#45;&gt;Node15</title>
<path fill="none" stroke="#63b8ff" d="M450.17,-180.34C465.78,-191.47 485.29,-207.88 497,-227 531.24,-282.88 489.86,-320.66 533,-370 539.93,-377.93 549.04,-383.98 558.67,-388.59"/>
<polygon fill="#63b8ff" stroke="#63b8ff" points="557.27,-391.79 567.84,-392.45 559.99,-385.34 557.27,-391.79"/>
</g>
<!-- Node18 -->
<g id="node18" class="node">
<title>Node18</title>
<g id="a_node18"><a xlink:href="classce103__hw3__library__lib_1_1_book_functions.html#a81bb6f1f81a84ca37529ce32a397df10" target="_top" xlink:title=" ">
<polygon fill="white" stroke="#666666" points="685,-78 548,-78 548,-48 685,-48 685,-78"/>
<text text-anchor="start" x="556" y="-66" font-family="Helvetica,sans-Serif" font-size="10.00">ce103_hw3_library_lib.Book</text>
<text text-anchor="middle" x="616.5" y="-55" font-family="Helvetica,sans-Serif" font-size="10.00">Functions.SearchBook</text>
</a>
</g>
</g>
<!-- Node4&#45;&gt;Node18 -->
<g id="edge32" class="edge">
<title>Node4&#45;&gt;Node18</title>
<path fill="none" stroke="#63b8ff" d="M442.95,-149.72C463.09,-132.3 498.33,-104.02 533,-87 536.28,-85.39 539.69,-83.87 543.17,-82.43"/>
<polygon fill="#63b8ff" stroke="#63b8ff" points="544.27,-85.76 552.37,-78.92 541.77,-79.22 544.27,-85.76"/>
</g>
<!-- Node5&#45;&gt;Node3 -->
<g id="edge6" class="edge">
<title>Node5&#45;&gt;Node3</title>
<path fill="none" stroke="#63b8ff" d="M547.76,-358.34C490.29,-364.88 408.56,-364.43 353,-323 318.13,-297 348.53,-261.97 317,-232 316.24,-231.27 315.45,-230.57 314.64,-229.89"/>
<polygon fill="#63b8ff" stroke="#63b8ff" points="316.76,-227.1 306.56,-224.23 312.74,-232.83 316.76,-227.1"/>
</g>
<!-- Node6 -->
<g id="node6" class="node">
<title>Node6</title>
<g id="a_node6"><a xlink:href="classce103__hw3__library__lib_1_1_file_utility.html#a6b9ef5a028f3e26107779e0a3f300aef" target="_top" xlink:title=" ">
<polygon fill="white" stroke="#666666" points="873.5,-361 742.5,-361 742.5,-331 873.5,-331 873.5,-361"/>
<text text-anchor="start" x="750.5" y="-349" font-family="Helvetica,sans-Serif" font-size="10.00">ce103_hw3_library_lib.File</text>
<text text-anchor="middle" x="808" y="-338" font-family="Helvetica,sans-Serif" font-size="10.00">Utility.AppendBlock</text>
</a>
</g>
</g>
<!-- Node5&#45;&gt;Node6 -->
<g id="edge5" class="edge">
<title>Node5&#45;&gt;Node6</title>
<path fill="none" stroke="#63b8ff" d="M685.38,-346C700.1,-346 715.77,-346 730.8,-346"/>
<polygon fill="#63b8ff" stroke="#63b8ff" points="730.62,-349.5 740.62,-346 730.62,-342.5 730.62,-349.5"/>
</g>
<!-- Node7&#45;&gt;Node3 -->
<g id="edge8" class="edge">
<title>Node7&#45;&gt;Node3</title>
<path fill="none" stroke="#63b8ff" d="M532.53,-203.35C471.71,-204.33 389.48,-205.67 328.71,-206.66"/>
<polygon fill="#63b8ff" stroke="#63b8ff" points="328.7,-203.16 318.76,-206.82 328.81,-210.16 328.7,-203.16"/>
</g>
<!-- Node8&#45;&gt;Node3 -->
<g id="edge11" class="edge">
<title>Node8&#45;&gt;Node3</title>
<path fill="none" stroke="#63b8ff" d="M556.15,-143.51C502.14,-132.07 420.72,-121.55 353,-141 322.81,-149.67 292.89,-169.63 272.4,-185.52"/>
<polygon fill="#63b8ff" stroke="#63b8ff" points="270.22,-182.78 264.59,-191.76 274.59,-188.25 270.22,-182.78"/>
</g>
<!-- Node9 -->
<g id="node9" class="node">
<title>Node9</title>
<g id="a_node9"><a xlink:href="classce103__hw3__library__lib_1_1_file_utility.html#a0706a9eaee6532bd3a42dda3579c9158" target="_top" xlink:title=" ">
<polygon fill="white" stroke="#666666" points="873.5,-126 742.5,-126 742.5,-96 873.5,-96 873.5,-126"/>
<text text-anchor="start" x="750.5" y="-114" font-family="Helvetica,sans-Serif" font-size="10.00">ce103_hw3_library_lib.File</text>
<text text-anchor="middle" x="808" y="-103" font-family="Helvetica,sans-Serif" font-size="10.00">Utility.ReadBlock</text>
</a>
</g>
</g>
<!-- Node8&#45;&gt;Node9 -->
<g id="edge10" class="edge">
<title>Node8&#45;&gt;Node9</title>
<path fill="none" stroke="#63b8ff" d="M678.5,-143.55C696.51,-138.99 716.38,-133.95 735.01,-129.24"/>
<polygon fill="#63b8ff" stroke="#63b8ff" points="735.81,-132.64 744.65,-126.79 734.09,-125.86 735.81,-132.64"/>
</g>
<!-- Node10 -->
<g id="node10" class="node">
<title>Node10</title>
<g id="a_node10"><a xlink:href="classce103__hw3__library__lib_1_1_file_utility.html#a3258416645b5a69d8d0eb9ac217b2c20" target="_top" xlink:title=" ">
<polygon fill="white" stroke="#666666" points="873.5,-260 742.5,-260 742.5,-230 873.5,-230 873.5,-260"/>
<text text-anchor="start" x="750.5" y="-248" font-family="Helvetica,sans-Serif" font-size="10.00">ce103_hw3_library_lib.File</text>
<text text-anchor="middle" x="808" y="-237" font-family="Helvetica,sans-Serif" font-size="10.00">Utility.UpdateBlock</text>
</a>
</g>
</g>
<!-- Node8&#45;&gt;Node10 -->
<g id="edge12" class="edge">
<title>Node8&#45;&gt;Node10</title>
<path fill="none" stroke="#63b8ff" d="M677.14,-174.48C684.94,-177.04 692.73,-179.89 700,-183 726.12,-194.17 753.83,-210.36 774.51,-223.4"/>
<polygon fill="#63b8ff" stroke="#63b8ff" points="772.47,-226.25 782.78,-228.69 776.24,-220.35 772.47,-226.25"/>
</g>
<!-- Node11&#45;&gt;Node3 -->
<g id="edge15" class="edge">
<title>Node11&#45;&gt;Node3</title>
<path fill="none" stroke="#63b8ff" d="M563.42,-308.44C507.38,-321.85 417.62,-333.79 353,-296 324.83,-279.52 342.12,-252.83 317,-232 315.87,-231.07 314.71,-230.17 313.51,-229.3"/>
<polygon fill="#63b8ff" stroke="#63b8ff" points="315.43,-226.37 305.07,-224.12 311.76,-232.34 315.43,-226.37"/>
</g>
<!-- Node11&#45;&gt;Node10 -->
<g id="edge16" class="edge">
<title>Node11&#45;&gt;Node10</title>
<path fill="none" stroke="#63b8ff" d="M678.5,-277.55C696.51,-272.99 716.38,-267.95 735.01,-263.24"/>
<polygon fill="#63b8ff" stroke="#63b8ff" points="735.81,-266.64 744.65,-260.79 734.09,-259.86 735.81,-266.64"/>
</g>
<!-- Node12&#45;&gt;Node3 -->
<g id="edge19" class="edge">
<title>Node12&#45;&gt;Node3</title>
<path fill="none" stroke="#63b8ff" d="M547.76,-13.25C491.62,-14.83 411.79,-24.34 353,-61 305.83,-90.41 272.93,-148.91 256.98,-182.57"/>
<polygon fill="#63b8ff" stroke="#63b8ff" points="253.84,-181.03 252.86,-191.58 260.2,-183.94 253.84,-181.03"/>
</g>
<!-- Node12&#45;&gt;Node9 -->
<g id="edge18" class="edge">
<title>Node12&#45;&gt;Node9</title>
<path fill="none" stroke="#63b8ff" d="M678.67,-30.47C685.98,-33 693.24,-35.84 700,-39 728.67,-52.41 758.3,-72.97 779.09,-88.68"/>
<polygon fill="#63b8ff" stroke="#63b8ff" points="776.72,-91.28 786.78,-94.6 780.99,-85.73 776.72,-91.28"/>
</g>
<!-- Node13&#45;&gt;Node3 -->
<g id="edge22" class="edge">
<title>Node13&#45;&gt;Node3</title>
<path fill="none" stroke="#63b8ff" d="M547.77,-104.58C493.42,-101.88 416.05,-103.67 353,-127 319.88,-139.26 288.47,-165.39 268.36,-184.68"/>
<polygon fill="#63b8ff" stroke="#63b8ff" points="265.94,-182.15 261.28,-191.66 270.85,-187.13 265.94,-182.15"/>
</g>
<!-- Node13&#45;&gt;Node9 -->
<g id="edge21" class="edge">
<title>Node13&#45;&gt;Node9</title>
<path fill="none" stroke="#63b8ff" d="M685.38,-111C700.1,-111 715.77,-111 730.8,-111"/>
<polygon fill="#63b8ff" stroke="#63b8ff" points="730.62,-114.5 740.62,-111 730.62,-107.5 730.62,-114.5"/>
</g>
<!-- Node14&#45;&gt;Node3 -->
<g id="edge25" class="edge">
<title>Node14&#45;&gt;Node3</title>
<path fill="none" stroke="#63b8ff" d="M565.86,-260.49C544.84,-266.28 519.95,-272.14 497,-275 433.49,-282.91 410.99,-302.08 353,-275 330.42,-264.45 337.57,-246.07 317,-232 315.23,-230.79 313.39,-229.63 311.5,-228.53"/>
<polygon fill="#63b8ff" stroke="#63b8ff" points="313.54,-225.65 303.05,-224.16 310.33,-231.86 313.54,-225.65"/>
</g>
<!-- Node14&#45;&gt;Node9 -->
<g id="edge24" class="edge">
<title>Node14&#45;&gt;Node9</title>
<path fill="none" stroke="#63b8ff" d="M680.65,-229.5C687.39,-226.79 693.98,-223.64 700,-220 736.65,-197.81 769.65,-160.22 789.02,-135.5"/>
<polygon fill="#63b8ff" stroke="#63b8ff" points="791.76,-137.67 795.07,-127.61 786.21,-133.42 791.76,-137.67"/>
</g>
<!-- Node14&#45;&gt;Node10 -->
<g id="edge26" class="edge">
<title>Node14&#45;&gt;Node10</title>
<path fill="none" stroke="#63b8ff" d="M685.38,-245C700.1,-245 715.77,-245 730.8,-245"/>
<polygon fill="#63b8ff" stroke="#63b8ff" points="730.62,-248.5 740.62,-245 730.62,-241.5 730.62,-248.5"/>
</g>
<!-- Node16 -->
<g id="node16" class="node">
<title>Node16</title>
<g id="a_node16"><a xlink:href="classce103__hw3__library__lib_1_1_menu.html#af4dab9715ef5ee639001951ec8c3d5e2" target="_top" xlink:title=" ">
<polygon fill="white" stroke="#666666" points="879,-413 737,-413 737,-383 879,-383 879,-413"/>
<text text-anchor="start" x="745" y="-401" font-family="Helvetica,sans-Serif" font-size="10.00">ce103_hw3_library_lib.Menu.</text>
<text text-anchor="middle" x="808" y="-390" font-family="Helvetica,sans-Serif" font-size="10.00">DisplayOptions</text>
</a>
</g>
</g>
<!-- Node15&#45;&gt;Node16 -->
<g id="edge28" class="edge">
<title>Node15&#45;&gt;Node16</title>
<path fill="none" stroke="#63b8ff" d="M696.49,-400.92C705.95,-400.67 715.62,-400.41 725.12,-400.16"/>
<polygon fill="#63b8ff" stroke="#63b8ff" points="725.18,-403.66 735.08,-399.9 724.99,-396.66 725.18,-403.66"/>
</g>
<!-- Node17 -->
<g id="node17" class="node">
<title>Node17</title>
<g id="a_node17"><a xlink:href="classce103__hw3__library__lib_1_1library.html#a261e9b866de5ed430c5888e32120a346" target="_top" xlink:title=" ">
<polygon fill="white" stroke="#666666" points="880,-461 736,-461 736,-431 880,-431 880,-461"/>
<text text-anchor="start" x="744" y="-449" font-family="Helvetica,sans-Serif" font-size="10.00">ce103_hw3_library_lib.library.</text>
<text text-anchor="middle" x="808" y="-438" font-family="Helvetica,sans-Serif" font-size="10.00">Start</text>
</a>
</g>
</g>
<!-- Node15&#45;&gt;Node17 -->
<g id="edge29" class="edge">
<title>Node15&#45;&gt;Node17</title>
<path fill="none" stroke="#63b8ff" d="M661.45,-412.97C681.18,-417.45 705.09,-422.87 727.77,-428.02"/>
<polygon fill="#63b8ff" stroke="#63b8ff" points="726.78,-431.39 737.31,-430.19 728.33,-424.56 726.78,-431.39"/>
</g>
<!-- Node17&#45;&gt;Node3 -->
<g id="edge30" class="edge">
<title>Node17&#45;&gt;Node3</title>
<path fill="none" stroke="#63b8ff" d="M736.82,-461.46C637.76,-478.79 457.38,-493.13 353,-397 297.79,-346.15 367.04,-287.94 317,-232 316.54,-231.48 316.07,-230.98 315.58,-230.49"/>
<polygon fill="#63b8ff" stroke="#63b8ff" points="318.05,-227.98 308.09,-224.36 313.62,-233.4 318.05,-227.98"/>
</g>
<!-- Node18&#45;&gt;Node3 -->
<g id="edge34" class="edge">
<title>Node18&#45;&gt;Node3</title>
<path fill="none" stroke="#63b8ff" d="M547.55,-60.88C492.37,-61.83 413.98,-69.4 353,-100 314.3,-119.42 281.26,-158.3 262.52,-183.72"/>
<polygon fill="#63b8ff" stroke="#63b8ff" points="259.92,-181.34 256.94,-191.51 265.61,-185.42 259.92,-181.34"/>
</g>
<!-- Node18&#45;&gt;Node9 -->
<g id="edge33" class="edge">
<title>Node18&#45;&gt;Node9</title>
<path fill="none" stroke="#63b8ff" d="M678.5,-78.45C696.51,-83.01 716.38,-88.05 735.01,-92.76"/>
<polygon fill="#63b8ff" stroke="#63b8ff" points="734.09,-96.14 744.65,-95.21 735.81,-89.36 734.09,-96.14"/>
</g>
</g>
</svg>
        <g id="navigator" transform="translate(0 0)" fill="#404254">
                <rect fill="#f2f5e9" fill-opacity="0.5" stroke="#606060" stroke-width=".5" x="0" y="0" width="60" height="60"/>
                <use id="zoomplus" xlink:href="#zoomPlus" x="17" y="9" onmousedown="handleZoom(evt,'in')"/>
                <use id="zoomminus" xlink:href="#zoomMin" x="42" y="9" onmousedown="handleZoom(evt,'out')"/>
                <use id="reset" xlink:href="#resetDef" x="30" y="36" onmousedown="handleReset()"/>
                <g id="arrowUp" xlink:href="#dirArrow" transform="translate(30 24)" onmousedown="handlePan(0,-1)">
                  <use xlink:href="#rim" fill="#404040">
                        <set attributeName="fill" to="#808080" begin="arrowUp.mouseover" end="arrowUp.mouseout"/>
                  </use>
                  <path fill="none" stroke="white" stroke-width="1.5" d="M0,-3.0v7 M-2.5,-0.5L0,-3.0L2.5,-0.5"/>
                </g>
                <g id="arrowRight" xlink:href="#dirArrow" transform="rotate(90) translate(36 -43)" onmousedown="handlePan(1,0)">
                  <use xlink:href="#rim" fill="#404040">
                        <set attributeName="fill" to="#808080" begin="arrowRight.mouseover" end="arrowRight.mouseout"/>
                  </use>
                  <path fill="none" stroke="white" stroke-width="1.5" d="M0,-3.0v7 M-2.5,-0.5L0,-3.0L2.5,-0.5"/>
                </g>
                <g id="arrowDown" xlink:href="#dirArrow" transform="rotate(180) translate(-30 -48)" onmousedown="handlePan(0,1)">
                  <use xlink:href="#rim" fill="#404040">
                        <set attributeName="fill" to="#808080" begin="arrowDown.mouseover" end="arrowDown.mouseout"/>
                  </use>
                  <path fill="none" stroke="white" stroke-width="1.5" d="M0,-3.0v7 M-2.5,-0.5L0,-3.0L2.5,-0.5"/>
                </g>
                <g id="arrowLeft" xlink:href="#dirArrow" transform="rotate(270) translate(-36 17)" onmousedown="handlePan(-1,0)">
                  <use xlink:href="#rim" fill="#404040">
                        <set attributeName="fill" to="#808080" begin="arrowLeft.mouseover" end="arrowLeft.mouseout"/>
                  </use>
                  <path fill="none" stroke="white" stroke-width="1.5" d="M0,-3.0v7 M-2.5,-0.5L0,-3.0L2.5,-0.5"/>
                </g>
        </g>
        <svg viewBox="0 0 15 15" width="100%" height="30px" preserveAspectRatio="xMaxYMin meet">
         <g id="arrow_out" transform="scale(0.3 0.3)">
          <a xlink:href="classce103__hw3__library__lib_1_1_book_functions_a859f030ca58df3aef0ca202c2df131ab_cgraph_org.svg" target="_base">
           <rect id="button" ry="5" rx="5" y="6" x="6" height="38" width="38"
                fill="#f2f5e9" fill-opacity="0.5" stroke="#606060" stroke-width="1.0"/>
           <path id="arrow"
             d="M 11.500037,31.436501 C 11.940474,20.09759 22.043105,11.32322 32.158766,21.979434 L 37.068811,17.246167 C 37.068811,17.246167 37.088388,32 37.088388,32 L 22.160133,31.978069 C 22.160133,31.978069 26.997745,27.140456 26.997745,27.140456 C 18.528582,18.264221 13.291696,25.230495 11.500037,31.436501 z"
             style="fill:#404040;"/>
          </a>
         </g>
        </svg>
</svg>
