<?xml version="1.0" encoding="UTF-8" standalone="no"?>
<!DOCTYPE svg PUBLIC "-//W3C//DTD SVG 1.1//EN"
 "http://www.w3.org/Graphics/SVG/1.1/DTD/svg11.dtd">
<!-- Generated by graphviz version 7.0.4 (20221203.1631)
 -->
<!-- Title: ce103_hw3_library_lib.FileUtility.UpdateBlock Pages: 1 -->
<!--zoomable 496 -->
<svg id="main" version="1.1" xmlns="http://www.w3.org/2000/svg" xmlns:xlink="http://www.w3.org/1999/xlink" xml:space="preserve" onload="init(evt)">
<style type="text/css"><![CDATA[
.edge:hover path { stroke: red; }
.edge:hover polygon { stroke: red; fill: red; }
]]></style>
<script type="text/javascript"><![CDATA[
var edges = document.getElementsByTagName('g');
if (edges && edges.length) {
  for (var i=0;i<edges.length;i++) {
    if (edges[i].id.substr(0,4)=='edge') {
      edges[i].setAttribute('class','edge');
    }
  }
}
]]></script>
        <defs>
                <circle id="rim" cx="0" cy="0" r="7"/>
                <circle id="rim2" cx="0" cy="0" r="3.5"/>
                <g id="zoomPlus">
                        <use xlink:href="#rim" fill="#404040">
                                <set attributeName="fill" to="#808080" begin="zoomplus.mouseover" end="zoomplus.mouseout"/>
                        </use>
                        <path d="M-4,0h8M0,-4v8" fill="none" stroke="white" stroke-width="1.5" pointer-events="none"/>
                </g>
                <g id="zoomMin">
                        <use xlink:href="#rim" fill="#404040">
                                <set attributeName="fill" to="#808080" begin="zoomminus.mouseover" end="zoomminus.mouseout"/>
                        </use>
                        <path d="M-4,0h8" fill="none" stroke="white" stroke-width="1.5" pointer-events="none"/>
                </g>
                <g id="dirArrow">
                        <path fill="none" stroke="white" stroke-width="1.5" d="M0,-3.0v7 M-2.5,-0.5L0,-3.0L2.5,-0.5"/>
                </g>
               <g id="resetDef">
                       <use xlink:href="#rim2" fill="#404040">
                               <set attributeName="fill" to="#808080" begin="reset.mouseover" end="reset.mouseout"/>
                       </use>
               </g>
        </defs>

<script type="text/javascript">
var viewWidth = 1070;
var viewHeight = 496;
var sectionId = 'dynsection-3';
</script>
<script xlink:href="svgpan.js"/>
<svg id="graph" class="graph">
<g id="viewport">
<title>ce103_hw3_library_lib.FileUtility.UpdateBlock</title>
<!-- Node1 -->
<g id="node1" class="node">
<title>Node1</title>
<g id="a_node1"><a xlink:title=" ">
<polygon fill="#999999" stroke="#666666" points="1062,-269.24 931,-269.24 931,-239.24 1062,-239.24 1062,-269.24"/>
<text text-anchor="start" x="939" y="-257.24" font-family="Helvetica,sans-Serif" font-size="10.00">ce103_hw3_library_lib.File</text>
<text text-anchor="middle" x="996.5" y="-246.24" font-family="Helvetica,sans-Serif" font-size="10.00">Utility.UpdateBlock</text>
</a>
</g>
</g>
<!-- Node2 -->
<g id="node2" class="node">
<title>Node2</title>
<g id="a_node2"><a xlink:href="classce103__hw3__library__lib_1_1_book_functions.html#a4d2ef5095cd896dba0b81ac4a8ca3f11" target="_top" xlink:title=" ">
<polygon fill="white" stroke="#666666" points="895,-269.24 758,-269.24 758,-239.24 895,-239.24 895,-269.24"/>
<text text-anchor="start" x="766" y="-257.24" font-family="Helvetica,sans-Serif" font-size="10.00">ce103_hw3_library_lib.Book</text>
<text text-anchor="middle" x="826.5" y="-246.24" font-family="Helvetica,sans-Serif" font-size="10.00">Functions.BorrowBook</text>
</a>
</g>
</g>
<!-- Node1&#45;&gt;Node2 -->
<g id="edge1" class="edge">
<title>Node1&#45;&gt;Node2</title>
<path fill="none" stroke="#63b8ff" d="M919.05,-254.24C911.14,-254.24 903.14,-254.24 895.34,-254.24"/>
<polygon fill="#63b8ff" stroke="#63b8ff" points="919.03,-257.74 929.03,-254.24 919.03,-250.74 919.03,-257.74"/>
</g>
<!-- Node8 -->
<g id="node8" class="node">
<title>Node8</title>
<g id="a_node8"><a xlink:href="classce103__hw3__library__lib_1_1_book_functions.html#ac536d1aa3a17ba7ce32e8d9ea0cd4950" target="_top" xlink:title=" ">
<polygon fill="white" stroke="#666666" points="347,-488.24 210,-488.24 210,-458.24 347,-458.24 347,-488.24"/>
<text text-anchor="start" x="218" y="-476.24" font-family="Helvetica,sans-Serif" font-size="10.00">ce103_hw3_library_lib.Book</text>
<text text-anchor="middle" x="278.5" y="-465.24" font-family="Helvetica,sans-Serif" font-size="10.00">Functions.EditBook</text>
</a>
</g>
</g>
<!-- Node1&#45;&gt;Node8 -->
<g id="edge28" class="edge">
<title>Node1&#45;&gt;Node8</title>
<path fill="none" stroke="#63b8ff" d="M951.32,-274.16C871.26,-309.53 696.18,-383.6 542,-426.24 476.96,-444.23 400.89,-456.97 347.44,-464.61"/>
<polygon fill="#63b8ff" stroke="#63b8ff" points="952.42,-277.5 960.14,-270.25 949.58,-271.1 952.42,-277.5"/>
</g>
<!-- Node11 -->
<g id="node11" class="node">
<title>Node11</title>
<g id="a_node11"><a xlink:href="classce103__hw3__library__lib_1_1_book_functions.html#af9a659e47a42e3f7ec1a29e280282a51" target="_top" xlink:title=" ">
<polygon fill="white" stroke="#666666" points="347,-38.24 210,-38.24 210,-8.24 347,-8.24 347,-38.24"/>
<text text-anchor="start" x="218" y="-26.24" font-family="Helvetica,sans-Serif" font-size="10.00">ce103_hw3_library_lib.Book</text>
<text text-anchor="middle" x="278.5" y="-15.24" font-family="Helvetica,sans-Serif" font-size="10.00">Functions.ReturnBook</text>
</a>
</g>
</g>
<!-- Node1&#45;&gt;Node11 -->
<g id="edge29" class="edge">
<title>Node1&#45;&gt;Node11</title>
<path fill="none" stroke="#63b8ff" d="M966.85,-232.14C898.24,-180.77 717.13,-54.36 542,-10.24 477.4,6.03 401.11,-0.48 347.47,-9.09"/>
<polygon fill="#63b8ff" stroke="#63b8ff" points="964.48,-234.73 974.57,-237.96 968.69,-229.15 964.48,-234.73"/>
</g>
<!-- Node3 -->
<g id="node3" class="node">
<title>Node3</title>
<g id="a_node3"><a xlink:href="classce103__hw3__library__lib_1_1library.html#a966e08d69fdd5e4d3bf6a12af39bfe14" target="_top" xlink:title=" ">
<polygon fill="white" stroke="#666666" points="722,-248.24 578,-248.24 578,-218.24 722,-218.24 722,-248.24"/>
<text text-anchor="start" x="586" y="-236.24" font-family="Helvetica,sans-Serif" font-size="10.00">ce103_hw3_library_lib.library.</text>
<text text-anchor="middle" x="650" y="-225.24" font-family="Helvetica,sans-Serif" font-size="10.00">BookOption</text>
</a>
</g>
</g>
<!-- Node2&#45;&gt;Node3 -->
<g id="edge2" class="edge">
<title>Node2&#45;&gt;Node3</title>
<path fill="none" stroke="#63b8ff" d="M746.29,-244.71C738.27,-243.74 730.16,-242.77 722.24,-241.81"/>
<polygon fill="#63b8ff" stroke="#63b8ff" points="745.68,-248.16 756.03,-245.88 746.52,-241.21 745.68,-248.16"/>
</g>
<!-- Node4 -->
<g id="node4" class="node">
<title>Node4</title>
<g id="a_node4"><a xlink:href="classce103__hw3__library__lib_1_1library.html#a80f197f4303dd78438ec6055614382da" target="_top" xlink:title=" ">
<polygon fill="white" stroke="#666666" points="542,-291.24 398,-291.24 398,-261.24 542,-261.24 542,-291.24"/>
<text text-anchor="start" x="406" y="-279.24" font-family="Helvetica,sans-Serif" font-size="10.00">ce103_hw3_library_lib.library.</text>
<text text-anchor="middle" x="470" y="-268.24" font-family="Helvetica,sans-Serif" font-size="10.00">RunMainMenu</text>
</a>
</g>
</g>
<!-- Node3&#45;&gt;Node4 -->
<g id="edge3" class="edge">
<title>Node3&#45;&gt;Node4</title>
<path fill="none" stroke="#63b8ff" d="M566.66,-246.4C547.35,-250.97 527.63,-256.06 511.15,-260.79"/>
<polygon fill="#63b8ff" stroke="#63b8ff" points="567.2,-249.87 576.15,-244.2 565.62,-243.05 567.2,-249.87"/>
</g>
<!-- Node4&#45;&gt;Node2 -->
<g id="edge9" class="edge">
<title>Node4&#45;&gt;Node2</title>
<path fill="none" stroke="#63b8ff" d="M553.66,-271.11C615.65,-267.27 699.46,-262.06 757.57,-258.46"/>
<polygon fill="#63b8ff" stroke="#63b8ff" points="553.62,-267.61 543.86,-271.72 554.06,-274.59 553.62,-267.61"/>
</g>
<!-- Node4&#45;&gt;Node3 -->
<g id="edge8" class="edge">
<title>Node4&#45;&gt;Node3</title>
<path fill="none" stroke="#63b8ff" d="M553.33,-263.09C572.71,-258.5 592.53,-253.39 609.05,-248.63"/>
<polygon fill="#63b8ff" stroke="#63b8ff" points="552.73,-259.63 543.78,-265.3 554.32,-266.45 552.73,-259.63"/>
</g>
<!-- Node5 -->
<g id="node5" class="node">
<title>Node5</title>
<g id="a_node5"><a xlink:href="classce103__hw3__library__lib_1_1_book_functions.html#aeb0f4b25699b7ca705f259d228730ef5" target="_top" xlink:title=" ">
<polygon fill="white" stroke="#666666" points="347,-210.24 210,-210.24 210,-180.24 347,-180.24 347,-210.24"/>
<text text-anchor="start" x="218" y="-198.24" font-family="Helvetica,sans-Serif" font-size="10.00">ce103_hw3_library_lib.Book</text>
<text text-anchor="middle" x="278.5" y="-187.24" font-family="Helvetica,sans-Serif" font-size="10.00">Functions.AddBook</text>
</a>
</g>
</g>
<!-- Node4&#45;&gt;Node5 -->
<g id="edge4" class="edge">
<title>Node4&#45;&gt;Node5</title>
<path fill="none" stroke="#63b8ff" d="M433.96,-255.21C413.48,-243.52 386.85,-229.35 362,-219.24 354.4,-216.15 346.26,-213.28 338.16,-210.68"/>
<polygon fill="#63b8ff" stroke="#63b8ff" points="432.05,-258.15 442.46,-260.13 435.56,-252.09 432.05,-258.15"/>
</g>
<!-- Node6 -->
<g id="node6" class="node">
<title>Node6</title>
<g id="a_node6"><a xlink:href="classce103__hw3__library__lib_1_1library.html#a84facf753a1182bffc9b0309adc8dadb" target="_top" xlink:title=" ">
<polygon fill="white" stroke="#666666" points="362,-161.74 195,-161.74 195,-142.74 362,-142.74 362,-161.74"/>
<text text-anchor="middle" x="278.5" y="-149.74" font-family="Helvetica,sans-Serif" font-size="10.00">ce103_hw3_library_lib.library.Back</text>
</a>
</g>
</g>
<!-- Node4&#45;&gt;Node6 -->
<g id="edge6" class="edge">
<title>Node4&#45;&gt;Node6</title>
<path fill="none" stroke="#63b8ff" d="M451.11,-252.16C431.82,-227.96 398.88,-191.44 362,-171.24 355.3,-167.57 347.91,-164.61 340.4,-162.21"/>
<polygon fill="#63b8ff" stroke="#63b8ff" points="448.22,-254.14 457.12,-259.88 453.74,-249.84 448.22,-254.14"/>
</g>
<!-- Node7 -->
<g id="node7" class="node">
<title>Node7</title>
<g id="a_node7"><a xlink:href="classce103__hw3__library__lib_1_1_book_functions.html#a859f030ca58df3aef0ca202c2df131ab" target="_top" xlink:title=" ">
<polygon fill="white" stroke="#666666" points="347,-124.24 210,-124.24 210,-94.24 347,-94.24 347,-124.24"/>
<text text-anchor="start" x="218" y="-112.24" font-family="Helvetica,sans-Serif" font-size="10.00">ce103_hw3_library_lib.Book</text>
<text text-anchor="middle" x="278.5" y="-101.24" font-family="Helvetica,sans-Serif" font-size="10.00">Functions.DeleteBook</text>
</a>
</g>
</g>
<!-- Node4&#45;&gt;Node7 -->
<g id="edge10" class="edge">
<title>Node4&#45;&gt;Node7</title>
<path fill="none" stroke="#63b8ff" d="M456.84,-251.25C439.96,-219.17 406.43,-164.01 362,-133.24 357.22,-129.93 351.98,-127.07 346.53,-124.6"/>
<polygon fill="#63b8ff" stroke="#63b8ff" points="453.55,-252.51 461.22,-259.82 459.79,-249.32 453.55,-252.51"/>
</g>
<!-- Node4&#45;&gt;Node8 -->
<g id="edge12" class="edge">
<title>Node4&#45;&gt;Node8</title>
<path fill="none" stroke="#63b8ff" d="M459.88,-302.25C445.23,-340.25 412.83,-410.6 362,-449.24 357.49,-452.67 352.5,-455.61 347.27,-458.13"/>
<polygon fill="#63b8ff" stroke="#63b8ff" points="463.12,-303.58 463.33,-292.99 456.56,-301.14 463.12,-303.58"/>
</g>
<!-- Node9 -->
<g id="node9" class="node">
<title>Node9</title>
<g id="a_node9"><a xlink:href="classce103__hw3__library__lib_1_1_book_functions.html#ae4b718abfd1ef505ca816bada5a5053f" target="_top" xlink:title=" ">
<polygon fill="white" stroke="#666666" points="347,-440.24 210,-440.24 210,-410.24 347,-410.24 347,-440.24"/>
<text text-anchor="start" x="218" y="-428.24" font-family="Helvetica,sans-Serif" font-size="10.00">ce103_hw3_library_lib.Book</text>
<text text-anchor="middle" x="278.5" y="-417.24" font-family="Helvetica,sans-Serif" font-size="10.00">Functions.ListBook</text>
</a>
</g>
</g>
<!-- Node4&#45;&gt;Node9 -->
<g id="edge14" class="edge">
<title>Node4&#45;&gt;Node9</title>
<path fill="none" stroke="#63b8ff" d="M454.16,-301.01C435.94,-329.34 402.41,-375.17 362,-401.24 356.86,-404.56 351.25,-407.43 345.45,-409.91"/>
<polygon fill="#63b8ff" stroke="#63b8ff" points="457.02,-303.05 459.37,-292.71 451.09,-299.33 457.02,-303.05"/>
</g>
<!-- Node10 -->
<g id="node10" class="node">
<title>Node10</title>
<g id="a_node10"><a xlink:href="classce103__hw3__library__lib_1_1_book_functions.html#abc272bb655ce11abfa5cb33d995132b7" target="_top" xlink:title=" ">
<polygon fill="white" stroke="#666666" points="347,-392.24 210,-392.24 210,-362.24 347,-362.24 347,-392.24"/>
<text text-anchor="start" x="218" y="-380.24" font-family="Helvetica,sans-Serif" font-size="10.00">ce103_hw3_library_lib.Book</text>
<text text-anchor="middle" x="278.5" y="-369.24" font-family="Helvetica,sans-Serif" font-size="10.00">Functions.ListBorrowBook</text>
</a>
</g>
</g>
<!-- Node4&#45;&gt;Node10 -->
<g id="edge16" class="edge">
<title>Node4&#45;&gt;Node10</title>
<path fill="none" stroke="#63b8ff" d="M436.69,-297.97C424.46,-306.34 410.49,-316.09 398,-325.24 381.65,-337.23 380.05,-344.02 362,-353.24 355.76,-356.43 349.02,-359.26 342.19,-361.75"/>
<polygon fill="#63b8ff" stroke="#63b8ff" points="438.52,-300.96 444.81,-292.44 434.58,-295.17 438.52,-300.96"/>
</g>
<!-- Node4&#45;&gt;Node11 -->
<g id="edge18" class="edge">
<title>Node4&#45;&gt;Node11</title>
<path fill="none" stroke="#63b8ff" d="M458.65,-250.37C442.24,-211.54 407.43,-137.2 362,-85.24 345.61,-66.49 322.69,-49.83 305.17,-38.51"/>
<polygon fill="#63b8ff" stroke="#63b8ff" points="455.32,-251.48 462.38,-259.38 461.78,-248.8 455.32,-251.48"/>
</g>
<!-- Node12 -->
<g id="node12" class="node">
<title>Node12</title>
<g id="a_node12"><a xlink:href="classce103__hw3__library__lib_1_1_book_functions.html#a81bb6f1f81a84ca37529ce32a397df10" target="_top" xlink:title=" ">
<polygon fill="white" stroke="#666666" points="347,-258.24 210,-258.24 210,-228.24 347,-228.24 347,-258.24"/>
<text text-anchor="start" x="218" y="-246.24" font-family="Helvetica,sans-Serif" font-size="10.00">ce103_hw3_library_lib.Book</text>
<text text-anchor="middle" x="278.5" y="-235.24" font-family="Helvetica,sans-Serif" font-size="10.00">Functions.SearchBook</text>
</a>
</g>
</g>
<!-- Node4&#45;&gt;Node12 -->
<g id="edge20" class="edge">
<title>Node4&#45;&gt;Node12</title>
<path fill="none" stroke="#63b8ff" d="M386.3,-261.84C373.3,-259.58 359.98,-257.26 347.36,-255.06"/>
<polygon fill="#63b8ff" stroke="#63b8ff" points="385.68,-265.29 396.14,-263.55 386.89,-258.39 385.68,-265.29"/>
</g>
<!-- Node13 -->
<g id="node13" class="node">
<title>Node13</title>
<g id="a_node13"><a xlink:href="classce103__hw3__library__lib_1_1library.html#a261e9b866de5ed430c5888e32120a346" target="_top" xlink:title=" ">
<polygon fill="white" stroke="#666666" points="350.5,-344.24 206.5,-344.24 206.5,-314.24 350.5,-314.24 350.5,-344.24"/>
<text text-anchor="start" x="214.5" y="-332.24" font-family="Helvetica,sans-Serif" font-size="10.00">ce103_hw3_library_lib.library.</text>
<text text-anchor="middle" x="278.5" y="-321.24" font-family="Helvetica,sans-Serif" font-size="10.00">Start</text>
</a>
</g>
</g>
<!-- Node4&#45;&gt;Node13 -->
<g id="edge22" class="edge">
<title>Node4&#45;&gt;Node13</title>
<path fill="none" stroke="#63b8ff" d="M402.68,-294.79C380.54,-300.98 356.11,-307.82 334.89,-313.75"/>
<polygon fill="#63b8ff" stroke="#63b8ff" points="403.53,-298.19 412.22,-292.12 401.65,-291.44 403.53,-298.19"/>
</g>
<!-- Node5&#45;&gt;Node3 -->
<g id="edge5" class="edge">
<title>Node5&#45;&gt;Node3</title>
<path fill="none" stroke="#63b8ff" d="M358.82,-203.4C423.84,-210.09 515.04,-219.47 577.76,-225.92"/>
<polygon fill="#63b8ff" stroke="#63b8ff" points="359.22,-199.92 348.91,-202.38 358.5,-206.89 359.22,-199.92"/>
</g>
<!-- Node6&#45;&gt;Node3 -->
<g id="edge7" class="edge">
<title>Node6&#45;&gt;Node3</title>
<path fill="none" stroke="#63b8ff" d="M346.8,-164.25C400,-174.06 476.02,-188.78 542,-204.24 559.24,-208.28 577.91,-213.16 594.75,-217.76"/>
<polygon fill="#63b8ff" stroke="#63b8ff" points="347.77,-160.87 337.3,-162.51 346.51,-167.75 347.77,-160.87"/>
</g>
<!-- Node7&#45;&gt;Node3 -->
<g id="edge11" class="edge">
<title>Node7&#45;&gt;Node3</title>
<path fill="none" stroke="#63b8ff" d="M358.34,-121.11C411.48,-130.65 482.48,-146.45 542,-170.24 573.43,-182.8 606.55,-203.65 627.47,-217.9"/>
<polygon fill="#63b8ff" stroke="#63b8ff" points="359.23,-117.71 348.77,-119.43 358.02,-124.61 359.23,-117.71"/>
</g>
<!-- Node8&#45;&gt;Node3 -->
<g id="edge13" class="edge">
<title>Node8&#45;&gt;Node3</title>
<path fill="none" stroke="#63b8ff" d="M358.19,-458.13C413.84,-444.43 487.88,-419.85 542,-378.24 589.87,-341.44 626.38,-277.71 641.45,-248.58"/>
<polygon fill="#63b8ff" stroke="#63b8ff" points="357.7,-454.64 348.79,-460.37 359.33,-461.45 357.7,-454.64"/>
</g>
<!-- Node9&#45;&gt;Node3 -->
<g id="edge15" class="edge">
<title>Node9&#45;&gt;Node3</title>
<path fill="none" stroke="#63b8ff" d="M358.32,-408.17C412.71,-394.08 485.17,-370.59 542,-335.24 581.23,-310.84 618.19,-270.33 636.68,-248.42"/>
<polygon fill="#63b8ff" stroke="#63b8ff" points="357.65,-404.73 348.82,-410.58 359.37,-411.52 357.65,-404.73"/>
</g>
<!-- Node10&#45;&gt;Node3 -->
<g id="edge17" class="edge">
<title>Node10&#45;&gt;Node3</title>
<path fill="none" stroke="#63b8ff" d="M343.8,-358.56C349.95,-356.76 356.09,-354.97 362,-353.24 442.04,-329.82 465.95,-334.47 542,-300.24 573.78,-285.94 607.36,-263.56 628.24,-248.65"/>
<polygon fill="#63b8ff" stroke="#63b8ff" points="342.84,-355.19 334.22,-361.35 344.8,-361.91 342.84,-355.19"/>
</g>
<!-- Node11&#45;&gt;Node3 -->
<g id="edge19" class="edge">
<title>Node11&#45;&gt;Node3</title>
<path fill="none" stroke="#63b8ff" d="M358.46,-14.28C414.03,-11.96 487.86,-17.27 542,-52.24 603.94,-92.25 634.75,-181.81 644.99,-217.82"/>
<polygon fill="#63b8ff" stroke="#63b8ff" points="358.56,-10.77 348.76,-14.79 358.93,-17.77 358.56,-10.77"/>
</g>
<!-- Node12&#45;&gt;Node3 -->
<g id="edge21" class="edge">
<title>Node12&#45;&gt;Node3</title>
<path fill="none" stroke="#63b8ff" d="M358.82,-241.1C423.84,-239.34 515.04,-236.87 577.76,-235.17"/>
<polygon fill="#63b8ff" stroke="#63b8ff" points="358.82,-237.59 348.92,-241.36 359.01,-244.59 358.82,-237.59"/>
</g>
<!-- Node14 -->
<g id="node14" class="node">
<title>Node14</title>
<g id="a_node14"><a xlink:href="classce103__hw3__library__lib_1_1_password_content.html#a4c3fd18dd3032675ace132457ebaedba" target="_top" xlink:title=" ">
<polygon fill="white" stroke="#666666" points="158.5,-344.24 0.5,-344.24 0.5,-314.24 158.5,-314.24 158.5,-344.24"/>
<text text-anchor="start" x="8.5" y="-332.24" font-family="Helvetica,sans-Serif" font-size="10.00">ce103_hw3_library_lib.Password</text>
<text text-anchor="middle" x="79.5" y="-321.24" font-family="Helvetica,sans-Serif" font-size="10.00">Content.password</text>
</a>
</g>
</g>
<!-- Node13&#45;&gt;Node14 -->
<g id="edge23" class="edge">
<title>Node13&#45;&gt;Node14</title>
<path fill="none" stroke="#63b8ff" d="M194.84,-329.24C182.96,-329.24 170.77,-329.24 158.98,-329.24"/>
<polygon fill="#63b8ff" stroke="#63b8ff" points="194.59,-332.74 204.59,-329.24 194.59,-325.74 194.59,-332.74"/>
</g>
<!-- Node15 -->
<g id="node15" class="node">
<title>Node15</title>
<g id="a_node15"><a xlink:href="classce103__hw3__library__lib_1_1_menu.html#a83866faf86a98cdc36d517e8ed443534" target="_top" xlink:title=" ">
<polygon fill="white" stroke="#666666" points="159,-295.74 0,-295.74 0,-276.74 159,-276.74 159,-295.74"/>
<text text-anchor="middle" x="79.5" y="-283.74" font-family="Helvetica,sans-Serif" font-size="10.00">ce103_hw3_library_lib.Menu.Run</text>
</a>
</g>
</g>
<!-- Node13&#45;&gt;Node15 -->
<g id="edge25" class="edge">
<title>Node13&#45;&gt;Node15</title>
<path fill="none" stroke="#63b8ff" d="M195.52,-311.35C171.82,-306.17 146.81,-300.72 126.18,-296.21"/>
<polygon fill="#63b8ff" stroke="#63b8ff" points="194.66,-314.74 205.18,-313.46 196.15,-307.9 194.66,-314.74"/>
</g>
<!-- Node14&#45;&gt;Node14 -->
<g id="edge24" class="edge">
<title>Node14&#45;&gt;Node14</title>
<path fill="none" stroke="#63b8ff" d="M113.08,-355.85C107.7,-359.67 96.5,-362.24 79.5,-362.24 48.41,-362.24 36.75,-353.65 44.52,-344.52"/>
<polygon fill="#63b8ff" stroke="#63b8ff" points="116.54,-356.37 114.29,-346.02 109.59,-355.51 116.54,-356.37"/>
</g>
<!-- Node15&#45;&gt;Node3 -->
<g id="edge26" class="edge">
<title>Node15&#45;&gt;Node3</title>
<path fill="none" stroke="#63b8ff" d="M85.11,-265.2C95.79,-222.19 126.74,-124.92 195,-85.24 262.13,-46.22 474.03,-88.7 542,-126.24 584.08,-149.49 620.68,-194.18 638.13,-217.77"/>
<polygon fill="#63b8ff" stroke="#63b8ff" points="81.74,-264.24 82.87,-274.77 88.56,-265.84 81.74,-264.24"/>
</g>
<!-- Node15&#45;&gt;Node4 -->
<g id="edge27" class="edge">
<title>Node15&#45;&gt;Node4</title>
<path fill="none" stroke="#63b8ff" d="M170.63,-283.92C239.74,-282.14 333.83,-279.72 397.74,-278.08"/>
<polygon fill="#63b8ff" stroke="#63b8ff" points="170.74,-280.42 160.84,-284.17 170.92,-287.42 170.74,-280.42"/>
</g>
</g>
</svg>
        <g id="navigator" transform="translate(0 0)" fill="#404254">
                <rect fill="#f2f5e9" fill-opacity="0.5" stroke="#606060" stroke-width=".5" x="0" y="0" width="60" height="60"/>
                <use id="zoomplus" xlink:href="#zoomPlus" x="17" y="9" onmousedown="handleZoom(evt,'in')"/>
                <use id="zoomminus" xlink:href="#zoomMin" x="42" y="9" onmousedown="handleZoom(evt,'out')"/>
                <use id="reset" xlink:href="#resetDef" x="30" y="36" onmousedown="handleReset()"/>
                <g id="arrowUp" xlink:href="#dirArrow" transform="translate(30 24)" onmousedown="handlePan(0,-1)">
                  <use xlink:href="#rim" fill="#404040">
                        <set attributeName="fill" to="#808080" begin="arrowUp.mouseover" end="arrowUp.mouseout"/>
                  </use>
                  <path fill="none" stroke="white" stroke-width="1.5" d="M0,-3.0v7 M-2.5,-0.5L0,-3.0L2.5,-0.5"/>
                </g>
                <g id="arrowRight" xlink:href="#dirArrow" transform="rotate(90) translate(36 -43)" onmousedown="handlePan(1,0)">
                  <use xlink:href="#rim" fill="#404040">
                        <set attributeName="fill" to="#808080" begin="arrowRight.mouseover" end="arrowRight.mouseout"/>
                  </use>
                  <path fill="none" stroke="white" stroke-width="1.5" d="M0,-3.0v7 M-2.5,-0.5L0,-3.0L2.5,-0.5"/>
                </g>
                <g id="arrowDown" xlink:href="#dirArrow" transform="rotate(180) translate(-30 -48)" onmousedown="handlePan(0,1)">
                  <use xlink:href="#rim" fill="#404040">
                        <set attributeName="fill" to="#808080" begin="arrowDown.mouseover" end="arrowDown.mouseout"/>
                  </use>
                  <path fill="none" stroke="white" stroke-width="1.5" d="M0,-3.0v7 M-2.5,-0.5L0,-3.0L2.5,-0.5"/>
                </g>
                <g id="arrowLeft" xlink:href="#dirArrow" transform="rotate(270) translate(-36 17)" onmousedown="handlePan(-1,0)">
                  <use xlink:href="#rim" fill="#404040">
                        <set attributeName="fill" to="#808080" begin="arrowLeft.mouseover" end="arrowLeft.mouseout"/>
                  </use>
                  <path fill="none" stroke="white" stroke-width="1.5" d="M0,-3.0v7 M-2.5,-0.5L0,-3.0L2.5,-0.5"/>
                </g>
        </g>
        <svg viewBox="0 0 15 15" width="100%" height="30px" preserveAspectRatio="xMaxYMin meet">
         <g id="arrow_out" transform="scale(0.3 0.3)">
          <a xlink:href="classce103__hw3__library__lib_1_1_file_utility_a3258416645b5a69d8d0eb9ac217b2c20_icgraph_org.svg" target="_base">
           <rect id="button" ry="5" rx="5" y="6" x="6" height="38" width="38"
                fill="#f2f5e9" fill-opacity="0.5" stroke="#606060" stroke-width="1.0"/>
           <path id="arrow"
             d="M 11.500037,31.436501 C 11.940474,20.09759 22.043105,11.32322 32.158766,21.979434 L 37.068811,17.246167 C 37.068811,17.246167 37.088388,32 37.088388,32 L 22.160133,31.978069 C 22.160133,31.978069 26.997745,27.140456 26.997745,27.140456 C 18.528582,18.264221 13.291696,25.230495 11.500037,31.436501 z"
             style="fill:#404040;"/>
          </a>
         </g>
        </svg>
</svg>
