<?xml version="1.0" encoding="UTF-8" standalone="no"?>
<!DOCTYPE svg PUBLIC "-//W3C//DTD SVG 1.1//EN"
 "http://www.w3.org/Graphics/SVG/1.1/DTD/svg11.dtd">
<!-- Generated by graphviz version 7.0.4 (20221203.1631)
 -->
<!-- Title: ce103_hw3_library_lib.library.BookOption Pages: 1 -->
<svg width="910pt" height="521pt"
 viewBox="0.00 0.00 910.00 520.79" xmlns="http://www.w3.org/2000/svg" xmlns:xlink="http://www.w3.org/1999/xlink">
<g id="graph0" class="graph" transform="scale(1 1) rotate(0) translate(4 516.79)">
<title>ce103_hw3_library_lib.library.BookOption</title>
<!-- Node1 -->
<g id="node1" class="node">
<title>Node1</title>
<g id="a_node1"><a xlink:title=" ">
<polygon fill="#999999" stroke="#666666" points="144,-298.79 0,-298.79 0,-268.79 144,-268.79 144,-298.79"/>
<text text-anchor="start" x="8" y="-286.79" font-family="Helvetica,sans-Serif" font-size="10.00">ce103_hw3_library_lib.library.</text>
<text text-anchor="middle" x="72" y="-275.79" font-family="Helvetica,sans-Serif" font-size="10.00">BookOption</text>
</a>
</g>
</g>
<!-- Node2 -->
<g id="node2" class="node">
<title>Node2</title>
<g id="a_node2"><a xlink:href="classce103__hw3__library__lib_1_1_book_functions.html#aeb0f4b25699b7ca705f259d228730ef5" target="_top" xlink:title=" ">
<polygon fill="white" stroke="#666666" points="332,-512.79 195,-512.79 195,-482.79 332,-482.79 332,-512.79"/>
<text text-anchor="start" x="203" y="-500.79" font-family="Helvetica,sans-Serif" font-size="10.00">ce103_hw3_library_lib.Book</text>
<text text-anchor="middle" x="263.5" y="-489.79" font-family="Helvetica,sans-Serif" font-size="10.00">Functions.AddBook</text>
</a>
</g>
</g>
<!-- Node1&#45;&gt;Node2 -->
<g id="edge1" class="edge">
<title>Node1&#45;&gt;Node2</title>
<path fill="none" stroke="#63b8ff" d="M77.28,-299.24C88.1,-335.44 120.08,-426.27 180,-473.79 181.53,-475 183.11,-476.15 184.75,-477.24"/>
<polygon fill="#63b8ff" stroke="#63b8ff" points="182.85,-480.18 193.26,-482.13 186.33,-474.11 182.85,-480.18"/>
</g>
<!-- Node4 -->
<g id="node4" class="node">
<title>Node4</title>
<g id="a_node4"><a xlink:href="classce103__hw3__library__lib_1_1library.html#a80f197f4303dd78438ec6055614382da" target="_top" xlink:title=" ">
<polygon fill="white" stroke="#666666" points="527,-298.79 383,-298.79 383,-268.79 527,-268.79 527,-298.79"/>
<text text-anchor="start" x="391" y="-286.79" font-family="Helvetica,sans-Serif" font-size="10.00">ce103_hw3_library_lib.library.</text>
<text text-anchor="middle" x="455" y="-275.79" font-family="Helvetica,sans-Serif" font-size="10.00">RunMainMenu</text>
</a>
</g>
</g>
<!-- Node1&#45;&gt;Node4 -->
<g id="edge33" class="edge">
<title>Node1&#45;&gt;Node4</title>
<path fill="none" stroke="#63b8ff" d="M114.8,-299.25C134.02,-308.06 157.5,-317.97 180,-322.79 252.58,-338.32 274.42,-338.32 347,-322.79 365.63,-318.8 384.94,-311.31 401.94,-303.86"/>
<polygon fill="#63b8ff" stroke="#63b8ff" points="403.13,-307.16 410.82,-299.87 400.26,-300.78 403.13,-307.16"/>
</g>
<!-- Node6 -->
<g id="node6" class="node">
<title>Node6</title>
<g id="a_node6"><a xlink:href="classce103__hw3__library__lib_1_1_menu.html#a83866faf86a98cdc36d517e8ed443534" target="_top" xlink:title=" ">
<polygon fill="white" stroke="#666666" points="722,-228.29 563,-228.29 563,-209.29 722,-209.29 722,-228.29"/>
<text text-anchor="middle" x="642.5" y="-216.29" font-family="Helvetica,sans-Serif" font-size="10.00">ce103_hw3_library_lib.Menu.Run</text>
</a>
</g>
</g>
<!-- Node1&#45;&gt;Node6 -->
<g id="edge32" class="edge">
<title>Node1&#45;&gt;Node6</title>
<path fill="none" stroke="#63b8ff" d="M74.34,-268.38C79.12,-224.03 99.64,-95.94 180,-43.79 310.59,40.98 394.18,-10.56 527,-91.79 572.81,-119.8 611.05,-171.64 629.55,-199.64"/>
<polygon fill="#63b8ff" stroke="#63b8ff" points="626.47,-201.32 634.82,-207.83 632.35,-197.53 626.47,-201.32"/>
</g>
<!-- Node9 -->
<g id="node9" class="node">
<title>Node9</title>
<g id="a_node9"><a xlink:href="classce103__hw3__library__lib_1_1library.html#a84facf753a1182bffc9b0309adc8dadb" target="_top" xlink:title=" ">
<polygon fill="white" stroke="#666666" points="347,-416.29 180,-416.29 180,-397.29 347,-397.29 347,-416.29"/>
<text text-anchor="middle" x="263.5" y="-404.29" font-family="Helvetica,sans-Serif" font-size="10.00">ce103_hw3_library_lib.library.Back</text>
</a>
</g>
</g>
<!-- Node1&#45;&gt;Node9 -->
<g id="edge10" class="edge">
<title>Node1&#45;&gt;Node9</title>
<path fill="none" stroke="#63b8ff" d="M85.52,-299.21C103.97,-320.97 140.57,-360.48 180,-382.79 187.31,-386.92 195.4,-390.4 203.57,-393.31"/>
<polygon fill="#63b8ff" stroke="#63b8ff" points="202.26,-396.57 212.86,-396.35 204.44,-389.91 202.26,-396.57"/>
</g>
<!-- Node10 -->
<g id="node10" class="node">
<title>Node10</title>
<g id="a_node10"><a xlink:href="classce103__hw3__library__lib_1_1_book_functions.html#a4d2ef5095cd896dba0b81ac4a8ca3f11" target="_top" xlink:title=" ">
<polygon fill="white" stroke="#666666" points="332,-178.79 195,-178.79 195,-148.79 332,-148.79 332,-178.79"/>
<text text-anchor="start" x="203" y="-166.79" font-family="Helvetica,sans-Serif" font-size="10.00">ce103_hw3_library_lib.Book</text>
<text text-anchor="middle" x="263.5" y="-155.79" font-family="Helvetica,sans-Serif" font-size="10.00">Functions.BorrowBook</text>
</a>
</g>
</g>
<!-- Node1&#45;&gt;Node10 -->
<g id="edge12" class="edge">
<title>Node1&#45;&gt;Node10</title>
<path fill="none" stroke="#63b8ff" d="M85.93,-268.49C104.61,-247.35 141.17,-209.36 180,-187.79 182.66,-186.31 185.42,-184.92 188.24,-183.6"/>
<polygon fill="#63b8ff" stroke="#63b8ff" points="189.47,-186.88 197.32,-179.77 186.74,-180.44 189.47,-186.88"/>
</g>
<!-- Node13 -->
<g id="node13" class="node">
<title>Node13</title>
<g id="a_node13"><a xlink:href="classce103__hw3__library__lib_1_1_book_functions.html#a859f030ca58df3aef0ca202c2df131ab" target="_top" xlink:title=" ">
<polygon fill="white" stroke="#666666" points="332,-464.79 195,-464.79 195,-434.79 332,-434.79 332,-464.79"/>
<text text-anchor="start" x="203" y="-452.79" font-family="Helvetica,sans-Serif" font-size="10.00">ce103_hw3_library_lib.Book</text>
<text text-anchor="middle" x="263.5" y="-441.79" font-family="Helvetica,sans-Serif" font-size="10.00">Functions.DeleteBook</text>
</a>
</g>
</g>
<!-- Node1&#45;&gt;Node13 -->
<g id="edge16" class="edge">
<title>Node1&#45;&gt;Node13</title>
<path fill="none" stroke="#63b8ff" d="M80.34,-299.21C95.05,-328.42 130.97,-391.95 180,-425.79 181.8,-427.03 183.66,-428.2 185.57,-429.32"/>
<polygon fill="#63b8ff" stroke="#63b8ff" points="183.64,-432.26 194.14,-433.72 186.84,-426.04 183.64,-432.26"/>
</g>
<!-- Node15 -->
<g id="node15" class="node">
<title>Node15</title>
<g id="a_node15"><a xlink:href="classce103__hw3__library__lib_1_1_book_functions.html#ac536d1aa3a17ba7ce32e8d9ea0cd4950" target="_top" xlink:title=" ">
<polygon fill="white" stroke="#666666" points="332,-130.79 195,-130.79 195,-100.79 332,-100.79 332,-130.79"/>
<text text-anchor="start" x="203" y="-118.79" font-family="Helvetica,sans-Serif" font-size="10.00">ce103_hw3_library_lib.Book</text>
<text text-anchor="middle" x="263.5" y="-107.79" font-family="Helvetica,sans-Serif" font-size="10.00">Functions.EditBook</text>
</a>
</g>
</g>
<!-- Node1&#45;&gt;Node15 -->
<g id="edge19" class="edge">
<title>Node1&#45;&gt;Node15</title>
<path fill="none" stroke="#63b8ff" d="M80.06,-268.61C94.52,-239.19 130.39,-174.27 180,-139.79 181.79,-138.54 183.65,-137.36 185.55,-136.24"/>
<polygon fill="#63b8ff" stroke="#63b8ff" points="186.83,-139.52 194.11,-131.82 183.62,-133.3 186.83,-139.52"/>
</g>
<!-- Node16 -->
<g id="node16" class="node">
<title>Node16</title>
<g id="a_node16"><a xlink:href="classce103__hw3__library__lib_1_1_book_functions.html#ae4b718abfd1ef505ca816bada5a5053f" target="_top" xlink:title=" ">
<polygon fill="white" stroke="#666666" points="332,-322.79 195,-322.79 195,-292.79 332,-292.79 332,-322.79"/>
<text text-anchor="start" x="203" y="-310.79" font-family="Helvetica,sans-Serif" font-size="10.00">ce103_hw3_library_lib.Book</text>
<text text-anchor="middle" x="263.5" y="-299.79" font-family="Helvetica,sans-Serif" font-size="10.00">Functions.ListBook</text>
</a>
</g>
</g>
<!-- Node1&#45;&gt;Node16 -->
<g id="edge22" class="edge">
<title>Node1&#45;&gt;Node16</title>
<path fill="none" stroke="#63b8ff" d="M144.37,-292.83C157.11,-294.44 170.45,-296.13 183.39,-297.77"/>
<polygon fill="#63b8ff" stroke="#63b8ff" points="182.78,-301.22 193.14,-299 183.66,-294.27 182.78,-301.22"/>
</g>
<!-- Node17 -->
<g id="node17" class="node">
<title>Node17</title>
<g id="a_node17"><a xlink:href="classce103__hw3__library__lib_1_1_book_functions.html#abc272bb655ce11abfa5cb33d995132b7" target="_top" xlink:title=" ">
<polygon fill="white" stroke="#666666" points="332,-274.79 195,-274.79 195,-244.79 332,-244.79 332,-274.79"/>
<text text-anchor="start" x="203" y="-262.79" font-family="Helvetica,sans-Serif" font-size="10.00">ce103_hw3_library_lib.Book</text>
<text text-anchor="middle" x="263.5" y="-251.79" font-family="Helvetica,sans-Serif" font-size="10.00">Functions.ListBorrowBook</text>
</a>
</g>
</g>
<!-- Node1&#45;&gt;Node17 -->
<g id="edge25" class="edge">
<title>Node1&#45;&gt;Node17</title>
<path fill="none" stroke="#63b8ff" d="M144.37,-274.75C157.11,-273.13 170.45,-271.44 183.39,-269.81"/>
<polygon fill="#63b8ff" stroke="#63b8ff" points="183.66,-273.3 193.14,-268.57 182.78,-266.36 183.66,-273.3"/>
</g>
<!-- Node18 -->
<g id="node18" class="node">
<title>Node18</title>
<g id="a_node18"><a xlink:href="classce103__hw3__library__lib_1_1_book_functions.html#af9a659e47a42e3f7ec1a29e280282a51" target="_top" xlink:title=" ">
<polygon fill="white" stroke="#666666" points="332,-82.79 195,-82.79 195,-52.79 332,-52.79 332,-82.79"/>
<text text-anchor="start" x="203" y="-70.79" font-family="Helvetica,sans-Serif" font-size="10.00">ce103_hw3_library_lib.Book</text>
<text text-anchor="middle" x="263.5" y="-59.79" font-family="Helvetica,sans-Serif" font-size="10.00">Functions.ReturnBook</text>
</a>
</g>
</g>
<!-- Node1&#45;&gt;Node18 -->
<g id="edge28" class="edge">
<title>Node1&#45;&gt;Node18</title>
<path fill="none" stroke="#63b8ff" d="M77.15,-268.44C87.79,-232.05 119.56,-139.94 180,-91.79 181.52,-90.57 183.11,-89.42 184.74,-88.33"/>
<polygon fill="#63b8ff" stroke="#63b8ff" points="186.33,-91.45 193.25,-83.43 182.83,-85.38 186.33,-91.45"/>
</g>
<!-- Node19 -->
<g id="node19" class="node">
<title>Node19</title>
<g id="a_node19"><a xlink:href="classce103__hw3__library__lib_1_1_book_functions.html#a81bb6f1f81a84ca37529ce32a397df10" target="_top" xlink:title=" ">
<polygon fill="white" stroke="#666666" points="332,-226.79 195,-226.79 195,-196.79 332,-196.79 332,-226.79"/>
<text text-anchor="start" x="203" y="-214.79" font-family="Helvetica,sans-Serif" font-size="10.00">ce103_hw3_library_lib.Book</text>
<text text-anchor="middle" x="263.5" y="-203.79" font-family="Helvetica,sans-Serif" font-size="10.00">Functions.SearchBook</text>
</a>
</g>
</g>
<!-- Node1&#45;&gt;Node19 -->
<g id="edge34" class="edge">
<title>Node1&#45;&gt;Node19</title>
<path fill="none" stroke="#63b8ff" d="M104.36,-268.33C125.44,-258.29 154.01,-245.34 180,-235.79 184.9,-233.98 190.01,-232.22 195.17,-230.53"/>
<polygon fill="#63b8ff" stroke="#63b8ff" points="195.89,-233.98 204.36,-227.61 193.77,-227.31 195.89,-233.98"/>
</g>
<!-- Node3 -->
<g id="node3" class="node">
<title>Node3</title>
<g id="a_node3"><a xlink:href="classce103__hw3__library__lib_1_1_file_utility.html#a6b9ef5a028f3e26107779e0a3f300aef" target="_top" xlink:title=" ">
<polygon fill="white" stroke="#666666" points="520.5,-512.79 389.5,-512.79 389.5,-482.79 520.5,-482.79 520.5,-512.79"/>
<text text-anchor="start" x="397.5" y="-500.79" font-family="Helvetica,sans-Serif" font-size="10.00">ce103_hw3_library_lib.File</text>
<text text-anchor="middle" x="455" y="-489.79" font-family="Helvetica,sans-Serif" font-size="10.00">Utility.AppendBlock</text>
</a>
</g>
</g>
<!-- Node2&#45;&gt;Node3 -->
<g id="edge2" class="edge">
<title>Node2&#45;&gt;Node3</title>
<path fill="none" stroke="#63b8ff" d="M332.38,-497.79C347.1,-497.79 362.77,-497.79 377.8,-497.79"/>
<polygon fill="#63b8ff" stroke="#63b8ff" points="377.62,-501.29 387.62,-497.79 377.62,-494.29 377.62,-501.29"/>
</g>
<!-- Node2&#45;&gt;Node4 -->
<g id="edge3" class="edge">
<title>Node2&#45;&gt;Node4</title>
<path fill="none" stroke="#63b8ff" d="M332.42,-482.88C337.62,-480.31 342.56,-477.31 347,-473.79 361.44,-462.33 415.85,-358.33 441.04,-309.23"/>
<polygon fill="#63b8ff" stroke="#63b8ff" points="444.1,-310.94 445.54,-300.44 437.87,-307.75 444.1,-310.94"/>
</g>
<!-- Node4&#45;&gt;Node1 -->
<g id="edge4" class="edge">
<title>Node4&#45;&gt;Node1</title>
<path fill="none" stroke="#63b8ff" d="M439.11,-299.05C419.05,-313.64 381.84,-333.33 347,-340.79 274.42,-356.32 252.58,-356.32 180,-340.79 150.06,-334.38 118.37,-318.93 97.32,-305.46"/>
<polygon fill="#63b8ff" stroke="#63b8ff" points="99.38,-302.63 89.15,-299.9 95.45,-308.42 99.38,-302.63"/>
</g>
<!-- Node5 -->
<g id="node5" class="node">
<title>Node5</title>
<g id="a_node5"><a xlink:href="classce103__hw3__library__lib_1_1library.html#a754cac172f3b071c7eea3f07777aac68" target="_top" xlink:title=" ">
<polygon fill="white" stroke="#666666" points="714.5,-276.79 570.5,-276.79 570.5,-246.79 714.5,-246.79 714.5,-276.79"/>
<text text-anchor="start" x="578.5" y="-264.79" font-family="Helvetica,sans-Serif" font-size="10.00">ce103_hw3_library_lib.library.</text>
<text text-anchor="middle" x="642.5" y="-253.79" font-family="Helvetica,sans-Serif" font-size="10.00">ExitApp</text>
</a>
</g>
</g>
<!-- Node4&#45;&gt;Node5 -->
<g id="edge5" class="edge">
<title>Node4&#45;&gt;Node5</title>
<path fill="none" stroke="#63b8ff" d="M527.45,-275.31C537.72,-274.1 548.36,-272.83 558.82,-271.59"/>
<polygon fill="#63b8ff" stroke="#63b8ff" points="559.06,-275.09 568.58,-270.44 558.24,-268.14 559.06,-275.09"/>
</g>
<!-- Node4&#45;&gt;Node6 -->
<g id="edge6" class="edge">
<title>Node4&#45;&gt;Node6</title>
<path fill="none" stroke="#63b8ff" d="M487.76,-268.46C508.76,-258.74 537.1,-246.42 563,-237.79 569.63,-235.58 576.66,-233.5 583.68,-231.6"/>
<polygon fill="#63b8ff" stroke="#63b8ff" points="584.38,-235.04 593.18,-229.14 582.62,-228.26 584.38,-235.04"/>
</g>
<!-- Node7 -->
<g id="node7" class="node">
<title>Node7</title>
<g id="a_node7"><a xlink:href="classce103__hw3__library__lib_1_1_menu.html#af4dab9715ef5ee639001951ec8c3d5e2" target="_top" xlink:title=" ">
<polygon fill="white" stroke="#666666" points="901,-233.79 759,-233.79 759,-203.79 901,-203.79 901,-233.79"/>
<text text-anchor="start" x="767" y="-221.79" font-family="Helvetica,sans-Serif" font-size="10.00">ce103_hw3_library_lib.Menu.</text>
<text text-anchor="middle" x="830" y="-210.79" font-family="Helvetica,sans-Serif" font-size="10.00">DisplayOptions</text>
</a>
</g>
</g>
<!-- Node6&#45;&gt;Node7 -->
<g id="edge7" class="edge">
<title>Node6&#45;&gt;Node7</title>
<path fill="none" stroke="#63b8ff" d="M722.44,-218.79C730.61,-218.79 738.94,-218.79 747.15,-218.79"/>
<polygon fill="#63b8ff" stroke="#63b8ff" points="747.13,-222.29 757.13,-218.79 747.13,-215.29 747.13,-222.29"/>
</g>
<!-- Node8 -->
<g id="node8" class="node">
<title>Node8</title>
<g id="a_node8"><a xlink:href="classce103__hw3__library__lib_1_1library.html#a261e9b866de5ed430c5888e32120a346" target="_top" xlink:title=" ">
<polygon fill="white" stroke="#666666" points="902,-300.79 758,-300.79 758,-270.79 902,-270.79 902,-300.79"/>
<text text-anchor="start" x="766" y="-288.79" font-family="Helvetica,sans-Serif" font-size="10.00">ce103_hw3_library_lib.library.</text>
<text text-anchor="middle" x="830" y="-277.79" font-family="Helvetica,sans-Serif" font-size="10.00">Start</text>
</a>
</g>
</g>
<!-- Node6&#45;&gt;Node8 -->
<g id="edge8" class="edge">
<title>Node6&#45;&gt;Node8</title>
<path fill="none" stroke="#63b8ff" d="M690.81,-228.75C701.19,-231.34 712.05,-234.38 722,-237.79 744.53,-245.5 768.82,-256.18 788.54,-265.51"/>
<polygon fill="#63b8ff" stroke="#63b8ff" points="786.81,-268.56 797.34,-269.74 789.84,-262.25 786.81,-268.56"/>
</g>
<!-- Node8&#45;&gt;Node4 -->
<g id="edge9" class="edge">
<title>Node8&#45;&gt;Node4</title>
<path fill="none" stroke="#63b8ff" d="M757.59,-286.15C704.03,-286.33 628.92,-286.4 563,-285.79 555.17,-285.71 547.02,-285.61 538.86,-285.49"/>
<polygon fill="#63b8ff" stroke="#63b8ff" points="538.93,-281.99 528.88,-285.33 538.82,-288.99 538.93,-281.99"/>
</g>
<!-- Node9&#45;&gt;Node4 -->
<g id="edge11" class="edge">
<title>Node9&#45;&gt;Node4</title>
<path fill="none" stroke="#63b8ff" d="M312.71,-396.82C324.36,-393.32 336.48,-388.74 347,-382.79 381.65,-363.18 414.13,-330.28 434.01,-307.84"/>
<polygon fill="#63b8ff" stroke="#63b8ff" points="436.59,-310.21 440.49,-300.36 431.3,-305.62 436.59,-310.21"/>
</g>
<!-- Node10&#45;&gt;Node4 -->
<g id="edge14" class="edge">
<title>Node10&#45;&gt;Node4</title>
<path fill="none" stroke="#63b8ff" d="M331.53,-179.15C336.97,-181.62 342.22,-184.48 347,-187.79 368.93,-202.96 363.69,-217.4 383,-235.79 393.27,-245.57 405.74,-254.72 417.34,-262.35"/>
<polygon fill="#63b8ff" stroke="#63b8ff" points="415.22,-265.15 425.54,-267.58 418.98,-259.25 415.22,-265.15"/>
</g>
<!-- Node11 -->
<g id="node11" class="node">
<title>Node11</title>
<g id="a_node11"><a xlink:href="classce103__hw3__library__lib_1_1_file_utility.html#a0706a9eaee6532bd3a42dda3579c9158" target="_top" xlink:title=" ">
<polygon fill="white" stroke="#666666" points="520.5,-226.79 389.5,-226.79 389.5,-196.79 520.5,-196.79 520.5,-226.79"/>
<text text-anchor="start" x="397.5" y="-214.79" font-family="Helvetica,sans-Serif" font-size="10.00">ce103_hw3_library_lib.File</text>
<text text-anchor="middle" x="455" y="-203.79" font-family="Helvetica,sans-Serif" font-size="10.00">Utility.ReadBlock</text>
</a>
</g>
</g>
<!-- Node10&#45;&gt;Node11 -->
<g id="edge13" class="edge">
<title>Node10&#45;&gt;Node11</title>
<path fill="none" stroke="#63b8ff" d="M325.5,-179.24C343.51,-183.8 363.38,-188.83 382.01,-193.55"/>
<polygon fill="#63b8ff" stroke="#63b8ff" points="381.09,-196.93 391.65,-195.99 382.81,-190.14 381.09,-196.93"/>
</g>
<!-- Node12 -->
<g id="node12" class="node">
<title>Node12</title>
<g id="a_node12"><a xlink:href="classce103__hw3__library__lib_1_1_file_utility.html#a3258416645b5a69d8d0eb9ac217b2c20" target="_top" xlink:title=" ">
<polygon fill="white" stroke="#666666" points="520.5,-130.79 389.5,-130.79 389.5,-100.79 520.5,-100.79 520.5,-130.79"/>
<text text-anchor="start" x="397.5" y="-118.79" font-family="Helvetica,sans-Serif" font-size="10.00">ce103_hw3_library_lib.File</text>
<text text-anchor="middle" x="455" y="-107.79" font-family="Helvetica,sans-Serif" font-size="10.00">Utility.UpdateBlock</text>
</a>
</g>
</g>
<!-- Node10&#45;&gt;Node12 -->
<g id="edge15" class="edge">
<title>Node10&#45;&gt;Node12</title>
<path fill="none" stroke="#63b8ff" d="M325.5,-148.34C343.51,-143.77 363.38,-138.74 382.01,-134.02"/>
<polygon fill="#63b8ff" stroke="#63b8ff" points="382.81,-137.43 391.65,-131.58 381.09,-130.64 382.81,-137.43"/>
</g>
<!-- Node13&#45;&gt;Node4 -->
<g id="edge18" class="edge">
<title>Node13&#45;&gt;Node4</title>
<path fill="none" stroke="#63b8ff" d="M331.52,-434.41C336.97,-431.95 342.21,-429.09 347,-425.79 391.05,-395.39 424.52,-341.02 441.53,-309.1"/>
<polygon fill="#63b8ff" stroke="#63b8ff" points="444.47,-311.04 445.96,-300.55 438.25,-307.82 444.47,-311.04"/>
</g>
<!-- Node14 -->
<g id="node14" class="node">
<title>Node14</title>
<g id="a_node14"><a xlink:href="classce103__hw3__library__lib_1_1_file_utility.html#ad1233745f44f8159d86b0692c3a24b21" target="_top" xlink:title=" ">
<polygon fill="white" stroke="#666666" points="520.5,-464.79 389.5,-464.79 389.5,-434.79 520.5,-434.79 520.5,-464.79"/>
<text text-anchor="start" x="397.5" y="-452.79" font-family="Helvetica,sans-Serif" font-size="10.00">ce103_hw3_library_lib.File</text>
<text text-anchor="middle" x="455" y="-441.79" font-family="Helvetica,sans-Serif" font-size="10.00">Utility.DeleteBlock</text>
</a>
</g>
</g>
<!-- Node13&#45;&gt;Node14 -->
<g id="edge17" class="edge">
<title>Node13&#45;&gt;Node14</title>
<path fill="none" stroke="#63b8ff" d="M332.38,-449.79C347.1,-449.79 362.77,-449.79 377.8,-449.79"/>
<polygon fill="#63b8ff" stroke="#63b8ff" points="377.62,-453.29 387.62,-449.79 377.62,-446.29 377.62,-453.29"/>
</g>
<!-- Node15&#45;&gt;Node4 -->
<g id="edge20" class="edge">
<title>Node15&#45;&gt;Node4</title>
<path fill="none" stroke="#63b8ff" d="M332.24,-129.55C337.6,-132.36 342.62,-135.73 347,-139.79 380.42,-170.77 354.79,-200 383,-235.79 391.19,-246.18 402.26,-255.15 413.22,-262.42"/>
<polygon fill="#63b8ff" stroke="#63b8ff" points="411.13,-265.24 421.47,-267.57 414.84,-259.3 411.13,-265.24"/>
</g>
<!-- Node15&#45;&gt;Node12 -->
<g id="edge21" class="edge">
<title>Node15&#45;&gt;Node12</title>
<path fill="none" stroke="#63b8ff" d="M332.38,-115.79C347.1,-115.79 362.77,-115.79 377.8,-115.79"/>
<polygon fill="#63b8ff" stroke="#63b8ff" points="377.62,-119.29 387.62,-115.79 377.62,-112.29 377.62,-119.29"/>
</g>
<!-- Node16&#45;&gt;Node4 -->
<g id="edge24" class="edge">
<title>Node16&#45;&gt;Node4</title>
<path fill="none" stroke="#63b8ff" d="M332.38,-299.19C345.03,-297.59 358.37,-295.9 371.41,-294.25"/>
<polygon fill="#63b8ff" stroke="#63b8ff" points="371.77,-297.73 381.26,-293 370.89,-290.78 371.77,-297.73"/>
</g>
<!-- Node16&#45;&gt;Node11 -->
<g id="edge23" class="edge">
<title>Node16&#45;&gt;Node11</title>
<path fill="none" stroke="#63b8ff" d="M325.67,-292.32C332.98,-289.79 340.24,-286.95 347,-283.79 348.03,-283.31 390.72,-254.52 421.86,-233.5"/>
<polygon fill="#63b8ff" stroke="#63b8ff" points="423.51,-236.61 429.84,-228.11 419.59,-230.81 423.51,-236.61"/>
</g>
<!-- Node17&#45;&gt;Node4 -->
<g id="edge27" class="edge">
<title>Node17&#45;&gt;Node4</title>
<path fill="none" stroke="#63b8ff" d="M332.38,-268.38C345.03,-269.99 358.37,-271.68 371.41,-273.33"/>
<polygon fill="#63b8ff" stroke="#63b8ff" points="370.89,-276.79 381.26,-274.57 371.77,-269.85 370.89,-276.79"/>
</g>
<!-- Node17&#45;&gt;Node11 -->
<g id="edge26" class="edge">
<title>Node17&#45;&gt;Node11</title>
<path fill="none" stroke="#63b8ff" d="M325.5,-244.34C343.51,-239.77 363.38,-234.74 382.01,-230.02"/>
<polygon fill="#63b8ff" stroke="#63b8ff" points="382.81,-233.43 391.65,-227.58 381.09,-226.64 382.81,-233.43"/>
</g>
<!-- Node18&#45;&gt;Node4 -->
<g id="edge30" class="edge">
<title>Node18&#45;&gt;Node4</title>
<path fill="none" stroke="#63b8ff" d="M332.35,-80.81C337.76,-83.77 342.76,-87.38 347,-91.79 392.75,-139.32 345.17,-181.74 383,-235.79 390.38,-246.33 400.88,-255.23 411.55,-262.4"/>
<polygon fill="#63b8ff" stroke="#63b8ff" points="409.69,-265.36 420.03,-267.68 413.39,-259.42 409.69,-265.36"/>
</g>
<!-- Node18&#45;&gt;Node11 -->
<g id="edge29" class="edge">
<title>Node18&#45;&gt;Node11</title>
<path fill="none" stroke="#63b8ff" d="M331.53,-83.15C336.97,-85.62 342.22,-88.48 347,-91.79 368.93,-106.96 365.6,-119.58 383,-139.79 397.61,-156.75 415.28,-174.68 429.34,-188.41"/>
<polygon fill="#63b8ff" stroke="#63b8ff" points="426.86,-190.87 436.48,-195.31 431.73,-185.84 426.86,-190.87"/>
</g>
<!-- Node18&#45;&gt;Node12 -->
<g id="edge31" class="edge">
<title>Node18&#45;&gt;Node12</title>
<path fill="none" stroke="#63b8ff" d="M325.5,-83.24C343.51,-87.8 363.38,-92.83 382.01,-97.55"/>
<polygon fill="#63b8ff" stroke="#63b8ff" points="381.09,-100.93 391.65,-99.99 382.81,-94.14 381.09,-100.93"/>
</g>
<!-- Node19&#45;&gt;Node4 -->
<g id="edge36" class="edge">
<title>Node19&#45;&gt;Node4</title>
<path fill="none" stroke="#63b8ff" d="M321.2,-227.15C329.91,-229.84 338.74,-232.75 347,-235.79 368.93,-243.85 392.7,-254.33 412.25,-263.44"/>
<polygon fill="#63b8ff" stroke="#63b8ff" points="410.73,-266.59 421.27,-267.69 413.72,-260.26 410.73,-266.59"/>
</g>
<!-- Node19&#45;&gt;Node11 -->
<g id="edge35" class="edge">
<title>Node19&#45;&gt;Node11</title>
<path fill="none" stroke="#63b8ff" d="M332.38,-211.79C347.1,-211.79 362.77,-211.79 377.8,-211.79"/>
<polygon fill="#63b8ff" stroke="#63b8ff" points="377.62,-215.29 387.62,-211.79 377.62,-208.29 377.62,-215.29"/>
</g>
</g>
</svg>
