<?xml version="1.0" encoding="UTF-8" standalone="no"?>
<!DOCTYPE svg PUBLIC "-//W3C//DTD SVG 1.1//EN"
 "http://www.w3.org/Graphics/SVG/1.1/DTD/svg11.dtd">
<!-- Generated by graphviz version 7.0.4 (20221203.1631)
 -->
<!-- Title: ce103_hw3_library_lib.Menu.Run Pages: 1 -->
<svg width="1077pt" height="419pt"
 viewBox="0.00 0.00 1077.00 419.00" xmlns="http://www.w3.org/2000/svg" xmlns:xlink="http://www.w3.org/1999/xlink">
<g id="graph0" class="graph" transform="scale(1 1) rotate(0) translate(4 415)">
<title>ce103_hw3_library_lib.Menu.Run</title>
<!-- Node1 -->
<g id="node1" class="node">
<title>Node1</title>
<g id="a_node1"><a xlink:title=" ">
<polygon fill="#999999" stroke="#666666" points="159,-227.5 0,-227.5 0,-208.5 159,-208.5 159,-227.5"/>
<text text-anchor="middle" x="79.5" y="-215.5" font-family="Helvetica,sans-Serif" font-size="10.00">ce103_hw3_library_lib.Menu.Run</text>
</a>
</g>
</g>
<!-- Node2 -->
<g id="node2" class="node">
<title>Node2</title>
<g id="a_node2"><a xlink:href="classce103__hw3__library__lib_1_1_menu.html#af4dab9715ef5ee639001951ec8c3d5e2" target="_top" xlink:title=" ">
<polygon fill="white" stroke="#666666" points="338,-298 196,-298 196,-268 338,-268 338,-298"/>
<text text-anchor="start" x="204" y="-286" font-family="Helvetica,sans-Serif" font-size="10.00">ce103_hw3_library_lib.Menu.</text>
<text text-anchor="middle" x="267" y="-275" font-family="Helvetica,sans-Serif" font-size="10.00">DisplayOptions</text>
</a>
</g>
</g>
<!-- Node1&#45;&gt;Node2 -->
<g id="edge1" class="edge">
<title>Node1&#45;&gt;Node2</title>
<path fill="none" stroke="#63b8ff" d="M108.67,-227.87C135.84,-237.39 177.67,-252.05 211.37,-263.86"/>
<polygon fill="#63b8ff" stroke="#63b8ff" points="209.97,-267.08 220.57,-267.08 212.29,-260.47 209.97,-267.08"/>
</g>
<!-- Node3 -->
<g id="node3" class="node">
<title>Node3</title>
<g id="a_node3"><a xlink:href="classce103__hw3__library__lib_1_1library.html#a261e9b866de5ed430c5888e32120a346" target="_top" xlink:title=" ">
<polygon fill="white" stroke="#666666" points="339,-212 195,-212 195,-182 339,-182 339,-212"/>
<text text-anchor="start" x="203" y="-200" font-family="Helvetica,sans-Serif" font-size="10.00">ce103_hw3_library_lib.library.</text>
<text text-anchor="middle" x="267" y="-189" font-family="Helvetica,sans-Serif" font-size="10.00">Start</text>
</a>
</g>
</g>
<!-- Node1&#45;&gt;Node3 -->
<g id="edge2" class="edge">
<title>Node1&#45;&gt;Node3</title>
<path fill="none" stroke="#63b8ff" d="M159.44,-209.06C167.41,-208.16 175.53,-207.24 183.54,-206.34"/>
<polygon fill="#63b8ff" stroke="#63b8ff" points="183.73,-209.84 193.27,-205.23 182.94,-202.88 183.73,-209.84"/>
</g>
<!-- Node4 -->
<g id="node4" class="node">
<title>Node4</title>
<g id="a_node4"><a xlink:href="classce103__hw3__library__lib_1_1library.html#a80f197f4303dd78438ec6055614382da" target="_top" xlink:title=" ">
<polygon fill="white" stroke="#666666" points="519,-212 375,-212 375,-182 519,-182 519,-212"/>
<text text-anchor="start" x="383" y="-200" font-family="Helvetica,sans-Serif" font-size="10.00">ce103_hw3_library_lib.library.</text>
<text text-anchor="middle" x="447" y="-189" font-family="Helvetica,sans-Serif" font-size="10.00">RunMainMenu</text>
</a>
</g>
</g>
<!-- Node3&#45;&gt;Node4 -->
<g id="edge3" class="edge">
<title>Node3&#45;&gt;Node4</title>
<path fill="none" stroke="#63b8ff" d="M339.37,-197C347.26,-197 355.34,-197 363.36,-197"/>
<polygon fill="#63b8ff" stroke="#63b8ff" points="363.1,-200.5 373.1,-197 363.1,-193.5 363.1,-200.5"/>
</g>
<!-- Node4&#45;&gt;Node1 -->
<g id="edge36" class="edge">
<title>Node4&#45;&gt;Node1</title>
<path fill="none" stroke="#63b8ff" d="M387.81,-181.5C372.08,-177.99 354.99,-174.77 339,-173 275.39,-165.95 257.88,-161.09 195,-173 164.7,-178.74 132.16,-192.32 109.54,-203.07"/>
<polygon fill="#63b8ff" stroke="#63b8ff" points="108.1,-199.88 100.65,-207.41 111.17,-206.17 108.1,-199.88"/>
</g>
<!-- Node5 -->
<g id="node5" class="node">
<title>Node5</title>
<g id="a_node5"><a xlink:href="classce103__hw3__library__lib_1_1library.html#a966e08d69fdd5e4d3bf6a12af39bfe14" target="_top" xlink:title=" ">
<polygon fill="white" stroke="#666666" points="699,-255 555,-255 555,-225 699,-225 699,-255"/>
<text text-anchor="start" x="563" y="-243" font-family="Helvetica,sans-Serif" font-size="10.00">ce103_hw3_library_lib.library.</text>
<text text-anchor="middle" x="627" y="-232" font-family="Helvetica,sans-Serif" font-size="10.00">BookOption</text>
</a>
</g>
</g>
<!-- Node4&#45;&gt;Node5 -->
<g id="edge4" class="edge">
<title>Node4&#45;&gt;Node5</title>
<path fill="none" stroke="#63b8ff" d="M519.37,-207.61C537.94,-211.84 557.57,-216.74 574.86,-221.47"/>
<polygon fill="#63b8ff" stroke="#63b8ff" points="573.82,-224.81 584.39,-224.14 575.71,-218.07 573.82,-224.81"/>
</g>
<!-- Node19 -->
<g id="node19" class="node">
<title>Node19</title>
<g id="a_node19"><a xlink:href="classce103__hw3__library__lib_1_1library.html#a754cac172f3b071c7eea3f07777aac68" target="_top" xlink:title=" ">
<polygon fill="white" stroke="#666666" points="699,-131 555,-131 555,-101 699,-101 699,-131"/>
<text text-anchor="start" x="563" y="-119" font-family="Helvetica,sans-Serif" font-size="10.00">ce103_hw3_library_lib.library.</text>
<text text-anchor="middle" x="627" y="-108" font-family="Helvetica,sans-Serif" font-size="10.00">ExitApp</text>
</a>
</g>
</g>
<!-- Node4&#45;&gt;Node19 -->
<g id="edge35" class="edge">
<title>Node4&#45;&gt;Node19</title>
<path fill="none" stroke="#63b8ff" d="M478.19,-181.68C499.49,-171.03 528.79,-156.71 555,-145 561.94,-141.9 569.32,-138.74 576.6,-135.7"/>
<polygon fill="#63b8ff" stroke="#63b8ff" points="577.81,-138.98 585.72,-131.93 575.14,-132.51 577.81,-138.98"/>
</g>
<!-- Node5&#45;&gt;Node1 -->
<g id="edge30" class="edge">
<title>Node5&#45;&gt;Node1</title>
<path fill="none" stroke="#63b8ff" d="M554.67,-237.12C456.13,-233.15 278.37,-225.98 170.72,-221.64"/>
<polygon fill="#63b8ff" stroke="#63b8ff" points="170.88,-218.14 160.75,-221.24 170.6,-225.14 170.88,-218.14"/>
</g>
<!-- Node5&#45;&gt;Node4 -->
<g id="edge31" class="edge">
<title>Node5&#45;&gt;Node4</title>
<path fill="none" stroke="#63b8ff" d="M554.69,-229.4C536.04,-225.16 516.32,-220.24 498.97,-215.48"/>
<polygon fill="#63b8ff" stroke="#63b8ff" points="499.98,-212.13 489.4,-212.8 498.09,-218.87 499.98,-212.13"/>
</g>
<!-- Node6 -->
<g id="node6" class="node">
<title>Node6</title>
<g id="a_node6"><a xlink:href="classce103__hw3__library__lib_1_1_book_functions.html#aeb0f4b25699b7ca705f259d228730ef5" target="_top" xlink:title=" ">
<polygon fill="white" stroke="#666666" points="887,-411 750,-411 750,-381 887,-381 887,-411"/>
<text text-anchor="start" x="758" y="-399" font-family="Helvetica,sans-Serif" font-size="10.00">ce103_hw3_library_lib.Book</text>
<text text-anchor="middle" x="818.5" y="-388" font-family="Helvetica,sans-Serif" font-size="10.00">Functions.AddBook</text>
</a>
</g>
</g>
<!-- Node5&#45;&gt;Node6 -->
<g id="edge5" class="edge">
<title>Node5&#45;&gt;Node6</title>
<path fill="none" stroke="#63b8ff" d="M636.42,-255.44C652.16,-282.83 688.64,-339.96 735,-371 737.39,-372.6 739.89,-374.11 742.47,-375.52"/>
<polygon fill="#63b8ff" stroke="#63b8ff" points="740.85,-378.62 751.37,-379.84 743.9,-372.32 740.85,-378.62"/>
</g>
<!-- Node8 -->
<g id="node8" class="node">
<title>Node8</title>
<g id="a_node8"><a xlink:href="classce103__hw3__library__lib_1_1library.html#a84facf753a1182bffc9b0309adc8dadb" target="_top" xlink:title=" ">
<polygon fill="white" stroke="#666666" points="902,-361.5 735,-361.5 735,-342.5 902,-342.5 902,-361.5"/>
<text text-anchor="middle" x="818.5" y="-349.5" font-family="Helvetica,sans-Serif" font-size="10.00">ce103_hw3_library_lib.library.Back</text>
</a>
</g>
</g>
<!-- Node5&#45;&gt;Node8 -->
<g id="edge8" class="edge">
<title>Node5&#45;&gt;Node8</title>
<path fill="none" stroke="#63b8ff" d="M641.65,-255.33C660.6,-275.67 696.87,-311.29 735,-331 740.72,-333.96 746.88,-336.51 753.17,-338.72"/>
<polygon fill="#63b8ff" stroke="#63b8ff" points="751.78,-341.96 762.37,-341.66 753.91,-335.29 751.78,-341.96"/>
</g>
<!-- Node9 -->
<g id="node9" class="node">
<title>Node9</title>
<g id="a_node9"><a xlink:href="classce103__hw3__library__lib_1_1_book_functions.html#a4d2ef5095cd896dba0b81ac4a8ca3f11" target="_top" xlink:title=" ">
<polygon fill="white" stroke="#666666" points="887,-126 750,-126 750,-96 887,-96 887,-126"/>
<text text-anchor="start" x="758" y="-114" font-family="Helvetica,sans-Serif" font-size="10.00">ce103_hw3_library_lib.Book</text>
<text text-anchor="middle" x="818.5" y="-103" font-family="Helvetica,sans-Serif" font-size="10.00">Functions.BorrowBook</text>
</a>
</g>
</g>
<!-- Node5&#45;&gt;Node9 -->
<g id="edge10" class="edge">
<title>Node5&#45;&gt;Node9</title>
<path fill="none" stroke="#63b8ff" d="M639.41,-224.75C657.28,-201.9 694.12,-158.93 735,-135 737.34,-133.63 739.75,-132.34 742.23,-131.12"/>
<polygon fill="#63b8ff" stroke="#63b8ff" points="743.6,-134.34 751.31,-127.08 740.75,-127.94 743.6,-134.34"/>
</g>
<!-- Node12 -->
<g id="node12" class="node">
<title>Node12</title>
<g id="a_node12"><a xlink:href="classce103__hw3__library__lib_1_1_book_functions.html#a859f030ca58df3aef0ca202c2df131ab" target="_top" xlink:title=" ">
<polygon fill="white" stroke="#666666" points="887,-322 750,-322 750,-292 887,-292 887,-322"/>
<text text-anchor="start" x="758" y="-310" font-family="Helvetica,sans-Serif" font-size="10.00">ce103_hw3_library_lib.Book</text>
<text text-anchor="middle" x="818.5" y="-299" font-family="Helvetica,sans-Serif" font-size="10.00">Functions.DeleteBook</text>
</a>
</g>
</g>
<!-- Node5&#45;&gt;Node12 -->
<g id="edge14" class="edge">
<title>Node5&#45;&gt;Node12</title>
<path fill="none" stroke="#63b8ff" d="M669.85,-255.5C689.57,-262.74 713.46,-271.42 735,-279 743.33,-281.93 752.14,-284.98 760.8,-287.94"/>
<polygon fill="#63b8ff" stroke="#63b8ff" points="759.59,-291.23 770.19,-291.14 761.85,-284.6 759.59,-291.23"/>
</g>
<!-- Node14 -->
<g id="node14" class="node">
<title>Node14</title>
<g id="a_node14"><a xlink:href="classce103__hw3__library__lib_1_1_book_functions.html#ac536d1aa3a17ba7ce32e8d9ea0cd4950" target="_top" xlink:title=" ">
<polygon fill="white" stroke="#666666" points="887,-30 750,-30 750,0 887,0 887,-30"/>
<text text-anchor="start" x="758" y="-18" font-family="Helvetica,sans-Serif" font-size="10.00">ce103_hw3_library_lib.Book</text>
<text text-anchor="middle" x="818.5" y="-7" font-family="Helvetica,sans-Serif" font-size="10.00">Functions.EditBook</text>
</a>
</g>
</g>
<!-- Node5&#45;&gt;Node14 -->
<g id="edge17" class="edge">
<title>Node5&#45;&gt;Node14</title>
<path fill="none" stroke="#63b8ff" d="M641,-224.6C656.46,-205.67 682.29,-172.11 699,-140 721,-97.73 700.32,-71.68 735,-39 736.63,-37.47 738.35,-36.03 740.15,-34.68"/>
<polygon fill="#63b8ff" stroke="#63b8ff" points="741.8,-37.78 748.41,-29.49 738.08,-31.85 741.8,-37.78"/>
</g>
<!-- Node15 -->
<g id="node15" class="node">
<title>Node15</title>
<g id="a_node15"><a xlink:href="classce103__hw3__library__lib_1_1_book_functions.html#ae4b718abfd1ef505ca816bada5a5053f" target="_top" xlink:title=" ">
<polygon fill="white" stroke="#666666" points="887,-174 750,-174 750,-144 887,-144 887,-174"/>
<text text-anchor="start" x="758" y="-162" font-family="Helvetica,sans-Serif" font-size="10.00">ce103_hw3_library_lib.Book</text>
<text text-anchor="middle" x="818.5" y="-151" font-family="Helvetica,sans-Serif" font-size="10.00">Functions.ListBook</text>
</a>
</g>
</g>
<!-- Node5&#45;&gt;Node15 -->
<g id="edge20" class="edge">
<title>Node5&#45;&gt;Node15</title>
<path fill="none" stroke="#63b8ff" d="M653.23,-224.64C674.47,-212.19 705.95,-194.82 735,-183 739.27,-181.26 743.72,-179.59 748.24,-178"/>
<polygon fill="#63b8ff" stroke="#63b8ff" points="749.04,-181.42 757.41,-174.92 746.81,-174.79 749.04,-181.42"/>
</g>
<!-- Node16 -->
<g id="node16" class="node">
<title>Node16</title>
<g id="a_node16"><a xlink:href="classce103__hw3__library__lib_1_1_book_functions.html#abc272bb655ce11abfa5cb33d995132b7" target="_top" xlink:title=" ">
<polygon fill="white" stroke="#666666" points="887,-270 750,-270 750,-240 887,-240 887,-270"/>
<text text-anchor="start" x="758" y="-258" font-family="Helvetica,sans-Serif" font-size="10.00">ce103_hw3_library_lib.Book</text>
<text text-anchor="middle" x="818.5" y="-247" font-family="Helvetica,sans-Serif" font-size="10.00">Functions.ListBorrowBook</text>
</a>
</g>
</g>
<!-- Node5&#45;&gt;Node16 -->
<g id="edge23" class="edge">
<title>Node5&#45;&gt;Node16</title>
<path fill="none" stroke="#63b8ff" d="M699.37,-245.65C712.11,-246.66 725.45,-247.71 738.39,-248.74"/>
<polygon fill="#63b8ff" stroke="#63b8ff" points="737.88,-252.21 748.13,-249.51 738.44,-245.23 737.88,-252.21"/>
</g>
<!-- Node17 -->
<g id="node17" class="node">
<title>Node17</title>
<g id="a_node17"><a xlink:href="classce103__hw3__library__lib_1_1_book_functions.html#af9a659e47a42e3f7ec1a29e280282a51" target="_top" xlink:title=" ">
<polygon fill="white" stroke="#666666" points="887,-78 750,-78 750,-48 887,-48 887,-78"/>
<text text-anchor="start" x="758" y="-66" font-family="Helvetica,sans-Serif" font-size="10.00">ce103_hw3_library_lib.Book</text>
<text text-anchor="middle" x="818.5" y="-55" font-family="Helvetica,sans-Serif" font-size="10.00">Functions.ReturnBook</text>
</a>
</g>
</g>
<!-- Node5&#45;&gt;Node17 -->
<g id="edge26" class="edge">
<title>Node5&#45;&gt;Node17</title>
<path fill="none" stroke="#63b8ff" d="M638.92,-224.82C652.95,-205.29 677.99,-170.25 699,-140 715.24,-116.61 711.97,-103.74 735,-87 736.58,-85.85 738.21,-84.76 739.88,-83.72"/>
<polygon fill="#63b8ff" stroke="#63b8ff" points="741.42,-86.87 748.56,-79.04 738.09,-80.71 741.42,-86.87"/>
</g>
<!-- Node18 -->
<g id="node18" class="node">
<title>Node18</title>
<g id="a_node18"><a xlink:href="classce103__hw3__library__lib_1_1_book_functions.html#a81bb6f1f81a84ca37529ce32a397df10" target="_top" xlink:title=" ">
<polygon fill="white" stroke="#666666" points="887,-222 750,-222 750,-192 887,-192 887,-222"/>
<text text-anchor="start" x="758" y="-210" font-family="Helvetica,sans-Serif" font-size="10.00">ce103_hw3_library_lib.Book</text>
<text text-anchor="middle" x="818.5" y="-199" font-family="Helvetica,sans-Serif" font-size="10.00">Functions.SearchBook</text>
</a>
</g>
</g>
<!-- Node5&#45;&gt;Node18 -->
<g id="edge32" class="edge">
<title>Node5&#45;&gt;Node18</title>
<path fill="none" stroke="#63b8ff" d="M699.37,-227.57C712.11,-225.35 725.45,-223.03 738.39,-220.78"/>
<polygon fill="#63b8ff" stroke="#63b8ff" points="738.9,-224.24 748.15,-219.08 737.7,-217.34 738.9,-224.24"/>
</g>
<!-- Node6&#45;&gt;Node4 -->
<g id="edge7" class="edge">
<title>Node6&#45;&gt;Node4</title>
<path fill="none" stroke="#63b8ff" d="M749.68,-395.92C693.49,-392.89 613.63,-381.46 555,-344 508.4,-314.22 475.47,-256.36 459.32,-222.79"/>
<polygon fill="#63b8ff" stroke="#63b8ff" points="462.53,-221.38 455.13,-213.79 456.18,-224.33 462.53,-221.38"/>
</g>
<!-- Node7 -->
<g id="node7" class="node">
<title>Node7</title>
<g id="a_node7"><a xlink:href="classce103__hw3__library__lib_1_1_file_utility.html#a6b9ef5a028f3e26107779e0a3f300aef" target="_top" xlink:title=" ">
<polygon fill="white" stroke="#666666" points="1069,-411 938,-411 938,-381 1069,-381 1069,-411"/>
<text text-anchor="start" x="946" y="-399" font-family="Helvetica,sans-Serif" font-size="10.00">ce103_hw3_library_lib.File</text>
<text text-anchor="middle" x="1003.5" y="-388" font-family="Helvetica,sans-Serif" font-size="10.00">Utility.AppendBlock</text>
</a>
</g>
</g>
<!-- Node6&#45;&gt;Node7 -->
<g id="edge6" class="edge">
<title>Node6&#45;&gt;Node7</title>
<path fill="none" stroke="#63b8ff" d="M887.38,-396C900.13,-396 913.53,-396 926.5,-396"/>
<polygon fill="#63b8ff" stroke="#63b8ff" points="926.25,-399.5 936.25,-396 926.25,-392.5 926.25,-399.5"/>
</g>
<!-- Node8&#45;&gt;Node4 -->
<g id="edge9" class="edge">
<title>Node8&#45;&gt;Node4</title>
<path fill="none" stroke="#63b8ff" d="M734.5,-352.7C680.57,-349.97 610.26,-340.19 555,-311 515.2,-289.98 482.07,-248.36 463.66,-221.65"/>
<polygon fill="#63b8ff" stroke="#63b8ff" points="466.66,-219.83 458.19,-213.47 460.84,-223.73 466.66,-219.83"/>
</g>
<!-- Node9&#45;&gt;Node4 -->
<g id="edge12" class="edge">
<title>Node9&#45;&gt;Node4</title>
<path fill="none" stroke="#63b8ff" d="M749.73,-98.23C733.2,-95.65 715.51,-93.32 699,-92 635.2,-86.92 614.24,-67.79 555,-92 515.44,-108.17 482.61,-146.79 464.15,-172.42"/>
<polygon fill="#63b8ff" stroke="#63b8ff" points="461.29,-170.4 458.44,-180.61 467.03,-174.4 461.29,-170.4"/>
</g>
<!-- Node10 -->
<g id="node10" class="node">
<title>Node10</title>
<g id="a_node10"><a xlink:href="classce103__hw3__library__lib_1_1_file_utility.html#a0706a9eaee6532bd3a42dda3579c9158" target="_top" xlink:title=" ">
<polygon fill="white" stroke="#666666" points="1069,-174 938,-174 938,-144 1069,-144 1069,-174"/>
<text text-anchor="start" x="946" y="-162" font-family="Helvetica,sans-Serif" font-size="10.00">ce103_hw3_library_lib.File</text>
<text text-anchor="middle" x="1003.5" y="-151" font-family="Helvetica,sans-Serif" font-size="10.00">Utility.ReadBlock</text>
</a>
</g>
</g>
<!-- Node9&#45;&gt;Node10 -->
<g id="edge11" class="edge">
<title>Node9&#45;&gt;Node10</title>
<path fill="none" stroke="#63b8ff" d="M878.41,-126.45C895.72,-130.99 914.81,-136 932.72,-140.7"/>
<polygon fill="#63b8ff" stroke="#63b8ff" points="931.68,-144.04 942.24,-143.19 933.45,-137.27 931.68,-144.04"/>
</g>
<!-- Node11 -->
<g id="node11" class="node">
<title>Node11</title>
<g id="a_node11"><a xlink:href="classce103__hw3__library__lib_1_1_file_utility.html#a3258416645b5a69d8d0eb9ac217b2c20" target="_top" xlink:title=" ">
<polygon fill="white" stroke="#666666" points="1069,-78 938,-78 938,-48 1069,-48 1069,-78"/>
<text text-anchor="start" x="946" y="-66" font-family="Helvetica,sans-Serif" font-size="10.00">ce103_hw3_library_lib.File</text>
<text text-anchor="middle" x="1003.5" y="-55" font-family="Helvetica,sans-Serif" font-size="10.00">Utility.UpdateBlock</text>
</a>
</g>
</g>
<!-- Node9&#45;&gt;Node11 -->
<g id="edge13" class="edge">
<title>Node9&#45;&gt;Node11</title>
<path fill="none" stroke="#63b8ff" d="M878.41,-95.55C895.72,-91.01 914.81,-86 932.72,-81.3"/>
<polygon fill="#63b8ff" stroke="#63b8ff" points="933.45,-84.73 942.24,-78.81 931.68,-77.96 933.45,-84.73"/>
</g>
<!-- Node12&#45;&gt;Node4 -->
<g id="edge16" class="edge">
<title>Node12&#45;&gt;Node4</title>
<path fill="none" stroke="#63b8ff" d="M749.71,-311.77C695.15,-313.12 617.54,-309.34 555,-284 520.63,-270.07 488.69,-241.16 468.81,-220.48"/>
<polygon fill="#63b8ff" stroke="#63b8ff" points="471.48,-218.21 462.09,-213.3 466.37,-222.99 471.48,-218.21"/>
</g>
<!-- Node13 -->
<g id="node13" class="node">
<title>Node13</title>
<g id="a_node13"><a xlink:href="classce103__hw3__library__lib_1_1_file_utility.html#ad1233745f44f8159d86b0692c3a24b21" target="_top" xlink:title=" ">
<polygon fill="white" stroke="#666666" points="1069,-322 938,-322 938,-292 1069,-292 1069,-322"/>
<text text-anchor="start" x="946" y="-310" font-family="Helvetica,sans-Serif" font-size="10.00">ce103_hw3_library_lib.File</text>
<text text-anchor="middle" x="1003.5" y="-299" font-family="Helvetica,sans-Serif" font-size="10.00">Utility.DeleteBlock</text>
</a>
</g>
</g>
<!-- Node12&#45;&gt;Node13 -->
<g id="edge15" class="edge">
<title>Node12&#45;&gt;Node13</title>
<path fill="none" stroke="#63b8ff" d="M887.38,-307C900.13,-307 913.53,-307 926.5,-307"/>
<polygon fill="#63b8ff" stroke="#63b8ff" points="926.25,-310.5 936.25,-307 926.25,-303.5 926.25,-310.5"/>
</g>
<!-- Node14&#45;&gt;Node4 -->
<g id="edge18" class="edge">
<title>Node14&#45;&gt;Node4</title>
<path fill="none" stroke="#63b8ff" d="M749.64,-8.8C693.61,-6.91 614,-11.93 555,-47 506.12,-76.05 473.53,-137.08 458.18,-171.67"/>
<polygon fill="#63b8ff" stroke="#63b8ff" points="455.11,-169.94 454.39,-180.51 461.55,-172.69 455.11,-169.94"/>
</g>
<!-- Node14&#45;&gt;Node11 -->
<g id="edge19" class="edge">
<title>Node14&#45;&gt;Node11</title>
<path fill="none" stroke="#63b8ff" d="M878.41,-30.45C895.72,-34.99 914.81,-40 932.72,-44.7"/>
<polygon fill="#63b8ff" stroke="#63b8ff" points="931.68,-48.04 942.24,-47.19 933.45,-41.27 931.68,-48.04"/>
</g>
<!-- Node15&#45;&gt;Node4 -->
<g id="edge22" class="edge">
<title>Node15&#45;&gt;Node4</title>
<path fill="none" stroke="#63b8ff" d="M749.59,-165.98C687.79,-172.34 596.4,-181.74 530.43,-188.52"/>
<polygon fill="#63b8ff" stroke="#63b8ff" points="530.34,-185.01 520.75,-189.52 531.05,-191.98 530.34,-185.01"/>
</g>
<!-- Node15&#45;&gt;Node10 -->
<g id="edge21" class="edge">
<title>Node15&#45;&gt;Node10</title>
<path fill="none" stroke="#63b8ff" d="M887.38,-159C900.13,-159 913.53,-159 926.5,-159"/>
<polygon fill="#63b8ff" stroke="#63b8ff" points="926.25,-162.5 936.25,-159 926.25,-155.5 926.25,-162.5"/>
</g>
<!-- Node16&#45;&gt;Node4 -->
<g id="edge25" class="edge">
<title>Node16&#45;&gt;Node4</title>
<path fill="none" stroke="#63b8ff" d="M749.75,-268.65C695.89,-276.83 619.21,-282.44 555,-264 524.81,-255.33 494.89,-235.37 474.4,-219.48"/>
<polygon fill="#63b8ff" stroke="#63b8ff" points="476.59,-216.75 466.59,-213.24 472.22,-222.22 476.59,-216.75"/>
</g>
<!-- Node16&#45;&gt;Node10 -->
<g id="edge24" class="edge">
<title>Node16&#45;&gt;Node10</title>
<path fill="none" stroke="#63b8ff" d="M881.19,-239.57C888.35,-237.05 895.43,-234.19 902,-231 929.21,-217.78 956.92,-197.29 976.33,-181.55"/>
<polygon fill="#63b8ff" stroke="#63b8ff" points="978.51,-184.29 983.99,-175.22 974.05,-178.89 978.51,-184.29"/>
</g>
<!-- Node17&#45;&gt;Node4 -->
<g id="edge28" class="edge">
<title>Node17&#45;&gt;Node4</title>
<path fill="none" stroke="#63b8ff" d="M749.55,-52.78C694.37,-47.64 615.98,-47.7 555,-77 512.43,-97.46 479.38,-143.3 461.87,-172.03"/>
<polygon fill="#63b8ff" stroke="#63b8ff" points="458.97,-170.07 456.91,-180.46 465,-173.62 458.97,-170.07"/>
</g>
<!-- Node17&#45;&gt;Node10 -->
<g id="edge27" class="edge">
<title>Node17&#45;&gt;Node10</title>
<path fill="none" stroke="#63b8ff" d="M881.19,-78.43C888.35,-80.95 895.43,-83.81 902,-87 929.21,-100.22 956.92,-120.71 976.33,-136.45"/>
<polygon fill="#63b8ff" stroke="#63b8ff" points="974.05,-139.11 983.99,-142.78 978.51,-133.71 974.05,-139.11"/>
</g>
<!-- Node17&#45;&gt;Node11 -->
<g id="edge29" class="edge">
<title>Node17&#45;&gt;Node11</title>
<path fill="none" stroke="#63b8ff" d="M887.38,-63C900.13,-63 913.53,-63 926.5,-63"/>
<polygon fill="#63b8ff" stroke="#63b8ff" points="926.25,-66.5 936.25,-63 926.25,-59.5 926.25,-66.5"/>
</g>
<!-- Node18&#45;&gt;Node4 -->
<g id="edge34" class="edge">
<title>Node18&#45;&gt;Node4</title>
<path fill="none" stroke="#63b8ff" d="M749.59,-205.16C687.79,-203.49 596.4,-201.02 530.43,-199.23"/>
<polygon fill="#63b8ff" stroke="#63b8ff" points="530.85,-195.74 520.76,-198.97 530.66,-202.74 530.85,-195.74"/>
</g>
<!-- Node18&#45;&gt;Node10 -->
<g id="edge33" class="edge">
<title>Node18&#45;&gt;Node10</title>
<path fill="none" stroke="#63b8ff" d="M878.41,-191.55C895.72,-187.01 914.81,-182 932.72,-177.3"/>
<polygon fill="#63b8ff" stroke="#63b8ff" points="933.45,-180.73 942.24,-174.81 931.68,-173.96 933.45,-180.73"/>
</g>
</g>
</svg>
