<?xml version="1.0" encoding="UTF-8" standalone="no"?>
<!DOCTYPE svg PUBLIC "-//W3C//DTD SVG 1.1//EN"
 "http://www.w3.org/Graphics/SVG/1.1/DTD/svg11.dtd">
<!-- Generated by graphviz version 7.0.4 (20221203.1631)
 -->
<!-- Title: ce103_hw3_library_lib.FileUtility.ReadBlock Pages: 1 -->
<svg width="1070pt" height="488pt"
 viewBox="0.00 0.00 1070.00 488.00" xmlns="http://www.w3.org/2000/svg" xmlns:xlink="http://www.w3.org/1999/xlink">
<g id="graph0" class="graph" transform="scale(1 1) rotate(0) translate(4 484)">
<title>ce103_hw3_library_lib.FileUtility.ReadBlock</title>
<!-- Node1 -->
<g id="node1" class="node">
<title>Node1</title>
<g id="a_node1"><a xlink:title=" ">
<polygon fill="#999999" stroke="#666666" points="1062,-247 931,-247 931,-217 1062,-217 1062,-247"/>
<text text-anchor="start" x="939" y="-235" font-family="Helvetica,sans-Serif" font-size="10.00">ce103_hw3_library_lib.File</text>
<text text-anchor="middle" x="996.5" y="-224" font-family="Helvetica,sans-Serif" font-size="10.00">Utility.ReadBlock</text>
</a>
</g>
</g>
<!-- Node2 -->
<g id="node2" class="node">
<title>Node2</title>
<g id="a_node2"><a xlink:href="classce103__hw3__library__lib_1_1_book_functions.html#a4d2ef5095cd896dba0b81ac4a8ca3f11" target="_top" xlink:title=" ">
<polygon fill="white" stroke="#666666" points="895,-247 758,-247 758,-217 895,-217 895,-247"/>
<text text-anchor="start" x="766" y="-235" font-family="Helvetica,sans-Serif" font-size="10.00">ce103_hw3_library_lib.Book</text>
<text text-anchor="middle" x="826.5" y="-224" font-family="Helvetica,sans-Serif" font-size="10.00">Functions.BorrowBook</text>
</a>
</g>
</g>
<!-- Node1&#45;&gt;Node2 -->
<g id="edge1" class="edge">
<title>Node1&#45;&gt;Node2</title>
<path fill="none" stroke="#63b8ff" d="M919.05,-232C911.14,-232 903.14,-232 895.34,-232"/>
<polygon fill="#63b8ff" stroke="#63b8ff" points="919.03,-235.5 929.03,-232 919.03,-228.5 919.03,-235.5"/>
</g>
<!-- Node9 -->
<g id="node9" class="node">
<title>Node9</title>
<g id="a_node9"><a xlink:href="classce103__hw3__library__lib_1_1_book_functions.html#ae4b718abfd1ef505ca816bada5a5053f" target="_top" xlink:title=" ">
<polygon fill="white" stroke="#666666" points="347,-432 210,-432 210,-402 347,-402 347,-432"/>
<text text-anchor="start" x="218" y="-420" font-family="Helvetica,sans-Serif" font-size="10.00">ce103_hw3_library_lib.Book</text>
<text text-anchor="middle" x="278.5" y="-409" font-family="Helvetica,sans-Serif" font-size="10.00">Functions.ListBook</text>
</a>
</g>
</g>
<!-- Node1&#45;&gt;Node9 -->
<g id="edge28" class="edge">
<title>Node1&#45;&gt;Node9</title>
<path fill="none" stroke="#63b8ff" d="M957.69,-252.82C881.71,-293.37 703.91,-381.76 542,-414 476.85,-426.97 400.8,-426.15 347.37,-423.03"/>
<polygon fill="#63b8ff" stroke="#63b8ff" points="959.24,-255.97 966.39,-248.15 955.92,-249.8 959.24,-255.97"/>
</g>
<!-- Node10 -->
<g id="node10" class="node">
<title>Node10</title>
<g id="a_node10"><a xlink:href="classce103__hw3__library__lib_1_1_book_functions.html#abc272bb655ce11abfa5cb33d995132b7" target="_top" xlink:title=" ">
<polygon fill="white" stroke="#666666" points="347,-78 210,-78 210,-48 347,-48 347,-78"/>
<text text-anchor="start" x="218" y="-66" font-family="Helvetica,sans-Serif" font-size="10.00">ce103_hw3_library_lib.Book</text>
<text text-anchor="middle" x="278.5" y="-55" font-family="Helvetica,sans-Serif" font-size="10.00">Functions.ListBorrowBook</text>
</a>
</g>
</g>
<!-- Node1&#45;&gt;Node10 -->
<g id="edge29" class="edge">
<title>Node1&#45;&gt;Node10</title>
<path fill="none" stroke="#63b8ff" d="M938.59,-213.06C853.27,-185.28 686.74,-133.36 542,-102 476.48,-87.81 400.64,-77.15 347.38,-70.59"/>
<polygon fill="#63b8ff" stroke="#63b8ff" points="937.3,-216.33 947.9,-216.11 939.48,-209.67 937.3,-216.33"/>
</g>
<!-- Node11 -->
<g id="node11" class="node">
<title>Node11</title>
<g id="a_node11"><a xlink:href="classce103__hw3__library__lib_1_1_book_functions.html#af9a659e47a42e3f7ec1a29e280282a51" target="_top" xlink:title=" ">
<polygon fill="white" stroke="#666666" points="347,-30 210,-30 210,0 347,0 347,-30"/>
<text text-anchor="start" x="218" y="-18" font-family="Helvetica,sans-Serif" font-size="10.00">ce103_hw3_library_lib.Book</text>
<text text-anchor="middle" x="278.5" y="-7" font-family="Helvetica,sans-Serif" font-size="10.00">Functions.ReturnBook</text>
</a>
</g>
</g>
<!-- Node1&#45;&gt;Node11 -->
<g id="edge30" class="edge">
<title>Node1&#45;&gt;Node11</title>
<path fill="none" stroke="#63b8ff" d="M970.91,-209.16C951.57,-192.31 923.27,-169.97 895,-156 710,-64.56 464.25,-31.35 347.14,-20.19"/>
<polygon fill="#63b8ff" stroke="#63b8ff" points="968.45,-211.66 978.25,-215.69 973.1,-206.43 968.45,-211.66"/>
</g>
<!-- Node12 -->
<g id="node12" class="node">
<title>Node12</title>
<g id="a_node12"><a xlink:href="classce103__hw3__library__lib_1_1_book_functions.html#a81bb6f1f81a84ca37529ce32a397df10" target="_top" xlink:title=" ">
<polygon fill="white" stroke="#666666" points="347,-480 210,-480 210,-450 347,-450 347,-480"/>
<text text-anchor="start" x="218" y="-468" font-family="Helvetica,sans-Serif" font-size="10.00">ce103_hw3_library_lib.Book</text>
<text text-anchor="middle" x="278.5" y="-457" font-family="Helvetica,sans-Serif" font-size="10.00">Functions.SearchBook</text>
</a>
</g>
</g>
<!-- Node1&#45;&gt;Node12 -->
<g id="edge31" class="edge">
<title>Node1&#45;&gt;Node12</title>
<path fill="none" stroke="#63b8ff" d="M976.05,-255.91C957.25,-277.72 926.98,-309.56 895,-330 720.31,-441.63 466.98,-461.97 347.16,-465"/>
<polygon fill="#63b8ff" stroke="#63b8ff" points="978.62,-258.3 982.4,-248.4 973.27,-253.78 978.62,-258.3"/>
</g>
<!-- Node3 -->
<g id="node3" class="node">
<title>Node3</title>
<g id="a_node3"><a xlink:href="classce103__hw3__library__lib_1_1library.html#a966e08d69fdd5e4d3bf6a12af39bfe14" target="_top" xlink:title=" ">
<polygon fill="white" stroke="#666666" points="722,-269 578,-269 578,-239 722,-239 722,-269"/>
<text text-anchor="start" x="586" y="-257" font-family="Helvetica,sans-Serif" font-size="10.00">ce103_hw3_library_lib.library.</text>
<text text-anchor="middle" x="650" y="-246" font-family="Helvetica,sans-Serif" font-size="10.00">BookOption</text>
</a>
</g>
</g>
<!-- Node2&#45;&gt;Node3 -->
<g id="edge2" class="edge">
<title>Node2&#45;&gt;Node3</title>
<path fill="none" stroke="#63b8ff" d="M746.29,-241.99C738.27,-243 730.16,-244.02 722.24,-245.02"/>
<polygon fill="#63b8ff" stroke="#63b8ff" points="746.55,-245.48 756.03,-240.76 745.67,-238.54 746.55,-245.48"/>
</g>
<!-- Node4 -->
<g id="node4" class="node">
<title>Node4</title>
<g id="a_node4"><a xlink:href="classce103__hw3__library__lib_1_1library.html#a80f197f4303dd78438ec6055614382da" target="_top" xlink:title=" ">
<polygon fill="white" stroke="#666666" points="542,-226 398,-226 398,-196 542,-196 542,-226"/>
<text text-anchor="start" x="406" y="-214" font-family="Helvetica,sans-Serif" font-size="10.00">ce103_hw3_library_lib.library.</text>
<text text-anchor="middle" x="470" y="-203" font-family="Helvetica,sans-Serif" font-size="10.00">RunMainMenu</text>
</a>
</g>
</g>
<!-- Node3&#45;&gt;Node4 -->
<g id="edge3" class="edge">
<title>Node3&#45;&gt;Node4</title>
<path fill="none" stroke="#63b8ff" d="M598.03,-235.52C580.68,-230.76 560.96,-225.84 542.31,-221.6"/>
<polygon fill="#63b8ff" stroke="#63b8ff" points="597.02,-238.87 607.6,-238.2 598.91,-232.13 597.02,-238.87"/>
</g>
<!-- Node4&#45;&gt;Node2 -->
<g id="edge9" class="edge">
<title>Node4&#45;&gt;Node2</title>
<path fill="none" stroke="#63b8ff" d="M553.66,-215.9C615.65,-219.57 699.46,-224.53 757.57,-227.98"/>
<polygon fill="#63b8ff" stroke="#63b8ff" points="554.05,-212.41 543.86,-215.32 553.64,-219.4 554.05,-212.41"/>
</g>
<!-- Node4&#45;&gt;Node3 -->
<g id="edge8" class="edge">
<title>Node4&#45;&gt;Node3</title>
<path fill="none" stroke="#63b8ff" d="M522.14,-229.53C539.43,-234.26 559.06,-239.16 577.63,-243.39"/>
<polygon fill="#63b8ff" stroke="#63b8ff" points="523.18,-226.19 512.61,-226.86 521.29,-232.93 523.18,-226.19"/>
</g>
<!-- Node5 -->
<g id="node5" class="node">
<title>Node5</title>
<g id="a_node5"><a xlink:href="classce103__hw3__library__lib_1_1_book_functions.html#aeb0f4b25699b7ca705f259d228730ef5" target="_top" xlink:title=" ">
<polygon fill="white" stroke="#666666" points="347,-346 210,-346 210,-316 347,-316 347,-346"/>
<text text-anchor="start" x="218" y="-334" font-family="Helvetica,sans-Serif" font-size="10.00">ce103_hw3_library_lib.Book</text>
<text text-anchor="middle" x="278.5" y="-323" font-family="Helvetica,sans-Serif" font-size="10.00">Functions.AddBook</text>
</a>
</g>
</g>
<!-- Node4&#45;&gt;Node5 -->
<g id="edge4" class="edge">
<title>Node4&#45;&gt;Node5</title>
<path fill="none" stroke="#63b8ff" d="M448.09,-234.68C427.97,-256.11 395.72,-287.13 362,-306 355.47,-309.65 348.34,-312.83 341.1,-315.59"/>
<polygon fill="#63b8ff" stroke="#63b8ff" points="450.46,-237.27 454.66,-227.54 445.31,-232.53 450.46,-237.27"/>
</g>
<!-- Node6 -->
<g id="node6" class="node">
<title>Node6</title>
<g id="a_node6"><a xlink:href="classce103__hw3__library__lib_1_1library.html#a84facf753a1182bffc9b0309adc8dadb" target="_top" xlink:title=" ">
<polygon fill="white" stroke="#666666" points="362,-297.5 195,-297.5 195,-278.5 362,-278.5 362,-297.5"/>
<text text-anchor="middle" x="278.5" y="-285.5" font-family="Helvetica,sans-Serif" font-size="10.00">ce103_hw3_library_lib.library.Back</text>
</a>
</g>
</g>
<!-- Node4&#45;&gt;Node6 -->
<g id="edge6" class="edge">
<title>Node4&#45;&gt;Node6</title>
<path fill="none" stroke="#63b8ff" d="M435.44,-232.25C414.9,-244.47 387.7,-259.28 362,-269 352.65,-272.54 342.45,-275.53 332.5,-278.03"/>
<polygon fill="#63b8ff" stroke="#63b8ff" points="437.21,-235.27 443.95,-227.1 433.58,-229.28 437.21,-235.27"/>
</g>
<!-- Node7 -->
<g id="node7" class="node">
<title>Node7</title>
<g id="a_node7"><a xlink:href="classce103__hw3__library__lib_1_1_book_functions.html#a859f030ca58df3aef0ca202c2df131ab" target="_top" xlink:title=" ">
<polygon fill="white" stroke="#666666" points="347,-260 210,-260 210,-230 347,-230 347,-260"/>
<text text-anchor="start" x="218" y="-248" font-family="Helvetica,sans-Serif" font-size="10.00">ce103_hw3_library_lib.Book</text>
<text text-anchor="middle" x="278.5" y="-237" font-family="Helvetica,sans-Serif" font-size="10.00">Functions.DeleteBook</text>
</a>
</g>
</g>
<!-- Node4&#45;&gt;Node7 -->
<g id="edge10" class="edge">
<title>Node4&#45;&gt;Node7</title>
<path fill="none" stroke="#63b8ff" d="M386.3,-225.84C373.3,-228.17 359.98,-230.56 347.36,-232.82"/>
<polygon fill="#63b8ff" stroke="#63b8ff" points="386.91,-229.28 396.14,-224.07 385.68,-222.39 386.91,-229.28"/>
</g>
<!-- Node8 -->
<g id="node8" class="node">
<title>Node8</title>
<g id="a_node8"><a xlink:href="classce103__hw3__library__lib_1_1_book_functions.html#ac536d1aa3a17ba7ce32e8d9ea0cd4950" target="_top" xlink:title=" ">
<polygon fill="white" stroke="#666666" points="347,-126 210,-126 210,-96 347,-96 347,-126"/>
<text text-anchor="start" x="218" y="-114" font-family="Helvetica,sans-Serif" font-size="10.00">ce103_hw3_library_lib.Book</text>
<text text-anchor="middle" x="278.5" y="-103" font-family="Helvetica,sans-Serif" font-size="10.00">Functions.EditBook</text>
</a>
</g>
</g>
<!-- Node4&#45;&gt;Node8 -->
<g id="edge12" class="edge">
<title>Node4&#45;&gt;Node8</title>
<path fill="none" stroke="#63b8ff" d="M411.03,-190.44C406.45,-187.89 402.04,-185.08 398,-182 377.09,-166.02 383.71,-149.86 362,-135 357.2,-131.71 351.95,-128.87 346.49,-126.42"/>
<polygon fill="#63b8ff" stroke="#63b8ff" points="409.41,-193.54 419.91,-194.92 412.56,-187.29 409.41,-193.54"/>
</g>
<!-- Node4&#45;&gt;Node9 -->
<g id="edge14" class="edge">
<title>Node4&#45;&gt;Node9</title>
<path fill="none" stroke="#63b8ff" d="M453.52,-236.14C434.26,-266.3 399.33,-317.47 362,-355 344.19,-372.91 320.97,-389.9 303.7,-401.55"/>
<polygon fill="#63b8ff" stroke="#63b8ff" points="456.47,-238.02 458.85,-227.69 450.55,-234.28 456.47,-238.02"/>
</g>
<!-- Node4&#45;&gt;Node10 -->
<g id="edge16" class="edge">
<title>Node4&#45;&gt;Node10</title>
<path fill="none" stroke="#63b8ff" d="M441.61,-188.09C427.72,-175.77 411.08,-159.88 398,-144 378.95,-120.87 385.94,-105.02 362,-87 357.47,-83.59 352.47,-80.67 347.23,-78.15"/>
<polygon fill="#63b8ff" stroke="#63b8ff" points="439.28,-190.71 449.12,-194.63 443.88,-185.43 439.28,-190.71"/>
</g>
<!-- Node4&#45;&gt;Node11 -->
<g id="edge18" class="edge">
<title>Node4&#45;&gt;Node11</title>
<path fill="none" stroke="#63b8ff" d="M451.41,-186.52C436.58,-165.53 415.1,-134.29 398,-106 380.51,-77.07 388.28,-60.27 362,-39 357.48,-35.34 352.42,-32.24 347.09,-29.61"/>
<polygon fill="#63b8ff" stroke="#63b8ff" points="448.39,-188.31 457.03,-194.43 454.09,-184.26 448.39,-188.31"/>
</g>
<!-- Node4&#45;&gt;Node12 -->
<g id="edge20" class="edge">
<title>Node4&#45;&gt;Node12</title>
<path fill="none" stroke="#63b8ff" d="M464.14,-237.45C453.94,-285.27 425.79,-386.25 362,-441 357.59,-444.79 352.6,-447.98 347.32,-450.67"/>
<polygon fill="#63b8ff" stroke="#63b8ff" points="467.55,-238.21 466.1,-227.71 460.69,-236.82 467.55,-238.21"/>
</g>
<!-- Node13 -->
<g id="node13" class="node">
<title>Node13</title>
<g id="a_node13"><a xlink:href="classce103__hw3__library__lib_1_1library.html#a261e9b866de5ed430c5888e32120a346" target="_top" xlink:title=" ">
<polygon fill="white" stroke="#666666" points="350.5,-174 206.5,-174 206.5,-144 350.5,-144 350.5,-174"/>
<text text-anchor="start" x="214.5" y="-162" font-family="Helvetica,sans-Serif" font-size="10.00">ce103_hw3_library_lib.library.</text>
<text text-anchor="middle" x="278.5" y="-151" font-family="Helvetica,sans-Serif" font-size="10.00">Start</text>
</a>
</g>
</g>
<!-- Node4&#45;&gt;Node13 -->
<g id="edge22" class="edge">
<title>Node4&#45;&gt;Node13</title>
<path fill="none" stroke="#63b8ff" d="M401.63,-192.51C380.14,-186.62 356.59,-180.15 335.95,-174.49"/>
<polygon fill="#63b8ff" stroke="#63b8ff" points="400.63,-195.87 411.2,-195.14 402.48,-189.12 400.63,-195.87"/>
</g>
<!-- Node5&#45;&gt;Node3 -->
<g id="edge5" class="edge">
<title>Node5&#45;&gt;Node3</title>
<path fill="none" stroke="#63b8ff" d="M358.57,-319.44C410.91,-311.22 480.9,-299.16 542,-285 561.03,-280.59 581.7,-274.83 599.75,-269.48"/>
<polygon fill="#63b8ff" stroke="#63b8ff" points="358.18,-315.96 348.84,-320.95 359.26,-322.87 358.18,-315.96"/>
</g>
<!-- Node6&#45;&gt;Node3 -->
<g id="edge7" class="edge">
<title>Node6&#45;&gt;Node3</title>
<path fill="none" stroke="#63b8ff" d="M373.71,-279.43C423.71,-274.87 486.2,-269.16 542,-264 553.52,-262.94 565.73,-261.8 577.63,-260.69"/>
<polygon fill="#63b8ff" stroke="#63b8ff" points="373.41,-275.95 363.77,-280.34 374.05,-282.92 373.41,-275.95"/>
</g>
<!-- Node7&#45;&gt;Node3 -->
<g id="edge11" class="edge">
<title>Node7&#45;&gt;Node3</title>
<path fill="none" stroke="#63b8ff" d="M358.82,-246.93C423.84,-248.52 515.04,-250.74 577.76,-252.26"/>
<polygon fill="#63b8ff" stroke="#63b8ff" points="359,-243.44 348.92,-246.69 358.83,-250.43 359,-243.44"/>
</g>
<!-- Node8&#45;&gt;Node3 -->
<g id="edge13" class="edge">
<title>Node8&#45;&gt;Node3</title>
<path fill="none" stroke="#63b8ff" d="M345.18,-129.52C419.88,-150.67 532.79,-182.88 542,-187 573.81,-201.23 607.38,-223.63 628.26,-238.56"/>
<polygon fill="#63b8ff" stroke="#63b8ff" points="346.48,-126.26 335.91,-126.9 344.58,-132.99 346.48,-126.26"/>
</g>
<!-- Node9&#45;&gt;Node3 -->
<g id="edge15" class="edge">
<title>Node9&#45;&gt;Node3</title>
<path fill="none" stroke="#63b8ff" d="M358.67,-421.07C413.34,-420.52 485.98,-412.86 542,-382 590.45,-355.31 626.17,-297.19 641.18,-269.4"/>
<polygon fill="#63b8ff" stroke="#63b8ff" points="358.8,-417.57 348.81,-421.09 358.81,-424.57 358.8,-417.57"/>
</g>
<!-- Node10&#45;&gt;Node3 -->
<g id="edge17" class="edge">
<title>Node10&#45;&gt;Node3</title>
<path fill="none" stroke="#63b8ff" d="M348.76,-82.02C353.27,-83.61 357.72,-85.27 362,-87 378.77,-93.78 381.14,-99.43 398,-106 459.67,-130.05 484.84,-110.62 542,-144 584.33,-168.72 621.09,-214.73 638.41,-238.66"/>
<polygon fill="#63b8ff" stroke="#63b8ff" points="350.18,-78.81 339.58,-78.94 347.95,-85.44 350.18,-78.81"/>
</g>
<!-- Node11&#45;&gt;Node3 -->
<g id="edge19" class="edge">
<title>Node11&#45;&gt;Node3</title>
<path fill="none" stroke="#63b8ff" d="M358.58,-28.77C414.2,-41.53 488.05,-64.94 542,-106 590.95,-143.25 627.16,-209.04 641.82,-238.72"/>
<polygon fill="#63b8ff" stroke="#63b8ff" points="359.35,-25.36 348.83,-26.61 357.83,-32.19 359.35,-25.36"/>
</g>
<!-- Node12&#45;&gt;Node3 -->
<g id="edge21" class="edge">
<title>Node12&#45;&gt;Node3</title>
<path fill="none" stroke="#63b8ff" d="M358.61,-465.26C414.09,-461.91 487.74,-450.06 542,-414 597.1,-377.37 630.98,-301.69 643.5,-269.28"/>
<polygon fill="#63b8ff" stroke="#63b8ff" points="358.73,-461.75 348.93,-465.76 359.09,-468.74 358.73,-461.75"/>
</g>
<!-- Node14 -->
<g id="node14" class="node">
<title>Node14</title>
<g id="a_node14"><a xlink:href="classce103__hw3__library__lib_1_1_password_content.html#a4c3fd18dd3032675ace132457ebaedba" target="_top" xlink:title=" ">
<polygon fill="white" stroke="#666666" points="158.5,-165 0.5,-165 0.5,-135 158.5,-135 158.5,-165"/>
<text text-anchor="start" x="8.5" y="-153" font-family="Helvetica,sans-Serif" font-size="10.00">ce103_hw3_library_lib.Password</text>
<text text-anchor="middle" x="79.5" y="-142" font-family="Helvetica,sans-Serif" font-size="10.00">Content.password</text>
</a>
</g>
</g>
<!-- Node13&#45;&gt;Node14 -->
<g id="edge23" class="edge">
<title>Node13&#45;&gt;Node14</title>
<path fill="none" stroke="#63b8ff" d="M194.84,-155.22C182.96,-154.68 170.77,-154.12 158.98,-153.59"/>
<polygon fill="#63b8ff" stroke="#63b8ff" points="194.44,-158.71 204.59,-155.67 194.76,-151.72 194.44,-158.71"/>
</g>
<!-- Node15 -->
<g id="node15" class="node">
<title>Node15</title>
<g id="a_node15"><a xlink:href="classce103__hw3__library__lib_1_1_menu.html#a83866faf86a98cdc36d517e8ed443534" target="_top" xlink:title=" ">
<polygon fill="white" stroke="#666666" points="159,-220.5 0,-220.5 0,-201.5 159,-201.5 159,-220.5"/>
<text text-anchor="middle" x="79.5" y="-208.5" font-family="Helvetica,sans-Serif" font-size="10.00">ce103_hw3_library_lib.Menu.Run</text>
</a>
</g>
</g>
<!-- Node13&#45;&gt;Node15 -->
<g id="edge25" class="edge">
<title>Node13&#45;&gt;Node15</title>
<path fill="none" stroke="#63b8ff" d="M212.96,-177.4C195.48,-182.27 176.54,-187.44 159,-192 147.33,-195.04 134.64,-198.18 122.94,-201.01"/>
<polygon fill="#63b8ff" stroke="#63b8ff" points="213.48,-180.89 222.17,-174.83 211.6,-174.15 213.48,-180.89"/>
</g>
<!-- Node14&#45;&gt;Node14 -->
<g id="edge24" class="edge">
<title>Node14&#45;&gt;Node14</title>
<path fill="none" stroke="#63b8ff" d="M113.08,-176.61C107.7,-180.43 96.5,-183 79.5,-183 48.41,-183 36.75,-174.41 44.52,-165.28"/>
<polygon fill="#63b8ff" stroke="#63b8ff" points="116.54,-177.13 114.29,-166.78 109.59,-176.27 116.54,-177.13"/>
</g>
<!-- Node15&#45;&gt;Node3 -->
<g id="edge26" class="edge">
<title>Node15&#45;&gt;Node3</title>
<path fill="none" stroke="#63b8ff" d="M89.26,-231.11C104.92,-264.2 141.22,-329.05 195,-355 348.09,-428.86 556.38,-312.97 625.58,-269.44"/>
<polygon fill="#63b8ff" stroke="#63b8ff" points="92.54,-229.87 85.21,-222.22 86.17,-232.77 92.54,-229.87"/>
</g>
<!-- Node15&#45;&gt;Node4 -->
<g id="edge27" class="edge">
<title>Node15&#45;&gt;Node4</title>
<path fill="none" stroke="#63b8ff" d="M170.63,-211C239.74,-211 333.83,-211 397.74,-211"/>
<polygon fill="#63b8ff" stroke="#63b8ff" points="170.84,-207.5 160.84,-211 170.84,-214.5 170.84,-207.5"/>
</g>
</g>
</svg>
