<?xml version="1.0" encoding="UTF-8" standalone="no"?>
<!DOCTYPE svg PUBLIC "-//W3C//DTD SVG 1.1//EN"
 "http://www.w3.org/Graphics/SVG/1.1/DTD/svg11.dtd">
<!-- Generated by graphviz version 7.0.4 (20221203.1631)
 -->
<!-- Title: ce103_hw3_library_lib.library.Back Pages: 1 -->
<svg width="910pt" height="475pt"
 viewBox="0.00 0.00 910.00 475.00" xmlns="http://www.w3.org/2000/svg" xmlns:xlink="http://www.w3.org/1999/xlink">
<g id="graph0" class="graph" transform="scale(1 1) rotate(0) translate(4 471)">
<title>ce103_hw3_library_lib.library.Back</title>
<!-- Node1 -->
<g id="node1" class="node">
<title>Node1</title>
<g id="a_node1"><a xlink:title=" ">
<polygon fill="#999999" stroke="#666666" points="167,-201.5 0,-201.5 0,-182.5 167,-182.5 167,-201.5"/>
<text text-anchor="middle" x="83.5" y="-189.5" font-family="Helvetica,sans-Serif" font-size="10.00">ce103_hw3_library_lib.library.Back</text>
</a>
</g>
</g>
<!-- Node2 -->
<g id="node2" class="node">
<title>Node2</title>
<g id="a_node2"><a xlink:href="classce103__hw3__library__lib_1_1library.html#a80f197f4303dd78438ec6055614382da" target="_top" xlink:title=" ">
<polygon fill="white" stroke="#666666" points="347,-229 203,-229 203,-199 347,-199 347,-229"/>
<text text-anchor="start" x="211" y="-217" font-family="Helvetica,sans-Serif" font-size="10.00">ce103_hw3_library_lib.library.</text>
<text text-anchor="middle" x="275" y="-206" font-family="Helvetica,sans-Serif" font-size="10.00">RunMainMenu</text>
</a>
</g>
</g>
<!-- Node1&#45;&gt;Node2 -->
<g id="edge1" class="edge">
<title>Node1&#45;&gt;Node2</title>
<path fill="none" stroke="#63b8ff" d="M167.34,-201.62C175.33,-202.54 183.43,-203.49 191.42,-204.41"/>
<polygon fill="#63b8ff" stroke="#63b8ff" points="190.76,-207.86 201.1,-205.54 191.57,-200.91 190.76,-207.86"/>
</g>
<!-- Node3 -->
<g id="node3" class="node">
<title>Node3</title>
<g id="a_node3"><a xlink:href="classce103__hw3__library__lib_1_1library.html#a966e08d69fdd5e4d3bf6a12af39bfe14" target="_top" xlink:title=" ">
<polygon fill="white" stroke="#666666" points="527,-186 383,-186 383,-156 527,-156 527,-186"/>
<text text-anchor="start" x="391" y="-174" font-family="Helvetica,sans-Serif" font-size="10.00">ce103_hw3_library_lib.library.</text>
<text text-anchor="middle" x="455" y="-163" font-family="Helvetica,sans-Serif" font-size="10.00">BookOption</text>
</a>
</g>
</g>
<!-- Node2&#45;&gt;Node3 -->
<g id="edge2" class="edge">
<title>Node2&#45;&gt;Node3</title>
<path fill="none" stroke="#63b8ff" d="M315.95,-198.61C332.47,-193.86 352.29,-188.74 371.67,-184.16"/>
<polygon fill="#63b8ff" stroke="#63b8ff" points="372.27,-187.61 381.22,-181.94 370.68,-180.79 372.27,-187.61"/>
</g>
<!-- Node15 -->
<g id="node15" class="node">
<title>Node15</title>
<g id="a_node15"><a xlink:href="classce103__hw3__library__lib_1_1_menu.html#a83866faf86a98cdc36d517e8ed443534" target="_top" xlink:title=" ">
<polygon fill="white" stroke="#666666" points="722,-418.5 563,-418.5 563,-399.5 722,-399.5 722,-418.5"/>
<text text-anchor="middle" x="642.5" y="-406.5" font-family="Helvetica,sans-Serif" font-size="10.00">ce103_hw3_library_lib.Menu.Run</text>
</a>
</g>
</g>
<!-- Node2&#45;&gt;Node15 -->
<g id="edge36" class="edge">
<title>Node2&#45;&gt;Node15</title>
<path fill="none" stroke="#63b8ff" d="M282.92,-229.2C297.14,-258.6 332.61,-323.14 383,-355 433.18,-386.73 498.74,-400.17 551.28,-405.72"/>
<polygon fill="#63b8ff" stroke="#63b8ff" points="550.83,-409.19 561.12,-406.67 551.5,-402.22 550.83,-409.19"/>
</g>
<!-- Node19 -->
<g id="node19" class="node">
<title>Node19</title>
<g id="a_node19"><a xlink:href="classce103__hw3__library__lib_1_1library.html#a754cac172f3b071c7eea3f07777aac68" target="_top" xlink:title=" ">
<polygon fill="white" stroke="#666666" points="527,-272 383,-272 383,-242 527,-242 527,-272"/>
<text text-anchor="start" x="391" y="-260" font-family="Helvetica,sans-Serif" font-size="10.00">ce103_hw3_library_lib.library.</text>
<text text-anchor="middle" x="455" y="-249" font-family="Helvetica,sans-Serif" font-size="10.00">ExitApp</text>
</a>
</g>
</g>
<!-- Node2&#45;&gt;Node19 -->
<g id="edge35" class="edge">
<title>Node2&#45;&gt;Node19</title>
<path fill="none" stroke="#63b8ff" d="M340.01,-229.46C352.7,-232.53 366.13,-235.77 379.15,-238.92"/>
<polygon fill="#63b8ff" stroke="#63b8ff" points="377.95,-242.23 388.49,-241.17 379.59,-235.42 377.95,-242.23"/>
</g>
<!-- Node3&#45;&gt;Node1 -->
<g id="edge6" class="edge">
<title>Node3&#45;&gt;Node1</title>
<path fill="none" stroke="#63b8ff" d="M382.57,-175.06C324.49,-178.36 242.09,-183.04 178.64,-186.65"/>
<polygon fill="#63b8ff" stroke="#63b8ff" points="178.72,-183.14 168.93,-187.2 179.12,-190.13 178.72,-183.14"/>
</g>
<!-- Node3&#45;&gt;Node2 -->
<g id="edge31" class="edge">
<title>Node3&#45;&gt;Node2</title>
<path fill="none" stroke="#63b8ff" d="M413.85,-186.45C397.37,-191.18 377.65,-196.28 358.34,-200.84"/>
<polygon fill="#63b8ff" stroke="#63b8ff" points="357.8,-197.37 348.85,-203.05 359.38,-204.19 357.8,-197.37"/>
</g>
<!-- Node4 -->
<g id="node4" class="node">
<title>Node4</title>
<g id="a_node4"><a xlink:href="classce103__hw3__library__lib_1_1_book_functions.html#aeb0f4b25699b7ca705f259d228730ef5" target="_top" xlink:title=" ">
<polygon fill="white" stroke="#666666" points="711,-368 574,-368 574,-338 711,-338 711,-368"/>
<text text-anchor="start" x="582" y="-356" font-family="Helvetica,sans-Serif" font-size="10.00">ce103_hw3_library_lib.Book</text>
<text text-anchor="middle" x="642.5" y="-345" font-family="Helvetica,sans-Serif" font-size="10.00">Functions.AddBook</text>
</a>
</g>
</g>
<!-- Node3&#45;&gt;Node4 -->
<g id="edge3" class="edge">
<title>Node3&#45;&gt;Node4</title>
<path fill="none" stroke="#63b8ff" d="M478.8,-186.31C494.2,-197.65 514.01,-214.32 527,-233 552.78,-270.07 530.22,-296.94 563,-328 564.23,-329.17 565.52,-330.28 566.85,-331.34"/>
<polygon fill="#63b8ff" stroke="#63b8ff" points="564.74,-334.14 575,-336.78 568.63,-328.32 564.74,-334.14"/>
</g>
<!-- Node6 -->
<g id="node6" class="node">
<title>Node6</title>
<g id="a_node6"><a xlink:href="classce103__hw3__library__lib_1_1_book_functions.html#a4d2ef5095cd896dba0b81ac4a8ca3f11" target="_top" xlink:title=" ">
<polygon fill="white" stroke="#666666" points="711,-174 574,-174 574,-144 711,-144 711,-174"/>
<text text-anchor="start" x="582" y="-162" font-family="Helvetica,sans-Serif" font-size="10.00">ce103_hw3_library_lib.Book</text>
<text text-anchor="middle" x="642.5" y="-151" font-family="Helvetica,sans-Serif" font-size="10.00">Functions.BorrowBook</text>
</a>
</g>
</g>
<!-- Node3&#45;&gt;Node6 -->
<g id="edge7" class="edge">
<title>Node3&#45;&gt;Node6</title>
<path fill="none" stroke="#63b8ff" d="M527.45,-166.38C538.86,-165.64 550.72,-164.87 562.29,-164.12"/>
<polygon fill="#63b8ff" stroke="#63b8ff" points="562.48,-167.62 572.23,-163.48 562.02,-160.63 562.48,-167.62"/>
</g>
<!-- Node9 -->
<g id="node9" class="node">
<title>Node9</title>
<g id="a_node9"><a xlink:href="classce103__hw3__library__lib_1_1_book_functions.html#a859f030ca58df3aef0ca202c2df131ab" target="_top" xlink:title=" ">
<polygon fill="white" stroke="#666666" points="711,-319 574,-319 574,-289 711,-289 711,-319"/>
<text text-anchor="start" x="582" y="-307" font-family="Helvetica,sans-Serif" font-size="10.00">ce103_hw3_library_lib.Book</text>
<text text-anchor="middle" x="642.5" y="-296" font-family="Helvetica,sans-Serif" font-size="10.00">Functions.DeleteBook</text>
</a>
</g>
</g>
<!-- Node3&#45;&gt;Node9 -->
<g id="edge11" class="edge">
<title>Node3&#45;&gt;Node9</title>
<path fill="none" stroke="#63b8ff" d="M475.57,-186.4C490.35,-198.42 510.79,-215.89 527,-233 544.86,-251.84 541.68,-264.18 563,-279 565.23,-280.55 567.56,-282.01 569.96,-283.38"/>
<polygon fill="#63b8ff" stroke="#63b8ff" points="568.34,-286.48 578.84,-287.85 571.49,-280.23 568.34,-286.48"/>
</g>
<!-- Node11 -->
<g id="node11" class="node">
<title>Node11</title>
<g id="a_node11"><a xlink:href="classce103__hw3__library__lib_1_1_book_functions.html#ac536d1aa3a17ba7ce32e8d9ea0cd4950" target="_top" xlink:title=" ">
<polygon fill="white" stroke="#666666" points="711,-270 574,-270 574,-240 711,-240 711,-270"/>
<text text-anchor="start" x="582" y="-258" font-family="Helvetica,sans-Serif" font-size="10.00">ce103_hw3_library_lib.Book</text>
<text text-anchor="middle" x="642.5" y="-247" font-family="Helvetica,sans-Serif" font-size="10.00">Functions.EditBook</text>
</a>
</g>
</g>
<!-- Node3&#45;&gt;Node11 -->
<g id="edge14" class="edge">
<title>Node3&#45;&gt;Node11</title>
<path fill="none" stroke="#63b8ff" d="M479.89,-186.36C501.09,-199.51 533.23,-218.28 563,-231 566.83,-232.64 570.81,-234.21 574.85,-235.72"/>
<polygon fill="#63b8ff" stroke="#63b8ff" points="573.62,-239 584.22,-239.04 575.96,-232.4 573.62,-239"/>
</g>
<!-- Node12 -->
<g id="node12" class="node">
<title>Node12</title>
<g id="a_node12"><a xlink:href="classce103__hw3__library__lib_1_1_book_functions.html#ae4b718abfd1ef505ca816bada5a5053f" target="_top" xlink:title=" ">
<polygon fill="white" stroke="#666666" points="711,-126 574,-126 574,-96 711,-96 711,-126"/>
<text text-anchor="start" x="582" y="-114" font-family="Helvetica,sans-Serif" font-size="10.00">ce103_hw3_library_lib.Book</text>
<text text-anchor="middle" x="642.5" y="-103" font-family="Helvetica,sans-Serif" font-size="10.00">Functions.ListBook</text>
</a>
</g>
</g>
<!-- Node3&#45;&gt;Node12 -->
<g id="edge17" class="edge">
<title>Node3&#45;&gt;Node12</title>
<path fill="none" stroke="#63b8ff" d="M500.94,-155.57C520.04,-149.09 542.57,-141.56 563,-135 568.37,-133.27 573.97,-131.51 579.58,-129.76"/>
<polygon fill="#63b8ff" stroke="#63b8ff" points="580.38,-133.17 588.9,-126.86 578.31,-126.48 580.38,-133.17"/>
</g>
<!-- Node13 -->
<g id="node13" class="node">
<title>Node13</title>
<g id="a_node13"><a xlink:href="classce103__hw3__library__lib_1_1_book_functions.html#abc272bb655ce11abfa5cb33d995132b7" target="_top" xlink:title=" ">
<polygon fill="white" stroke="#666666" points="711,-78 574,-78 574,-48 711,-48 711,-78"/>
<text text-anchor="start" x="582" y="-66" font-family="Helvetica,sans-Serif" font-size="10.00">ce103_hw3_library_lib.Book</text>
<text text-anchor="middle" x="642.5" y="-55" font-family="Helvetica,sans-Serif" font-size="10.00">Functions.ListBorrowBook</text>
</a>
</g>
</g>
<!-- Node3&#45;&gt;Node13 -->
<g id="edge20" class="edge">
<title>Node3&#45;&gt;Node13</title>
<path fill="none" stroke="#63b8ff" d="M471.71,-155.55C491.49,-136.89 527.2,-105.69 563,-87 566,-85.43 569.12,-83.95 572.3,-82.55"/>
<polygon fill="#63b8ff" stroke="#63b8ff" points="573.31,-85.92 581.27,-78.93 570.68,-79.43 573.31,-85.92"/>
</g>
<!-- Node14 -->
<g id="node14" class="node">
<title>Node14</title>
<g id="a_node14"><a xlink:href="classce103__hw3__library__lib_1_1_book_functions.html#af9a659e47a42e3f7ec1a29e280282a51" target="_top" xlink:title=" ">
<polygon fill="white" stroke="#666666" points="711,-222 574,-222 574,-192 711,-192 711,-222"/>
<text text-anchor="start" x="582" y="-210" font-family="Helvetica,sans-Serif" font-size="10.00">ce103_hw3_library_lib.Book</text>
<text text-anchor="middle" x="642.5" y="-199" font-family="Helvetica,sans-Serif" font-size="10.00">Functions.ReturnBook</text>
</a>
</g>
</g>
<!-- Node3&#45;&gt;Node14 -->
<g id="edge23" class="edge">
<title>Node3&#45;&gt;Node14</title>
<path fill="none" stroke="#63b8ff" d="M527.45,-184.87C538.98,-187.1 550.97,-189.43 562.65,-191.7"/>
<polygon fill="#63b8ff" stroke="#63b8ff" points="561.77,-195.09 572.25,-193.56 563.1,-188.22 561.77,-195.09"/>
</g>
<!-- Node3&#45;&gt;Node15 -->
<g id="edge27" class="edge">
<title>Node3&#45;&gt;Node15</title>
<path fill="none" stroke="#63b8ff" d="M480.18,-186.34C495.79,-197.46 515.3,-213.87 527,-233 561.42,-289.28 519.78,-327.16 563,-377 569.38,-384.35 577.69,-390.04 586.53,-394.44"/>
<polygon fill="#63b8ff" stroke="#63b8ff" points="585.1,-397.63 595.66,-398.42 587.89,-391.21 585.1,-397.63"/>
</g>
<!-- Node18 -->
<g id="node18" class="node">
<title>Node18</title>
<g id="a_node18"><a xlink:href="classce103__hw3__library__lib_1_1_book_functions.html#a81bb6f1f81a84ca37529ce32a397df10" target="_top" xlink:title=" ">
<polygon fill="white" stroke="#666666" points="711,-30 574,-30 574,0 711,0 711,-30"/>
<text text-anchor="start" x="582" y="-18" font-family="Helvetica,sans-Serif" font-size="10.00">ce103_hw3_library_lib.Book</text>
<text text-anchor="middle" x="642.5" y="-7" font-family="Helvetica,sans-Serif" font-size="10.00">Functions.SearchBook</text>
</a>
</g>
</g>
<!-- Node3&#45;&gt;Node18 -->
<g id="edge32" class="edge">
<title>Node3&#45;&gt;Node18</title>
<path fill="none" stroke="#63b8ff" d="M464.16,-155.88C479.71,-128.47 516.28,-70.5 563,-39 564.82,-37.78 566.7,-36.61 568.63,-35.5"/>
<polygon fill="#63b8ff" stroke="#63b8ff" points="569.95,-38.76 577.3,-31.12 566.79,-32.51 569.95,-38.76"/>
</g>
<!-- Node4&#45;&gt;Node2 -->
<g id="edge5" class="edge">
<title>Node4&#45;&gt;Node2</title>
<path fill="none" stroke="#63b8ff" d="M573.52,-357.58C519.26,-358.45 442.72,-353.25 383,-324 343.54,-304.67 310.51,-264.59 292.01,-238.52"/>
<polygon fill="#63b8ff" stroke="#63b8ff" points="295.06,-236.78 286.5,-230.53 289.3,-240.75 295.06,-236.78"/>
</g>
<!-- Node5 -->
<g id="node5" class="node">
<title>Node5</title>
<g id="a_node5"><a xlink:href="classce103__hw3__library__lib_1_1_file_utility.html#a6b9ef5a028f3e26107779e0a3f300aef" target="_top" xlink:title=" ">
<polygon fill="white" stroke="#666666" points="895.5,-368 764.5,-368 764.5,-338 895.5,-338 895.5,-368"/>
<text text-anchor="start" x="772.5" y="-356" font-family="Helvetica,sans-Serif" font-size="10.00">ce103_hw3_library_lib.File</text>
<text text-anchor="middle" x="830" y="-345" font-family="Helvetica,sans-Serif" font-size="10.00">Utility.AppendBlock</text>
</a>
</g>
</g>
<!-- Node4&#45;&gt;Node5 -->
<g id="edge4" class="edge">
<title>Node4&#45;&gt;Node5</title>
<path fill="none" stroke="#63b8ff" d="M711.26,-353C724.76,-353 739.03,-353 752.79,-353"/>
<polygon fill="#63b8ff" stroke="#63b8ff" points="752.69,-356.5 762.69,-353 752.69,-349.5 752.69,-356.5"/>
</g>
<!-- Node6&#45;&gt;Node2 -->
<g id="edge9" class="edge">
<title>Node6&#45;&gt;Node2</title>
<path fill="none" stroke="#63b8ff" d="M573.71,-144.14C520.74,-135.3 445.83,-128.95 383,-147 352.81,-155.67 322.89,-175.63 302.4,-191.52"/>
<polygon fill="#63b8ff" stroke="#63b8ff" points="300.22,-188.78 294.59,-197.76 304.59,-194.25 300.22,-188.78"/>
</g>
<!-- Node7 -->
<g id="node7" class="node">
<title>Node7</title>
<g id="a_node7"><a xlink:href="classce103__hw3__library__lib_1_1_file_utility.html#a0706a9eaee6532bd3a42dda3579c9158" target="_top" xlink:title=" ">
<polygon fill="white" stroke="#666666" points="895.5,-126 764.5,-126 764.5,-96 895.5,-96 895.5,-126"/>
<text text-anchor="start" x="772.5" y="-114" font-family="Helvetica,sans-Serif" font-size="10.00">ce103_hw3_library_lib.File</text>
<text text-anchor="middle" x="830" y="-103" font-family="Helvetica,sans-Serif" font-size="10.00">Utility.ReadBlock</text>
</a>
</g>
</g>
<!-- Node6&#45;&gt;Node7 -->
<g id="edge8" class="edge">
<title>Node6&#45;&gt;Node7</title>
<path fill="none" stroke="#63b8ff" d="M703.21,-143.55C720.76,-139.01 740.11,-134 758.27,-129.3"/>
<polygon fill="#63b8ff" stroke="#63b8ff" points="759.13,-132.7 767.93,-126.8 757.37,-125.92 759.13,-132.7"/>
</g>
<!-- Node8 -->
<g id="node8" class="node">
<title>Node8</title>
<g id="a_node8"><a xlink:href="classce103__hw3__library__lib_1_1_file_utility.html#a3258416645b5a69d8d0eb9ac217b2c20" target="_top" xlink:title=" ">
<polygon fill="white" stroke="#666666" points="895.5,-222 764.5,-222 764.5,-192 895.5,-192 895.5,-222"/>
<text text-anchor="start" x="772.5" y="-210" font-family="Helvetica,sans-Serif" font-size="10.00">ce103_hw3_library_lib.File</text>
<text text-anchor="middle" x="830" y="-199" font-family="Helvetica,sans-Serif" font-size="10.00">Utility.UpdateBlock</text>
</a>
</g>
</g>
<!-- Node6&#45;&gt;Node8 -->
<g id="edge10" class="edge">
<title>Node6&#45;&gt;Node8</title>
<path fill="none" stroke="#63b8ff" d="M703.21,-174.45C720.76,-178.99 740.11,-184 758.27,-188.7"/>
<polygon fill="#63b8ff" stroke="#63b8ff" points="757.37,-192.08 767.93,-191.2 759.13,-185.3 757.37,-192.08"/>
</g>
<!-- Node9&#45;&gt;Node2 -->
<g id="edge13" class="edge">
<title>Node9&#45;&gt;Node2</title>
<path fill="none" stroke="#63b8ff" d="M573.75,-314.71C520.31,-320.41 444.75,-322.28 383,-300 348.28,-287.47 316.41,-258.63 296.64,-237.79"/>
<polygon fill="#63b8ff" stroke="#63b8ff" points="299.32,-235.53 289.97,-230.54 294.17,-240.27 299.32,-235.53"/>
</g>
<!-- Node10 -->
<g id="node10" class="node">
<title>Node10</title>
<g id="a_node10"><a xlink:href="classce103__hw3__library__lib_1_1_file_utility.html#ad1233745f44f8159d86b0692c3a24b21" target="_top" xlink:title=" ">
<polygon fill="white" stroke="#666666" points="895.5,-319 764.5,-319 764.5,-289 895.5,-289 895.5,-319"/>
<text text-anchor="start" x="772.5" y="-307" font-family="Helvetica,sans-Serif" font-size="10.00">ce103_hw3_library_lib.File</text>
<text text-anchor="middle" x="830" y="-296" font-family="Helvetica,sans-Serif" font-size="10.00">Utility.DeleteBlock</text>
</a>
</g>
</g>
<!-- Node9&#45;&gt;Node10 -->
<g id="edge12" class="edge">
<title>Node9&#45;&gt;Node10</title>
<path fill="none" stroke="#63b8ff" d="M711.26,-304C724.76,-304 739.03,-304 752.79,-304"/>
<polygon fill="#63b8ff" stroke="#63b8ff" points="752.69,-307.5 762.69,-304 752.69,-300.5 752.69,-307.5"/>
</g>
<!-- Node11&#45;&gt;Node2 -->
<g id="edge15" class="edge">
<title>Node11&#45;&gt;Node2</title>
<path fill="none" stroke="#63b8ff" d="M593.37,-270.44C540.71,-284.91 454.31,-301.48 383,-281 352.81,-272.33 322.89,-252.37 302.4,-236.48"/>
<polygon fill="#63b8ff" stroke="#63b8ff" points="304.59,-233.75 294.59,-230.24 300.22,-239.22 304.59,-233.75"/>
</g>
<!-- Node11&#45;&gt;Node8 -->
<g id="edge16" class="edge">
<title>Node11&#45;&gt;Node8</title>
<path fill="none" stroke="#63b8ff" d="M703.21,-239.55C720.76,-235.01 740.11,-230 758.27,-225.3"/>
<polygon fill="#63b8ff" stroke="#63b8ff" points="759.13,-228.7 767.93,-222.8 757.37,-221.92 759.13,-228.7"/>
</g>
<!-- Node12&#45;&gt;Node2 -->
<g id="edge19" class="edge">
<title>Node12&#45;&gt;Node2</title>
<path fill="none" stroke="#63b8ff" d="M573.59,-106.23C520.06,-104.86 444.45,-108.34 383,-132 349.89,-144.74 318.48,-171.14 298.36,-190.56"/>
<polygon fill="#63b8ff" stroke="#63b8ff" points="295.91,-188.06 291.28,-197.59 300.84,-193.03 295.91,-188.06"/>
</g>
<!-- Node12&#45;&gt;Node7 -->
<g id="edge18" class="edge">
<title>Node12&#45;&gt;Node7</title>
<path fill="none" stroke="#63b8ff" d="M711.26,-111C724.76,-111 739.03,-111 752.79,-111"/>
<polygon fill="#63b8ff" stroke="#63b8ff" points="752.69,-114.5 762.69,-111 752.69,-107.5 752.69,-114.5"/>
</g>
<!-- Node13&#45;&gt;Node2 -->
<g id="edge22" class="edge">
<title>Node13&#45;&gt;Node2</title>
<path fill="none" stroke="#63b8ff" d="M573.6,-61.84C519.21,-63.57 442.46,-72.15 383,-103 343.81,-123.33 310.71,-163.54 292.11,-189.57"/>
<polygon fill="#63b8ff" stroke="#63b8ff" points="289.41,-187.33 286.58,-197.54 295.16,-191.32 289.41,-187.33"/>
</g>
<!-- Node13&#45;&gt;Node7 -->
<g id="edge21" class="edge">
<title>Node13&#45;&gt;Node7</title>
<path fill="none" stroke="#63b8ff" d="M703.21,-78.45C720.76,-82.99 740.11,-88 758.27,-92.7"/>
<polygon fill="#63b8ff" stroke="#63b8ff" points="757.37,-96.08 767.93,-95.2 759.13,-89.3 757.37,-96.08"/>
</g>
<!-- Node14&#45;&gt;Node2 -->
<g id="edge25" class="edge">
<title>Node14&#45;&gt;Node2</title>
<path fill="none" stroke="#63b8ff" d="M573.74,-208.3C512.99,-209.46 423.71,-211.17 358.76,-212.41"/>
<polygon fill="#63b8ff" stroke="#63b8ff" points="358.78,-208.91 348.85,-212.6 358.92,-215.91 358.78,-208.91"/>
</g>
<!-- Node14&#45;&gt;Node7 -->
<g id="edge24" class="edge">
<title>Node14&#45;&gt;Node7</title>
<path fill="none" stroke="#63b8ff" d="M700.85,-191.64C708.1,-189.07 715.31,-186.19 722,-183 750.57,-169.39 780.21,-148.86 801.03,-133.2"/>
<polygon fill="#63b8ff" stroke="#63b8ff" points="802.92,-136.16 808.74,-127.31 798.67,-130.6 802.92,-136.16"/>
</g>
<!-- Node14&#45;&gt;Node8 -->
<g id="edge26" class="edge">
<title>Node14&#45;&gt;Node8</title>
<path fill="none" stroke="#63b8ff" d="M711.26,-207C724.76,-207 739.03,-207 752.79,-207"/>
<polygon fill="#63b8ff" stroke="#63b8ff" points="752.69,-210.5 762.69,-207 752.69,-203.5 752.69,-210.5"/>
</g>
<!-- Node16 -->
<g id="node16" class="node">
<title>Node16</title>
<g id="a_node16"><a xlink:href="classce103__hw3__library__lib_1_1_menu.html#af4dab9715ef5ee639001951ec8c3d5e2" target="_top" xlink:title=" ">
<polygon fill="white" stroke="#666666" points="901,-419 759,-419 759,-389 901,-389 901,-419"/>
<text text-anchor="start" x="767" y="-407" font-family="Helvetica,sans-Serif" font-size="10.00">ce103_hw3_library_lib.Menu.</text>
<text text-anchor="middle" x="830" y="-396" font-family="Helvetica,sans-Serif" font-size="10.00">DisplayOptions</text>
</a>
</g>
</g>
<!-- Node15&#45;&gt;Node16 -->
<g id="edge28" class="edge">
<title>Node15&#45;&gt;Node16</title>
<path fill="none" stroke="#63b8ff" d="M722.44,-406.87C730.61,-406.65 738.94,-406.43 747.15,-406.21"/>
<polygon fill="#63b8ff" stroke="#63b8ff" points="747.23,-409.71 757.13,-405.94 747.04,-402.71 747.23,-409.71"/>
</g>
<!-- Node17 -->
<g id="node17" class="node">
<title>Node17</title>
<g id="a_node17"><a xlink:href="classce103__hw3__library__lib_1_1library.html#a261e9b866de5ed430c5888e32120a346" target="_top" xlink:title=" ">
<polygon fill="white" stroke="#666666" points="902,-467 758,-467 758,-437 902,-437 902,-467"/>
<text text-anchor="start" x="766" y="-455" font-family="Helvetica,sans-Serif" font-size="10.00">ce103_hw3_library_lib.library.</text>
<text text-anchor="middle" x="830" y="-444" font-family="Helvetica,sans-Serif" font-size="10.00">Start</text>
</a>
</g>
</g>
<!-- Node15&#45;&gt;Node17 -->
<g id="edge29" class="edge">
<title>Node15&#45;&gt;Node17</title>
<path fill="none" stroke="#63b8ff" d="M686.52,-418.97C705.75,-423.43 729.03,-428.83 751.14,-433.95"/>
<polygon fill="#63b8ff" stroke="#63b8ff" points="750.22,-437.33 760.75,-436.18 751.8,-430.51 750.22,-437.33"/>
</g>
<!-- Node17&#45;&gt;Node2 -->
<g id="edge30" class="edge">
<title>Node17&#45;&gt;Node2</title>
<path fill="none" stroke="#63b8ff" d="M757.78,-461.44C663.3,-470.07 495.4,-471.45 383,-393 328.8,-355.17 297.49,-280.27 283.99,-240.41"/>
<polygon fill="#63b8ff" stroke="#63b8ff" points="287.32,-239.34 280.9,-230.91 280.66,-241.5 287.32,-239.34"/>
</g>
<!-- Node18&#45;&gt;Node2 -->
<g id="edge34" class="edge">
<title>Node18&#45;&gt;Node2</title>
<path fill="none" stroke="#63b8ff" d="M573.51,-13.6C518.18,-15.52 440.17,-25.46 383,-62 334.66,-92.89 301.86,-154.17 286.33,-188.74"/>
<polygon fill="#63b8ff" stroke="#63b8ff" points="283.27,-187 282.5,-197.57 289.69,-189.79 283.27,-187"/>
</g>
<!-- Node18&#45;&gt;Node7 -->
<g id="edge33" class="edge">
<title>Node18&#45;&gt;Node7</title>
<path fill="none" stroke="#63b8ff" d="M700.85,-30.36C708.1,-32.93 715.31,-35.81 722,-39 750.57,-52.61 780.21,-73.14 801.03,-88.8"/>
<polygon fill="#63b8ff" stroke="#63b8ff" points="798.67,-91.4 808.74,-94.69 802.92,-85.84 798.67,-91.4"/>
</g>
</g>
</svg>
