<?xml version="1.0" encoding="UTF-8" standalone="no"?>
<!DOCTYPE svg PUBLIC "-//W3C//DTD SVG 1.1//EN"
 "http://www.w3.org/Graphics/SVG/1.1/DTD/svg11.dtd">
<!-- Generated by graphviz version 7.0.4 (20221203.1631)
 -->
<!-- Title: ce103_hw3_library_lib.Menu.DisplayOptions Pages: 1 -->
<!--zoomable 460 -->
<svg id="main" version="1.1" xmlns="http://www.w3.org/2000/svg" xmlns:xlink="http://www.w3.org/1999/xlink" xml:space="preserve" onload="init(evt)">
<style type="text/css"><![CDATA[
.edge:hover path { stroke: red; }
.edge:hover polygon { stroke: red; fill: red; }
]]></style>
<script type="text/javascript"><![CDATA[
var edges = document.getElementsByTagName('g');
if (edges && edges.length) {
  for (var i=0;i<edges.length;i++) {
    if (edges[i].id.substr(0,4)=='edge') {
      edges[i].setAttribute('class','edge');
    }
  }
}
]]></script>
        <defs>
                <circle id="rim" cx="0" cy="0" r="7"/>
                <circle id="rim2" cx="0" cy="0" r="3.5"/>
                <g id="zoomPlus">
                        <use xlink:href="#rim" fill="#404040">
                                <set attributeName="fill" to="#808080" begin="zoomplus.mouseover" end="zoomplus.mouseout"/>
                        </use>
                        <path d="M-4,0h8M0,-4v8" fill="none" stroke="white" stroke-width="1.5" pointer-events="none"/>
                </g>
                <g id="zoomMin">
                        <use xlink:href="#rim" fill="#404040">
                                <set attributeName="fill" to="#808080" begin="zoomminus.mouseover" end="zoomminus.mouseout"/>
                        </use>
                        <path d="M-4,0h8" fill="none" stroke="white" stroke-width="1.5" pointer-events="none"/>
                </g>
                <g id="dirArrow">
                        <path fill="none" stroke="white" stroke-width="1.5" d="M0,-3.0v7 M-2.5,-0.5L0,-3.0L2.5,-0.5"/>
                </g>
               <g id="resetDef">
                       <use xlink:href="#rim2" fill="#404040">
                               <set attributeName="fill" to="#808080" begin="reset.mouseover" end="reset.mouseout"/>
                       </use>
               </g>
        </defs>

<script type="text/javascript">
var viewWidth = 1102;
var viewHeight = 460;
var sectionId = 'dynsection-0';
</script>
<script xlink:href="svgpan.js"/>
<svg id="graph" class="graph">
<g id="viewport">
<title>ce103_hw3_library_lib.Menu.DisplayOptions</title>
<!-- Node1 -->
<g id="node1" class="node">
<title>Node1</title>
<g id="a_node1"><a xlink:title=" ">
<polygon fill="#999999" stroke="#666666" points="1094,-201 952,-201 952,-171 1094,-171 1094,-201"/>
<text text-anchor="start" x="960" y="-189" font-family="Helvetica,sans-Serif" font-size="10.00">ce103_hw3_library_lib.Menu.</text>
<text text-anchor="middle" x="1023" y="-178" font-family="Helvetica,sans-Serif" font-size="10.00">DisplayOptions</text>
</a>
</g>
</g>
<!-- Node2 -->
<g id="node2" class="node">
<title>Node2</title>
<g id="a_node2"><a xlink:href="classce103__hw3__library__lib_1_1_menu.html#a83866faf86a98cdc36d517e8ed443534" target="_top" xlink:title=" ">
<polygon fill="white" stroke="#666666" points="916,-195.5 757,-195.5 757,-176.5 916,-176.5 916,-195.5"/>
<text text-anchor="middle" x="836.5" y="-183.5" font-family="Helvetica,sans-Serif" font-size="10.00">ce103_hw3_library_lib.Menu.Run</text>
</a>
</g>
</g>
<!-- Node1&#45;&gt;Node2 -->
<g id="edge1" class="edge">
<title>Node1&#45;&gt;Node2</title>
<path fill="none" stroke="#63b8ff" d="M940.44,-186C932.39,-186 924.23,-186 916.21,-186"/>
<polygon fill="#63b8ff" stroke="#63b8ff" points="940.21,-189.5 950.21,-186 940.21,-182.5 940.21,-189.5"/>
</g>
<!-- Node3 -->
<g id="node3" class="node">
<title>Node3</title>
<g id="a_node3"><a xlink:href="classce103__hw3__library__lib_1_1library.html#a966e08d69fdd5e4d3bf6a12af39bfe14" target="_top" xlink:title=" ">
<polygon fill="white" stroke="#666666" points="721,-244 577,-244 577,-214 721,-214 721,-244"/>
<text text-anchor="start" x="585" y="-232" font-family="Helvetica,sans-Serif" font-size="10.00">ce103_hw3_library_lib.library.</text>
<text text-anchor="middle" x="649" y="-221" font-family="Helvetica,sans-Serif" font-size="10.00">BookOption</text>
</a>
</g>
</g>
<!-- Node2&#45;&gt;Node3 -->
<g id="edge2" class="edge">
<title>Node2&#45;&gt;Node3</title>
<path fill="none" stroke="#63b8ff" d="M781.29,-198.57C761.1,-203.25 737.95,-208.61 716.77,-213.52"/>
<polygon fill="#63b8ff" stroke="#63b8ff" points="782.05,-201.98 791,-196.31 780.47,-195.16 782.05,-201.98"/>
</g>
<!-- Node4 -->
<g id="node4" class="node">
<title>Node4</title>
<g id="a_node4"><a xlink:href="classce103__hw3__library__lib_1_1library.html#a80f197f4303dd78438ec6055614382da" target="_top" xlink:title=" ">
<polygon fill="white" stroke="#666666" points="541,-201 397,-201 397,-171 541,-171 541,-201"/>
<text text-anchor="start" x="405" y="-189" font-family="Helvetica,sans-Serif" font-size="10.00">ce103_hw3_library_lib.library.</text>
<text text-anchor="middle" x="469" y="-178" font-family="Helvetica,sans-Serif" font-size="10.00">RunMainMenu</text>
</a>
</g>
</g>
<!-- Node2&#45;&gt;Node4 -->
<g id="edge27" class="edge">
<title>Node2&#45;&gt;Node4</title>
<path fill="none" stroke="#63b8ff" d="M745.14,-186C682.25,-186 599.54,-186 541.29,-186"/>
<polygon fill="#63b8ff" stroke="#63b8ff" points="745.13,-189.5 755.13,-186 745.13,-182.5 745.13,-189.5"/>
</g>
<!-- Node3&#45;&gt;Node4 -->
<g id="edge3" class="edge">
<title>Node3&#45;&gt;Node4</title>
<path fill="none" stroke="#63b8ff" d="M597.03,-210.52C579.68,-205.76 559.96,-200.84 541.31,-196.6"/>
<polygon fill="#63b8ff" stroke="#63b8ff" points="596.02,-213.87 606.6,-213.2 597.91,-207.13 596.02,-213.87"/>
</g>
<!-- Node4&#45;&gt;Node3 -->
<g id="edge8" class="edge">
<title>Node4&#45;&gt;Node3</title>
<path fill="none" stroke="#63b8ff" d="M521.14,-204.53C538.43,-209.26 558.06,-214.16 576.63,-218.39"/>
<polygon fill="#63b8ff" stroke="#63b8ff" points="522.18,-201.19 511.61,-201.86 520.29,-207.93 522.18,-201.19"/>
</g>
<!-- Node5 -->
<g id="node5" class="node">
<title>Node5</title>
<g id="a_node5"><a xlink:href="classce103__hw3__library__lib_1_1_book_functions.html#aeb0f4b25699b7ca705f259d228730ef5" target="_top" xlink:title=" ">
<polygon fill="white" stroke="#666666" points="346,-212 209,-212 209,-182 346,-182 346,-212"/>
<text text-anchor="start" x="217" y="-200" font-family="Helvetica,sans-Serif" font-size="10.00">ce103_hw3_library_lib.Book</text>
<text text-anchor="middle" x="277.5" y="-189" font-family="Helvetica,sans-Serif" font-size="10.00">Functions.AddBook</text>
</a>
</g>
</g>
<!-- Node4&#45;&gt;Node5 -->
<g id="edge4" class="edge">
<title>Node4&#45;&gt;Node5</title>
<path fill="none" stroke="#63b8ff" d="M385.3,-190.8C372.3,-191.56 358.98,-192.33 346.36,-193.06"/>
<polygon fill="#63b8ff" stroke="#63b8ff" points="385.34,-194.3 395.12,-190.23 384.93,-187.32 385.34,-194.3"/>
</g>
<!-- Node6 -->
<g id="node6" class="node">
<title>Node6</title>
<g id="a_node6"><a xlink:href="classce103__hw3__library__lib_1_1library.html#a84facf753a1182bffc9b0309adc8dadb" target="_top" xlink:title=" ">
<polygon fill="white" stroke="#666666" points="361,-163.5 194,-163.5 194,-144.5 361,-144.5 361,-163.5"/>
<text text-anchor="middle" x="277.5" y="-151.5" font-family="Helvetica,sans-Serif" font-size="10.00">ce103_hw3_library_lib.library.Back</text>
</a>
</g>
</g>
<!-- Node4&#45;&gt;Node6 -->
<g id="edge6" class="edge">
<title>Node4&#45;&gt;Node6</title>
<path fill="none" stroke="#63b8ff" d="M385.53,-172.07C369.34,-169.34 352.67,-166.53 337.45,-163.95"/>
<polygon fill="#63b8ff" stroke="#63b8ff" points="384.69,-175.48 395.14,-173.7 385.86,-168.58 384.69,-175.48"/>
</g>
<!-- Node7 -->
<g id="node7" class="node">
<title>Node7</title>
<g id="a_node7"><a xlink:href="classce103__hw3__library__lib_1_1_book_functions.html#a4d2ef5095cd896dba0b81ac4a8ca3f11" target="_top" xlink:title=" ">
<polygon fill="white" stroke="#666666" points="346,-126 209,-126 209,-96 346,-96 346,-126"/>
<text text-anchor="start" x="217" y="-114" font-family="Helvetica,sans-Serif" font-size="10.00">ce103_hw3_library_lib.Book</text>
<text text-anchor="middle" x="277.5" y="-103" font-family="Helvetica,sans-Serif" font-size="10.00">Functions.BorrowBook</text>
</a>
</g>
</g>
<!-- Node4&#45;&gt;Node7 -->
<g id="edge9" class="edge">
<title>Node4&#45;&gt;Node7</title>
<path fill="none" stroke="#63b8ff" d="M428.79,-165.43C408.83,-155.45 383.98,-143.75 361,-135 353.05,-131.97 344.56,-129.1 336.15,-126.47"/>
<polygon fill="#63b8ff" stroke="#63b8ff" points="427.18,-168.55 437.69,-169.94 430.35,-162.3 427.18,-168.55"/>
</g>
<!-- Node8 -->
<g id="node8" class="node">
<title>Node8</title>
<g id="a_node8"><a xlink:href="classce103__hw3__library__lib_1_1_book_functions.html#a859f030ca58df3aef0ca202c2df131ab" target="_top" xlink:title=" ">
<polygon fill="white" stroke="#666666" points="346,-78 209,-78 209,-48 346,-48 346,-78"/>
<text text-anchor="start" x="217" y="-66" font-family="Helvetica,sans-Serif" font-size="10.00">ce103_hw3_library_lib.Book</text>
<text text-anchor="middle" x="277.5" y="-55" font-family="Helvetica,sans-Serif" font-size="10.00">Functions.DeleteBook</text>
</a>
</g>
</g>
<!-- Node4&#45;&gt;Node8 -->
<g id="edge11" class="edge">
<title>Node4&#45;&gt;Node8</title>
<path fill="none" stroke="#63b8ff" d="M448.01,-161.95C428.13,-139.5 395.65,-106.6 361,-87 355.29,-83.77 349.1,-80.94 342.77,-78.47"/>
<polygon fill="#63b8ff" stroke="#63b8ff" points="445.3,-164.17 454.49,-169.43 450.59,-159.58 445.3,-164.17"/>
</g>
<!-- Node9 -->
<g id="node9" class="node">
<title>Node9</title>
<g id="a_node9"><a xlink:href="classce103__hw3__library__lib_1_1_book_functions.html#ac536d1aa3a17ba7ce32e8d9ea0cd4950" target="_top" xlink:title=" ">
<polygon fill="white" stroke="#666666" points="346,-404 209,-404 209,-374 346,-374 346,-404"/>
<text text-anchor="start" x="217" y="-392" font-family="Helvetica,sans-Serif" font-size="10.00">ce103_hw3_library_lib.Book</text>
<text text-anchor="middle" x="277.5" y="-381" font-family="Helvetica,sans-Serif" font-size="10.00">Functions.EditBook</text>
</a>
</g>
</g>
<!-- Node4&#45;&gt;Node9 -->
<g id="edge13" class="edge">
<title>Node4&#45;&gt;Node9</title>
<path fill="none" stroke="#63b8ff" d="M459.44,-212.07C445.27,-251.17 413.18,-324.71 361,-365 356.51,-368.46 351.54,-371.43 346.33,-373.97"/>
<polygon fill="#63b8ff" stroke="#63b8ff" points="462.7,-213.36 462.7,-202.76 456.09,-211.05 462.7,-213.36"/>
</g>
<!-- Node10 -->
<g id="node10" class="node">
<title>Node10</title>
<g id="a_node10"><a xlink:href="classce103__hw3__library__lib_1_1_book_functions.html#ae4b718abfd1ef505ca816bada5a5053f" target="_top" xlink:title=" ">
<polygon fill="white" stroke="#666666" points="346,-356 209,-356 209,-326 346,-326 346,-356"/>
<text text-anchor="start" x="217" y="-344" font-family="Helvetica,sans-Serif" font-size="10.00">ce103_hw3_library_lib.Book</text>
<text text-anchor="middle" x="277.5" y="-333" font-family="Helvetica,sans-Serif" font-size="10.00">Functions.ListBook</text>
</a>
</g>
</g>
<!-- Node4&#45;&gt;Node10 -->
<g id="edge15" class="edge">
<title>Node4&#45;&gt;Node10</title>
<path fill="none" stroke="#63b8ff" d="M453.97,-211.11C436.14,-240.75 402.62,-289.46 361,-317 356.02,-320.29 350.59,-323.14 344.96,-325.61"/>
<polygon fill="#63b8ff" stroke="#63b8ff" points="456.81,-213.2 458.84,-202.8 450.77,-209.66 456.81,-213.2"/>
</g>
<!-- Node11 -->
<g id="node11" class="node">
<title>Node11</title>
<g id="a_node11"><a xlink:href="classce103__hw3__library__lib_1_1_book_functions.html#abc272bb655ce11abfa5cb33d995132b7" target="_top" xlink:title=" ">
<polygon fill="white" stroke="#666666" points="346,-308 209,-308 209,-278 346,-278 346,-308"/>
<text text-anchor="start" x="217" y="-296" font-family="Helvetica,sans-Serif" font-size="10.00">ce103_hw3_library_lib.Book</text>
<text text-anchor="middle" x="277.5" y="-285" font-family="Helvetica,sans-Serif" font-size="10.00">Functions.ListBorrowBook</text>
</a>
</g>
</g>
<!-- Node4&#45;&gt;Node11 -->
<g id="edge17" class="edge">
<title>Node4&#45;&gt;Node11</title>
<path fill="none" stroke="#63b8ff" d="M443.89,-209.06C423.32,-227.6 392.2,-253.1 361,-269 354.62,-272.25 347.73,-275.13 340.75,-277.65"/>
<polygon fill="#63b8ff" stroke="#63b8ff" points="446.18,-211.7 451.18,-202.36 441.44,-206.55 446.18,-211.7"/>
</g>
<!-- Node12 -->
<g id="node12" class="node">
<title>Node12</title>
<g id="a_node12"><a xlink:href="classce103__hw3__library__lib_1_1_book_functions.html#af9a659e47a42e3f7ec1a29e280282a51" target="_top" xlink:title=" ">
<polygon fill="white" stroke="#666666" points="346,-260 209,-260 209,-230 346,-230 346,-260"/>
<text text-anchor="start" x="217" y="-248" font-family="Helvetica,sans-Serif" font-size="10.00">ce103_hw3_library_lib.Book</text>
<text text-anchor="middle" x="277.5" y="-237" font-family="Helvetica,sans-Serif" font-size="10.00">Functions.ReturnBook</text>
</a>
</g>
</g>
<!-- Node4&#45;&gt;Node12 -->
<g id="edge19" class="edge">
<title>Node4&#45;&gt;Node12</title>
<path fill="none" stroke="#63b8ff" d="M410.88,-205.07C394.78,-210.34 377.23,-215.98 361,-221 351.88,-223.82 342.16,-226.73 332.72,-229.5"/>
<polygon fill="#63b8ff" stroke="#63b8ff" points="411.91,-208.41 420.32,-201.97 409.73,-201.76 411.91,-208.41"/>
</g>
<!-- Node13 -->
<g id="node13" class="node">
<title>Node13</title>
<g id="a_node13"><a xlink:href="classce103__hw3__library__lib_1_1_book_functions.html#a81bb6f1f81a84ca37529ce32a397df10" target="_top" xlink:title=" ">
<polygon fill="white" stroke="#666666" points="346,-452 209,-452 209,-422 346,-422 346,-452"/>
<text text-anchor="start" x="217" y="-440" font-family="Helvetica,sans-Serif" font-size="10.00">ce103_hw3_library_lib.Book</text>
<text text-anchor="middle" x="277.5" y="-429" font-family="Helvetica,sans-Serif" font-size="10.00">Functions.SearchBook</text>
</a>
</g>
</g>
<!-- Node4&#45;&gt;Node13 -->
<g id="edge21" class="edge">
<title>Node4&#45;&gt;Node13</title>
<path fill="none" stroke="#63b8ff" d="M462.95,-212.45C452.53,-259.8 424.1,-359.13 361,-413 356.58,-416.78 351.58,-419.96 346.3,-422.64"/>
<polygon fill="#63b8ff" stroke="#63b8ff" points="466.35,-213.32 464.97,-202.81 459.5,-211.88 466.35,-213.32"/>
</g>
<!-- Node14 -->
<g id="node14" class="node">
<title>Node14</title>
<g id="a_node14"><a xlink:href="classce103__hw3__library__lib_1_1library.html#a261e9b866de5ed430c5888e32120a346" target="_top" xlink:title=" ">
<polygon fill="white" stroke="#666666" points="349.5,-30 205.5,-30 205.5,0 349.5,0 349.5,-30"/>
<text text-anchor="start" x="213.5" y="-18" font-family="Helvetica,sans-Serif" font-size="10.00">ce103_hw3_library_lib.library.</text>
<text text-anchor="middle" x="277.5" y="-7" font-family="Helvetica,sans-Serif" font-size="10.00">Start</text>
</a>
</g>
</g>
<!-- Node4&#45;&gt;Node14 -->
<g id="edge23" class="edge">
<title>Node4&#45;&gt;Node14</title>
<path fill="none" stroke="#63b8ff" d="M456.02,-160.3C439.34,-127.33 406.02,-70.62 361,-39 356.36,-35.74 351.28,-32.92 346,-30.48"/>
<polygon fill="#63b8ff" stroke="#63b8ff" points="452.81,-161.71 460.36,-169.14 459.09,-158.63 452.81,-161.71"/>
</g>
<!-- Node5&#45;&gt;Node3 -->
<g id="edge5" class="edge">
<title>Node5&#45;&gt;Node3</title>
<path fill="none" stroke="#63b8ff" d="M357.83,-206.08C370.91,-207.47 384.33,-208.83 397,-210 457.49,-215.61 526.29,-220.73 576.54,-224.23"/>
<polygon fill="#63b8ff" stroke="#63b8ff" points="358.27,-202.6 347.96,-205.01 357.52,-209.56 358.27,-202.6"/>
</g>
<!-- Node6&#45;&gt;Node3 -->
<g id="edge7" class="edge">
<title>Node6&#45;&gt;Node3</title>
<path fill="none" stroke="#63b8ff" d="M372.61,-145.08C423.51,-143.17 486.86,-145.55 541,-162 575.6,-172.51 610.05,-197.31 630.17,-213.61"/>
<polygon fill="#63b8ff" stroke="#63b8ff" points="372.64,-141.58 362.8,-145.52 372.95,-148.57 372.64,-141.58"/>
</g>
<!-- Node7&#45;&gt;Node3 -->
<g id="edge10" class="edge">
<title>Node7&#45;&gt;Node3</title>
<path fill="none" stroke="#63b8ff" d="M357.6,-108.5C411.3,-109.53 482.85,-116.34 541,-141 580.19,-157.62 616.34,-193.32 634.92,-213.78"/>
<polygon fill="#63b8ff" stroke="#63b8ff" points="357.98,-105.01 347.94,-108.38 357.89,-112.01 357.98,-105.01"/>
</g>
<!-- Node8&#45;&gt;Node3 -->
<g id="edge12" class="edge">
<title>Node8&#45;&gt;Node3</title>
<path fill="none" stroke="#63b8ff" d="M357.59,-62.57C412.22,-65.43 484.85,-75.71 541,-107 587.51,-132.92 623.67,-187.07 639.41,-213.63"/>
<polygon fill="#63b8ff" stroke="#63b8ff" points="357.88,-59.08 347.73,-62.13 357.57,-66.07 357.88,-59.08"/>
</g>
<!-- Node9&#45;&gt;Node3 -->
<g id="edge14" class="edge">
<title>Node9&#45;&gt;Node3</title>
<path fill="none" stroke="#63b8ff" d="M357.51,-375.85C411.32,-364.82 483.03,-345.95 541,-316 578.01,-296.88 614.14,-263.56 633.49,-244.17"/>
<polygon fill="#63b8ff" stroke="#63b8ff" points="356.91,-372.4 347.79,-377.79 358.28,-379.27 356.91,-372.4"/>
</g>
<!-- Node10&#45;&gt;Node3 -->
<g id="edge16" class="edge">
<title>Node10&#45;&gt;Node3</title>
<path fill="none" stroke="#63b8ff" d="M357.81,-329.33C410.68,-320.21 481.19,-305.45 541,-284 570.29,-273.5 601.74,-256.59 622.9,-244.29"/>
<polygon fill="#63b8ff" stroke="#63b8ff" points="357.24,-325.88 347.96,-331 358.41,-332.78 357.24,-325.88"/>
</g>
<!-- Node11&#45;&gt;Node3 -->
<g id="edge18" class="edge">
<title>Node11&#45;&gt;Node3</title>
<path fill="none" stroke="#63b8ff" d="M357.61,-285.77C409.97,-280.24 479.96,-271.44 541,-259 560,-255.13 580.57,-249.67 598.55,-244.47"/>
<polygon fill="#63b8ff" stroke="#63b8ff" points="357.47,-282.26 347.89,-286.77 358.2,-289.22 357.47,-282.26"/>
</g>
<!-- Node12&#45;&gt;Node3 -->
<g id="edge20" class="edge">
<title>Node12&#45;&gt;Node3</title>
<path fill="none" stroke="#63b8ff" d="M357.49,-246.91C409.65,-247.56 479.47,-247.24 541,-243 552.59,-242.2 564.84,-240.97 576.75,-239.56"/>
<polygon fill="#63b8ff" stroke="#63b8ff" points="357.86,-243.42 347.81,-246.78 357.76,-250.42 357.86,-243.42"/>
</g>
<!-- Node13&#45;&gt;Node3 -->
<g id="edge22" class="edge">
<title>Node13&#45;&gt;Node3</title>
<path fill="none" stroke="#63b8ff" d="M357.53,-424.15C412.48,-412.44 485.54,-391.12 541,-354 585.63,-324.13 622.42,-270.72 638.81,-244.45"/>
<polygon fill="#63b8ff" stroke="#63b8ff" points="357.01,-420.68 347.92,-426.13 358.42,-427.54 357.01,-420.68"/>
</g>
<!-- Node14&#45;&gt;Node2 -->
<g id="edge26" class="edge">
<title>Node14&#45;&gt;Node2</title>
<path fill="none" stroke="#63b8ff" d="M361.18,-25.02C413.42,-32.52 481.96,-44.52 541,-62 648.45,-93.81 769.69,-152.63 816.06,-176.02"/>
<polygon fill="#63b8ff" stroke="#63b8ff" points="361.85,-21.58 351.46,-23.65 360.87,-28.51 361.85,-21.58"/>
</g>
<!-- Node15 -->
<g id="node15" class="node">
<title>Node15</title>
<g id="a_node15"><a xlink:href="classce103__hw3__library__lib_1_1_password_content.html#a4c3fd18dd3032675ace132457ebaedba" target="_top" xlink:title=" ">
<polygon fill="white" stroke="#666666" points="158,-30 0,-30 0,0 158,0 158,-30"/>
<text text-anchor="start" x="8" y="-18" font-family="Helvetica,sans-Serif" font-size="10.00">ce103_hw3_library_lib.Password</text>
<text text-anchor="middle" x="79" y="-7" font-family="Helvetica,sans-Serif" font-size="10.00">Content.password</text>
</a>
</g>
</g>
<!-- Node14&#45;&gt;Node15 -->
<g id="edge24" class="edge">
<title>Node14&#45;&gt;Node15</title>
<path fill="none" stroke="#63b8ff" d="M193.5,-15C181.87,-15 169.95,-15 158.41,-15"/>
<polygon fill="#63b8ff" stroke="#63b8ff" points="193.49,-18.5 203.49,-15 193.49,-11.5 193.49,-18.5"/>
</g>
<!-- Node15&#45;&gt;Node15 -->
<g id="edge25" class="edge">
<title>Node15&#45;&gt;Node15</title>
<path fill="none" stroke="#63b8ff" d="M112.49,-41.61C107.13,-45.43 95.96,-48 79,-48 47.98,-48 36.35,-39.41 44.11,-30.28"/>
<polygon fill="#63b8ff" stroke="#63b8ff" points="115.95,-42.13 113.71,-31.78 109.01,-41.27 115.95,-42.13"/>
</g>
</g>
</svg>
        <g id="navigator" transform="translate(0 0)" fill="#404254">
                <rect fill="#f2f5e9" fill-opacity="0.5" stroke="#606060" stroke-width=".5" x="0" y="0" width="60" height="60"/>
                <use id="zoomplus" xlink:href="#zoomPlus" x="17" y="9" onmousedown="handleZoom(evt,'in')"/>
                <use id="zoomminus" xlink:href="#zoomMin" x="42" y="9" onmousedown="handleZoom(evt,'out')"/>
                <use id="reset" xlink:href="#resetDef" x="30" y="36" onmousedown="handleReset()"/>
                <g id="arrowUp" xlink:href="#dirArrow" transform="translate(30 24)" onmousedown="handlePan(0,-1)">
                  <use xlink:href="#rim" fill="#404040">
                        <set attributeName="fill" to="#808080" begin="arrowUp.mouseover" end="arrowUp.mouseout"/>
                  </use>
                  <path fill="none" stroke="white" stroke-width="1.5" d="M0,-3.0v7 M-2.5,-0.5L0,-3.0L2.5,-0.5"/>
                </g>
                <g id="arrowRight" xlink:href="#dirArrow" transform="rotate(90) translate(36 -43)" onmousedown="handlePan(1,0)">
                  <use xlink:href="#rim" fill="#404040">
                        <set attributeName="fill" to="#808080" begin="arrowRight.mouseover" end="arrowRight.mouseout"/>
                  </use>
                  <path fill="none" stroke="white" stroke-width="1.5" d="M0,-3.0v7 M-2.5,-0.5L0,-3.0L2.5,-0.5"/>
                </g>
                <g id="arrowDown" xlink:href="#dirArrow" transform="rotate(180) translate(-30 -48)" onmousedown="handlePan(0,1)">
                  <use xlink:href="#rim" fill="#404040">
                        <set attributeName="fill" to="#808080" begin="arrowDown.mouseover" end="arrowDown.mouseout"/>
                  </use>
                  <path fill="none" stroke="white" stroke-width="1.5" d="M0,-3.0v7 M-2.5,-0.5L0,-3.0L2.5,-0.5"/>
                </g>
                <g id="arrowLeft" xlink:href="#dirArrow" transform="rotate(270) translate(-36 17)" onmousedown="handlePan(-1,0)">
                  <use xlink:href="#rim" fill="#404040">
                        <set attributeName="fill" to="#808080" begin="arrowLeft.mouseover" end="arrowLeft.mouseout"/>
                  </use>
                  <path fill="none" stroke="white" stroke-width="1.5" d="M0,-3.0v7 M-2.5,-0.5L0,-3.0L2.5,-0.5"/>
                </g>
        </g>
        <svg viewBox="0 0 15 15" width="100%" height="30px" preserveAspectRatio="xMaxYMin meet">
         <g id="arrow_out" transform="scale(0.3 0.3)">
          <a xlink:href="classce103__hw3__library__lib_1_1_menu_af4dab9715ef5ee639001951ec8c3d5e2_icgraph_org.svg" target="_base">
           <rect id="button" ry="5" rx="5" y="6" x="6" height="38" width="38"
                fill="#f2f5e9" fill-opacity="0.5" stroke="#606060" stroke-width="1.0"/>
           <path id="arrow"
             d="M 11.500037,31.436501 C 11.940474,20.09759 22.043105,11.32322 32.158766,21.979434 L 37.068811,17.246167 C 37.068811,17.246167 37.088388,32 37.088388,32 L 22.160133,31.978069 C 22.160133,31.978069 26.997745,27.140456 26.997745,27.140456 C 18.528582,18.264221 13.291696,25.230495 11.500037,31.436501 z"
             style="fill:#404040;"/>
          </a>
         </g>
        </svg>
</svg>
